<mxfile host="app.diagrams.net" modified="2024-02-12T11:11:03.657Z" agent="Mozilla/5.0 (Windows NT 10.0; Win64; x64) AppleWebKit/537.36 (KHTML, like Gecko) Chrome/121.0.0.0 Safari/537.36" etag="m2tFoeEwvZzccW9gpAyg" version="23.1.2" type="github">
  <diagram id="C5RBs43oDa-KdzZeNtuy" name="Page-1">
    <mxGraphModel dx="281" dy="651" grid="1" gridSize="10" guides="1" tooltips="1" connect="1" arrows="1" fold="1" page="1" pageScale="1" pageWidth="827" pageHeight="1169" math="0" shadow="0">
      <root>
        <mxCell id="WIyWlLk6GJQsqaUBKTNV-0" />
        <mxCell id="WIyWlLk6GJQsqaUBKTNV-1" parent="WIyWlLk6GJQsqaUBKTNV-0" />
        <mxCell id="icJmU0yewY3uBlg8J3vb-2" value="" style="shape=image;verticalLabelPosition=bottom;labelBackgroundColor=default;verticalAlign=top;aspect=fixed;imageAspect=0;image=data:image/png,iVBORw0KGgoAAAANSUhEUgAAAuYAAASwCAYAAAC3no+DAAAAAXNSR0IArs4c6QAAIABJREFUeF7snQeYVEXWho8JJIoCBsQACmJOmCOYI4Z1VVDMWQxrWgMgLphwzQqYdc0JBQPmQDBnMIESVDCgqJgx/M979j+z13Zm6JnpcLv76+cZZ6b73ltVbxXjW+eeqjvPH3/88YfpJQIiIAIiIAIiIAIiIAIiUFQC80jMi8pfhYuACIiACIiACIiACIiAE5CYayCIgAiIgAiIgAiIgAiIQAoISMxT0AmqggiIgAiIgAiIgAiIgAhIzDUGREAEREAEREAEREAERCAFBCTmKegEVUEEREAEREAEREAEREAEJOYaAyIgAiIgAiIgAiIgAiKQAgIS8xR0gqogAiIgAiIgAiIgAiIgAhJzjQEREAEREAEREAEREAERSAEBiXkKOkFVEAEREAEREAEREAEREAGJucaACIiACIiACIiACIiACKSAgMQ8BZ2gKoiACIiACIiACIiACIiAxFxjQAREQAREQAREQAREQARSQEBinoJOUBVEQAREQAREQAREQAREQGKuMSACIiACIiACIiACIiACKSAgMU9BJ6gKIiACIiACIiACIiACIiAx1xgQAREQAREQAREQAREQgRQQkJinoBNUBREQAREQAREQAREQARGQmGsMiIAIiIAIiIAIiIAIiEAKCEjMU9AJqoIIiIAIiIAIiIAIiIAISMw1BkRABERABERABERABEQgBQQk5inoBFVBBERABERABERABERABCTmGgMiIAIiIAIiIAIiIAIikAICEvMUdIKqIAIiIAIiIAIiIAIiIAISc40BERABERABERABERABEUgBAYl5CjpBVRABERABERABERABERABibnGgAiIgAiIgAiIgAiIgAikgIDEPAWdoCqIgAiIgAiIgAiIgAiIgMRcY0AEREAEREAEREAEREAEUkBAYp6CTlAVREAEREAEREAEREAEREBirjEgAiIgAiIgAiIgAiIgAikgIDFPQSeoCiIgAiIgAiIgAiIgAiIgMdcYEAEREAEREAEREAEREIEUEJCYp6ATVAUREAEREAEREAEREAERkJhrDIiACIiACIiACIiACIhACghIzFPQCaqCCIiACIiACIiACIiACEjMNQZEQAREQAREQAREQAREIAUEJOYp6ARVQQREQAREQAREQAREQAQk5hoDIiACIiACIiACIiACIpACAhLzFHSCqiACIiACIiACIiACIiACEnONAREQAREQAREQAREQARFIAQGJeQo6QVUQgVIg8Mcff3g155lnnlKoruooAiIgAiIgAiVHQGJecl2mCotA4QmElEvMC89eJeaeAOM5OaYpYd555819QbqiCIiACNSRgMS8jsB0uAiUO4FkZDwpMPz8+++/22+//fYXqSl3Jmpf6RPInFxy52e++ebzr+SEM+4IcbzuDpV+v6sFIlBqBCTmpdZjqq8IFIBAppx/++239uGHH9qECRNs6tSpNmvWLJszZ46LOvIigSlAp6iIehNISjmR8aZNm1q7du2sS5cutsIKK9jiiy9uCyywgMZzvQnrRBEQgVwRkJjniqSuIwJlRCCE+6effrI333zTxo4da6+99ppNnz7dI+bJCGPmz2WEQU0pEwKZaSv8jqC3bNnSll9+eVt//fVt4403ttatW3sEXZPNMul4NUMESpCAxLwEO01VFoF8EQiBQb6/+eYbe+6552zkyJH21ltvWePGja1z58629NJL28ILL2yNGjVSpDxfHaHr5o0Ak87vvvvOPv30U5s0aZJ9/PHHtsgii9i2227rX0sttZQtuOCCkvO89YAuLAIiUBsBibnGhwiIgBNISjmpKk8//bTdeOONLuhrr722bbPNNrbuuutakyZNtFBOY6ZkCFSXZsVY/+WXXzwt68knn/SvadOm2a677mq77babT0BJbdHdoJLpZlVUBMqGgMS8bLpSDRGBhhEgksiL9JXRo0fb+eef7z/36tXLtt9+e8/DJWqemRbQsFJ1tggUnkDIOneGZs+e7XeErrzySk/b6t27t/Xs2dMj5xLzwveNShSBSicgMa/0EaD2i0AiWg4MIoennnqqvfzyy3baaafZTjvtZK1ataq6ta+Fnhoy5UAgJph8//nnn23y5MnWp08fY6HzUUcdZfvtt59PQrWNYjn0ttogAqVDQGJeOn2lmopA3giEpHz99df2yCOP2EUXXeSL4Q455BDr0KFD1bZykvK8dYEuXCQCsQXor7/+avfcc49dc8011qlTJzv22GNt5ZVXlpwXqV9UrAhUKgGJeaX2vNotAgkCIebvvfeeXXzxxb4t4hlnnOFyTk45L0UONWTKiUAyJSvSuL744gvr16+fbw26zz77KGpeTh2utohAiRCQmJdIR6maIpBvAuTbsi3i6aefbksuuaQNHDjQlltuOe28km/wun7RCcSDtLgjxN2i+++/3zbYYAMbMGCALwLVpLToXaQKiEDFEJCYV0xXq6EiUDsB8mxHjRrlYr7jjjvaMccc4w9h0UsEKoFA7N1POst1111niy66qN89Yq9ziXkljAC1UQTSQUBino5+UC1EoOgEfvzxRxsxYoSnsBx22GF+G79t27ZFr5cqIAKFIBBi/tRTT9lll13m6yquuOIKa9Omjf9MVF1rLArREypDBCqbgMS8svtfrReBKgI//PCD3XfffS7mxx13nOfY8uAVvUSg3Akg3Yg5kXHSuUhnIbVr6NChVWIuKS/3UaD2iUA6CEjM09EPqoUIFJ3A999/72Let29fO/74433/col50btFFSgAgdrEnLtGCLvEvAAdoSJEQARMYq5BIAIi4AQk5hoIlUogufgzGTEfMmSI55qTyqKXCIiACBSCgMS8EJRVhgiUAAGJeQl0kqqYFwIS87xg1UVFQATqQUBiXg9oOkUEypGAxLwce1VtyoZA7GlOusqYMWOqcswVMc+Gno4RARHIJQGJeS5p6loiUMIEJOYl3HmqeoMJxK4rEvMGo9QFREAEGkBAYt4AeDpVBMqJQOzKEos/e/bsqcWf5dTBakuNBCKVhUWeEnMNFBEQgWISkJgXk77KFoEUEVDEPEWdoaoUlIDEvKC4VZgIiEAtBCTmGh4iIAJOQGKugVCpBCTmldrzarcIpI+AxDx9faIaiUBRCEjMi4JdhaaAgMQ8BZ2gKoiACDgBibkGggiIgCLmGgMVTUBiXtHdr8aLQKoISMxT1R2qjAgUj4Ai5rWzj107ctFDubxWLuqTvEaa65brtsb1JOb5IqvrioAI1JWAxLyuxHS8CJQpAYl5zR0b4ua3GeeZp+rAzMe013RcpvjyOzuAVPd+bY9+j/225zYEk9f4/fffLSnbfMZXXCt5zTiv0h4/LzGf24jS5yIgAoUiIDEvFGmVIwIpJyAxr76DQtoQ3EwpT8o1x4UEh8BzPO+FiCefMMm5cb04N2qQKe2Zx9UW1Q7xDvmO8uP35LWScs77lJtZdsqHbU6qJzHPCUZdRAREIAcEJOY5gKhLiEA5EJCYV9+Lv/76q7HHO3z4GYGdb775rFmzZtakSRObf/75/cRffvnFfvzxxyoRT0aikyLNzwsssICf26hRI49cI89cn2s0btzYmjZt+hdB5piffvrJv6oTc4Sa63J+1Onnn3/246PeMWHIrBvvR5u4RhxXDuM6mzZIzLOhpGNEQAQKQUBiXgjKKkMESoCAxPyvnYQoT58+3V599VV77bXXbNasWX5QmzZtbLXVVrM11ljDllxySZfo999/31555RX77rvvqiLhEUEPkeY43mvbtq2tvvrqtsIKK7hkf/311/5gG8pafvnlrWvXrtayZcuqCnEex4wfP96/fvvttz9F7zkQ0W/Xrp117NjR64T0v/nmm378N9984+IdQp5MZYlIeatWrWyzzTazRRdd1I+tpJfEvJJ6W20VgXQTkJinu39UOxEoGAGJ+f9QI77I8EsvvWS33HKLjRo1yoWbSDTRZ14LL7ywbbTRRrb33nu7SN9555129dVX24wZM6pyuJOpK8kUki5duljv3r2tV69eRlT7mWeescsuu8zeeust22CDDeyII47wa4fQc+4HH3xg//nPf+z222/3yHrmi2OaN29uXJvrbr755nbTTTf58R9//HFVBD6Z4hLpNJTDhGDQoEG25pprutRX0ktiXkm9rbaKQLoJSMzT3T+qnQgUjIDE/L+oI6o8c+ZMGzp0qN16662eWrLDDjt4JHrOnDkuyWPHjvUI+jbbbGOnnnqqTZw40UaPHu2RbeSX8xHtt99+29Zaay1bZZVVrEWLFl7GEkss4eK93nrreZrMhRdeaNdee61NnTrVVlppJTv88MNdzkOiEWiuH/UhKr7JJptUfU4UnnKJ2n/44YfWqVMnO+ecc7wOEeknCs4xzz77rE2bNs3WX399W3nllT3SzotI+e67727LLLOMIuYXXeR3JYYMGVKRdxAK9kdHBYmACPw1yPJHtsv8BU8ERKCsCUjM/yvlSC4i/Pzzz9vgwYNdiHv27Gl77bWXtW7d2o8h5eS2226zu+66yxZaaCE7//zzPeJMjjnijlBPmTLFP+frgAMOsN12280WX3xxH0PkgZM6QoQbGT/llFNcoImEE5Xfcsst7dxzz/Vr84qIOaI4fPhw22677ezYY4+tSk+JHHUi/Nddd51PBi655BKXf3LGqRNtQsip67hx4+y4446zHj16eMoM1ydKTorNggsuWHELQBUxL+s/bWqcCJQUAUXMS6q7VFkRyB8Bifl/xZxIKdFlBPjSSy91Uf/HP/5h2267rctr7FpCTjjS/cUXX7h4k4JCZD3EHqFHkocNG2bHH3+87b///rbUUkv9qQNJY3n00Uft7LPP9rx10mPeeecdl2Ui3qTIRHlE6RHzESNG2N/+9jcbMGCAS3e8kGvOZTJBWk3//v19MhFl0jaucdJJJ9kTTzxhAwcO9HQaJgjJV6VtlRh3SeADa/r1IkXM8/eHRlcWARGolYDEXANEBETACUjM/xwxR5gRtMmTJ9suu+ziaR6ke7AbCwJOFJrcbdJDSC0hmh5Si+C99957LuakqBx11FF2yCGHeCpMcq9wFmUSGR85cqTnqhN1R7zfeOMNO/jgg+3II4/06DqvpJhTn7POOssnEJSFVCL5pM6EvJ933nkeEafOsQiVNBfE/Omnn7Z+/frZfvvt5xOCmExU4laJEnP9ARQBEUgTAYl5mnpDdRGBIhKQmP8XfuxX/tFHH9nll1/u0Wei6EgzOdnLLbecf5GLjdSSjsJXcnEn10HMkfJrrrnG+vTpY4ceeqi1b9/ej+OLRaSkuyDH3377rUe42eWFBZ7XX3+956VfddVVLvwI+KRJk+zKK6+0e++917bYYgs74YQTqrZmZEvETz75xKO9LFTleOq+9tpre2pKpGog5kTvn3rqKRd7Iuakr1T6S6kslT4C1H4RSA8BiXl6+kI1EYGiEpCY/xd/SBri/PLLL9v999/vizq//PLLqsgyUXPyxZHnrbfe2tZdd11Pc4kHCvH93Xff9V1aiJonxTx2WmHh6OOPP+755VyHdJlVV13VI+akozAZQMSRa8Qf0ScafuONN3r6CROFiIRTV6LvpNUg4kwC9t13X69jbJPIsYg5Qv/kk0/amWee6ZMCifn/+lypLEX9E6TCRUAEWFOkxZ8aByIgAhCQmP9vHIQ8s5gTISdlhZxxdj0hys3iSt5joeaGG25oJ554oks1O5xExJ18b6LliPkxxxxTlcoS6+2JgJPDfs8999jGG29s3bt3d5HmvPvuu8+I2LPAE3kmBYayEXXEnEg92yJSVjzZE9En7Ybrk+pCykqHDh28jrGolXQYxJyIORF6rk2qS6W/FDGv9BGg9otAeghIzNPTF6qJCBSVgMT8z2KOgBOFZkEm2xvOnj3b88lJO2FXFnY2eeSRR3xLwgMPPNC3OCT6XJ2YEzFP5piTn862hSeffLILP0LODixINLnin3/+uZfHrirkivMwI6LdRMzvvvtufxAQZcYTPhFL6vXCCy/4vuX8fsUVV/j5RPdDzLkGk4gQc6Wy/PkuiSLmRf0TpMJFQAQUMdcYEAERCAIS8z9LGnnebJnIA3f22WcfTychvSSi6USnEWUe4kM6C+knRLZri5gj+Mgf4s2OLqSTLL300p67ziJPzkW2idKz9SEvtj3k+p999lnVwk4WohLxjoWh1Il0FsSca1Jv6s95TCySiz8l5n/9N6+Iuf4OioAIpIWAIuZp6QnVQwSKTEBi/r9dWcgRR3CRbqSZHUzIAw/BRYiJmpNawgJN9hVne8N27dpV5aFHKguCHBFzxJwXe5azOJP8ddJV2IqRvPGQftJcSIMhF5z9xtmOkUkBDxjinF133dUXbyLxsZiU606YMMG3XnzwwQf9WOq1yCKL1CrmpMVU4haJyX9uEvMi//FR8SIgAlUEJOYaDCIgAk5AYv7n7RLJ/Ua82e1k55139j3B2V+ciDcPAiIV5Y477nBBZ7El+dpEp2M/7BBzcsLZ9jBSWUhVIYcckeepnzxZlFSV2D2FvpgxY4bvvtK3b19/OijfEWgmAQ888IDXBwGP7RI5h3JZcHrBBRd43jrXR+CZDMSEgig/OebPPPOMTzZYIKrFn1r8qT+BIiAC6SEgMU9PX6gmIlBUAhLzP+Mnd5xdVW6++WbPNWerQyQXgeYzntiJDHfr1s1OPfVUT2OJhZbIO2LOdom33HKLSzlfpK1wHu8TjSdNhnSYZNSaa7LolKg6kXKuycOEWFzKVopEzHfYYQcbNGiQfxZ7j3NeLCjlqaQ8rZS8dyL+yVQWxPy5556z008/3Xr16iUxT+zEoxzzov4JUuEiIALKMdcYEAERCAIS8z+PBVJHWADKw3jY1hChJsKNvLE1IpJONHurrbZyaY60kkhHYdcWHlLE10477eTpKgg4iz2JerOzC1LPQ4DYzYVXpJQg0uSUE7FndxYi35TBglO2bmQnGPLeqUsyDYVz2MecBxax1zoRcc4LMedzUmvefPNNf6AR5bPotNJfSmWp9BGg9otAeggoYp6evlBNRKCoBCTmf8XPgkp2O0FoiZITOUdykVlyt0kDIX0l9jBPXoGUFbYwZCcXjuW4BRZYwOX+q6++Mh4KxPvkllf3xE3Kplz6heNYfMpOLdSBlJpIQUmKObu9UCbXpyy2QuQ8XrFANK7J+ZRNOkylvyTmlT4C1H4RSA8BiXl6+kI1EYGiEpCYV48faYvdWBBffkfEI1pd02PsY7/y5FUz30su3MwsPY7lmBDHOGZu5yXPrem62VyrqAOygIVLzAsIW0WJgAjUSkBirgEiAiLgBCTmNYt5LOiMNJWIQMf7NQ2h6uQ889iadkTJFPO6npesa21DvNJ3ZMnsyzFjxthFF13kkzHy/7nroLsK+iMpAiJQKAIS80KRVjkikHICEvOaO6i6SHeau7O2iHma612suiliXizyKlcEROAvQZc/sgnpiJsIiEDZE5CY10/Ms41MF3IAhWjWlvJSyPqkvSyJedp7SPUTgcohoIh55fS1WioCtRKQmGuAVCoBiXml9rzaLQLpIyAxT1+fqEYiUBQCEvOiYFehKSAgMU9BJ6gKIiACTkBiroEgAiLgBCTmGgiVSkBiXqk9r3aLQPoISMzT1yeqkQgUhYDEvCjYVWgKCEjMU9AJqoIIiIAi5hoDIiAC/yMgMddoqFQCEvNK7Xm1WwTSR0AR8/T1iWokAkUhIDEvCnYVmgICEvMUdIKqIAIioIi5xoAIiIAi5hoDIiAx1xgQARFICwFFzNPSE6qHCBSZgCLmRe4AFV80AhLzoqFXwSIgAhkEJOYaEiIgAk5AYq6BUKkEJOaV2vNqtwikj4DEPH19ohqJQFEIIOb333+/9evXz4455hjbZ599bJFFFilKXVSoCBSSQHVi/uuvv9qQIUNsscUWs/nmm6+Q1VFZIiACFUxAYl7Bna+mi0CSwA8//GAjRoxwMT/88MNtv/32s9atWwuSCJQ9AcSc1zzzzGPPPPOMXXLJJf7zFVdcYW3btpWYl/0IUANFID0EJObp6QvVRASKSuDnn3+2UaNG2RlnnGG77LKLHXnkkbbEEksUtU4qXAQKQeD333835Hzeeef1u0bXXHONT0oR9JYtW/r7eomACIhAIQhIzAtBWWWIQAkQQE5Gjx7tYt6hQwfr37+/dezYsSqSWAJNUBVFoM4EEPKkmF9++eU2fPhw69q1qw0cONAaNWrk0XO9REAERKAQBCTmhaCsMkSgRAiMHz/eBg8ebFOmTLGzzjrL1l133SoxQU4kKCXSkapmrQSQ8RjLSTH/9ttvrW/fvjZhwgTr2bOnHXrooR5J17jXgBIBESgUAYl5oUirHBFIOQEEZObMmTZy5EgjatijRw/PM2/Xrp3fyo8FcJKUlHekqjdXAsmccqLlv/32mwv4Y489ZhdccIGP+RNOOMHWWmstf5+Xxv1cseoAERCBHBCQmOcAoi4hAuVAAAFhJ4pJkyb5AlCi5sjJ1ltvbS1atPAmIufKty2H3q7sNoRsR7SccT9t2jQ77bTT7JNPPrHevXvbAQccYI0bN5aUV/ZQUetFoOAEJOYFR64CRSCdBCLPlm0TH3nkEV/41rx5c+vVq5dtueWWvhhugQUWSGflVSsRqAcBxjy7Eb3//vt29dVX+44su+++u4t5586dFS2vB1OdIgIi0DACEvOG8dPZIlA2BGIvZ2Tl888/twceeMBuu+02j5JvuummLudrrLGGNWnSpGzarIZUJgHSUn755RePjo8dO9ZTWF599VXr1q2b79+/+uqr+9oKXkphqcwxolaLQLEISMyLRV7likAKCSTlnHzzhx9+2L9mzJjheberrbaafye1Zf7555e05KEPSRVCBpkgxStSL/JQXMVdEpZEyb/44gubOHGivffee55jvsEGG9huu+1mK6ywgjVr1qyKi8S84oaIGiwCRSUgMS8qfhUuAuklEAIzbtw4T215/fXXjV0riJgTTdTTEHPTd0nxgzmSyCuZzx8TprqWWAlSmc2kJbkDCwyJliPnTIKWWWYZ22yzzWznnXeuepiQdiCq60jT8SIgArkiIDHPFUldRwTKkADSM2fOHN+thUWhb731lk2ePNlmzZrlcpONFJUhlrw1iYc8ffDBBx7N5e7Ewgsv/Kdt/fJWcAVcOOScCU/Tpk39zk+XLl1spZVWsqWWWsrf4xV3LCoAiZooAiKQQgIS8xR2iqokAmkhkIzURjSXiK7SLPLTQwj59ddfb2PGjLEBAwa4nJMyxEuToNwwR7zjKZ9IOl/JOwuKlueGs64iAiJQPwIS8/px01kiUJEEEPKQmGR6QCWkTOSzw+MhNixGHDZsmD+BddCgQbbOOutU7YRTXzEv577JlgkMgnFyshnvawvQfI5uXVsERKAuBCTmdaGlY0WgwgnoYSv5GQDBdfr06TZ06FAX87PPPtufvNqQiHk5S3n0xNzkvDoGmedUAqf8jFxdVQREINcEJOa5JqrriYAIiEAdCWQj5nW8pA4XAREQAREoQQIS8xLsNFVZBESgvAhIzMurP9UaERABEagvAYl5fcnpPBEQARHIEQGJeY5A6jIiIAIiUOIEJOYl3oGqvgiIQOkTkJiXfh+qBSIgAiKQCwIS81xQ1DVEQAREoAEEJOYNgKdTRUAERKCMCEjMy6gz1RQREIHSJCAxL81+U61FQAREINcEJOa5JqrriYAIiEAdCUjM6whMh4uACIhAmRKQmJdpx6pZIiACpUNAYl46faWaioAIiEA+CUjM80lX1xYBERCBLAhIzLOApENEQAREoAIISMwroJPVRBEQgXQTkJinu39UOxEQAREoFAGJeaFIqxwREAERqIGAxFxDQwREQAREAAISc40DERABESgyAYl5kTtAxYuACIhASghIzFPSEaqGCIhA5RKQmFdu36vlIiACIpAkIDHXeBABERCBIhOQmBe5A1S8CIiACKSEgMQ8JR2haoiACFQuAYl55fa9Wi4CIiACiphrDIiACIhAighIzFPUGaqKCIiACBSRgCLmRYSvokVABEQAAhJzjQMREAEREAEISMw1DkRABESgyAQk5kXuABUvAiIgAikhIDFPSUeoGiIgApVLQGJeuX2vlouACIhAkoDEXONBBERABIpMQGJe5A5Q8SIgAiKQEgIS85R0hKohAiJQuQQk5pXb92q5CIiACChirjEgAiIgAikiIDFPUWeoKiIgAiJQRAKKmBcRvooWAREQAQhIzDUOREAEREAEICAx1zgQAREQgSITkJjXrwPgNs8889TvZJ0lAiIgAikkIDFPYaeoSiIgApVFQGJe3/7+4/9PlJzXl6DOEwERSBcBiXm6+kO1EQERqEACEvP6dfoff/xu/w2Y8x/Jef0o6iwREIE0EZCYp6k3VBcREIGKJCAxr1+3S8zrx01niYAIpJeAxDy9faOaiYAIVAgBiXlDOpp0FkXLG0JQ54qACKSHgMQ8PX2hmoiACFQoAYl5hXa8mi0CIiACGQQk5hoSIiACIlBkAhLzIneAihcBERCBlBCQmKekI1QNERCByiUgMa/cvlfLRUAERCBJQGKu8SACIiACRSYgMS9yB6h4ERABEUgJAYl5SjpC1RABEahcAhLzyu17tVwEREAEFDHXGCg5AnrCX8l1mSpcBwIS8zrA0qEiIAIiUMYEFDEv485V00RABEqDgMS8NPpJtRQBERCBfBOQmOebsK4vAiIgAnMhIDHXEBEBERABEYCAxFzjQAREQASKTEBiXuQOUPEiIAIikBICEvOUdISqIQIiULkEJOaV2/dquQiIgAgkCUjMNR5EQAREoMgEJOZF7gAVLwIiIAIpISAxT0lHqBoiIAKVS0BiXrl9r5aLgAiIgCLmGgMiIAIikCICEvMUdYaqIgIiIAJFJKCIeRHhq2gREAERgEDs0//JJ5/Y0KFDbcxW3FbUAAAgAElEQVSYMXb22WfbOuusY/PNN5/NM888AiUCIiACIlABBCTmFdDJaqIIiEC6CYSYT58+/U9i3rVrV5t//vmrxD3drVDtREAEREAEGkpAYt5QgjpfBERABBpAACnna95557UQ89GjR9s555xjSTGnCEXOGwBap4qACIhACRCQmJdAJ6mKIiAC5UXgl19+sV9//dWaNm1qv/32W5WYz5gxwyPmmWIerZ8zZ47x1aRJExd5vURABERABMqLgMS8vPpTrREBEUg5AaLjn3/+uSHhCy20kC2yyCK24IILesrKp59+asOGDXMxHzRokEfMyTFH5L/55hubOXOmC3mnTp1sgQUWSHlLVT0REAEREIG6EpCY15WYjhcBERCBehL4/fffPR3l3Xfftbvuusteeukl69Wrl2244Ya26KKLurBfffXVvvjzX//6l6299tr2888/2zvvvGP33Xeff77jjjvaTjvtZI0aNapnLXSaCIiACIhAWglIzNPaM6qXCIhA2RGIbRFnz55tjz76qA0YMMBTWdZYYw3beuutbZlllrGHH37Ynn/+eTvllFOscePG9vjjj7uoEy3nmGOPPdY6dOigVJayGx1qkAiIgAiYScw1CkRABESggASImiPj7733nl122WV2xx13uGQvscQStvTSS9usWbM8zYVo+WeffWZTp061L7/80uX9iCOOsL/97W8u7KS46CUCIiACIlBeBCTm5dWfao0IiEDKCUTUnJzx5557ziPg06ZNq1rUSfVZGMoCz++++85bw88HHXSQHXXUUR4tJx1Giz9T3tGqngiIgAjUg4DEvB7QdIoIiIAINJQAUXNyxklZeeSRRzxVJbZO5NrIN18s8lx11VXt+OOPt913391/j88aWgedLwIiIAIikC4CEvN09YdqIwIiUAEEQsBZ2PnAAw/YeeedZ+PHj/dIeXwWUfEWLVrYAQccYAceeKCtuOKKTkdiXgGDRE0UARGoSAIS84rsdjVaBESgGATiCZ+UHQLOFolnnHGGjRw50r766qs/VQsBX2211ax///6+8JNtFeMaethQMXpQZYqACIhAfglIzPPLV1cXAREQgWoJINgsBGWP8jvvvNMuuugie+utt/zYeBIoeeSHHXaYHX300da5c+eq94VUBERABESgPAlIzMuzX9UqERCBFBOIBaDxnZ1X2Ld8+PDh9u233/rCTiLi7NJyySWX2Oabb27NmjWralEy8p7iZqpqIiACIiACdSQgMa8jMB0uApVKQDKY+56PdJaffvrJbrvtNhsyZIi9/vrrvhVi06ZNbY899rATTzzRll9+eS9cueW574O4Q6HUoPyw1VVFQATqRkBiXjdeOloEKpJARHaj8ckFihUJJEeNjnQWUlo++OADT2chrYX0lmWXXdbOP/98fypoy5Yt/yTmksi6d0ByDMcERxzrzlFniIAI5JeAxDy/fHV1ESh5Aplb+NEgRDJekpuGdXHI+Zw5c+zuu+/2qPnHH39s2223nZ155pnWpk2bP+1Zrv3L68c7U8zjDoQW09aPp84SARHIDwGJeX646qoiUBYEkrnQ/Mx2fl9//bX9+OOP/vTKpJxnRtXLAkCBGhHsJk6c6Cktb7/9tu233362xRZb+FM+9coNgZhEshd88+bN/Svy+TXhyQ1jXUUERKBhBCTmDeOns0WgrAkgjKRV8Jh4HobDI+InTZrkj4gnwhvRxmRUvayB5KFxyGJwJNccKZ8+fbqtv/76tsgii3heuV71J5DkFyksCPmSSy5pyyyzjC2++OLWtm1bl3Sxrj9nnSkCIpAbAhLz3HDUVUSgbAhEagUNImVl8uTJ9vDDD9u9995r77zzjkskixOTEca5CU19o+nVCX8uFkBWlzNfrA7MjNTOP//8zpeJD/y16Lb2nslm7CXHEby58wPb1q1b22abbWZ77bWXrbfeer5PfHJ8ze3axRozKlcERKB8CUjMy7dv1TIRqBeBEHOit6NGjbJbb73Vo7iLLrqode3a1VZYYQX/uUmTJlURxmwEpr5yXq9GlPBJIZEIZDDLhm91Ta7veSWM7y9VTzJExknBIh1rypQp9sYbb9i7777rY3nHHXe0ffbZx9q3b1+V3iJ+5TQS1BYRKA0CEvPS6CfVUgQKQiAitIjL/fff7zuEELndaKONrFu3bn77f6GFFvLIIlHdYohLrgW/GG1IdmZyIW3y/aSY836x61mQAZiHQpLjJX4mPeu7776zmTNn2oQJE+zRRx/1u0Hdu3e3Xr162SqrrOJyrrzzPHSILikCIlArAYm5BogIiIATiEjt999/b0899ZRddtll/n6PHj18hxDycZNymJSWXMtybV0SdShkmcUcIg2JmleCzM9tHFQ3XpLnzJ4921566SW/M0QEfdddd/XUFvaOrwR+xRzbKlsEROCvBCTmGhUiIAJVYs5t/g8//NAGDx7skrLvvvvaLrvs4rf3Q94DV7EEuVjlluIwqQSxzFbMM8dvcptEouc82Il949lxiJSWPffc01Nc9BIBERCBQhKQmBeStsoSgRQSSEZkSWEhr/zCCy/0B9scddRRttxyy6XmiZMNiR6nEL2qlAICsaaCSekdd9xhw4YNsy5dutg//vEPW3HFFf1OklJaUtBRqoIIVAgBiXmFdLSaKQI1EUjKLgvhePrk+PHjrX///p5bHos8KyH6qlFSeQRCzPnONqBnnHGGbwnau3dv30s+Keb6N1B540MtFoFCE5CYF5q4yhOBlBEIMef7uHHj7NRTT/VFngMHDvRoOS8JSco6TdXJKYGQc8Y5d4vuu+8+n5Tyb4DtKzX+c4pbFxMBEaiFgMRcw0MEKpxAcqcKdqc4/fTTbYcddrCjjz7aBV0vESh3AkkxZ7/+6667zhZbbDG7+OKLrUWLFp7Kov3ky30UqH0ikA4CEvN09INqIQJFJYB0sOhtxIgRfiv/sMMOswMOOMDatGmT03pJbnKKs6QullykmcYINNtWIuBPPvmk70jEdqBXXnmlP4SIn/USAREQgUIQkJgXgrLKEIESIMA2idzCR8yPO+4435GFR8I35CURbwi98jm3FMZBiPmYMWN8nQWLQYcMGeIP05KYl89YVEtEIO0EJOZp7yHVTwQKRAAxHz58uIs5O1KwZVx9xXxuW9hFk9IYOS0Q7oopprqxkLZ+jz38qdfYsWMl5hUzOtVQEUgfAYl5+vpENRKBohAIMe/bt68df/zx/gREbuPX50X0MSlf8TvvJaOnaRO0+rRV59ROIMQ8nnBKukja+j0p5hExp76KmGt0i4AIFJqAxLzQxFWeCKSUQKSyhJj37NmzzmKO4Pz00082a9Ys+/bbb+3nn382BIedLZo3b+45602bNvVc3rTJWUO6Jc2pGsm61bee9c0PD+FlDMycOdPHQ8uWLW3hhRduCO6cnxv1ZFyOHj3aF30qlSXnmHVBERCBLAhIzLOApENEoBIIJHPMiZhnm8qS3G6Rx5uzF/ozzzzjTw797LPPbM6cOS7lPKxliy22sLXXXttTZJB1XjWlvUR0nWNqkvjkHuzJPsoU0JqOy+zXzLoky61JTpHOmJCwgJZ93xdccEHPS66uHvFeXScmmeVnI9khnMGwprLnJt7RxphQJSPMwTDzbkiy7B9++MHuvvtumzx5sq2//vq27bbb+mnJPk5eJ7Mva/qspv6rD1vqS/uUY14Jf+3URhFILwGJeXr7RjUTgYISqK+YR5oK8vXwww/bNddcY6+99ppL6UILLeQC/s033/iuLx06dLBDDz3UdtppJ9+KMdIbQqT4PZn2Ek9cjM8zhZCoZghedVH4ZMQ2juNa8cV7IZ38zDWSdYpt8ignWTbvR91Cymn7s88+a5tuuql/MflIimyUEwJYlwWFnBt1iLon61DTQKGsZApJ8KVsrpOsU1wj6hzlxDlci/OSvDiG/s2c+MQx0T/0P2sXXn75ZeNODGsYYrFltCvZP9EXyX7nuKhTsrzoo6gn51LPujytMxkxjxzzX3/9VaksBf0LpMJEQAT87+AfNYWrxEcERKCiCCTFHHEixzybxZ/8CUG6iZAPGDDA3nnnHVtzzTWte/fu1qlTJxe3L774wqX1iSee8HSWY4891nbeeWePLiclK1OSI6KalOBk/nqmLNcU4Y7r8nmIXFwzxDUZgQ55jvJDcJP1SQohdwquuuoqu/POO/2JkX//+999N48QTL6HpEY5mZOO2gZblJ9klTnBqO78TDHnd+qRlOnk5CT4ZHJMlpsZha9uj+84Js4jremUU06xF1980cfViSeeWPVEzUwxT06wgnfmBC6TA21I9lE2bJK8kmJOxJxUFol5Rf35U2NFIDUEJOap6QpVRASKSyDEvF+/fr74k8hmtmL+wQcf+J7PpCt07drVH2W+7rrrVkWNiaaT4nLppZe6oO+xxx6+V/ryyy9fJcrfffedffjhhzZ9+nR/r127drbMMstUPeCFlJiPP/7Yc9dZlIpcvv3228Z5rVq18qeULr744n/Z2u6jjz7y63IeEXyuucQSS1ijRo0c+Ndff20zZsxwEeP9KVOm2FdffWWrrLKKP2SGSQflcg3ascACC9hSSy3l0X/Khdv48ePt2muvNR7QRJoGYr7aaqtV8SPnnjQOJiiUy92C9u3be9vm9kJco3weGU+7mdx07tzZy6c+NaVufP755/bpp596ag153fQT9aWPKJsJxbRp07xuv/zyizVr1szrteyyy1bVDb583rhxY+dBXWCKzMIL7pznkZ555nHxhx/n8J0xRNnnnXeevfrqq1URc46FOf0NW3LQYbP00kt72hN15gX/qVOn+toF+pdyJ0yY4N+pJywpk/KoF2OHCSHvM/GLes1t4hOTMaWyzG1E6nMREIF8EpCY55Ouri0CJUQgKebsY55NxDyilOSUH3nkkZ6ewJNDiYZnLvBDrBDXRx55xDp27GjbbbedrbDCCn7OJ5984tH0559/3iUZuUL61lprLdtqq61cshC0+++/39NkiEYjdq+88kqVcDMR4FiEms9YaMj1nn76aY/iI5gIJGWSakKuM3JKpJ80FMrlM66PrB9zzDE+cUAmH3vsMZs0aZJfkzQJ6rbxxhvb5ptv7jJ5ww032MiRI118kfZtttnGdt11V1tjjTVcGGnzm2++aSHWyC/13XLLLb0t1aXsRCT7pZdeslGjRrn8kxJC25BdxJ8ntCKhSQGNPuGaTz31lNcdcWWiQyoJP/OoeVjEXQzqyHnIN/JLvWgf3JFm0pNCxCdOnOiTF/qNtsKA46kT10aaKRduTEiYRHAdhJf6s3aBOzJMBOgfHuhD22DOJAMx32CDDXw9AnVB2NnGk2MQcfqAPqMs2g4HBP+5555zMYfPqquu6mOQOzfJSUNN/xwzI+bax7yE/nCpqiJQZgQk5mXWoWqOCNSXQGyXGBHzuYl5MrcccTrkkENcdomKI0YhlpFGwnfkGglHbhFSduhAVm+99Vb/Qt4jBYSFoxy35557egQe0USYbrvtNpdhRBCxRqoQS+SUKP8RRxzhnyNygwcP9kg9xxEtR/6QRWSOuwKIG5OKSy65xCWRKDj1bNu2rZ122mkujzyefdy4cS7pRKiJMiOnyDn58qTsDBs2zB588EGPPiOhSOVuu+3mknnjjTfaPffcUxVxhgFtQ1j3339/bx/ymLmwEvGkrkg0Yh7RbMSUSQTXOOGEE2yvvfbyciIyDA9EFXbXX3+950kTcUbMaRvfebIldxuoN99pN30BH3jB5+ijj3bxf/311+3www/3MuEIA3bW4Q4E73Xp0sX69+9v66yzjvct7eVBVdQTFtSFOwV8EXE/6KCD/NpMYs4//3xny3WRcM7hGryYGLEWAd4XXHCBM6Rf+OJ4yiYiz90TFhdzN4M28B7tYALA02tj8ldbzrnEvL5/NXSeCIhArglIzHNNVNcTgRIlUF8xJ1UCqT7zzDM9Ssl3JJYX0U6kmUgp8hOLDklTIGqM5BERRsKQK1JciGZzLJFUJJxzEUwEa+jQoZ4ygpgRke7Ro4dHWYlYP/DAAx5hZ7tHJPbyyy/3SGu3bt1sl1128Sg9gkq6DTJIWUwm3n///aoUGyYUXJfr8PO9995rN998s0s4Io9o0iZEnkg88n3WWWd5OgblUQfOR5Y5hygudxCILPPeeuut56L50EMPeYSddtAeIr9MJiJ3Gnak7iDFXB+p3H333W2jjTZyIX788cf9fe46kLtNakqkYiTFnLpfccUVHu1HnHfccUdbaaWVfELCJIdIPj8feOCBLrjwOeecc/x4Uo2Y5BAxR8x5jyg/7Vh55ZXtvffec+5MUpgg7L333i7PTGR4kc6zySabOK8RI0b4xIXJE9flWOp29dVXu9gj0dSDiQjHMmGgjEGDBnm94M1YYFwh9kwA6UPY0X/Ui2uQAsOEjONhzloGGMVCU0XMS/SPk6otAhVEQGJeQZ2tpopAbQTqK+ZEPhFnxJSI9UknneQpB7yIRiNZpHHEgjwiwUgrIoWEs2CSyOm+++7r8hnRX4TvlltucSEjYopU3nTTTV4Wgkpkn0gv0nrHHXd4+Yg+IswEoE+fPp5PjbgiiORmI7ukqrBIFeEj7xnxJ4JMpBgBJYJNVBbhR75JyaBOyCBlcU3ED7Emn5y68eI96kuUlrYRtSUFhEnLUUcdZdtvv71HjBFnUjGILCPu//73v10eqU+mmCO/RMspnxQdJhyIOefRLlI+2O1kww03rDZiHmJO1JooNeUwGYAFAkyEn0lB3OEgJx0ZJkUIWUdsOQZBJxJN9J47BESmkXiuj5xzLML8r3/9y9OVmLDQP4g4UXBkmd9JNeEuA9yYjHEN6k9knr5DoCn75JNP9nLPPfdcW3311b1vSWPiukz8aAMpM9zV4Dt3VKgrkzsi8/zOBCjWSsSkRWKuv4EiIAJpJyAxT3sPqX4iUCAC9RVzZOs///mPSy5ijSyxIBARR8iIDiOYiC5SSa4x0WFy0jfbbDNfNIq8EhEnzYLjeCF0XJtzyXlHtpD422+/3VMciIwjfkgm0VjEmOsyMSCfHFEjNYaILNLHizohzMg25yL6SBtijpQyQSD6Sq41cs/5lE/+O+dwDG0gxxrxQ8CJMHPdiOryHjuzcAzSTuQf8UX2Y3ICa6SUaDLyiNgSjU9uURhRcwSVCc4LL7zgCy+ZSFAPrk9uNxzmJuak/RBhJ1rO5IL2kVJDRJ76MVHgurFok2MQeYSc8pnkIPdE38mbhzl3SoiQX3jhhc6BOxDINxM1+pZzmQjBl3QlJhJMikjfIS+dyDuTEXZAgXnsWkOEnskKef///Oc/fVLFjjdE9w8++GAfC5RPv3BNjufOB8LP2IENYwVBhy3lScwL9EdExYiACDSYgMS8wQh1AREoDwLZijmSE9vY0XJElfQQ5A2JQkYRQI4h75f0BCSQFzJJPjLyhPgRheZ4UkCQeRaMJrczjIcQkRZBpJboLGWRwoKQxoN8kH9SM/gdGUN4WWBIXUlpiG0Zo95cF1lF/BA4IrLII3KNeCL4TAyIKhOxJ10CUad+nEceNGJN6g4TEj6jfCYYSCpiyDlIO7nr7KBClDfK5zvn8B6TGaLp5JzH7ipEjslvR5hJ1+AaSC5lx045TBbgDQcWasbEgzYjuXAkok3byNunLtSD9+kXovtEoRFv2svEgQkM9YYfEkwf8TkRf+qLmDPJ4BrkuCPm9B9tpg1E1OGJmMMg9h5nDCDRLD7lzgj1pg+ZNCHhPHQK8afulMdkjWuzrSJ3VRBzJhDc0eArxJzIOmOK9Bjqy/vUi4lRiDl3MCTm5fE3Sq0QgUogIDGvhF5WG0UgCwLZinlcKtIuECpynolakkpAqgGpCplbASKWiODZZ5/tEW1EHqFE9oiEI1DkYMd5SB1RaSKi7LZCegzHkveN1JECwSJEhBExJ3JLJJiIOZMFUiUQaaSRdI14xQJUjiXyzo4tLFglWkzknNQJPmNRJNFc0llYDEmbkFfKvOuuuzzFhIg1C0ypA8ciuyHmETEnFxpRZbLCuREJR1aZDBA9Jk0Fdsl9u6kP12QiQtuZmCDWXIOcdiLHRJpDzJMP3wkx504GYs7CStJCOJ8X6SKRS841qAMTA4Sb9Bvy/pFb7jowAUHQiUbDCRa0NyLmtD8i5vQ9kWxEmf6NBcLUF8nmDgr9jGwz2SK1hzbS7xExZ2JASgx3VojyUz/6PXb+ITKOgJN6hJhTv6SYUy+JeRb/4HWICIhAKglIzFPZLaqUCBSeQH3EPKLn5Pki3EQ1t956a5cvFlAim7xICSH6i2AhtER9I+cZKSfqTDoH6Q+xiwZCTooK+dRIHhF1Itos6GQxJykzRMIRxoiY8zOyhrgh5pRLhJ7cavKiEXZSQjgeWSWfHJFEOBHlEE/EnIg00WDSaYjGMvEgsowIIoykVjBBIP0FDpxLhJo8e9InKIv8eqLoTBbY5YY91JnIwIs6IO9EoxHm2PIwdghBMPmMKDM8+ULQ2Y2EXU+4JpFnJijk3FcXMUfMiT4jwOSOE6FGlsmPR6hpDxFoJJl6Ic5cj+8IMNxZvEtfwTT4RMScvqD9tA1GyD79S/ScXP/YaQWppnwi8Ug0Y4SJBWxpBxwZE0yaRo8e7X3IRI5oOv3O3QieyMm5fCVTWWBIXSNiDjei9ZRFGUplKfzfEpUoAiJQfwIS8/qz05kiUFYEGiLm5CcTWQ75IgLLF3nTiCZ53SwKRLoQJ0QRwSKyydMg2dUDGSbySloDUkb6BvnkRFIRenbpQNCQQXY+QSA5BxmPHHMiuUgdueoh8Ugg0W5SWkhBIWpPxJgUEmQbMSdSTh2J3kYqCwKPvLJwFbEnbYX0EkSZqD0TB/YrJ0WDHV9YlIqIs0MKws/CVMpB4uGAvBI1J40E6SdNBg60DTEnDSeknIGFWCK33I1g+0XawJaPRIphwISF6D7yTP0ixSWZysICU7ZLRJDpGyY9vJhAEUGn32gXO9cwMaF/kH5Y0AYmSrSZiH+kslAmYh4RcyYv7LKCvCP87LRC9J4cciZn3PWgvkxkmKjFrixMGqgfdzMQc3Zc4Q4CbFjMS3thy+QB+Wec0F/JVBY+Z+KAmPMZws7EJZljrlSWsvozpcaIQNkTkJiXfRergSKQHYFsxTwzxzzSL0i9YDEl0kpUGWFGNvkc0UbsSNlATEllIeqNZCGHpE8gqtQB+SSqiyiS80w0F/HjeqSrEJFlh5aQed7nITpIMWURKaccor4cT0oKu5lwLcqlfOSb1ApEGRmlfCLcpFCQqoHwI8bkNpOeQr3YSYa20xZSZMhl5nfaQV2YmDBxIEea3VKYdCCdXJs6M8FAnoni02ZknYkIEwSENXLrY993jiP3nog3kWXqj6RyHdJ9qC8ii7QTLSZfP5kKw89E68nLR8yRfKLPlMMEhboStac8ctC5Lu3hzgJRaL4juETlmexwHnc2IpWFdQJMcqgfEyXkGLaUxxjgZ5gRiefatJn202YkmjKY+DDBoA8pD84cxySK/mFRK/1AOg6Lb8lPR7Q5ngkV/cV1qCe8EXPqhfxzHhMKyou7CTX9S9A+5tn9jdBRIiAC+ScgMc8/Y5UgAiVBIFsxr6kxCB4yRJQY2WJ3jnhSJeKH0JFbzDGIO5KI9CGQSD3ySpQaaeQ99jlHcIlKI6IsxiQlgogxQk2UF0FDGJE0nmLJeYgq5yK2SDnSzndEEQFG2jk3th9kW0bywPmcnHNkkmvSHvKdeYol7eFzZJr9tok8s6MJ8k96CGk4TCSICvM+xxGpJ7pMBJeIPmIZT/4kmg4LcuxjUWgs/AxJ5DvRZqLQTB44l0kLdw64q4CA8j71JXWEyUa8Iv8/+oIyIkeechBldkghOh1P0STNhutSNyLq9BH9w50P6sCL6HrwYby89dZbzofz6CsmYux3Tj+RekL/c/eCPHEEnS8Wj9JuIvHRP9yVoK3kz3P3gDJpD/WGK5MedqRB1LkjwSSPxZ1w5XNy1NmnnfeZfHGnhe8w5vi5vSTmcyOkz0VABApFQGJeKNIqRwRSTqChYk7zkFkEmlxhxJifEUHyp/lC3JAzpAypRsRCSBEz5Dd2cOF4RJpoN+IUTw7l/OS5EcWmPF6Rd87xHIug0TZkFHGjTK5L9Dmi+ZzL55RF1DXklfeoD+cTKSeSzrmUzzl8xs+xBze/0wbK4TjayzWoA58FD+qAdPJ5da9kSgtlc348zZP2Uc9oG2Xxe3XXin6IY/geL/ogrk0dk1yIxvM5ZfE+x8GENsU1qCPtob2UHTnycIINdeY778eCXvoE7lHXqAPXpz2wj3rEtpnR71yX8+IuTHDlc96jb+KOAfWPscD7c3tJzOdGSJ+LgAgUioDEvFCkVY4IpJxALsQ85DwZ/U0+WCje57j4OblFYPJzjsnc5i4pUIEz3su8XtQlWVbyvaSkJq+RrHvUIVmvSOXJrCuCmHxFakpcm/Iikh3fa3pMfHxOGZlPrUymEoWIZrYx6hF1yqxrXDd5XHKbyszrZaYvJT9P1jV4xfE1DfnMuwOZfDkvySazjOral3mNmvqpujpJzFP+x0nVE4EKIiAxr6DOVlNFoDYCuRLzkKgoK1O8M8U3WafqBC3b9zLLC0msTjIzhb+2YzOvW510Zgp3TEaqu27y2ORxSQ5JhtVNTkLIk99rEs7M96vjnyyvpjplSnemXIdIVyfq1dWhNg7JyUhNUl7b+TWdU9P4l5jrb6MIiEBaCEjM09ITqocIFJlArsS8rs2oq0TV9fo1CWtmFDkX161J8DOlO/OOQm3CmDmxyLae+eJa3XUzxT7qmE0darpeTf0zt2h8tnwy+yQmQOyfzsJYUmXY0Yb1Ecm7K/W5vs4RAREQgWwJSMyzJaXjRKDMCRRLzMsca8Gbl5l2kq8JSMEblscCFTHPI1xdWgREoE4EJOZ1wqWDRaB8CYfqSWoAACAASURBVEjMS79vk9HkeOpmdfnxpd/S3LZAYp5bnrqaCIhA/QlIzOvPTmeKQFkRkJiXVnfWltLBZ+x4gpyzuwm7nehVMwGJuUaHCIhAWghIzNPSE6qHCBSZgMS8YR1Q39zniGxH6dUt7MzM4U6KZGat41j2J2crQx7Ww77uSmmRmDdshOtsERCBQhCQmBeCssoQgRIgIDGveyfVtOiRKyVFPXPXFj5P7mISos37sStKcqvE+DxzR5XkloLxxNAo67TTTvOnkO6xxx7+ZM7YDlGC/td+VsS87mNfZ4iACOSHgMQ8P1x1VREoOQIS8+y7LCnkIdNJGa8pel7deZnvZV4nuR96pphnSnZci4f19OzZ05++esQRR9jBBx8sMa+leyXm2Y99HSkCIpBfAhLz/PLV1UWgZAhIzLPvqnhwD0+jjKeYxpNEkWWeeMln5Hcnn0jJ+0hg5H1HVJxH18OfXPB4ImgIObWKp5pSBtLN8fFUTo6LJ65yHMdwnX322cc+/PBDF/ODDjpIW/5JzLMf4DpSBESgaAQk5kVDr4JFIF0EJObZ9wdyzT7XkyZNsvHjx1ubNm2sa9eu1qxZM38UPe/NmDHDllxySX+f1+zZs+21117z85Zffnlr166dv/fee+/512effeYSv8wyy9iKK65oHTp0cMlGtl9//XW/7sILL+znTJw40Tp37mxrrrmmX2/KlCku4bNmzbKFFlrIc8rPOussv+aRRx4pMZ9L1ypinv3Y15EiIAL5JSAxzy9fXV0ESoaAxDz7rkLkiFzffvvtdt5557lMX3zxxf4d+ebBNC+++KJtscUW/jkPqHnllVds8ODBHi3fb7/9XKqfffZZu+KKK2z69Okeeee6iyyyiHXv3t0OPPBAF/SZM2f6NZDzEPPJkyfb3//+d9t3333tnXfe8Xq8/PLLfn7z5s2tU6dOPjlYcMEF7dhjj7UDDjhAEXNFzLMf4DpSBESgaAQk5kVDr4JFIF0EJObZ90fkcj/wwAMemf7iiy9s2LBhts4669iIESPsqquuMnZF2WCDDVzSW7dubffee69dfvnltvbaa3vO91dffWUs0GTnFER8pZVW8veef/55+/jjj23DDTf0a5MSM2DAAKMsIugdO3a0VVdd1bbffnuPll999dU2YcIEW3nllW2ttdayb7/91saNG+fvLb300nbSSSdZ7969lWMuMc9+gOtIERCBohGQmBcNvQoWgXQRkJhn3x8IMfnhRLGR7QcffNAlGlm+8cYb7ZZbbrGpU6daly5drF+/fi7MRMaHDx/uaSXbbLONR7mRanLBe/XqZcsuu6xHzZ988kl/H0nnHN4fNGiQ3Xfffbb66qvbIYcc4ukxRM8vvPBCu/vuu/19rkuEHTFH7s8991yPzp944okeoScXXTuyVN/HSmXJfuzrSBEQgfwSkJjnl6+uLgIlQ0Binn1XhZh/+umnLtgDBw60Qw891AX70ksv9bSSOGaXXXaxPffc084880x7//337YQTTvCUl/PPP99eeuklu+mmmzyyTn464kyk/bLLLrNRo0a57Hfr1s0l+4knnrDdd9/dRbtVq1a+WBRJJ2WFsvkiR50IO4tDEX7SYI455hilssylayXm2Y99HSkCIpBfAhLz/PLV1UWgZAhIzLPvqngoEAszH3/8cTvqqKNsvfXW87zva665xhdgtm3b1iPXpJMQzb7gggs8paVPnz4u1UTBP//8c4+2k55CHjovtjjkGjfccIMdf/zxvgc5uemkp5BTzntEv1nYyUSAyDrpKnzGZIAX39kukUWh7MpCvnpcP/tWVs6REvPK6Wu1VATSTkBinvYeUv1EoEAEJOZ1Ax155q+++qovsCQNZaONNrKnn37adtppJ1thhRU8Gs7Czu22284ee+wx22GHHTythF1YEPMvv/zSHnroIY+gx8OC2F3luuuuczEnus61EPMXXnjBz0XsOZZdX4iKsxMLUfRMMd97772rxFzbJdbetxLzuo19HS0CIpA/AhLz/LHVlUWgpAhIzOvWXSFz7JByySWXeOSbFJOff/7ZRZ1FnkS+77rrLo+as4vLcccdZz169PCdW0hlefvtt13eyRlnBxWi2nxGKgu55uzGQiT+7LPP9rQXFnEeffTRvk/5119/7YtI2ZXlsMMO859JZSGaz2JURB3xpy7777+/n6NX9QQk5hoZIiACaSEgMU9LT6geIlBkAhLz7DsgRI6ccCLWjzzyiO+wQmrKKqusYieffLILNTuxnHHGGZ5awo4tffv2tY033tjeffdd38Xljjvu8DQXUlKImiPvRNARfc659tprbbHFFvPzyFsPMQ8BP/XUU+3+++/3HVzIN2ebRPqRfHQi8k2bNvWoO+dJzGvuX4l59mNfR4qACOSXgMQ8v3x1dREoGQIS87p3FULHYksi3zzIh+9bb721L7hkJ5annnrKo9nkorMIlOg12xqyOJPUFuSZBwexwJMdVcgbJ2UF2Sf95Z///Kdvp4jcI+YIPNeOp4k++uijvtiUqPlqq63mkXeu/cwzz3iuOg8xCjEnGk99tTPLX/tZYl73sa8zREAE8kNAYp4frrqqCJQcAcScLfmIzrLAEAnkYTd61R5p5VOE+t///reRb77tttv6gk2e3Imos6MKkXQWhpIvzqJQIuPs6MLC0TvvvNPPRw7JHWeBKFF1csRZFErKChF05HvHHXf099kGkRefsb85/cZTSHmfhac8WRRBJ0pOuTvvvHNVDrv6U2KuMSACIpBeAhLz9PaNaiYCBSUQYs6+24g5u3pIzLPrAvLKiVAT6Sb1ZPHFF/c0ktmzZ9vEiRM973yppZby9yOlhFQVxJqFoOx5zrFNmjSxJZdc0sW6ffv2nnPOuSwI5fNFF13Ur8M1EHmuwa4snM8OLBzTpk0bF3rkn68llljCv2JxaXYtqqyjkhHzsWPH+v7wsBs6dKgz1442lTUe1FoRKCYBiXkx6atsEUgRgaSYs0hREfPsOwexY9FlpIqQLsJXyDNXQoxDjiOdJFJhSFdBBBFu0lT4imOR72ROO5KYTEehXL4QeHaGYREpX/F+lKsUltr7M/pOYp79uNeRIiACuScgMc89U11RBEqSQFLMyYVmKz5FzLPrytg6MSm/me/VdExS5iktGb3l99gznZ+rk+vM46PGUV78LjHPTszHjBljF110kd+NGDJkiCLm2f0T0FEiIAI5IiAxzxFIXUYESp1AMsccMWe7PYl5/Xu1OhHP9mp1WaTZkHKyrU8lHBfMR48ebRdffLHEvBI6XW0UgRQSkJinsFNUJREoBgHSKdh6jx1AeJIlD7NhIaJe9SNQl4h1UsQjQl5ThLs2Ea+L0NevVeV7VrDjAVEstoX/lVde6Yt1lWNevv2ulolA2ghIzNPWI6qPCBSYQIgeOcrsx3366af7riJs/8dixcz0DKVEZNdBkuTsOKXhqGQ60IgRI+zqq6/2SSmR85YtW2rhbBo6SXUQgQohIDGvkI5WM0WgJgIh5nxn4RsPyuFhN2eeeaYtt9xy2vdaQ6fsCcTiXSad7As/fPhwf0DUwIEDfQtKTUbLfgiogSKQGgIS89R0hSoiAsUhkEyNmDBhgg0ePNi3/uMx8Ouuu67vEKLob3H6RqXml0BEyimFn3nYExPTt956y3clOvjgg70C7GwjOc9vX+jqIiAC/yUgMddIEIEKJ5DMhf7yyy9t5MiRnlvLEyx5zPvSSy/9l20AKxzZXJufmV9e3QkSvblizPsBESkPQSeNhbHPXvE8YXXNNdf0XXEk5nnvChUgAiLw/wQk5hoKIlDhBJKpLOylTbT8nHPO8YfaHHjggf5oeB6aE6/Yo7vCsf2l+dXJeF0WgCYvWNu2i+JedwI1TZTi/R9//NHeffddO++882zmzJm21157ecS8WbNmultUd9w6QwREoAEEJOYNgKdTRaCcCMQDctidZdSoUf7UQ55eudtuu9kWW2xh7dq1qzZyqMjvf0dBNlHyuoyX5EOI6nKejs2OQETJ2Sb0jTfesDvuuMPGjRtn22+/vUv5iiuumN2FdJQIiIAI5JCAxDyHMHUpESh1AiErPOb9rrvusptuuskaNWpkO+64o22zzTb+sBUeG897iKMe8/7XHk8KeuakJdsIemZOv/Yqz+2/rDlz5thPP/1k33zzjbGu4u6777bnnnvOJ6Ckb62xxho+vjXpzC13XU0ERGDuBCTmc2ekI0SgIggk5Y/oOY93Z3eKYcOG2fvvv28dOnSwTTbZxNZaay3PO2/RooWLeXIBXUWAqqWRdRXxEPCksAfPEMM4RqJY99GVyTWu8Nlnn/kCT3YheuWVV3wM77HHHnbEEUd4frlyyuvOWmeIgAjkhoDEPDccdRURKCsCsSiOiOLbb79tPHSF2/xE0nlUOa+Ql1yncJQTyLmJemZbmRDxSp6nuxK5HxExZrn706lTJ9tqq618ByLStbQ9Yu5564oiIALZE5CYZ89KR4pARRGIyC0PHiLCOG3aNJsxY4ZNmTLFUwBYKCopz82QCI5wJZILZ/bRbt++vT91sr4pFZXYP9mwat68uS9oJjoeX3qQUG7Gsq4iAiLQMAIS84bx09kiUNYE4vHwNJKfkXSi5uTnxmLRsgZQgMYhkhEp//zzz30R4ksvvWR9+vSxtddeu0Yxr0Tprm93ZMo6aySQc9KxYr1Efa+t80RABEQglwQk5rmkqWuJQJkRyMzRJa0ihBzZ0aLE3HR43J2YPn26Pw7+mWeesf79+9vGG2/s4qg8/vpzri03P5m/X/8SdKYIiIAI5I6AxDx3LHUlESg7AtXtIkKOeV1zp8sOTA4bFIz5/tFHH/li2zFjxtjpp59u3bp1q3ryarY7uiSrVolR9er2gI9FyrDJFPVsUl9y2N26lAiIgAjUSkBirgEiAiJQJwKZW/nV6WQdXC2BiIhPnTrV949HzPv27Wvdu3evipgLXd0J1BYRz9wRR4Jed746QwREIPcEJOa5Z6orioAIiECdCERkO8R89OjR1q9fPxdzdgnRSwREQAREoDIISMwro5/VShEQgRQTSIr5kCFDPGIuMU9xh6lqIiACIpAnAhLzPIHVZUVABEQgWwIh5mxFGaksEvNs6ek4ERABESgfAhLz8ulLtUQERKBECUjMS7TjVG0REAERyDEBiXmOgepyIiACIlBXAkplqSsxHS8CIiAC5UlAYl6e/apWiYAIlBABLf4soc5SVUVABEQgjwQk5nmEq0uLgAiIQDYEJObZUNIxIiACIlD+BCTm5d/HaqEIiEDKCUjMU95Bqp4IiIAIFIiAxLxAoFWMCIiACNREQGKusSECIiACIgABibnGgQiIgAgUmYDEvMgdoOJFQAREICUEJOYp6QhVQwREoHIJSMwrt+/VchEQARFIEpCYazyIgAiIQJEJSMyL3AEqXgREQARSQkBinpKOUDVEQAQql4DEvHL7Xi0XAREQAUXMNQZEQAREIEUEJOYp6gxVRQREQASKSEAR8yLCV9EiIAIiAAGJucaBCIiACIgABCTmGgciIAIiUGQCEvMid4CKFwEREIGUEJCYp6QjVA0REIHKJSAxr9y+V8tFQAREIElAYq7xIAIiIAJFJiAxL3IHqHgREAERSAkBiXlKOkLVEAERqFwCSTEfMmSIjRkzxvr162fdu3e3BRZYoHLBqOUiIAIiUGEEJOYV1uFqrgiIQPoIhJhPmTLFhg4dKjFPXxepRiIgAiJQEAIS84JgViEiIAIiUDMBiblGhwiIgAiIAAQk5hoHIiACIlBkAhLzIneAihcBERCBlBCQmKekI1QNERCByiUgMa/cvlfLRUAERCBJQGKu8SACIiACRSaQFHMWf44dO1aLP4vcJypeBERABIpBQGJeDOoqUwREQAQSBKqLmPft29d3ZWnUqJFYiYAIiIAIVAgBiXmFdLSaKQIiUHwCIeCZNeH9eeed12JXltGjR1uIOdslzjPPPH5KnB+/F79FqoEIiIAIiEAuCUjMc0lT1xIBERCBWgjUJOa///67zTfffDZ16lSLfczPOOMM22KLLWz++eevuiLnh5RLzjXUREAERKD8CEjMy69P1SIREIEUE0Cuf/75Z/9q3LhxVaoKoo2Yxz7mp59+uot5PGDo119/tV9++cWj5k2aNHGR10sEREAERKC8CEjMy6s/1RoREIESIDBt2jR79913rWXLltaxY0dr0aKFCzpiPmzYMF/8ScR88803dwH/8ccfbcaMGfbJJ59Ys2bNbM0111TueQn0s6ooAiIgAnUlIDGvKzEdLwIiIAL1JEDKCpHxyZMn25133mkjRoyw7bbbzrbddltbeeWVbebMmR4xJ8e8f//+tummm9pnn33mvz/wwAN+bs+ePW3LLbf0aLteIiACIiAC5UVAYl5e/anWiIAIpJgAYs7r+++/t6eeesoXeBIN79y5s2200UYePR8zZoy9+OKLdvjhh3vaCtHzN954w2bPnm3bb7+9HXfccda+fXulsqS4n1U1ERABEagvAYl5fcnpPBEQARGoIwFEO+T8ww8/tCuvvNJuuOEGI398ySWXdOH+6quv7NNPP7VVVlnFvv76a9+phe8bbrihHXXUUbbTTjt5Ggu7uOglAiIgAiJQXgQk5uXVn2qNCIhAygkko+Yvv/yy9enTxyZNmmRz5sypioLHLi1854tc9MMOO8yj6EsttZRLuXZlSXlHq3oiIAIiUA8CEvN6QNMpIiACItBQAkTPZ82aZaeccoqNHDnSvvzyS5fwyEPn+uzIgoSvtdZaduKJJ1qPHj1cyCXlDaWv80VABEQgnQQk5unsF9VKBESgjAnEfuZsmfj444/bwIED7fXXX/eoOZ/FfuVIeatWreyII46w3r172/LLL++fKY2ljAeHmiYCIlDRBCTmFd39arwIiECxCES+OTuxIOZ33XWXffHFFx4NDzHn+3rrrWf9+vWzbt26eW65ouXF6jGVKwIiIAL5JyAxzz9jlSACIiACfyEQkXEeGsRWiOedd569+uqrVWLOCTz184QTTrCDDz7Yll12Wb+GouUaTCIgAiJQvgQk5uXbt2qZCPyJQKRPKOKanoERcv7xxx/bOeecY3fffbfvyhKLOzt16mQXX3yxbbzxxrbgggsqWp6erlNNREAERCAvBCTmecGqi4pA+giEmFMzyXl6+ofFnuSa33fffXbFFVfYCy+84JVr3ry57b///nbMMcdURcvVb+npN9VEBERABPJBQGKeD6q6pgikiEBSyCXnKeqY/6/Kb7/95jnlH330kV1yySV28803+0OHWOhJtLxr164u6fGSnBe3DzP/Dak/itsfKl0Eyo2AxLzcelTtEYEEgeqkXCkt6RoisdCTWt15550u50j6Djvs4HnnLVq08AonBVAyWJw+rO7fk/aUL05fqFQRKFcCEvNy7Vm1SwTM/rT1HosMSZlgSz6eNJntKykj2Z6Tz+PKVUpp18SJE/1JoGydyFM+t9xyS9/LXJOpfI6oul079pFnYW7jxo39K3NBbrmO0bqR0tEiIAL1ISAxrw81nSMCKSOQjLpm/vzDDz/Y7Nmz7Z133rHx48d7NJYH28QTKJNNyRSKWJyYsuaWVXVie0TkjhSW999/3z7//HNbbbXVbNFFF/W2VpeClLYJU7adkmtpzQWHqFO2dWMh7mKLLWadO3e2Nddc09q2bWvNmjXzSVRt/56yZaTjREAEKpeAxLxy+14tL1MCIdOI9zfffGPjxo2zhx9+2MUcQSfSh0DwPVNEkr9XJ+5liiw1zUr2HX2hNInCdU22Uh6LdbkDNd9881n79u19j/mtttrKlltuOf93FZPjbK9ZuFaqJBEQgbQTkJinvYdUPxGoA4Hkg2mmTZvmOcvs9kHqykorreQLCZGHuP1em5grWl4H8PU8tLq88UiVoM+Sdz/qWYROy5JAthKNmNM3bGvJvvMvv/yy8ZCoddZZx/baay/bZJNNqia92V4zyyrqMBEQgQogIDGvgE5WEyuDQDLCTbrK7bffbiNGjLCFF17Ytt12W5fyjh07WuvWratyYiUO6R0byitPX99En/Cd9RpTp061CRMm2GOPPWavvfaap7b07t3bunfv7nej9DCo9PWhaiQCaScgMU97D6l+IpAFgWR0m/zkhx56yG666SaX8H333dc23XRTF/TkK5utE9Mq7rnIK84Ca50OyTWrNEbLc8E915zq1EkNPLi69pPSQprYLbfcYs8995x16dLFjjvuOJd0UsZKub0NxKXTRUAE6kFAYl4PaDpFBNJIAGkgav7kk0/alVde6fnlxx57rOe+Nm3a9E8LCLOtv6QiW1I6rlIJxJ2qd99916666iobO3as7bjjjtanTx9r1aqVouaVOjDUbhGoJwGJeT3B6TQRSBsBxBwZHzJkiEfLe/bsaUceeeSf5ECinbZeU31KnQD/7nhIFGkrjz/+uF122WX22Wef2TXXXOPR80aNGpV6E1V/ERCBAhKQmBcQtooSgXwRYDEa0k20DjEnnWXgwIG+lRtbuylfOV/kdd1KJxB3qvj3x787ntyKlB9xxBG299572yKLLOLSrnzzSh8par8IZEdAYp4dJx0lAqklEGJABZECouVLLbWUDR482Nq0aePCzu322O0jtQ1RxUSgRAnExJcJ8oMPPmgDBgywdddd10499VT/t6iFoCXasaq2CBSBgMS8CNBVpAjkkkAsEuR2Oo9zv//++23jjTe2f/7zn1WPc0/jQsJcMtC1RKDYBCLXfMyYMTZo0CBf13H22Wd7OotSyIrdOypfBEqHgMS8dPpKNRWBagmEdLN9G1FyFn+yPSKPdOdphLwk5ho8IpBfAiHmL730kl1wwQX+MK/zzjvPVl11VaWx5Be9ri4CZUVAYl5W3anGVCKBkG4e544IPPvss7bTTjvZYYcd5lE7iXkljgq1udAEQsxfeeUVu+iii/yhQ/x7XG211fwJoXqJgAiIQDYEJObZUNIxIlACBH766ScXgaefftq3a2PxWYh5CVRfVRSBkiaQKeY8GfTcc8/1iLnEvKS7VpUXgYISkJgXFLcKE4HcE4iFZ4j5+eef72K+ww47VIl5Mr81ForGLi4IA7tFKAc29/2iK/6VQDwIK9uFyIVIwcrVjkWZYv7ll19WRcy1I4v+NYiACGRLQGKeLSkdJwIpJRDygpgToUPMd955ZxfzJk2aeH45Ij5nzhz7/vvv/Rb7F198YfPPP78/DbRt27bWvHlza9y4cY2CnpSXTFmqTWzqKj11PT7ZJZlPMo16hgzWJEfJ9tRHBOtzTl2HUmYdOb8hk6lMVlGfhvCvqU3JfiDvmjHIEzHZMSjzlawXqVkcyxjmKx9RZ/5N/PDDD/7vo0WLFv5vYm6ThurYxRijPaSyXHjhhUbEPFJZJOZ1HfE6XgQql4DEvHL7Xi0vEwJJMUcEnnrqKc8xP/zww11oiOR9/PHHvih03LhxNm3aNPv6669ddFq2bGkrrLCCLxZdf/31XdRrEr6kkCTFsCZRiWPmJns1iXF159V0rZreR7iIXPJ9oYUW8glIda+51bE6gQxOmVySx9bGsq5inZS/kMds613TxKqmPk2Kel3rWZtss5XgE088Ycstt5w//CpTgqM+CDPHMclca621rFu3brbooov+6dLZtp2TMtsZY2769On22GOPGU/t/Nvf/mYrr7yy7/ufOXZr+1NBGzLFnBxzRczL5A+smiECBSYgMS8wcBUnArkmkCnmkcqCmBMF//DDD+26667zpxLyZFAilQg42yt+8sknHpVcaaWV/GEou+yyS9UWi9UJTfK9zBSZEJSQmszfaxPipJwnhTdT+pNlRupARCMzxZXPuTMwdOhQn4hst912tvXWW1crd5kyPTcZ5dpRt0gF4vdknTKFLSnTsa98tpHUZHlxXc6trrxkW5JMkvWc2wQnOfFK7oE/Ny5zm/TwVMzrr7/eZXvYsGFVu5Vk9jM7DF199dV2yy23eL/17t3bll12Wb988ljaFG3MnKwk6xJt4L0ks/fee8/LeeGFF+yUU06xzTff3CdvyfGYyTO5J3nyulGvV1999S+LP7Pt51z/bdD1REAESo+AxLz0+kw1FoG/yCWykLn4k11ZkG4E6LbbbnPh7t69uz/4hOgxUckZM2bYQw89ZG+88YatvvrqvsXipptu6sI0t0hwZhQ2U5qSolRb5DhTEjOFPySptvrEMUkZ5j0ejU5KD9/hccABB1TLLlPM5zbEkhIe9U3Wu7r2zu2cKLOmc6uTxdrYJSU0RLsm4axJqJOTq4bIZZRLJBkR7tq1q91www0eMWeCGGMl2s5Y5gm2HMPdn4MOOsg6dOjwpzHJNbNZH5EU9xijIdSI+RVXXOF3kvr27Wtbbrll1Raj1bU3cwKRKf/8jphffPHFVbuyaPHn3P416XMREIE//T/oj9r+bydWIiACqSdQU8R8v/32s9dff90fNERub69evfyLNALOQcwRFCLsSBDpLkTNjz/++Kp8XvJvSX356KOP7LvvvvPc4Hbt2vk1iCySDkM0mmOYBLRv394+/fRTI0WAMlq3bu2RzqWXXrpKqpAvjpkyZYo/wvyXX37xCP4yyyzj12YnGerFMUT7SWGgrtSPMjt16uSTDM794IMPPGWA40nbWXzxxf06pOh8++23LlwsiJ01a5bn3ffs2dOWX355P5a2cX0mJ+Qz8x7lU1/KqU20Q/ppQ/J87kbAhu+w4sW1J06c6Azph0aNGnmbEE3Kq2nSwnlvv/22c2Mixd0OJhgI4xJLLOEpSDCgDvQBd0eWXHJJ69ixY1XKDlw4h3byHdaUz7oCOFJPrkffUkfqwmfcSYE/L37nmjxannImT57sudj0Ke0I8eUz+oNr8LTLxRZbzPslJnm8zwOweFw9KSNnnHGGjxuYsN8+14u+o+1MKBFzdhgKMWeMMQ6mApdUswAAIABJREFUTp3q53F9zmXc0W/0O+XQXu6W8Dv9QJ2DPcdSDkxJYbnyyiuNhwKFmNP3jCn6izHE8dSNyQLX5X3GDtel/cExJj8RMVcqS+r/dKqCIpBKAoqYp7JbVCkRyJ5AppiTY47M9OjRwyPll156qW2xxRbWp08f22CDDfzCRCmRGgQLyRg+fLhH+oia77vvvi7cyNqLL75ojzzyiL355ptVi/YQTyKLG220kQvi+PHj7Z577nHJWXPNNe399993EUJk+Jwo/R577FElccgYeb2jR492yUIWESiiqOS6UwekhwkDaQ+ID3V55513/LM999zTxZwnnNJW5Im2UGfkjLqRkoCI/vvf//Z93UmN6Ny5s8s57SOPGGmnbZMmTXJ55j2OId2FJ6dSJ66ZGRGHN0LMuY8++qhLYuxyw8QA1ltttZULOvWG69133+2SDROYc9wmm2xiu+++uwtsLGxM3h1AjM855xwXSo5B9BBfjoHJ9ttvb2+99Zbf7eBYhJs9s7nmhhtu6OXAmjrCG9lO1pPzYYWkwoDJGWUxYaAPEX7GCXXdZpttnAuye9NNN/lECZb0F8fQh88//7zdeeed1qpVK9t11139zgyfRdvgSCQZ4eYYPqdP6T/Yr7LKKp62AhfOIQWJ/meHoUMPPdTrQVvvvfdeH4/0GfXgXFKxOI5cdCZY1PGZZ57xcpjovfbaaz45gx0RbPLJ+bcAHyLmiHm/fv2cB9dlXJHjzrji2LXXXtt4cNADDzzg45z2Ukf6BS6UjaTznsQ8+79dOlIEROCvBCTmGhUiUOIEaoqYIxnsDoHAEp0kWkxENXZoQS4i2omA8D4yF2kuCAaLSZEhIquci2gibETCjznmGBcpPkeAERlECIHii10pOJbo6T/+8Q8XRiKeREzvuOMO/xkpRCiJ1hIRZkJBbjzRYGSWvF+EDuFBfJhsUCbHswMNEoU0cQyCTHmcS3upCxFaFr3SViLlXB8OCO6//vUvl1Wi1rSH+jJR4LjTTz/d1llnHY/GZka0kc377rvPI61ch/KIKhM5R3ARetq71157eYT1rLPOsrFjx1ZFhJFfxBeBPProo/24zEWp9AdtYRLBxAe5hBXHMSmgnvCAIfXnfcpnkoUw028I63/+8x8XYe5gIL60hwnLhAkTvD7Uk7skiCv9ifByLaLEMKFPaCOyPmDAAB8DRJapE3U79dRTPSKO9F5++eU+EUS4jz32WJ9oRcQ8GDJJjB1L4MREiDrRd0wumFCcfPLJtsYaa7iYszaCPjvkkEN8fJIGw/ghgs8X16d+TBiYTA0aNMgnRP379/f8dHYgghPjEYZw51juHJHixNhDzOkf2oWsM4m58cYbPTKOdDMpoP6nnXaa34GCDWXzb4GJEZPEM8880ydkjLmXX37Z26iIeYn/YVX1RaBIBCTmRQKvYkUgVwRqEnNyxYkCEhkmGoqwIRFEjxFGFrwhrLwQ35BfhIr3ke277rrL5QQxIv0AUSO9AOlhAR8yx7HkDiM0iNWJJ57oUoY8I1dEH4nOIqhsJcd3hPrggw92KeWFhJJyQ6QdMfv73//u0ckTTjjB5QqJIupOtJNjrrrqKq8/5ROdRrqIviJuRD9Jx0G+qC93CpBR0iH22WcfFy4Ejh1CyKknAs/kgegp0sf7tJlrI46RohD9RZSWOpKbjzQibKSRIJYsbuTuwYEHHuhyigDTFiL5Z599tk8iiJozMaENCChRZCQ4XpHXTTuZpCDNRJH5mTsSTDQQTyYByDHiSD2ZgNFniCORayZZ1I3IPn3PZIM+JkJ90kkn2XPPPef9etxxx3lfIelMxoiOwwzW9BdtQtgpn/Loa66PxBLR564IEwX6nbpSH7gi+MmFo7QPCR48eLA3lZx/JkkIOndPmOgQjeY9JDkzx5x+YzJGP8GuS5cufmeFOwKMMyYlcCFqThnINeUzDuiPOJa+ZzLDGGESRp1gQZnINpMBJjL0G8fQH0w6+ZxJGMzoDyYjcGAyQsR8//339zsZRNa1K0uu/rrpOiJQeQQk5pXX52pxmRGoTswRRiSZiDNSde2113qkGYElFxiJRkiQC15EI4kEI4rIHEKDWCJBiBbigXxyHBFyIoIcQ2SaaDq/IzdEVZFAIpREhonWIk1EUZFGZAn5RdzZaQPR4TqUzTWoF6KM/CA4iDm5zUgaEwHqT51JCyHyiQhFjjTRTCYSTDoQS2SMY/mZKDNiifRRT2SUyQFtpW5ILL8ziUGUaRO56WwhGWIeUV/qS9oG8kYqA1JPOUR9b775Zp+IIJ1IHRFaykSImYQgdNSZazFZgCmRbKQxFkBSHn2KmDOZQEipL6IIC+pIvZFgJiKkkxCpRVCRfyZKt956q8snok0knXryO31PvbmTgATTt/QzzBBzPkO2ST/izgnvMxHjekTWEW4mBvQH9WV8Eakm5QnZR7KpK3c2YvFk8o4Dkk9knQg8Y5J6cRyTBaLplEWKFOIdqSws/mQSByvaTD8xFvjOefCm3+lDxiPjnL4jnYXxTD8wIYIpExDGBXWi3aRGMSFgMkZf01+MW+7u0IfcVeCuBG3m2lyDSSaTQfqd6zBxZGLFhIjJCBFziXmZ/ZFVc0SggAQk5gWEraJEIB8EahJzJDAi5ggRwozAITRIGbJBhJAX8o4Ic4v+ggsucDmJSDPiSApDbNnHOQgSIjRw4EAXFGQWCUTYKJf0BI5HwhFyIr2IN8JElJHUD6K8sc86gkPEm8g5UoREI1HIHnnTSBt14zgi1qQvUH9SCUhBIVpKxBo5Ro5IEUHmSCeIdkTUHQlDbEPwkF0mBnBEsGkbogUzoq/J3TmCNRMWIvNElBFsmFAWMs2Egegxgoo4cp1Ro0Z53bkuvGg70kjUmffijkWMD8qBBRF++oIJD5MjBB4J5u4CfUa6DyJLSgaTGsQcFgguKR1cg2g0baJ+SCZyjoBSBpzgE2LO5wgxdaNOpPrcfvvt3q/cseAuArzpR9pPNJpJFMfQRwg5QsuYSQp5cGNCwGQCsaaOya0uEXVYIe1INZHrSGWhL5kskUJD9Jp+pq/gzmSCenJXAnlGnImsM0kinQtWMGc8MkFjokTf027qQduIesMWNvQH44/xwthgvHF3Atlm3QMv7hIwqSBqz9jm7hQLmGkPY0Jino+/dLqmCFQGAYl5ZfSzWlnGBKpb/InEISUIM4vlEEXSEMhTRkJJZ0FCQrZJTSEfmXzcyI8lokgqCAvrkrtvIB98ER0likr5lIP8IXWIIpFt3ke2EHMik3xH5KkP0VvkFBniuFiIigwS6WfxJtcjh5mINjnT1B3ZQypJFyFCTP2IziNJTBQQN+SLyC7R5oiYI+3IFtJPfjiiy7VoG5Hh5N7WtI32srVipmByHKKMyI0YMcKj0QgZ5TMhYDIRaR9EapmgUF9ymGkP4k6ElTsPtIdoN/IdD3YKmQ0xR3zpK/LhOZa6kcIDl1h0i9zDDTGHL6kySCmTMISZhb1IOW2inrSXuwtMLiKVhYkOEXPKQlSZDFEW0htiTsQekScdCoGmb+FDXZBy2siEhzselJF8xRhlnBANR2YR81hcy+cs9CSaTpSaOyt8UQZjmSg33DmGxbyxsw19z0QEFrwXYk7Un/FM9Jz6cRx9BwfEnAkIbSGSTsScCQ6yzXH0EXc1mGAg+dQNpjDjbgVlwY4JGf3IRIJ+4t8b11DEvIz/2KppIlAAAhLzAkBWESKQTwI1iTkPCyKXmegdsky0k8geMpR82AzyxTGkKyDLCDTiQkQRUUM6uM0f5ZAqgcghwkSUiRBzDikupK4g1ggpx0fEnAgsxxCNR/RYKMfOHcgjMoo0EfVEqpF4voiMkhdN2YgWEVGuiViTJ0zUk7qRDkMaAeLGtdmNA+ki5xcRY4JBHREt5JKca1IwEOnIz462IXlER5FPcq0jXSHSS4ieEtlH9hBuuJKPTvlMRpBBJh5IPZMD+JFnzh0H5A6RJ4pNOg3pMIgckyLalty9hPoQFUba4U1ePvWBVYg512WCAh/OZaICl8hhZzKC0DNZ4C4G6RfUA+b0BZF0ttRkAkGbQ8yZXJFfnhRz3oMdT+ukzkxKkHPaQx/QZtrPIkgmVZl7gAdfBJ7zGGdMbjiHY+FKalVIO98ZO4h4bHPJHR3aR0oLk0yugcST1sREhL4mDxwZDzFnMkNfxdaNIeZE2hnfIeawY0JBihX9QdQbXtyxYUJDOhF59NzpiYW5/BugL+hL+oAxtd566ynHPJ9/7HRtEagAAhLzCuhkNbG8CdS0+JMc7og6Ex1HrHbbbTeP1Ea+OO8jJQglEUGir6QpEH0kBQBhI40g8psRTY5D4onyRvQxxJw0BcQc6SUyn0xlQf7JBUbMECKkGGGnLkQfkSvqS1QbuXr44YddtIiYk5pAKgvXJNKKALJwj+gu0oVoIeREWREmBDJSWZiQIJBE0GFCxJM7CMg64o+AUV/EHvmjjjBCWiMfnBEUdxoQWhYZwp0y2E6Pz0gPYtEhEV2knM9ItSHaT540golIEmVFbOFMvUmtoRyYxy45lEdUFjFHWomEU09eyCCRaYSUSC8yGGJOKgtiThuI3NIvyHysE6D/iAgTWebhOrwPHyYBCDqTACSchb4h5qQeRSoL7eJuB2XT14wDZB/hjRQk2kI7kmkq1Jt6EBGnTkTU4cIEgHQmyucz0mO4Dv1CJJuUFsYskzhSl7ibw245tBNJps9ggMCzCw3nwZrPGU/Zinn0KRNNrse4hRUTLKLmjC3uPPAzX8g6fcckj7JIf2ESRG6+Fn+W999btU4E8k1AYp5vwrq+COSZQE055uTIEvkmEolsIBpEBImeIhJEh5EzhAdxRehIYYhdK5AioppESJERJIqINtKHhLLAlKg0got0EzFHaJD7yDGPVBYEHPFCmrk+5RJt5hpEcIkeI3lEUNnxBKEiCosARyoLKQNEK2kLokq7SU/hfcTu8ccfd2lFCJE7hBPZZQEpkoo0IefkDVNPouvkGNM2ItZMQojGE2lmwkGaDhHziJZTHpJMqgpiS1uQZc6PBYLkIBNdZaEnaSLkYxOZRSKJLFMenKnryJEjPXWCyQRyi1xTRrxiu0RkGWZJMUdAk2JOm5MRc/qI85nQkD9OVJ/z6SvqSNoJ+e8IL+OEcpmsMEZCzBFp7qZwLSSZHHPawkSIFCKi9cgoUs4dA9KDiOpHGksyLSfaxFhErin7/9g7D3Api7P9j4koKqIxGhUr2BUVLCgqiooFEYmKJYkFYy9RU9TPkmIBU0yMUaNoFIPGhr1jQ8BCbFhRRAFBwN5QwWi+///6PV+ek+F195zdM3v2vLt773Wd6xz2vO+8M/fMWX7zzD3PANhMVugP6kO90JsVDsYo16INYE40GxsJ/c6EkHowhhlHtJv+BZbRnPYA/w7mTGKoM5OnYhFzJlPsx0AjJolMOpiQMBlkgsqYYIxTV1aimFgyKeBvh2w4TI7YU0D/sgcAy47SJbbxB5+KlwJ1qoDAvE47Vs1qHAWaA3Oi0QA4FgJAxU93dHUAOqKjRLmBboALwMJ7DTwRAQaQ+Z2f4EhkEj8tFgG8wkQ5ARGAFagDzHkuL6LbAI1nv8BTThpEQA+IBt6AZ+oIHAM3gBhWEsCPulAeYEq0meuxcAD8TByoIzDP+1haiHx7jnDKArABQQCP1QH8ysCdZ5SJN8AC3fjmiYAD3sByoQ2MgDJWCcokqo2lh4kI8L3eeuvZigI6YrcgQk+kFdDjPa4jYk4Z+LOZPADHvB+fkOkecyK2WHbcyuIRc1YSAHOgGcClDsA+9QL8iSCzWRLrEKshTLzQHq2AVPoXuwZ1oo60Ga3pB6Lj/D4bMQeOiZhTLvUDlHkeEWKsHOjMZsjsy8cn35mcYXfiOUxmgFs/7IrJG3YjVgl4cR3tYPKGxxxgZpWB8UP/0RbGGZozhoBzJjpMrhg7TPR8nLqVBX8/EyQ0xe7kmz9jMCeCj42KujJhpD5M6BjjTKbQzFecqCdaMYFkMsG4lce8cT571VIp0BYKCMzbQlWVKQWqqEAxjzkQ5VlPgBrAGZgjogtcALHALlBOxBMPLQAOZBGNBH4AOgDas3oAQ4A8EUKsJAAlUVUysvAMIt1+AiIS8DzuBVqxCQCQPBs7CUBHNBcw4/fUA4DnZ4CYCDZghHWCOlFf3gc8+R0wReSeMslAwr38DBgTGcbrzAoB8IwPmHpSZ6LHbp/AwkAZAD5QDixTDyYJnsLQI+ZxBBgNifICt0Ae+vEs6opePJMVBupA2UAz+gOiQB2RYa4n8urZPLK+bO4jGgzI037f/Er0lmfQRqAVGOVF/wGFQD+RXz+4h3rybMqhXTyXPgKsqSdADNxTJtewskCdeLnnnj6k32kTEIwWrJCQZcXTQ2LdAYCbe1EOeqM/fcW4YYMu9UEL73/GNBMwrECsiNAv6MN4QkvayngAyqkXfUD9GRvAPf3Dc+gX2uabkfk91iHKp92MNZ6BDmjM3wP9zkqHP58yGBNAPZNQrmcM0wb60cctUE4ddfJnFT/89CgpUIcKCMzrsFPVpMZSoBCYA2z4rIEHXkA2kAXs4Y3FsgCAABPAiUfWARfei4+IJ9IMqAA/wBTL+YA79/OiLKKfRJz5nW8udbDjeVyLxcHhludQph+TThQewPTIMffyPEAWEHTo8Z4FPrmfutF+QNJhkjJpK//mmYC/v4cenp6QspiIUAZ1RwMvh3b64TjZ0eSbVSmTOlAXIJFIMu0A4Ggz7/Esz3WNtQGt0IdJAFrxPXsIjz+PelM+99N+X4WgrugCRGMD8gkE9eC53Mf7PIeyqSfP5n30oE6UBdijE/XkesrkeuoUZ8uhr+hf+gbA9VNiWW1wnzyWGaxJPt4K/QXST5RDeZSPxuiPJpSLHr76wf1c5xMZns31vMc9jGPGhfcxmtBGNAGk0YK2cQ3t8dUI6uCaUib14DrKRQeu92s9TzrPRR9e3Ov9GP/9xGk/lS6xsT5/1VopUGkFBOaVVlTlSYEqK5AFczaq+dH2gI6DedbzG9s0uKaQJzjejBg3y7O68J5fE5cXl+W+6WxE2FM1erlxmXG5cd2y9aRsyvG0e35fDLsO0q5TXA9gNS7T6+33ZJ+d7VpvG9fHlg1/P57gxL/3cv05fM/2B9dQP97PbqT0svy5Xl7sUY9/F6eD9Guz78X3ZsuLr2Wlg6gw0WOi1GTYISMJEf1sH8d6FSrfy/XrXAe/Nm6nX8N76BKPF28r5XkdfAwUyhATP6+5sRZf5+M17vO437yugLmnHGWDq6eerPLHgh4nBaRAjSogMK/RjlO1pUAMKm7xAAQAc7zUbIIjklcIkrNwkVXTQSeG7vjnQmDugFMM2rPgGYN5DJ9xu/yZDldZz7eDnQNSFsIpi3v9WVn4z9YhC1rNjbKsNjFUxkBZqE78Pk5ZWWwCQASY+7OAX2iS4frHZfnEJVsfrslqV0xrB2HXkn0DeLixk2AzYQMu0fJ4taOYbtmJQxbM4wlIsTHKPQ7ghcZUXEYW9LN/M35/XI+4zBjuC4G5axIDPHYigbk+n6WAFGitAgLz1iqn+6RAThRw6GI5HjAnu0UWzAtFY7OQVKg5MRw5+MXR4Rh04vsLPa8lyM1CdzyhiMEnC1fNQWC2jEIgVyxa7bqm6hJHrgtNgFrSpVjbswCeMhyL1THbJ2jCxkgi5USt8YUTMcfCU2xyUUy/bF9kVx8KtTvb9831Ufa55V6bfX424l/s94qYp4xE3SsFpIDAXGNACtS4AoXAHCuLR8zLAaYal6Jo9cuBsnrVoFLtwhOOhxtN8VkD5b4q0JyVpVLPz1s52bGliHneekj1kQK1pYDAvLb6S7WVAt9QQGBeeFBko/0aOmkKZPUkYs57bI5s5ImPwDxtXOluKSAFFlRAYK4RIQVqXIFaBvMYaioFd6WWWeh5ra2D39eS/aWYxae1z2XoFpqAlGJTqsSwL9bubHuamySV2vZqtalcXQTm5Sqm66WAFGhOAYG5xocUqHEFahHMS4WxUromC+LcQzo9TmAk57fnJfcNlM2V6ZsA482A2DPiDaTc39xmVX7fXCYQv9/rkQKcnr+blI9rr722HbJUbKNsc77/YpMZ3vfflXJ/MQAvtNE09rUXK9s3X2KfeeWVVyw3uecu93SdpYyRalzjbZfHvBpq6xlSoH4VEJjXb9+qZQ2iQCEwZ/On5zEvdyNmNWTLAp//O4ba+L1C2TWKbWjlvjfffNNOLeVgHY5U5wRI36DI7+N0ijF48j6baIFAvjiQh0NvyDhCDmtSBAK+HFpD3vXs5khPv+jwnZ0MkG/bQT8bbc4CcCmTF3Kmk0uc0045MfUHP/hBUwaXOG2gQ2MhaPeoexaU4wlDHJnPpm708eL3x89yIPe2xPd6ZpXsxMQ1JSONX8NE6/bbb7evgQMHhv3339/6JE8vb4dO/sxTr6guUqD2FBCY116fqcZSYAEFag3MHWCy0dUYTP132Uhroa4vlDkEUD3hhBPsZE6OUgda/fAbyvY82HH02sGS6PONN94YbrrpprDLLruEQw45xA7lmTJlSvjlL39p4PvTn/7UMpIUgt8YdLOpI+P82zGYx+2KJyHNRZW5n8ODLr744jBt2jTLxDNo0KCmA3KaA+hiGVGy+sZZbeKJQqEsLn6tpxXMPiPOfuN9ELeV92K9AHOfqHGoz9///vdw9dVXhx/96Ec26eTQpTy9BOZ56g3VRQrUrgIC89rtO9VcCpgCtQbm1JnIMScucrIjGT6AXSKgnNLI6YsxvGPX4Ah0rgPcODSJUxrZdOjRZx8KHmUHojn05rnnnrMUkkRZ/XRGng18+wmUlEWZ1AFwJj/3ZZddFm644QYDXSDQj24//vjj7Zm//vWvQ9++fZtyd3t7ONkSoORkTcAxjur6CZr8jmfRdiwaHGPPv10PrgNYuZfTMB1WC8E092Pv4B6OhyeKz89EmDkVk/ZwGijaoRdl0t7YahNHrNGaemATQS/6gjL8dEzaxHvUhfd5Fr/jfZ/48G/6i7K4jt/5aaL0E+BOvWk/9fE6+imdaIGGtIF68z7XM1m65pprwoEHHhiOOOIIa0eeXgLzPPWG6iIFalcBgXnt9p1qLgVqCswdXIC5GTNmhOeff97sIkR9ga9VV13VLCJ4iAE5YBerBlFvLCn8zHXYS3r27Gl+ao6Yj4HVo7WA+UknnRQmTpxolpY99tjD7gXIeSbAPmvWLLufQ3I22GCDsMYaaxgActQ80dkJEybY+9zLqZbUAzikHUTgv//979upjkAs1hnKJFIPmALyG264of3+e9/7nsHo66+/bvm/eSYTgUmTJhnAApn8Hj1eeuml8M477xg4o8cWW2xh7SwE07SbZz3++ONms0E37uE5jz32WNhss80MbidPnmzH2APB3bt3tzKXXXZZmwzEKxL0y9SpU82us+KKK4ZNNtkkrLTSSqYZ9gyi8miE9kwYKBNNaDuTFH5HPWgHWsyePdueseaaa1q/8h1IZ6JA2zlBFH3ee+89W43AI7/NNtuYnvyecigPvbp06WLX33vvvQbmpAJVxFwfgFJACtSjAgLzeuxVtamhFKiViDkQSHT0jTfeCFdccUW45557DCyJ5AKF/H7LLbcMxx57bNh+++0NUO++++5wwQUXGGDGafnwfQNnAGEcUY7B/Oc//7mB+XnnnWdwDRByOM6VV15pdfDc20R62SA6ZMgQA0CsIQA49gngDzhfeeWVDarZTEo0l+g0QL3vvvsaXF9yySV2sBPP4EU7Af69997brDAA6h133BH++te/2u+ImlMHAH7kyJHhiSeesGjw9OnTrZ28aNdaa60VTj755NCrVy+D+ewLjVgZYLLx4x//2OwsnMrJZISJAXWjHUw4eC7gfuSRR9pKAMAbv4hgc2rsmWeeaUBOP+y0005W9m9+8xvTEsBmwtOjRw+bEHDCJWB+7rnn2kTguuuusy8gHsCmP2j7+uuvHw4//HDrL+pz/fXXm8UIOxAAz+QMfzxfaEC5TN7c3kL0nzHCZI36oz2Ttzy9FDHPU2+oLlKgdhUQmNdu36nmUqCmIuaAIfYGotF/+9vfLAp88MEHWwQWGAOYiRhzxDtfRHp/9atfWXaV008/3aKpRFCvvfZai2pziBJwB1i7V9nBnMg1AEmk949//KNZWQBnbC1E3gF1NoQSrcVLToR32223DaeddppFiIcPHx5Gjx5tR83/8Ic/NFAlOgy084zDDjvMng8ojho1yq5nsrDnnntatJmI9QMPPGBQSlsA5gcffNDqApAD7cA2MAv4s4GTqDHAzLXU4bbbbjOY32effcJPfvKTsO66634jXzgThRNPPDG8/PLLBr5E8ZlUDBs2zK7dbrvtwm677WYQy/Pvu+8+q+df/vKX0K1btwX+gugfbDFYd3g+5R5wwAHh2WefNUgnEk9UnIkO5VI3LD3YZwBzYPzCCy80iwrP3HXXXW1Chb4APxBOOUxygPehQ4faxIf6EMXfeeedbXwweQH66TMmaEwqiJSPGTPGIvVMyABz7s3TxmaBuT6QpYAUqIQCAvNKqKgypEA7KlArEXMizUTIb731VgNmrBcAMlYPIqYAH9Fe4BYQBVR/8YtfmOUEkOTod6LJ3IvdgvuAUc+2QhdkrSxcS8QdKCQyTVQaAOQ+rBPU5/7777fJAtDPRABQvOqqq+w9QBlfOT5w7BX8jN7nnHOOTRSAXaAawAc0ifhjGSEKzEZFABS4JwrNBININr5pIulANJYSgJfMMcAw0EnUmGgzkAycA9CALlH6eMMoEfU5c+Y0gTmw6mBOhBubyHHHHRd22GEHK4/JzFlnnWUaAe9EseMXZTNpYUIzbtw4m3wwcQKSzzjjDIu+ozUQTpm33HKLtQeAJlrP5AQtmVjQDuoNVAP21Ie6sopBP+LfRxOAnIkAkXgmMbQTDHW8AAAgAElEQVSXyQ+RfSZjRP2ZMDDJGTFihI0F+k5g3o4fOHq0FJACbaqAwLxN5VXhUqDtFagVMAcIiTBjfSCiDQh7FB0oBXKJ/JIKj8gqlgciv0RbiZwCaUSagVlsGERqsXrEKQCzYI4v+dJLLzWwxm5CFJxMK7179zY7CdrNnDnTLC58BxLxjwPUgCAATeSY+6kbvydKS+SdaDfwDnQuvfTSZlkhousbUPGok96POmLdISpPxJzoOxMPbB3U11cGAFj85EAqkWki7/jiAXKizFhZCoE5GWJYafCIORF8oBeoJlqPr5z70AJbDHALVKNnNjMOVhz0or79+/e39qM/Exrqg63lZz/7mU027rzzTgNsABprC0DPhIT6YAty6xGwf+qpp1q0nvoMHjzYou3UET35ol/RgU23lLvffvvZJIhsOOjNJO3yyy+3MtAZOwsrLoqYt/3ni54gBaRAdRUQmFdXbz1NClRcgVoDcyLPRG/xbBNF9frjlybyfNBBBxmYY1EhUgpEElUG4gFgNmKyMRHrCRFXIq3FrCzAKEBHWdgssLOwCZFy/LmUi+WCqDLQSNQZMAe6id4DmkApG1CpFy/AnMg6ZQPmvomUMhx2gVzK5XmsBvhGVEAZ2AdmfRXhrrvuMj/9iy++aF5qPNUAOc8gwkz0GzuKe649DzuaURZgToSburPqcPbZZxtAY8Mhco0+PB9AZoNnMTAnwo3fnbSQTAYAcFYdmEixuoHdiPoA9axa8D4wTX2AbmCcqDi6+YvVkN/+9rcG8fQtKwJYU4jeox3/ZuJDXxF153m0iQkSqw/0L5M4JkpMECiDZ2FliVM4VvwPq8wCZWUpUzBdLgWkQEEFBOYaGFKgxhWoFTAHQomeAqnYWYA431gJBBKRBpwBQLePAJ6kLyT6TNSUaDt+dOwgeMSJqLOBMs5/DSTGHnNgDwvGRRddZOUA80TbeT7ACvihIRHpPn36GARjQ8HOAhwC5lxP/QBCygfMgVOgFFsLm0bdxhLn86Ze/A5AxndO27nPwZwVBHTBJsLkg6g5kE0baTeZT6gDOdkBel5+CinPcY8592DvAIjxdBONJjrOc8liwwswZ6MoYE4k38uLhz9tA4KxwKA1/UId0JgoP1YfovhEsom8875vpiWKze/Qy8EcXQFz7C9MGIh2A+JEzJk84FHn32iE1Qd/OV5+2ku0nj6hn6gDUXzg3lcCBOY1/sGl6ksBKSAw1xiQAvWoQK2AOdCHnYOIKtDJxkKin0Sb8XrjIwcqAXMi07yHvQV7B5FjoA8QBeqInBJBBrYBXcA7BmJPlwjkAXtEvPkOHAOY+KKJmvMiSg+0App4p4FwIBBPOhFoIJH7ifQD5ugdW1mI/GI9ISpMXQF9NjFyPeUS/cYWwioBVhbqy8SDTa+AOdcBpQA0vm8sNlhC8HYD8kAw/nUmIvGBRrQXYAXyibQTMQfiAWAmC/jzOYyHFQZeaAGsA9x4uQuBOW1jogAwE8VnIycAzEZXAJrNtkS0WQ1AP/zk+OPpT3TFDoRGWFmAalYjmGSwqRYtqCv30M9MqojMM3lAXyZTbAqmbvQPgI81iH4ndSIWGzQB7vGwY2VRxLweP9HUJinQ2AooYt7Y/a/W14ECtQLmAB9QBxwSOQfeAEdeRHzZSAiAkaea6Kt7rx1MgV/KwN4CZNNufONE3bGQFANzNn+SAYUoONFzNm0CiPiaAUeix2yGBIixemA94VqsLGQfAQLxiRNpBjqBVSLSQDz+a+CZTCsAqmdAwYtNSkDsHlg/iEAzKSANIEAMmGPHwbbChkkmGHjnmajgMQfYKZNnY+cA/mMw92ELmAOwDuZMJIBeQJ4JEPoC/GgFGOMDJ3sKbXaPeezTRg8mFkxK0Jb+ou0ANCkl8X+zSsDGVFYeKI/sK0T8iYpTLu8feuihNpligoIvnPbRj0xyWJFAG/obfzpgzmSISD11P//88816RBvoW+rDZAPbECsleOkF5nXwwaUmSAEpoIi5xoAUqEcFagXMiZiTm5oMH0TC8RWTAhAIBRYBXqLX2CeAdqAMCATsgGk814A5kVW86YAxUExEGrgkmuwbLwFH4BewJBJPFN5/JnKM75ovTurEogKQYr/Alw2gE5WnbICTLC6eMhGgxw5DZJsINXANnBOhJoIPdBLJxZZCZJoIOlDL9eRtB8y5JraycB0TAqLmQDBfACjvA9NshCQajR7xsfaMZaw+QD8TGiYz2D+AXqL3tAXQdzCn3cA6+lEXIva84g2l/rNH6wFtriNazYQFqw39hwZEtVk5ILsN3nTqz7+5hig9beZ92sAEhMwtrJLwDCY+rB4QSec9Muzwoh2eRx7t0MLHB9F44B7Ljjzm9fhJpjZJASmAAoqYaxxIgRpXoJbAHFAjcszmQ4AN0AZoAXQiuL7REOgGSLFBYG8A6LnXj3gHiMnvja873vzpoAnEER0HQoE4or1YY4BT/O1EmP1wI2wUeMuxawCf6Ol51akPEwKAlyws3Au0e8pDbBnUC9sHkXwi2IAkNg4AnN+TUYZ6A67/+Mc/zPZC3X0FgLKYqKAJqwTczyQDew5wS9Sb9hI5j8Hc/dusHlBfnkU7x48fb9F+gBcd8YFzLfYeLDpYdphIuPfch79Pang2liFWEfD80zfAP7YS3kdXJj6UTWSc6DaTLuwtpFkE5gFs2sXveD7XclgR+jLZQSsmEPjFyU6DLYbnMlEC7Mksw2ZQtGV8MDaY8OBXJ0LPygRl5+mlzZ956g3VRQrUrgIC89rtO9VcCiwQ8SQqScQSmALSSEPnh+/kQSoHPwAOSMQagtUBDzN5q/nyTY9YG7B8EMkGookeE1FnIyCASLQbYIy95XEbATygHAgk8kpEFvDj2bzPs7FOcD/pC4nMAuAedQcIgU8Anwg6EM11ROqxqQCdWGH4wgONNYfIO+AKWNMm7iGaDFgyASG6TbuBUH7nmxdpI+kieR7t93ZyHeXTTqDcX249QU/qQX1oL/WnndSB59AmJh3UnxcZYnifawF9QDf78kke9UUjvO6sSKAhdiGeRz0pCz0A7fhFO3gGNhy0Rl/6kjYA6GiFtkwOuIY68nvK9gkW7efZTFLoP/TjOiY79Bltoq1+QmoexrZPCPnOZA47Duk++XtkguZ7A/JSV9VDCkiB/CogMM9v36hmUqAkBWolYu7w4vWNvc3xJj6PPPp3ruNnP97dy3GILpbLmut5ZaPMfj9A7FlZ/BmxT92fz/We9YUyuY9/+/M9daHf61lT4nbyO+7jWr/X6+YTFm+j3+fZYuI87YUGRLadsW7x9bGuWU0Kaej18t+5RnH52fv8nngSEZcTTyqy9Yy19/rFWnu/xeOgpD+QKl2kiHmVhNZjpECdKyAwr/MOVvPqX4FaAvMYzuMMIzHEZsHPYdZ7MgY9fi4WjXRgLQTnfp9fU6gMB2XuB5J5+QFGMdg6mMfQHd/rUB+Dt8O+PzcG2hj4vZ5Zb3k8quM6eXkOtIXA3J/d0l9Gtk5x+2NNi8F5oQmKP9Pr7PWN9wdkJ26FJm15jED7OFDEvKWRpd9LASnQnAICc40PKVDjCsRgzvHwpOVzKwvL/8UiynltdrGIr0N9NuraHLQWitZmobYYlFNuDJCV0DGOwnvd4oh4tu3NaZGF7jjq75CY7ePUNmRXByo9hmIIL1R2qXpUul6llOeTPPYxsMkX2w1/j/jj8ziRKKVNukYKSIHqKyAwr77meqIUqKgCHqnF/0sKOtLvkUmE1HS+YbAl4KlohapYWDXalfKMYvfGgJ4Ky4WeUaj81rYjG7FOrW/q8GhtO1Kf29z98eoCJ9qScYbNxYA5G3gF5m2pvsqWAvWlgMC8vvpTrWlABTyqy3dSzZHzmVzSHBJDxNxtGA0ojZosBaqmgO9ZIH0mp5p6/n02rrb3ZKZqIuhBUkAKJCsgME+WUAVIgfZVgGgdWTT4z58UdyNGjLDsHETPyXihaF379o+eXr8KxNF7JsasWnEIE2DO4VQcwET2Gv429XdYv+NALZMClVRAYF5JNVWWFGgnBQBz/uMnNzhRc1ICcrDNtttu25QurzkvdjtVW4+VAjWtgIO5+8tJd0kOeXK0n3LKKYGTWEn3GGfiqekGq/JSQAq0uQIC8zaXWA+QAm2vgHtcyS9NxJyTFTnUhRMjPWKnqF3b94OeUN8KxJtPY185P5Of/e6777a/P3LZk8ucPPbkW9ekuL7HhVonBSqpgMC8kmqqLCnQjgo4NHCy5kUXXWSH8nBiIyclErXDax6npZPvtR07q5lHp2QeiTd9+iPUz5Xr50L6en76F154IVx22WV26ukPfvCDcPjhhxc8xKlytVFJUkAK1KMCAvN67FW1qaEUyGbN4MTFhx56KPz5z382HTgBlKPr8Z1z8mKc37uQUAK59h8+3qfx9+ZqlT38J75W/VnZ/iz098YppsOHDw+kSsRbfvLJJ9vfmzZeV1Z7lSYFGkEBgXkj9LLa2BAKeDQP8H7vvffC6NGjw8iRI8NHH30Udt9999C3b187Qp0Uin78eUMIU+ONLDeCno3qCsxLGwClpLD0a9y68v777wcOFLr11lvDrFmzQp8+fcIBBxwQNt54Y/2NlSa7rpICUiCjgMBcQ0IK1IECMVTwM3DOAScTJkwIV155ZZgyZYrZWUjd1rVrV0vl1rFjx6Y0boWW6OtAlppsQuxH9r4sBNctAXge833nvUPQrLnsKfxdYV1hVWr27Nn2dzVjxgyb7O611142AV5jjTXMV65oed57W/WTAvlUQGCez35RraRAqxWIo3pz5841eADQOfhk2rRpYd68eQYOLaVvE6yX3wUO0MWsJYWOr/en+D2k3AP+FltsMYO7YtajliLh6r/y+q/UlYl4srTsssuGnj17mlWMKDnpSTt06BA0KSpPe10tBaTAfxUQmGs0SIE6VCALBu+++66lUGRD6AcffGARPz+YKG5+qXBSh5JVpUnFwNwjtUyknnzySYvC9uvXL6y88spN9WoO6qtS+QZ/CPrzN8NkidWmpZZaykCczCurrbZaU1rSBpdJzZcCUiBRAYF5ooC6XQrUggJxajdynnNcOFHZQlDOey1FY2uhzXmoY0s6Zn3N77zzTrjqqqvCE088Ec4444zQo0ePBSwRcXmKiFe2h4v1VTxZ9QnUoosuuoAVLF71qGytVJoUkAKNpoDAvNF6XO1tOAWKbWorBnYtwWTDCdjGDY5XN+bMmRMuvfTSMH78+HDuueeGTTfd1GxHvFrylLdxNeu6+Ob+FkrRXdaVuh4eapwUqKoCAvOqyq2HSYH2USALDh5BdwjPRgXbp5b18dTmotpZX7/rjkWC+8jsQS7sRx991I5132KLLcyzXMh2pAlUZcdLMQCP/0b87yjeS1DZWqg0KSAFGl0BgXmjjwC1v+EUKAThvvEQMQR81R0S8SSJTB9EzAHzoUOHhs0337zp5Mjq1qqxn9bcRNX/VvR30thjRK2XAm2lgMC8rZRVuVJACkiBEhRoDsx79erVZGUpoShdIgWkgBSQAjWugMC8xjtQ1ZcCUqC2FRCY13b/qfZSQApIgUoqIDCvpJoqSwpIASlQpgIC8zIF0+VSQApIgTpWQGBex52rpkkBKZB/BbJgPnz4cMvKgsdcVpb8959qKAWkgBSopAIC80qqqbKkgBSQAq1QwDcbsvkTMB83blwYNmyYwLwVWuoWKSAFpEAtKyAwr+XeU92lgBSoCwUE5nXRjWqEFJACUiBZAYF5soQqQApIASmQpoDAPE0/3S0FpIAUqBcFBOb10pNqhxSQAjWrgMC8ZrtOFZcCUkAKVFQBgXlF5VRhUkAKSIHyFRCYl6+Z7pACUkAK1KMCAvN67FW1SQpIgZpSQGBeU92lykoBKSAF2kwBgXmbSauCpYAUkAKlKSAwL00nXSUFpIAUqHcFBOb13sNqnxSQArlXQGCe+y5SBaWAFJACVVFAYF4VmfUQKSAFpEBxBQTmGh1SQApIASmAAgJzjQMpIAWkQDsrIDBv5w7Q46WAFJACOVFAYJ6TjlA1pIAUaFwFBOaN2/dquRSQAlIgVkBgrvEgBaSAFGhnBQTm7dwBerwUkAJSICcKCMxz0hGqhhSQAo2rgMC8cfteLZcCUkAKKGKuMSAFpIAUyJECAvMcdYaqIgWkgBRoRwUUMW9H8fVoKSAFpAAKCMw1DqSAFJACUgAFBOYaB1JACkiBdlZAYN7OHaDHSwEpIAVyooDAPCcdoWpIASnQuAoIzBu379VyKSAFpECsgMBc40EKSAEp0M4KCMzbuQP0eCkgBaRAGynA5/tCCy1UcukC85Kl0oVSQApIgbZRQGDeNrqqVCkgBaRArSkgMK+1HlN9pYAUqDsFBOZ116VqkBSQAlKgVQoIzFslm26SAlJAClROAYF55bRUSVJACkiBWlZAYF7Lvae6SwEpUBcKCMzrohvVCCkgBaRAsgIC82QJVYAUkAJSIE0BgXmafrpbCkgBKVAvCgjM66Un1Q4pIAVqVgGBec12nSouBaSAFKioAgLzisqpwqSAFJAC5SsgMC9fM90hBaSAFKhHBQTm9dirapMUkAI1pYDAvKa6S5WVAlJACrSZAgLzNpNWBUsBKSAFSlNAYF6aTrpKCkgBKVDvCgjM672H1T4pIAVyr4DAPPddpApKASkgBaqigMC8KjLrIVJACkiB4goIzDU6pIAUkAJSAAUE5hoHUkAKSIF2VkBg3s4doMdLASkgBXKigMA8Jx2hakgBKdC4CgjMG7fv1XIpIAWkQKyAwFzjQQpIASnQzgoIzNu5A/R4KSAFpEBOFBCY56QjVA0pIAUaVwGBeeP2vVouBaSAFFDEXGNACkgBKZAjBQTmOeoMVUUKSAEp0I4KKGLejuLr0VJACkgBFBCYaxxIASkgBaQACgjMNQ6kgBSQAu2sgMC8nTtAj5cCUkAK5EQBgXlOOkLVkAJSoHEVEJg3bt+r5VJACkiBWAGBucaDFJACUqDKCjiIL7TQQvbkGMwvvfTS8Oijj4Zhw4aFzTbbLHTo0OEbteN6v7fKVdfjpIAUkAJSoA0VEJi3obgqWgpIASlQTAHg2gHbv8+ePTs4mJ977rkG5gsvvLBd5/D+rW99S6JKASkgBaRAnSogMK/TjlWzpIAUyK8CX375Zfj666/D4osvbpFvfub722+/HYYPHx7Gjx8fHMwBcY+Oc9+///3vpvvy20LVTApIASkgBVqjgMC8NarpHikgBaRAKxTwyPjMmTPDiy++aFHwXr16haWWWsoi40TMAXOsLEOHDg2bb755AMznz58fJk+eHLhvhRVWCD179gyLLLJIK2qgW6SAFJACUiDPCgjM89w7qpsUkAJ1pYDbUaZOnRpuu+228NBDD4Wddtop9OjRI6yzzjrhq6++CldeeWUYN26cRcx5b8aMGWHSpEn2HtHyvffeO2y//fYC87oaGWqMFJACUuD/FBCYayRIASkgBaqkgIP5F198ER588MHws5/9LMydO9e85P379w9rrrmmvT9hwoTwi1/8wiwso0ePDmPGjAkfffRR2GuvvcKpp54aVlpppfDtb3+7SrXWY6SAFJACUqBaCgjMq6W0niMFpIAUCCH87//+r1lYiJpfdtllYcSIEWZV+e53vxtWXXXV8Nlnn4V33303bLjhhuGtt94Kc+bMCYD81ltvHY466qgwYMCAsOiii5rFRS8pIAWkgBSoLwUE5vXVn2qNFJACOVfAM6zMmzcvTJw40WD7jTfesA2gRMH5PfBOmkSsLbyWXHLJcOyxx4ajjz7aPOa8BOY572hVTwpIASnQCgUE5q0QTbdIASkgBVIUAL7xi3/44YfhzDPPDLfeemt47733rEjed/DGygKAb7nlluGnP/2pRcuBd0F5ivq6VwpIASmQXwUE5vntG9VMCkiBOlXAo+akP3zkkUfCWWedFZ577jmLkPvvgG9+xuJy3HHHhQMPPDCsvvrq9p7AvE4HhpolBaRAwysgMG/4ISABpIAUaA8F3Gv+zjvvWGrEm2++2aLm2VM9e/fuHc4444xvZGLRyZ/t0Wt6phSQAlKgbRUQmLetvipdCkgBKVBQAY+M/+tf/wp33XVXOO+888IzzzxjVhagm6+OHTuG448/Phx22GGha9euipZrLEkBKSAF6lwBgXmdd7CaJwWkQD4VcDDnO5lXiJqPGjXK0iJiVcFLvtZaa4Xzzz/fMrKQiYWXQ3s+W6VaSQEpIAWkQIoCAvMU9XSvFGhQBWK7hefmblApym62W1AczLG04DW/4447wl//+tfw5JNPGnx36tQpDBkyJBxzzDGWRhFYj6Fcupcufax5fJfsQKVrqCulgBSojgIC8+rorKdIgZpVIAvhDoTFYKdmG9pOFff0iOQsv/DCC8PVV19tecs59fNPf/pT2GSTTcISSyzRVDvf+CkwL6/DGK9ZzXyik/X1l1eyrpYCUkAKVE4BgXnltFRJUqAuFXBwpHE6bbLyXeywSB7z22+/PVx88cXhzTffbDrl8zvf+Y5FywWPldE+O9FkxcIBXRH0ymisUqSAFGi9AgLz1munO6VA3SsAtPCKo+NEcz///PPApkVFbSs3BIBvDhrCZ/7KK6+Egw46KGy33XZNhw5V7kmNV1IcLWdyufjii9sqxCKLLNI0hpWGsvHGhVosBfKogMA8j72iOkmBHCjgHmhya8+aNStMmjTJwPHtt9+2Y+M957aijGmd5frxff78+eH111+3tIkbb7xxWHrppb8xMeINRc9bpzm6AeZkuyE/PN79tdde22xDnK6azQ+vsd06nXWXFJACrVdAYN567XSnFKhbBfxkyg8++CA8//zzYfz48eHZZ58N77//flMav4UXXrip/QKY0oZCoRWGWLtCm2qzXv6sx7+0J+sqVwA9582bZxPLxRZbLHTr1i1ss802gXzxHODk2W90iJPGjBSQAu2hgMC8PVTXM6VAjhUA/PA7A+H33ntvuOmmm8L06dNDly5dwqabbhp69OhhPzvA5Lgp36hapSYQvpoQw1627BSbTxbWa0njbF0rqbmvFvA9XmmIn1lI9+x7H3/8cXj11VfD008/bStBvHbaaaew//77W4pKbC4C81oedaq7FKhdBQTmtdt3qrkUqKgCcfq+d999N9xyyy3hmmuuMR/uoEGDwh577BFWXHHF0KFDB21G/I+dJO6ASgFoDJ8x+Fe0s2u0sEJZVUppSiFYZ/L5ySefhIkTJ4brrrsuTJgwIeywww7h4IMPtkw4jHvBeSnq6hopIAUqqYDAvJJqqiwpUMMK+BHxc+fODXfffbfl1F5uueXCD3/4w9C3b99AdhDsK/FGukrCaA1Lp6rnXIEYzOMxy5hnM/OUKVPCyJEjw0MPPRR23XXXcOCBB4YNNthAYJ7zflX1pEA9KiAwr8deVZukQCsUcAvLa6+9Fs444wzb8HnSSSfZEn/nzp2txGJ5n1NsG62oaqtvaauJBICXja6maFKpeqbUodUiRze2ZaaTYl57T3/Y0mpGrA1+c/LIn3baaWbb+tGPfhQOPfRQy96ilxSQAlKgmgoIzKuptp4lBXKqgEOKW1iuuOKKsOeee1rKvpVWWqnJz+twntNmlFSttoDV7AbN+N+VguySGpfTi9pC83gsxpBeasaaLNj/+9//Dvfff78d6rTsssuGE044IWy55Zah0KQrpzKrWlJACtSBAgLzOuhENUEKpCrgkPLSSy+F3//+92HmzJnhnHPOCb169TKvrb+yWUNqETorDYmFNmrWoi6pY6i5+yuteXaCWCqMZ+sY3weAf/rpp7Za9OKLL9pG0KOOOspSU8pr3pajQ2VLASkQKyAw13iQAg2ugEMTYEJaRJbzyUzx61//OnTt2nWBaHmDS6Xm16kC/A24BYaTV9n4zAbQYcOG2cRUE6067Xg1SwrkUAGBeQ47RVWSAtVUwMGckzxJj3j66aeHvffeOxx99NFhhRVWEJRUszP0rHZRwMGcyPgdd9wRLr/88rDMMsuEP//5z3bIU7HUjO1SWT1UCkiBulZAYF7X3avGSYHmFfAUiYAH2SmAkl/+8pfhmGOOMX85Xlu9pEAjKOAT1LFjx4YLLrjAYNwzE3FaqF5SQApIgWooIDCvhsp6hhSoAQU+//zzcNttt5nH9sQTTwwHHHCAHVsevxxe4o1zlVjmL9cj3Fw+62LZOmqgC1TFdlLAJ6hEzB999NFw/vnnBzaDXnLJJeF73/teEJi3U8fosVKgARUQmDdgp6vJUqCQAjGY//SnP7WUcVkwx4frL98U1xowzwK+b64rFdCLgbkDFnXUhj2N81IVEJiXqpSukwJSoK0VEJi3tcIqXwrUiAKA+a233mpWlmJg7uBciah0bKMpF+4LZfmIDz5C8nLLrJFuUjXbQIEsmJMykUmoIuZtILaKlAJSoFkFBOYaIFJACpgCDua/+tWvDMw58dMj5nGE++OPPw6zZ8828F1xxRXtRNDWgDAnjJI3naPRyf4Sp2VsqUsKgTnWg3feece+8MaTf10WhJaUbJzfNzeZjCeJjz32mKwsjTMs1FIpkDsFBOa56xJVSAq0jwLFwDy2h8ybNy88/PDD4ZFHHglffvllGDhwYOjTp09YbLHFvhGhLuRHp2UedZ80aVIYPXp0APSPO+44y4IBSGcP64mhP84gA9STb3211VYzEKc+HKnOFwfDcEBSx44dm8qrtLWlOZ97tgfja739HuEvFNn36/1wm3g1oNDhRS1B5/vvv28nW3KSJZOgDh06fGMyVU57Co3QbB1iW1Kx1ZH4mVkdCo2fYqsghcrJ2qLiqHj2ev7tWgvM2+fzR0+VAlLg/xQQmGskSAEpsEDE3K0sbP4Elh1auGjOnDlmdSF7C0DNJtFjjz02rL766gbAMTTG8BOfnug/P/jgg+EPf/hDmDVrluWNzgJjFp4cThfkhs8AACAASURBVHkf0BwzZkwYNWqUeeG32WYbqydZNIYPHx722Wcfy8O+5JJLmtecL69fIWArNhloCXj995SfLTceVlkwz64wFINSVgG8/sXAtxjcxnDPhsbrr7/e+unII4+0FICFyvM6t+bQpFLAPLuXoBiw+wQuO1koNLnyMlzTeJwUGpPeV9kJEv/W5k99GEoBKdDeCgjM27sH9HwpkBMFsh5zwBybisPRV199FV544QU7DfHVV18N5D3fcccdLdq96667Gvi6dQSg5N9AOD/zWnjhhZveA4AAa7y8RL1vuukmi3z7Nc1FkynrzTffDH//+9/DX/7yl3DqqaeGfffd16LBl156aROYY8np1KlT08mNxWwttI86OqhlIT4L0TE0xvdkQbwQ7PMcP8jGgTsun995mb7RNoZLvzaO/vJ77EC8RxsdXnmPF+UA5UyoNt54Y9OH/PTZyYKXQR/4ykUpE5PmvP0xJMdaZZ+dbaO33SeF8dhygHa9uda/vJxYW9fAtXUNsxMegXlOPohUDSnQ4AoIzBt8AKj5UsAV8Kws8eZPj5hzDdFyItQXXnih+bf5N3Dz4x//OBx//PFh0UUXbRITaH/vvffC9OnTzY8OkK666qqhW7duBvv4yQHzP/7xj98A8w8//DC8/fbbdg8Aufzyyy9gkyHfOkemjxw50oDzwAMPDPvtt1/o0qVLuOaaaww8v//971sudupAeUsttZRFi7km9rLPnz/ffO4zZswIH330kUWSV155ZUuRhw3GITcLjrSPezjCfbnllgurrLJKE3DzTOrP/TwT0OU5vDdt2jSrE3VwPYjqu7WEyQ9lohnWE55D2XxRN8riPdrE5IT3sfBQLr8DvGmrTx4oj4nPddddF/72t7+FNddc0yYyXNe5c2er8wcffGD3s3LBi75dY401zB7UnO8fkPX6ogXtYk8C+w7Q7bPPPrO+pn38Du8/v0dfnyRhjZo6dar9m76h7tTJ20i59A8TLPSiX/g5bh9avf766/YMNEcTVl94NppQHppSFtcxzqkHY5G6uA3LwVxWFn0mSgEp0J4KCMzbU309WwrkSAGAN87K4ps/PdIIDJ911lnhlVdeMTsE/wau8ZiT+xzo41oir0TWsaf885//DGzy5H2AarPNNrPo9kYbbRQef/xxA3MA9MYbbzRIAvaJnj/xxBNWHlH7nj17LmC74LkA+J133mnQCQjusMMOYY899rDnclrj2muvbRF4YBNABPw4Yh2A79WrlwEnUMhJp/fcc0947bXXrN5MLgA7ytpuu+0MBLP2CQAOmL3sssvCU089FXbaaSdbRfCIM+XRdsrhfcB93Lhx4eabbzbteC6gDxxuscUWYciQIdZ2nkM9qBM+fp6BbksssUTYfPPNbbJBG9ATHz1Hx2+66aZmKXrjjTdMJ1YvAE6fSAC1//jHP8KIESMMgFlVQPtf/OIXVib1oV5PPvmkQTZtY5Kw1VZbhb322sv6C01im47/TDsmT54cbrjhhvDMM89YvbiW5wPE1B8dt99++/DAAw+Eu+66K/Tt23eB/PhM3H73u99ZfRlvPJdynn/++XDttdeGKVOmNPUfEwbKol5MGNGbw4AYs1zPv9GQvt1tt93s9FrGAROC++67L9x+++1Nk0TaCLzvsssuYffdd7cJgUfQAXPGEOUpK0uOPqBUFSnQIAoIzBuko9VMKdCSAoU2fxJ1BJqAduAKoAMiAXQ2bwKngCNZXAAmYIZoLhYTQIz7AUBA7bnnnjNQBqKBUaDxvPPOMxgHsgE9IJKfuQ/v+IABAwy8Y+sDkU9AC5gHKNnoiZUGyMVL/fvf/94ip0R9gXCAc8KECRYRpzzqCtixgZX6E3lea621DOKo38SJEw3U8M9j1SFSzSu2bBCl/c1vfmMAvf/++4ezzz7borzUk0g+UXvKPOeccyxifNppp1ld119/fXv/k08+MT3Q4LDDDrMyKB97DqAMOPbu3dtAmskN1wGlnMaKHkxeKJN2UFfeQwPKIfLsPmoixdSRcsePH2+rD4Ao2hLFB37x+jMBQT9egClQzYTj4IMPtsmAR6h9DNFOoJy2MgmhHkwMGCfYnJgoEIlmosCEgr5icsCG3JNOOsnqwaQD8GaSR3k/+9nPws4772z6M2FDnw033ND0ov2MN6B78ODBtkpDH3AQEBM8JgM9evSw599///02EUNXnkd9gH8fe4wtVghefvllWxU4/PDDTTvq6x5zwJwVG6xRTKyU3aelTw/9XgpIgUopIDCvlJIqRwrUuAJEljn5M06X6GAOyABhbK4kis2GT+Dy3HPPDc8++6xFooF1YAu7APAF+LAJE0ACNPk3VhhAHvsJEwGPmBP9BZTvvvtuA2Hu69+/vwFnDEVucwDorr76arNnYKMBwLgP0AT2mTwcccQRNgngHqwcwCFRVyANMASsAXaAlyg+Vgmi92hARJ46UAa2D48S+wSByQSbS4HeH/zgBwbmWEoczAG6ddZZxzRhsoJmgB6TAiLxACSgDIQDvgAw4Im+6II+1IsJBqCKPugNkALWTF5OPvlkA0vqSSQagGWVwK0Z7rtmQoLlB9hcb731wplnnml1u/LKKw3Y0e3oo482sOb19NNP25H01JG+A66zYM4kijr89re/tTajEysnvM+EjH5mPJ1wwglh0KBBFlUHzIF06o3+6EE/sqrAzz//+c8Nrqkr44KJAeOKyQxtYGwwIaHNlMU4Gzp0qOnCRI/oPJMwouhk+2FiQ+SciQ19hT5sNuZ+IJ3ymFwQNaf/GZeAOf2CVrSLfuR6H4PNee5r/M9f1ZcCUiAnCgjMc9IRqoYUaG8FsmBOVNVzlAOgwBKQSNQc4AW28ZtjJSDays8AFxBPNJdrt912W4Nm3gdwgCnghkgoPxPxxJoCHBHtBoAOPfRQi/wSqfSNmK6Nb5wkWgpUUicAm2g99SECTrSe+vE7IsFEoonq8j5RbWASCAMm+TdQR2ScsoFr6g28Y3X4n//5H4uyZyPmgLlHzIHHbMTcwRwIBjoPOeQQs2gA0QAj9eIFmALGROupO5MHtKFu6MWLOl500UUGjNgz8M5jjQF6qTdas2rgdfTvnv2G74Ay9aVs+olIPJMEIJYINJMxt6ygAdFrwBWoBmY97aSXSfsBe8oCftmXwKTAwZ4JBmOGSVMxMKcswJhJgYM544SJFWCN9lhbWHGgD5kAMhHj2UzKmAT4xI6IN1owkaNvsQShH3YibD/0D5ozCWDSxnOwAOFLp97du3e3VR2BeXt/Cun5UkAKCMw1BqSAFDAFCoE5FgUip1dddVUYNmyYwRC5ywEgbAV4wbFoEG0GEIFYQJLriTwTgQassBrgh8bfTOQSYCIyS1YWwIkoL6BGJPcnP/mJwRzwmPV3O5gT8SRqSmQTfzvACjziCeYL2ASKgTRgH+sLYI61wyEaaCSaTZ1oD9FWAJBrsEew8RQ4JJraEpgTGXePNisLgDkeed5ngsFkAFAlusu/aSeReJ7NdUwqAGd80FhRiF7TdgdhoulYbtCXCDbasWoBaPJFeXG2Es9qQhnUi4g1thoAFJimH4FvysTKQRn+LDRAO1YNAH5A2SdJ6IWegC9tZMLDvUTy8czzOyZNWHmYOKExkWy3ssQRc56HzYSJBj8TMacPiW5jY2Gy5gdcUS7aserCeCRSTvSfcplAMHaBbSY4TD7QFk24n4kWEwV88NTfQZzo/AYbbGATMK6j3Q7mTBibi5j7R0ZL2YP00SIFpIAUKFcBgXm5iul6KVADCmSX3EtZgs96zD1iTlSTiC0RXWCcyKKX5+BHhg+gCxAlyg48AaLAOeAOSAOIRIeJoBMVJ2JJxBMLC3DKi416QDmwBjRlvb3+XIAfMMdyAZgD4tQNWLz88svNAsFEATCnvg7mwB1gDnxjtyGKDZQxCfAXz6QsJhMeTc+COfAJvNJGt/E4mAOkgCked54FIOKRRgs2dr700kuWh50oMRMfJiJAKFoA5kxS4kw0tJloNu9j70AfJkREzNEJsGay4+kSvR2eAz0GcyYCTFCIFNN+LCJErPGuA8euNzDOBAPIJWLOxAUI9TIBZLRmoyuAzwoHXnfuJ6LNWEEHJhHUl4g9/cXPsZWFCQftd48544n+BNjRD1Dnd3zRj/QLkXDGD9F0JhjsfQDOqRM6450nKk67mFQxwcLzjkWGSSArNfGGYDzuRP3ZnEwb3cqCHkzy3GMe73NAY58IxRtj/X0fLzXwUaEqSgEpkDMFBOY56xBVRwqkKgCIASxEB4E5T2OYPdwlhgh+9nSJ2BrY+AiYA474evE4k+6PyCiRSo8uEh0HTgFKouBcBzgRiQV2AXEgmOwpbCrE9gLw8AwiwwAgEAZg83wim8AV1g/sHAB/HDV3SIvB/PTTTzcwp62exxxYBvCoA7CINQIgZTJA5J9yADfsDTyHA4o8Gkw9sNcAakSuSXnoL38+WgDmgB72FKLRQCt6EJEGQrmXawBWLCs8C7AEhmkzmy7xaQPup5xyiv3MBAL4xmZCe/x5bHjlmUR7ifDi46aPAF984ESKeWW14j3qRGSZOhJJRmvGCEBN5ButgWOPmHMP9aGvsIiwqsEYos+5Dz3JpsLkg8266EcdmJDxOyYeAC1toVwmbIA5qyisthAZB5bRC0sO/Uf5vE9/MbmjDPqSCD+rCTybfuG59CEWKerCRmPuYZzwM9BNXzMm1113XQN4JiNsZmW80cfoSESeiRL9jN6saPimWcCciDl6+OZPt1TFew38Z8/Tz7+ZFPBv2sNXoQORUv++db8UkAL1rYDAvL77V61rAAWysAB84PMmEg1cAjGek9qzdcQnO7pEhbKyELEEzAAwAJLoKVAVH54DCAF7RMUBHCKMeICxsOD9xsICRFEnbArAEN8BTAAI2MJqwfWAEBsigWGiwWTpoA5ZMOZZgB73E/klMkpbidTyxb8Bc+DWwZyoP1DMhlWi5IA5MIclhA2cAB6RVFJA4p/29IpYHuIVB36mHNoKvLLxkgkG7xOZxZ8OGLJ5legw12K5AYqBeGw/ROrpH8Cd+jFZQBc2qRIpBox5Lv0FlFMfVi6I7FIuEWLgnbo7mGcj5q4ZnnHAGDBnIyV9RfsBYgCfzahYdojS8wLW8YwzuWLFgD0F/vKIObrRx4wNUiqSGx0QZhIA8NIHADATB2xGrBQA60TgsbfQNjRAFyLZTOoAc74zscEiw4oHejHePLMOzwR+0YtUlUwIWVkh1SITH/qPKDz1YdzwPvoSVccGxCSBsQuoM36I6lMXxoanrGSvA+OKthZLl4jWbquizdSJ+qAdG4xZARGYN8CHr5ooBdpAAYF5G4iqIqVANRWIwdwzcQBzAA+QCegREWaDJhFXoraFrC3ZA4awJxCZBkDJD05UGmDzTXL+XHJIE+kGrrkHTzFgRtQTu0G/fv3MUgIwEX0HmABBQBzQB7IBMcCIsoA1PN5EMoFCwCtuI9oSVed5RN4BQwCMCcAdd9xhMAWYA/8O5kRvAT6ADDAn6s911AeQoo6elYVINvm9iUjTHmDRXz4hARS5H9sM8MwEhHbRZjZUUj8gEEDkWnzYwBtwCPADc2SEAewBQ9rh0XY80WwQJcsJZXIddWKyQjm0l3aiDZMXItZEzAuBOe8BmFxP31F/MsSwooDFiH5iNQOtifAzqWNlA/3xl1P+1ltv/Y1TQmkT0W7sN0wYqKtnTwFQ6Uf63Cc99D2RcHRhIgCgM0aZ1PF8otqAOeOUyQITFiaTTMwAfqw/PI9ncQ1l8RxSYwL4gDATH+pPNBxgZ7yT3YYxzGQJOw79CcBTD8YEKxdMdpjEuUc+zmPOuOb6OCuLjwH+1rBG4fdHL/rJs+RQpq8qFZoEV/PzQc+SAlKgthQQmNdWf6m2UuAbCsQeV9/0R+SQiCxRUiLVeLjJJ05ebwAM/7TbE+KIuadLBEqBW1LNEa0FPrE8YEWIIdmjj9gwgB8gCsDC74t9Ar8xwIMdgSgrsEa6P6Ko+JyxQ3AN3/0US+4jMsoEAujk2qyPF6sOMMSGSfzegDXRVSKWREGpJ5FZwBaoQgvsJdTBT74kuo2PGr82UWUmCsAzL6CUaDFWCs9WwvsxZHEfKwlEx9GHSYB/8RwAGh84dh4sPkSN3WcPLNNHWDCwB2EZoa7AItFtrC/ujyfijs0C+Ec7tOQ64JQ+IdrP6kMhMPfxwMZHIBPNAFQmAkyEyPnN84hu+wZIrCJANvAOsMcnica53NkP4DYmVj34HXWj3vQtkyCsLEwE0JdJAJ50JoCUCURTF66l/uhAZhXGK2kvWRVAL8qjX2gLkxpgm3FMnRknXAecA8VcQ72YgHIdYA+YsxJD2+ljXxmhbCYEXAfs+0mv8cmfhcCcetM2xjiZYoiwMxFhYoX9i1UCJnnuQddHlhSQAlKgHAUE5pFa7ucsR0BdKwXypoCPY6wIRJ+BFyAQqwebBIluAiJYU4jCAipAFXADmBNpdjAHkojg4h/mPmDOX7HHFm8v9wJRRIUBNCKcRBEBL2AGcCKqCewBTgAT4A8IAtV++iInVHIfgAU4kfqwUNSRqCegByABQp5HmwgmUXYive5PBsJ5FlBIdNWPhQeo8BQT0UUjwI1oOnUEFt2fH7fZAZ3rWUkgQk7Ul5UEJiaUTZtpD9FhvqMPfnTqCmgzWQBKmSQB5cA79wP01B/t0AfQxMrBRIEvAJ02EOml7UTWKcPTWhY6pRTtvFygE4AE8oFvItG8hzZEf9GLCDE51CmXPQbxhMRXWqgX/cYYY4wwkQBWuZfJBv2HrqyM8CzeYzUBOOZaQB3LkwM2UMzEkfEJMKMfkXPXiwkPk0v61FNDerpFtKIfqT/tRwvGNxYuVkPoJ2xCrDrQD+jHOGUlifJY1fFNptwfgzkTKiw+9BfPYxJJGQA5kz2i84xT2kM5ftBW7NfP2+eD6iMFqqWAf2438qrR//uP2AuVIbrAPBKLKFZ2530ZWupSKZALBXwMAyRAI9FRwBQg4+VQArwQoQTQgT+gxC0PRHqxhwCM/F14NLTYZjauAah4Eenmxb/JzkJ0G1ABUAE/vhx0AHZ+F0fvKYsvzxICsBb6YOf3PMN9z5RL230TZ3wf1/A+L67zdvAeX5TjGxupi1/T3H8obhPhPvcb0644hZ7bflwf9CD6y3X0A89Br9izT30APa7jferj2XB8j4CXR/nF9IkHo+tC2fxMedTB3+d5jA/K8j4qVK5H4LmWKDyReyYLTIoAbeoFlDMZBNixQXku8ri/qBtt4Rmxdm4Z4T2egbbUjTqhg7fX2+Y6oBXjDL1cV+9D7yfK8/HINUxIY/0cpomAM6Hl30TMGbdMpph88bsYyH1ySnnsWeCgKIA/Tj1JXfX/Si4+GlWJKigQr6q5nSue3FehCrl5hEO5V6hUOG94MPcPTL7z4e4pz3LTs6qIFGiFAv7hSDQPHy7ATUTTIYHfA2dAFRFkLBLYNrBnsOmOyB9g7nmky61CbD0p5Gcvt7y2ur496lbKM31zoQNsHiJOMVwC+Pi4GStAKJYjIuyMMd7H/43nn7HHGAOSy32VolN28lEIALLl+OQi1tSvYbIQgzmAzmoD0Xbaxd4DVpayE0dWgtiwS5Q+eyhWue3W9VKg1hXwvycm2h5YaHQ4LxXKTaf/p6m8/Q3wYUv0h6VpAD22tfgHea3/saj+jaGAg4FHHbE9sPTOUr+DOd/50ORaPjixXwAXvAecY2VJAXNX2v+OgKA8wGWhEZD9CGzLenp0uKVnxJ8/1dQunlBltfLf0QZ+xnLEBlx8+qzOAN8AK2OI1RgiyGzA9Ch43OaW2h8/uznNsvUtVv+4j/2auA7+Ge9gTuYaNppi6cEmg9WJvx+/zjdZ+wSXKDkTEz/RNf47a4xPHbVSCvx3D46v7LESi10Mm5r/v6QUoi2PlIYHc/+QJrLIRjL8iixx4jn0D2HNXVoeSLoiPwo4yDnckUccLzDL+A4MvsToYxwPLz5tfOj4e8lx7XnMK9ky/3trDgAr+by8lVVOu8uNGFejrdkVRjZg4t9m0y2ef1ZY8OZjj8ITzngq9PlZDpiXo1lrNfC/FQdzct5jyWGTNIDOSgCrBA4VPjmhHdhhWBVgD4V71amHTyhaWyfdJwVqUQH+JpiMY/9ivwebyNnY7ZY9gXnLvdrQYB7/x0dmB9KP8SHsG6PiD9+WpdQVUiA/CjhoAOOkpGMpHrhwi0u8nM8GOSKbfHENWVGwsrQFmOdHoerVJAa0coC0uRpmob09IN7HGN5uNoIy1pjgsS/B01RWT+W0J9EW94V7ukQmHWS9YdOqp2r0yS1P8wkwYE7KS060ZTIST0Qq1d9prdPdUqA6CvhnAmBOClxWmtjYz54lz+uvv4mW+0Jg/p8PWMCcDAJEzjl4A69gvJzcspS6QgrkQwH/4GPTHJs+WQkirR2R8/iD0+0rLDWSHYNMKUAJm0VJNQiYt9Zjng8l2r8WrbXJxCsLWeuFQyStk5+5Mn3sfxf87bjHnPfwmGNzxAqGxYuMOWRlcVuYR8zJJoPfnvzlrBI4uMfftfJamb5SKflWgHHO5xLnRbC3adCgQQLzMrtMYF4AzPmAJc2ZXlKgFhVwAGDTGjmeyXdNRgkigkQyWXInrR+p9ji1Em856exII8cGN4F55XrdM5Hw3TOhlFN6vGrnS8D0r2ei8UmYolDlqPrNa2MrC2ke46ws+MbpBzz1wDmTV1KI8m+89dyLv/7QQw8Nhx9+uB2eFNtv1DdpfaO7a0sBXyF0MOfAOfYsKWJeej8KzFsAc0U5Sh9MujIfCjBm8cOy6ZNDf4ha8B75mPH+kr4OICfXN9E9T/EXgzlLj4qYp/cnkVWsENg9mAAxKSoV1PgPjo3ofOFd5ot7yRxFX3nKxThqLhtF6/qsOTAnDSRae8pN8ssD6OSlJ1kA/8ZPy98TK00c+BSnwCy1v1tXc90lBfKlgIM5qVIVMW9d3wjMM2DOBiZOBlTEvHUDSne1vwJABp5fsgxhY+FnoJAME+QtByA8euHLjsADsOcnfwrMW+7HUjYlckCOH0U/dOjQBbKUtHQ/QI5Hk3zga6+9tuXHBs6x3RGxBRaZZOHp5uVQHvvNBYUt96Nr538L2Yg5k6k43SOATt+wH4PoOXs4AHUOa8JPy/4MrC1azShNe11Vuwo0F7gEzFmBVcS8/P4VmBeImDuY6z+18geU7mhfBYhWAA5kyrjkkkvMY86ueICckyb9kJZCUOhg/stf/jI5j3n7qpD29Kw22bzXfC4Us5hkPzM4GZJN5URV6Q/2rvjBPh5ZirMUeOTWJ1d//OMf7YTPgw46yCKxZDlgvwATLqKyw4cPt1WQOEWmZ9yJQd3bFNth4na1BJEtTSLSFG//u+OIOR7z888/3/6O6DOsLN5n1NS14h4OLcKDzkTpH//4h2U04kwAslD44VL6f6T9+1c1qJ4CsZUFMMdjLitLefoLzAXm5Y0YXZ1rBYAFrA54yjkMBfsKaRABujjqVwgWsmDeqFlZCoG5e8WxCHk6MGDNv4oNCsD85z//eZg1a5adIslKXAzmbo9wO1EM6URk8WlyND2gd8ABB9hm3Pvvv982GjLJuvLKK83T7GDuNibPs025DojUkeu8LV4PP7k0zqSS1UBg/n+npMZg7n2OnnjNyeIyY8YMmzBxuBJ6KjVcrj8uVbk2UEBgni6qwFxgnj6KVEKuFPCldrKycJx4oWhfoQoLzP9PlRjA+BmLAlk5sDgAX7y35JJL2kmpZLRZb731FtjsF2sLmJMTnvsuuugiA3PAHjvKk08+aV9s0uVId+wqlMfGXK4n3dh1111nOcI32mgjsyIts8wy4Zlnngn33nuvQR/LxAceeKAdbkO9pkyZYqn9yBzCOOCAj80228xAkUkaFgwmbA888IA9h3/jk6Y9rKwwiSsUPa/3qG9rIubez/FyPn9DTHTQkwmRXlKg0RQQmKf3uMBcYJ4+ilRCLhUoFuErVlmB+X+Vce1IMTlmzJjw97//3QCZ7DW8/PAMbAuAMUBbKKrsEXNAm0NrsLIQVQWs77zzTgN0oBxLBBHwLbfc0s5RYIXj8ssvt81T7HvBhsTpeYA5NiWsE6yAMDlgwyEnbQLc1157rYE7UAhMMzlbZZVVwsCBAw3ieR9rzJ/+9CcrE4gkms8eBKLwTDIcKGPLhsC8eMQ8/nsq928ulx8cqpQUSFBAYJ4g3n9uFZgLzNNHkUrIpQLlQoLA/L/d6P5rYPxvf/tbGDVqlMFvnz59zKrAMe1YSohCn3TSSWHAgAEtgjkRc/LFUxYWFLzJu+66q50uyfkJeMcBdcrCtkLUGzgHxImk77LLLmZlYaPhNddcYycUDxkyxKAbi83IkSMN5IH1fv36WT0BeDYoEjlnQ+8mm2xi1hg2onJYDv50oJzDpXbeeWe7jhWW7KverSy01w8Yas5j3tIEpdy/uVx+cKhSUiBBAYF5gngC8wWXrOMDhrT5M31gqYTaU0Bg/k0wJ9UhG5iIcgPLQDQvYPnCCy80oD7mmGPCYYcdtgCYO6ARMQfc+XxhoyaRdbIVYCUBqDnUDEsKkW0y4owYMcLsR2wYBZhJd0mEG4/5D3/4w0DqPgD+5JNPtgwtV1xxhVlSbrjhhnDxxRdb1P2UU06x6DqR7zfffNMsNI888ohF4qkrP5Mphug/ebfJJEIkngh8MSinzS1Bae2N+AVr7JOPGMwvvfRS07yQLrXeXtVfCrSFAgLzdFUVMVfEPH0UqYS6UEBg/n/d6IDGd6LaQDlZVYAz8pLjOccuAuDiJT7qqKPCEUccYRFXP6bdwZzIOpCNXYQMH7zItIIXHDDfaaedzOfNfUTn8ZUTyT7yyCPNesLmTw6J4vAaMrOQuu/BBx80+AbMAXmsKkwSrrrqKjsS/uCDDzYrjGeOIYpOGaRWJFL++OOPhzPPpgfaIwAAIABJREFUPNP87kcffbRFy7VJ8b/9LjCvi48zNaKdFBCYpwsvMBeYp48ilVAXCjiYn3HGGZYukQgxkdRGfDmckwN+7NixZhMB2PCCA7HYSID2rl27GkTz5fcA2Q7mbKx0MCdyTYSd70899ZRFt/ni5WkugfTVVlutCcQBcyLmROTxstMfgDl+cCLigDkQzkmV2GOIvJMNxCPcntKP9wFxnv3Pf/7T0i3uvffeVi52Fp9QNGJfe5sVMW/k3lfbK6WAwDxdSYG5wDx9FKmEulBAEfP/dqNn6SDajMecU1RJS0h0uUuXLgbAN954o0XPWwLzOF0iKRAvuOACu69///5mQyF7iqdgZDMmYM0mzNVXX91sL3jC44g5NhjsdoA5m1KxWpx33nmWwYXDo4i0Y0vxMimf+lJvNpdyv4M5kX7qEK8UFBrMjeAxF5jXxceYGtHOCgjM0ztAYC4wTx9FKqEuFMhGzMljzmbDRn2xoZLsJXjDsYv8+te/tgg5WVRInwhgkzEFKwvgXOjlVpY5c+ZYHnPsMPjG8X5zz/7772+3Ac9YZtioCZzvsMMOTX50bCh4wYmYEx33POZs7gTMAXgyvuA3JzUiB0QB634QEmVSXwC8b9++TWA+ePBgm1Q4mDfXz/UO5oXSJQIY2I/kMW/UTwC1uzUKCMxbo9qC9wjMBebpo0gl1IUCgPmtt95qYIeVpVHB3G0owPIf/vAHA2o2feLP5hRI7Cg333yzRbKJbuPpZlMltpSsVxsw9zzmQB7lAPvc27t3b7uPTChE0kmhiE0F+D/uuONsMoAfHd85mVrY/LnGGmtYVhYi5theqB/ZYh566CGr57x58wy2AXCi5pMmTbLI/vTp023zJ+kdeQYec4H5N1dI6D/3mAvM6+JjTY2osgIC83TBBeYC8/RRpBLqQoEYzIHJRj350/9jAdBJbUi2E8AW2AXMiX4T8WZDJ1FpABu7CvYTNmT6i9+RlQWPOfdQDlYSIuDYYyiTg3+IeHOUO8ANTO+777620RPov/766y1qi6d9t912M/sL/XT22WeHp59+2mwr+MTxnjOpAsLZkEpdiahzzbRp0yzDC7YVDjFiAsD9eMyJxJcSMa+LAd5MIxQxr/ceVvuqpYDAPF1pgbnAPH0UqYS6UMDB/Fe/+pVFeYnQNvLmTzoVeMZnDvQS1QZ2SWcI+BKxBryJsh5yyCGWO9wPIPIBQS5yNlxyL6sQADInfXJoEWVOnjzZ/N8AOQf+AN9Ex9kAipWGTC2k7CPyvtZaa9npnHwnteJNN91kPvNjjz3WgJ3MMaRNpGw2rfIC6HnmnnvuGXbccUerMyeYslEUuwxgT2SeV72nQ2zuj1RgXhcfYWpEDhQQmKd3gsBcYJ4+ilRCXSjgHnPA/MQTTzQwb2SPOZ2K3xuQnjp1qnnAO3XqZCDLRkoytMycOdMi2ESiiaYD2PEL6Mb6wnfAG386/3FhOeE0UMCb78A+Zay00koW8aYcruP55EAn4g5kkwed35O2EegH3kmRyEFHWG+YAFBXvvgddcU+w++J5lMm9aW8pZde2iZeTDYa/VUIzNFTecwbfWSo/eUqIDAvV7FvXi8wF5injyKVUBcKfPbZZxaJdTBvVI953JkObEAuX0THiVKziZPf8R7/Efl7haLOnk+c38UedN4H7gFA3geQ+Z4tw1Mp+v2+qdPL5dl+D3VyoKcdXt+4TE/nqBSJ/+3pGMxZUWAfADqy8ZfNn4X6pS7+6NUIKVBhBQTm6YIKzAXm6aNIJdSFArGVhYi5wLy2utXhklpnQby2WtI+tfXMM4A5eeGZdOHvZyWEyU+9Z6ZpH9X11HpTQGCe3qMCc4F5+ihSCXWhgEfMSQt4wgknCMxrsFc9o4xXvZF94+V0n09q0IusLIA5KxlkunEwL6c8XSsFGlUBgXl6zwvMBebpo0gl1IUCHAV/5513Bk7+JIPHkCFDbBlfr9pTQNHd8vrMLUBYVkg9SQYdouR8Z58F1iW9pIAUaFkBgXnLGrV0hcBcYN7SGNHvG0QB/M5+quQuu+xiG0DZjKhXbSkQR38VMS+t72IwJ0XmiBEjbIMvXnM222bz05dWqq6SAo2ngMA8vc8F5s2AOfLqP7b0QaYS8q+Awxy5tE8//fSw7LLL2oE6pOaTXzn//acalq9AbPtxMGesc6gTB0D16dPHDmIiWu4bZvV/Qvk6647GUkBgnt7fAnOBefooUgk1r4BDCnm1Od6d/NxYWrbddltL0xcDiSarNd/dakCkgEM530ltycm3HCCFleuAAw6wTZ+KmGvISIHSFBCYl6ZTc1cJzAXm6aNIJdS8Ag7m5MfmyPbf/va3YfPNN7ej4YmaAyb+VfONVQOkwH8UiKGcXPPXXnttuOKKK+xQJk5zZewLzDVcpEDpCgjMS9eq2JUCc4F5+ihSCTWvgFtZ+FDltMs//OEPlp2C4945uh2vuUfKFT2s+e5u+AbE451xzYFPzz77rOXwZ3wfeuihYfDgwU2HL8W53xtePAkgBZpRQGCePjwE5gLz9FGkEupCAYcVIOWxxx4zS8tHH30Udt9997DXXnvZyZS8ZGWpi+5WI0KwaPjHH38cxo4daxs+mZQeeOCBYd9997VTU+Pxrkw3GjJSoGUFBOYta9TSFQJzgXlLY0S/byAFHM6xtJCh5eqrrw5z584NPXr0ML/5euutZ8e7L7roopZOTpCeNjiyece9NNkn0nQtdrdbVzg8iDE+bdq08NRTTwUOFcJXPnDgwLDffvuFddZZR6d9tk0XqNQ6V0Bgnt7BAnOBefooUgl1pUAcOQfOb7vttsCm0E6dOoXu3buHrl27hqWXXtrgvBiYC9hLHxLNHQpUDNxLL72+ryxlnLmGXAs08MUpt3PmzAmvvvpqeOONN0Lnzp1Dv379LFK+8sorN+UtL6X8+lZYrZMC5SkgMC9Pr0JXC8wF5umjSCXUnQLxsj3wct9999mmUCCGfOcdO3YMHTp0KNpuAU15Q8Lhkf/U2IRIRHexxRazVQm9iitQ6jhzfX1cY9fiZw7Q2mSTTcKAAQPCdtttZ+NaqRE14qRA6xUQmLdeO79TYC4wTx9FKqEuFXCI+eqrrwKngn7wwQe29D916tTw/vvvh/nz5xvc6JWugFtXsA2xCXHmzJmhb9++dsgNmxGlc7rGlAB0oycrPnjI11hjDdvYTEpQoFwbmyujs0ppXAUE5ul9LzAXmKePIpVQ9wq4N5doLkBORJcPYF6CxvTuBxj5YsKDr98Petpggw10HHy6vAuUgM6sRCyyyCIG474qUWr0vcLVUXFSoK4UEJind6fAXGCePopUQkMoIABvm26OrRNvv/12GD58eBg3blwYNmxY2HTTTQWOzcje2jEpCG+bsaxSpYDAPH0MCMwF5umjSCU0jAKtBaGGEajMhjoguq6zZ89eAMw55EnZb5oXtaUxKQgvc1DqcimQoIDAPEG8/9wqMBeYp48ilSAFpECSAu7nB8wvueQSS99HxBwwb26TbdJDG/zmOFtLg0uh5kuBiikgME+XUmAuME8fRSpBCkiBJAUUMU+Sr1U368CgVsmmm6RAswoIzNMHiMBcYJ4+ilSCFJACSQpkwZyI+TnnnBN69eqliHmSsrpZCkiBaiogME9XW2AuME8fRSpBCkiBJAUKgfnQoUMNzJXLPEla3SwFpEAVFRCYp4stMBeYp48ilSAFpECSAoXA3D3mAvMkaXWzFJACVVRAYJ4utsBcYJ4+ilSCFJACSQooYp4kn26WAlIgJwoIzNM7QmAuME8fRSpBCkiBJAUUMU+STzdLASmQEwUE5ukdITAXmKePIpUgBaRAkgIC8yT5dLMUkAI5UUBgnt4RAnOBefooUglSQAokKSAwT5JPN0sBKZATBQTm6R0hMBeYp48ilSAFpECSAgLzJPl0sxSQAjlRQGCe3hECc4F5+ihSCVJACiQpIDBPkk83SwEpkBMFBObpHSEwF5injyKVIAWkQJICAvMk+XSzFJACOVFAYJ7eEQJzgXn6KFIJUkAKJCkgME+STzdLASmQEwUE5ukdITAXmKePIpUgBaRAkgIC8yT5dLMUkAI5UUBgnt4RAnOBefooUglSQAokKSAwT5JPN0sBKZATBQTm6R0hMBeYp48ilSAFpECSAgLzJPl0sxSQAjlRQGCe3hECc4F5+ihSCVJACiQpIDBPkk83SwEpkBMFBObpHSEwF5injyKVIAWkQJICAvMk+XSzFJACOVFAYJ7eEQJzgXn6KFIJUkAKJCkgME+STzdLASmQEwUE5ukdITAXmKePIpUgBaRAkgIC8yT5dLMUkAI5UUBgnt4RAnOBefooUglSQAokKSAwT5JPN0sBKZATBQTm6R0hMBeYp48ilSAFpECSAgLzJPl0sxSQAjlRQGCe3hECc4F5+ihSCVJACiQpIDBPkk83SwEpkBMFBObpHSEwF5injyKVIAWkQJICAvMk+XSzFJACOVFAYJ7eEQJzgXn6KFIJUkAKJCkgME+STzdLASmQEwUE5ukdITAXmKePIpUgBaRAkgIC8yT5dLMUkAI5UUBgnt4RAnOBefooUglSQAokKSAwT5JPN0sBKZATBQTm6R0hMBeYp48ilSAFpECSAgLzJPl0sxSQAjlRQGCe3hECc4F5+ihSCVJACiQpIDBPkk83SwEpkBMFBObpHSEwF5injyKVIAWkQJICAvMk+XSzFJACOVFAYJ7eEQJzgXn6KFIJUkAKJCkgME+STzdLASmQEwUE5ukdITAXmKePIpUgBaRAkgIC8yT5dLMUkAI5UUBgnt4RAnOBefooUglSQAokKSAwT5JPN0sBKZATBQTm6R0hMBeYp48ilSAFpECSAgLzJPl0sxSQAjlRQGCe3hECc4F5+ihSCVJACiQpIDBPkk83SwEpkBMFBObpHSEwF5injyKVIAWkQJICAvMk+XSzFJACOVFAYJ7eEQJzgXn6KFIJUkAKJCkgME+STzdLASmQEwUE5ukdITAXmKePIpUgBaRAkgIC8yT5dLMUkAI5UUBgnt4RAnOBefooUglSQAokKSAwT5JPN0sBKZATBQTm6R0hMBeYp48ilSAFpECSAgLzJPl0sxSQAjlRQGCe3hECc4F5+ihSCVJACiQpIDBPkk83SwEpkBMFBObpHSEwF5injyKVIAWkQJICAvMk+XSzFJACOVFAYJ7eEQJzgXn6KFIJUkAKJCkgME+STzdLASmQEwUE5ukdITAXmKePIpUgBaRAqxUAyvlaaKGFwpw5c8Kll14axo0bF4YNGxZ69eoVvv3tb1vZ/F4vKSAFpECeFRCYp/eOwFxgnj6KVIIUkAJlKTB//vwwb9680LFjx9ChQweD7m9961th9uzZYfjw4QbmQ4cODVtssYW9z+vrr78OX375ZeA/vs6dOwvUy1JcF0sBKVANBQTm6SoLzAXm6aNIJUgBKVCWAjNmzAiTJk0KnTp1CmuuuWZYaqmlwiKLLGIR88suuyyMHz/ewHyzzTazcgH5t956K8yaNcvu4X2AXi8pIAWkQJ4UEJin94bAXGCePopUghSQAiUp4P9pTZs2LVx33XXhxhtvDAMGDAgDBw4MG264Yfjss88sYj527Njwu9/9LvTs2dNg/eGHHw633XabwfghhxwS+vXrJzAvSXFdJAWkQDUVEJinqy0wF5injyKVIAWkQEkK+CZPIuBjxowJp512Wvjkk09Ct27dwlZbbRU22GCDMGHChPDUU0+F4447Lnz66acWPX/hhRfMxjJo0KBw4oknhhVXXFFWlpIU10VSQApUUwGBebraAnOBefooUglSQAqUrAD/cfEias5GzyuuuCL861//Cssvv3xYZZVVDNTffffd0L17d/uO7YVIep8+fcKxxx5rEfaFF164yXte8oN1oRSQAlKgjRUQmKcLLDAXmKePIpUgBaRAyQp4FpYvvvgiPPvss+H4448PkydPtog4GVjYCMo1wDfAzmuZZZYJRx11VDjiiCPCSiutZO/5ptCSH6wLpYAUkAJtrIDAPF1ggbnAPH0UqQQpIAXKVgD4/vjjj8MZZ5wRbrnlFouOO7RTmGdqAcB79+4dTjrpJIuWK21i2VLrBikgBaqkgMA8XWiBucA8fRSpBCkgBcpWAAgnIs7GzrPOOsui51999VUTeAPg/CdHtBwLy0EHHRTWWGONppznZT9QN0gBKSAF2lgBgXm6wAJzgXn6KFIJUkAKlK2AR8ffe++9cPbZZ4dRo0YFfvaIuFtaiJaffvrpYfvttw+LLrqoIuZlK60bpIAUqJYCAvN0pQXmAvP0UaQSpIAUKFsB/gMDzjk46N5777WTPp955hkrx08CJT3iKaecEoYMGRJWW201ex9ri+wsZcutG6SAFKiCAgLzdJEF5gLz9FGkEqSAFChbAc/OAmxz4ue5554bbr755vDhhx82bexcZ511wvnnn2+pFD1aLigvW2rdIAWkQJUUEJinCy0wF5injyKVIAWkQNkKeE5z/iMjI8udd94ZLr74YstjDnwvueSS4bDDDrNsLKuuuqq9JygvW2bdIAWkQBUVEJiniy0wF5injyKVIAWkQKsV+Pe//22bPImaX3DBBWHkyJGBA4iIlvPvHj16hMUXX7wJzN3m0uoH6kYpIAWkQBspIDBPF1ZgLjBPH0UqQQpIgVYrAGi7rYW0iUTN33rrrTBw4MBw5plnhiWWWKIpdSIP8Ui7ouetllw3SgEp0EYKCMzThRWYC8zTR5FKkAJSoNUKOJizqfP1118PV155paVOPPHEE8OOO+5oBw3x0oFCrZZYN0oBKVAlBQTm6UILzAXm6aNIJUgBKVCyAh7x9huwsvD12WefhZdeeilcf/314eWXXw4HH3xw6NevX1h22WVt4yengvJSpLxkqXWhFJACVVZAYJ4uuMBcYJ4+ilSCFJACZSngOcyBbA4ZwrpCysS77rorTJkyxawtWFi22267sM8++4SNNtoodO7cuSlVouC8LLl1sRSQAlVSQGCeLrTAXGCePopUghSQAiUp4EDOxfwHRpScbCz33HNPeOWVV8Lyyy8fOFBoueWWMzvLE088EVZYYYXQt2/fsPvuu4fu3bsHcpsXegnWS+oCXSQFpEAbKiAwTxdXYC4wTx9FKkEKNLgCLWVK8cOEHJ7ffffd8OSTT4aHHnrIDhXCqtKrV6+w9dZbh/XXXz8stthiFkV/6qmnwiOPPGI/r7zyyqFPnz4WRV9vvfXMe+7/CSqVYoMPQDVfCuREAYF5ekcIzAXm6aNIJUgBKVBQAfeT+wbPTz75JEyaNCmMHz8+/POf/wxz5swxEAe4t912W8tXvsgii1jmFf6D+/zzzy1qPm7cuDBx4sQwb948ux44J7L+ve99z66Po+WKnGswSgEp0F4KCMzTlReYC8zTR5FKkAJSoCiYA9lYVqZPnx6efvppi5K/9tprtqkTi8oee+wRVl99dYuSe9pELwzI5r0PPvggPProo+ZDZ4Nox44dww477GBwTvScstzioui5BqMUkALtpYDAPF15gbnAPH0UqQQpIAUKKsCJnu+//75Fu8lR/thjj4VOnTpZGsS99torbLnllnZfc7nJY7vKrFmzwujRo60sylx77bXD97//fYugd+3a1coGzEmtqHznGpRSQApUWwGBebriAnOBefooUglSoEEVcG95FoIB8g8//DC8+uqr4e677zYg5z+szTbbLAwYMCBssskmYamllrIoebFXId/6V199ZfYWB/QHHnjA7DDdunUL/fv3N0BnAykZXPz+2NrSkhe+QbtRzZYCUqBCCgjM04UUmAvM00eRSpACDapA7CFHAv5TAsrJQ05k++GHHw5s9Nx0002bgHzFFVdsAnLPTV6OfDyTvOcff/yxHUh033332QbRuXPnho033tiyt2CRIXrOBtFC/nMBejmK61opIAVKVUBgXqpSxa8TmAvM00eRSpACDaZAFsiBX6LZU6dOtQj5gw8+GN5++23zjhMhJ+PKaqutZrCMzaQSGzSpA8985513wosvvmiTAI/M9+zZMwwePNgi9EsvvbRNGLjeTw+txPMbrMvVXCkgBUpQQGBegkgtXCIwF5injyKVIAUaTAHfpAngfv311wbHbOocM2ZMmDx5cvjud79rGzPJtrLBBhuYbcWBvFJQ7DnR+U62lpkzZ1oKRjK+4D8nF/pWW20Vdtppp7DhhhuGxRdfXNlbGmycqrlSoNoKCMzTFReYC8zTR5FKkAINpoBHoAFyDgIiYwrfgXTsJHi9iVaTe5yXQ7RHrCshV6GoPdlfSMf4+OOPh7Fjx4aPPvrIIvUAOhtN11prLQP02BNfqYlCJdqkMqSAFKhtBQTm6f0nMBeYp48ilSAF6lyBGGT5mUwrb7zxhuUYJ1I+Y8YMS1u48847h1122SV06dKlKTrdVuAb+8S9fnSDp1gEzDlRdMKECWZ5wedO/YieM2HAf+7Xx9/rvCvVPCkgBdpQAYF5urgCc4F5+ihSCVKghhUollYwC778hzN//nzLKc5my9tuu81yimMZGTRoUNhzzz0tOs2BP2zO9LSF1ZQm2xY2iHI40ahRo+xAI/zmu+22m9XXPe/xBtG2mkRUUwM9SwpIgfZTQGCerr3AXGCePopUghSoIwVii4hbULCokF0FD/edd95pQM5GTiwrbO4kWk7qw9hH3h6QG6dv9MnBv/71L9uISuT89ttvN6sLJ4YS2eeQojXXXDMsscQSTROJ9qh3HQ0fNUUKNLQCAvP07heYC8zTR5FKkAJ1pABwy38uQDZQS9QZmL311lvNRw7wbr311qFfv35mC+HUzUUXXdQUyNOhPnHEn4kF/vNp06aZ/5zMMe+9915YddVVbXMoX8C6bxDV6aF1NKDVFClQRQUE5uliC8wF5umjSCVIgTpSwOGa/2CeeeaZcNddd1mmEzZSbr755hYhB8jJR96xY0eLNNdClNnTKzLRmD59uqV0JIsM1pz111/f8p/jQcfuQnsKHVBUR92spkgBKdAGCgjM00UVmAvM00eRSpACNaxAvHGSZhAl58ROfORkW5k9e7ZtluTQHjKtYFvxyHKcGzzvEsTRfP7zZMPqCy+8YG3Ef47XnPzn2FvIu07KR18FqJXJR977QPWTAvWugMA8vYcF5gLz9FGkEqRAjSrgHnKqz4md5AJ/+umnDcqxr+AjB8aBcqLlfkCQN7cWIuWFusYhnWwt2FtoL4cTcZIom1m32WYbS7G47rrrhu985zvfWBGo1XbX6DBVtaVAzSggME/vKoG5wDx9FKkEKVAjChRKK0iEHL/1yy+/bJYVPNhkXyEfORskyf+N//rb3/52k/e8RppbtJo+IXHLyhdffGEHI91///2WxeXDDz8M66yzjm1uJXrOCaasEnge9lpaKaj1vlL9pUAtKSAwT+8tgbnAPH0UqQQpUAMKxFDu/3l8+umn4c033zSvNekPiZhjVdl///2bNkTWm9c63hRKt8WHH7Fq8Nxzz4Vrr73WouhsGmWj6+DBg82H7hOU9kgFWQNDTFWUAg2vgMA8fQgIzAXm6aNIJUiBGlAgToPIEfZAOdlJSH84ZcoU28xJfu/+/fuHlVZayfKRu7e6kid25lUqz0ZD1pnPP//cUkPecsstZnEhWr799tuHfffdN3Tr1s0sPdkDivLaLtVLCkiB6ikgME/XWmAuME8fRSpBCrSjAv4fQTHfs0eEuY4IMKd2Yle57777zEfeuXPn0KdPH0t/iGWD9IfYVrLlNYKvGo140VbSK86aNcsi6ExgXnvtNcvYwubQHXfc0fznZKXx3O0+BBpBp3Yc7nq0FMi1AgLz9O4RmAvM00eRSpACOVAgzjoSpzz0aDfpDkl/iGWFDZ4AJJC57bbbhu7du5tNQ6dg/tfaQpfynyz+czaFEkEH0LH7rLLKKpZakVNEmcwwkfEDjZTBJQd/DKqCFGgnBQTm6cILzAXm6aNIJUiBdlIg65emGvEBQfxM5HfixInh4YcfNrjEpoFfmo2Nm2yyiaVC9PSHzTWj0LPaqdlt/thsCkmgm3znrDCwOZT0ip988klYe+21zeLC5KZLly4FJzaNpFubd4weIAVyroDAPL2DBOYC8/RRpBKkQDspEENfNtMIGxnJR/7EE08YTJK3m6g4QO5Rck7sbMkK401rVMDMnmaKjhMmTAhjx461POisMmyxxRZmB2KiQ7pFtwLl6STUdhqieqwUaCgFBObp3S0wF5injyKVIAXaSYFsphWq4fnIX3zxxTB69GhLg0hEnDzkHD2/6aabhiWWWKJp86LgsfnOy05+uJr852SzIXMLJ4iSC3355Zc3axDpJddcc00D9GzknXvlQW+nPxY9VgpUQQGBebrIAnOBefooUglSoJ0U8M2KvrET2wqbFMm0wubOuXPnWnR8n332Cb1797aNnrwARqK6/rNgsXUdSA54AP2mm24Kt99+e8DHT/53stsQQWcjLasSrq/8563TWXdJgVpRQGCe3lMCc4F5+ihSCVKgygp4JBbvM5s7AcQ33ngj3HXXXeHmm28O7777bthwww3Dj3/8YwNyz7SiiG3lOiqbfhL9r776apsQkY4Se8uQIUPM3rLUUksZnMdpJzUZqlxfqCQpkBcFBObpPSEwF5injyKVIAWqqIB7yfkOAM6ZM8dOrMRS8dZbb9lmTiwrRMp9YyfR8WxavypWuS4fFdtUmCBhb2GDKL5z+gIfOq+tttoqDBw40A5uIt0invR4xaIuxVGjpECDKiAwT+94gbnAPH0UqQQpUCUFHMoBQaLiZFq59957w9SpU8MyyyxjMN63b98F8pF71RShbZtOynr0sRPNnj074PG/5557LJMLBxJxgijpFUlNib2FiVK9naraNgqrVClQOwoIzNP7SmAuME8fRSpBCrShAvGhN8D1O++8Y+n6PP1hhw4dzDYB+PXS//MaAAAgAElEQVTs2dNO7XQvs2C8DTumSNEO6qxmsPGWyDmbRDmsiBUMJk+kWATQY6hXX1W/r/REKVBpBQTm6YoKzAXm6aNIJUiBNlIgPijoww8/DK+88oqd2skXJ3h27drVMoFss802YdVVV7WTKBUhb6POKLHYOIsLKxsff/yxHegEnD/11FOWNQf/P3Deo0cPg3XvN+6NfeglPlKXSQEpkBMFBObpHSEwF5injyKVIAUSFSiUko8i+ZBnYyeZVjzyOn36dEvFR4S8f//+lpovBnKBXWJnVOj2eHOoW4+YUOE/J5LOC9sR2VsA9e9+97uB1Y84g0uFqqJipIAUqJICAvN0oQXmAvP0UaQSpECCAtmDe9xHTmT17bffNign08qzzz5r4IYVYo899rC0fOQnj1+xHULWiIROqeCt3r98//rrr22DLtHzUaNGhZkzZ4ZVVlnFvOdMtFZbbbWmDC5KrVjBTlBRUqBKCgjM04UWmAvM00eRSpACrVTAIdw3AnqUFYDDtnLVVVeFa6+91nKODxgwwNLv9erVywDdved+L1UQjLeyI9rwNgdz+iu2qnz66adh5MiR9sUBRRz8RP/uvvvudgCUvwTobdg5KloKVFgBgXm6oAJzgXn6KFIJUqBEBQpZVhzOKYIoOTYHMq2MGTPG/Mnrr79+GDx4cNhoo43sdEmPkgvYShQ9h5fR5/wHzr4BoJzc52zm/eSTT6yfWRFhZYT850zKspt5s6ssOWyiqiQFGlIBgXl6twvMBebpo0glSIESFYhtDbEHmRzYpDzEf4zNAQsLFgc2CBIh79atm0VRY0gr8ZG6LKcKOJyzOkIu+ueffz6MHz/eNoiyr4BMO+wh4ICi73znO0156IF0gXlOO1XVangFBObpQ0BgLjBPH0UqQQqUoEB8MJBHQAEwoGzs2LEG5PjJgbAtt9zSNgVyKA2bAgHy2PZSwuN0SY4ViCdoDtpffPFFmDFjRnjyySdtPLBywomtTMzIvEMkfckllzRA9xNfZV3KcSerag2pgMA8vdsF5gLz9FGkEqRACQrEYM7PHBDEhs5HH300PPbYYwZcwBeZOjbffHPLR+7+cfnISxC4hi4pFPH2FZTPP/88TJ482VZPyOLCOCEtJhO13r17m7XJV06UgaeGOl1VbQgFBObp3SwwF5injyKVIAUyCsQHx8SRbiKd7isGxomSk6UD8Npll13CjjvuaHmtHbwoNoavuFyJXtsKZKPmtMY39PIzJ4hykNTo0aMtDzqWF2wtu+66q62krLDCCgukyeQeRdBre0yo9rWvgMA8vQ8F5gLz9FGkEhpWgWKg7O8jDD8D5JwECYQDW0RDp0yZYlYFbAqDBg0KK664YlhsscUWAPFKg5a8ybUxVH38YHViAzA57O+5557wwgsvhEUWWcRWVdh/sO6664all17a3is1/7nGQG2MAdWyNhUQmKf3m8BcYJ4+ilRCQylQCtjEmVb4oJ47d64B+YgRI8yesMwyy4SBAweGfffd16KfCy+8sKKdDTWKSm+sbxLlpFc2h15xxRXhmWeeCauvvnrYb7/9LL0iKy6MIU/HWOkJXem11ZVSoLEVEJin97/AXGCePopUQkMrkI2ax3YEclU/99xz4YYbbgjjxo2ziDjRTg6U4bTHzp07W05yeYUbeggVbHw2gw+rLvPnz7eMPay43HHHHZbJh4w9pFckg0uXLl1sPPmY9HFVymRSPSAFpEC6AgLzdA0F5gLz9FGkEhpSgdiuEgvgAAWQP/DAAxYpx47QvXv3sPPOO9sGT3zknTp1Kgpk/ou2jHwK1tpn2BYbN8X6Or6eaxhfbAjFCkX2FlZgGF+svPTr18++yH8OoBeyt6jf26ff9dTGUEBgnt7PAnOBefooUgkNrYBHyIEg8pFzYieHA2E7IBUi2VWIkpP2Dk8wBwQRySwVxFLFLSfNoqDtm2q3xYZb7xMfA657KRMxv5dxN3PmzDBx4kQba0wEeY8TRIFzMvsst9xyTWk2/z979wEmX1Hlffzurq4554gCgpHsoigoYkBBRTEBIknJCAYUVFBQQBFQkoGggCAoBkAQxYRpWVFAUVwwImLOeV3d532fT63nv8WlZ6Z7bs9M357TzzPPpNt1q05V1/2eU786VR9Ilf3c9VOV708LDLZAgnn3kZFgnmDefRRlCcvSAjEBa7yNnSBc9gySFbAkIg6OAsr9LttKvG8QhPmf6CcJzM1vfvOyOZR2uMurhsCIuErJ97Of/axIaWwevNnNblZukcB2Q0u3o9Vd+iHeG3sOjBf92z7dc657tPuTvOXaa68t0XNj75vf/GbRnz/60Y9uNthgg2b11Vcv92jLpYZxAuaqS/4/LZAWuKEFEsy7j4gE8wTz7qMoS1hWFgh4JSnwZVPeN77xjZKPHBj99a9/bR7ykIeUTXnyTota1qc1zgZEUuLF6Y/3ve99SxkzSV7mMnrUE+j7krlDXSKq/5GPfKRZc801y2FGUu+NErWd697T8v+5ouVtWcqgvm1f4yAhhwd96EMfKhl5rKRwkOqI9mz2q+tU/6xc8pZzzjmn5MX/3e9+V1Zo3GO99dZrVlpppbLHIeqY+xqmZZRmOybJAgnm3XsjwTzBvPsoyhKm3gI1XIV0JfKRA/JPfepTzY9//OMC5E94whOajTbaqKQ/BMNew0CXe0iP95a3vKU55ZRTypHsb37zm5u73vWu87Jv1Jmshg75Pve5T0nLyJn42Mc+1rzuda8rmWF23HHHcmiNdoXEZqGiqYP01Qt1r3kZ7R9vGiZSPmxb2tf94he/aM4///xm//33b/bZZ59m2223LZs2hxkjM7Upouj6lmMoa4s+tr/B72uvvXbJk2/DsfFkNSbGZZQ5if3QpQ/zvWmBpbBAgnl3qyeYJ5h3H0VZwtRboNb1ijj/6le/ai666KLm3HPPbb71rW+VzZwyY2yxxRZFnmDjXX1I0DAGcg8QBcZPPPHEIkM45phjVoC5/5v0wzEA0e4x6BX19f2oo45qTjvttBKZPfTQQ8t75MR+zWteU+r7ohe9qDgUoM7L/wdFU+P+AZrzaV/cAwS2TzP1N21TfluDH+1Rv3bd4j0R8Z9Jv+//7h/XzVR/19T7BuJ+7fvW9oj2zAS30W/+D8xFtV/5ylc2++67b7P99tt3BnN2iX7x3coLedWXv/zl5oMf/GBzySWXFCfxMY95TEmxuOqqqza3utWtVoyfLk7BMGM7r0kLLBcLJJh37+kE8wTz7qMoS+itBQLS2vKAkJ4EEAbsOY0R1J511lklKinSKepMckIqEDry+RgkIuYB5mQwwJz8xAto0YX/5je/KXDKAYhIazv6GXAmf/qRRx7ZnHHGGc1aa61VouTKE0UXsX32s59dwFAUVaYP8Ha3u91thSY57KN8DolryGJo0l13m9vcZgUQDoq8hv3YkxZa/YHvHe5wh6Jtt0JA764cbdI2f/O7r3ixuy/3Db101I0en6PEPt6jXq6r+87PbGFVw3f9ZFOu62uZkTaqo/I8YNVReSQgtY2VRzrCHuqvPCskcd/6WpBsdYXdwLD3Os3zJS95SQHzHXbYYSxgHraqxzKbcwSM1fe///3Npz/96VLPZzzjGc2znvWsslLipU9qOM/o+Xw+wfmetMD/nt7r83PYYYeVwI1VSitj5obZNv2n7f7PAgnmCeb5eUgL3MgCEV2NqC4d+eWXX16g/Gtf+1q5XgSaZIVOm0bbJs2Iqs4HbAaB+Vvf+tYChjTJ8laLgAaYO6ToUY96VIHruH8NZzTG73rXu0oOdZliAK1sHYBMGcCctMHhNH63GdHDQ9q9bbbZpkTRASlQ/u53v1uivADPtdrqffTLygSw7dR8AcZgV8aQCy64oNjOqgBZDUfGz76222674miAR3WVVnKzzTZbcWqqvN2+6O633nrrYhPl+5uUlN4TYC4dpdUL0Kn+wN3Jmeov77f7qb9NkXJ/b7jhhkXjrf0epGRJ2qh8f1eelQXlkYCAXeWB669//evld5l2lOe+ZCMA3APauPnwhz9cNN8A2d/1FedAfQLMOQkLEbWOcex+9OeXXnppWelRF/cUQdd/NouGU5HwkBNiWmD+Fkgwn7/tVgR3/l+EF7qX1bsS6siKSNJ+++1XokUe2CbsdhSudw3MCqcF5mGBmFh9Fw0FkyKNdNoinyLPgFzGFYAZUdD4vNRR5lFuPxOYA/BDDjmkgDl4Wm211UqEk4QG9O68884lKgO0ajAHY6D8Pe95TznKXTkONnJtfM5Fc0GuKKro8Q9+8IMS2QWsu+++e/OABzygwOfpp59eNMvaCo7B7o9+9KPyPqeXAvlaT68e2qN+yqSbv/jii0tkWXQ+cnG7FyA//PDDC6i/6U1vKhArir/XXnuV6/QDB8OpqZyG1772tQVuZcB5xzve0VxzzTWlDFF4h+9EH4lSgWnOzEknnVSuZzt1lmbwuuuuK+W5lwwmHAflicyDbLbmkCiT3dSHM2IsWIHgbLin8kTOr7/++pKqkJMhE4+2WVk5++yzy0ZMY4V8xrXmW/D/ile8okTMFwrMox8iKu6e+tMGY86F39mIg7XxxhuX1ZRBBxSNMo7z2rTAcrZAgnn33s+IeUbMu4+iLKH3Fqj1uRpDpgB8QZ3NndLRgTARagAjmixKOk7ntQ3mNOZHH310iaSKiov2ihY/85nPLMCqXiLMsqrssssu5QCjGsxBMQAlhxG1VWcRWmBNc8wBB+ag0xdgBq8nnHBCgbPjjjuuRIvB/dve9rbmTne6U4m2+xvQtIFRHVZZZZUil1GuSHRIQ9RFxJhDQefOAeAUgGOwK+JsBQKQH3vsseU7BwQ07rTTTkXqEWAOrOnugfTrX//6Uj+yHP0Dqm1sVH9RYWVKHSjQwFYXXnhhY+UBvGs/ZwNEg2bOBVkHKdIRRxxR6irq7csqgPJF0UXKX/3qV5fIsiVqcA7et9xyy7K/gPMBwK1scFRe+MIXFgDXBrZSnnp6aMvcIyOL/9OZA/mFBPMazmN8cEqAOUmT9IrGss3GxpKIP1vVkfP5rAD1flLIBqQF5mGBBPN5GK31lgTzBPPuoyhL6LUFaigncwCNIswixKQb5BCARRQZLNfwOU75gXq4P0AEoZwAQElKAsyBHDAHeSCZdANYiUKLeALjGsw9IERoa826yLW/g1fgCi5FbbXN/a+++urmxS9+cZGGgGHAePzxxxcIFxW3cRCwgjYAfeqppxZ7HXzwwUUSoS41mItmA2kQKILt/QCa40NS8fKXv7xE4QPM3/CGN5RybUhVj9isefLJJxeHgXMhYk6KAYDV76UvfWnpF/UX7QblIHqTTTZpXvaylxW45pyIWLuWI8HJEvEG1BwFkXDATRbD+SClAeGcGw4a24uCizArG2w///nPL+DvvlZWjBf1JA8ShXft3nvvXeqhzlIXso0c9+pjU6Y+AOZds7IM8wFsLw77Xfv1A0mQdhpDnBz7G7SfnWooT0AfxtJ5zXK2QIJ5995PME8w7z6KsoSJt0At26rhNX4GvyQQwJTGWEQZPIoO0zrTk5OCiNTGa9yQEmBO1lGDOXA94IADCjSKcANLgCryC6zBFGlHbFCM+oFaYP7GN76xQDbnQmQ7srKImEvtSLJCguH+ovJgEUgDYZFiYE5eQt4G1iIbDDimuwfDu+22W/OCF7xgBciFvTk2e+65Z9FUczJIgDg2/i86D8zZXUQeHIP4iJgD+Tpirj70/Oonb7yotPeA8pDHKDe04oBbBB5caz8gFgkWdQfJMpN4v0i9F1AG1urjb2wc0L7yyiuXiD/4ZkNjQ4SZ7fWJ+5KnsJPyReBJWax47LHHHmUFINJecmSsdIj411KWca6+DPuBVHdtsSLEWSM3Um+24VBwDrXbGFzoVJrD1jmvSwtMsgUSzLv3ToJ5gnn3UZQlTLwF6mhhnZYvop3f+c53CpCTVwBOAEh24WAWQEU/7X2gdr4a8rmMVIM5kAScYJbuF4iSWYBW8gvRcnUBTc973vNKXUWE6+i/n2cCc/IOYO59NOpkMK4HaOQVwPztb397+Rtodl/RaZKHuEdsjFUH0WuyDhHW2vFRjug3+wF8Dk68QD1piWh0DeakHiFlAdXuB8o5K+uss06Befm5yUTUR//Qg9eZRTwcOTCuBdjqQT5iJQR4u9Z7OSTqLtoPrMGpCDIHBbDqcysE5EtWK0h36NDBv/tyhuJBzB5A194D5bKlNJXg23s5dq6R8YW0SNv9Tx55EfPFBnN2jS/20F4rHFZHrDpwpnwOrAqwe6QB7bLBea7PQP4/LdB3CySYd+/BBPME8+6jKEvojQUCRAKiQOEHPvCBAm1ASoSUbES0UBS6zkdeR8gXAs5rjTkQDTC3KdNmTXUBfuQHoBbAciZEc8lVwGVAk7JCymJDpUgwKBaNV47ILzCnr6ZPB6+u//73v1/AHPiqg+g2rTlgIwMRdXePuA+5BhmHCCvHIDaAxoAgI9l1111Lvd/5zncWRyccBrAs0u5/wFz0OaQsouGkLMDci/RDG9xfvW3Idc2mm25aIN79Xau+yqOhJqvRn5wTjox2g3IyHfYD4GBcxhU53cNm2kabX5/mqiybP5UFzDlLgNpGYFlZwkmhXQ/5B206G4r8k6sEmHP86PbJf4A52Uts3B33KsywH0xtj9UJQM6+ssYYJ2xqpUMbyHREz71ifA17j7wuLbAcLJBg3r2XE8wTzLuPoixh4i1QR8wBCDgCtY6lJ18R9SXVEBkVaQVRcQDNYsFSDeYi5mQEZBPqCkzJVkgkADC5Abg88MADC7STTIh+BxjXYA7GZTWhG1ZeaMzBKDCPA4YCzIEvaAbSMo6AZjIa1/kK8HQN+KS3jqi7yHWtMbex0H1kAgH2ouqgVp05ROQcosXRPk6E7Cii2HTZyuIs0H+LZtM/qx85CL06OQ8b0NiDY3UR1dZe9uOscA58ke14v3ayH9AnKREVJrcBoTT+ANx4INFR/8j/LXuKaLi6gFcOB/mO8kSb6f3Zg0yGHl2bgbd7qiMnwUtd9JdVC07QOE7+HMcHMA5VUhZny8oMQOfAkAFJt+nzYaMwQI9VpHHcO8tIC0yLBRLMu/dkgnmCefdRlCVMrAUCUAOuQS4wAlE2/4myiuLKmCEbBegNDbRGLRaUu1ctZRGVVSfACpJEVeng6d1FjV0LlsAzqQUdOQiNk0DrdgNrMhCRd9Fxunltp1sH5iLPIubeExFzGnsbMkXtaa9FzUkZyBo4CKAVrMuLTVMNVsN2tc0AtPcrC+SDY9+tTugD7weyNryK6JO7cEqURf6hznTqYF0UPKLbIFz92UAecmBuQ6xyyZHo12nRbeIkG5Fq0crCVlttVbKoAHiOgftbHWFfNrdSYHMtG4uS2xAJoNmFY8HGVifAqjSD7MHRECl3HxIYDoPosmi89+g/h1CRt4jmS7sJ4CNd4mJkZRn2AxoObMi9OCBWGNiF/twKk5UNY1MU3VgA6AEji/l5GbZNeV1aYDEtkGDe3doJ5gnm3UfRFJdQR5onvZltKKg1tCKkAMPmPNApYivaCupEysGGjY5L+YqIORg/5ZRTCqiKIANEmyJFdAFpyB5Ar3ziQFDUlZwjXtF2vwNVYA7GOSGyiYB8ZcrGAgwBlveQyZBYcF78X7RXCkK50IE4GwFREWKpENlNdJvOvR1BjfaAZfcHdvooDrIhL+EoRR5zfQHWXStSa9VC210XJ4SCQbpxEW2w6Fr7Azgnrg1pDYkJKYwotT4H+1YYAL/7AXP2U3/ZZjgMYJndjRXwrq3aCE7ZzSZZWnypEt/73veWiLgDiNzbe0CrPtMX2qJvzjzzzBV5zNlN/2kL+Yuylcl2Sy1lmW3cAw32MiasMnGUrCyImougcziseujX+pWQvpSzSd57qSyQYN7d8gnmCebdR9EUllCDXV+a105dGBva6IVFUIElrTQpBhgXfRatnaQleRFVqevApIwhUveJGsfmz/rkT+0AoMBykL47nCobFcG5MoEkOQyYpKsHV2CXnt71YNHmP5Ff0WD/93LQjuvBPZ02vbYIdJz8qdxBjpE+EF0XeQbm7A/qgCiQI09xjTSOovMAUERZRJqTAGRF810PfgEgKQXIjewy7MV54CyoB5uIeovk69s4+VNEWzvcX/3Zl+NBdgLWRbjpqklhQLa+UJ7IuLFCxmKzZ5z8yVGKE0dtJDWWrECQxsSmUBs9ReaVyQkhB2FTWV/0qWi97C76Y7FXaObzuebQ2hiq3zgm2sN+HBHtj8xF0wTl09SW+fR5vmc0CySYj2avQVcnmCeYdx9FU1BCrS+to659alr9AAVPgBT8AE3ZOAAu+CNvIOeIA4LqzYyT0F4RVVCoXhFdBs3AExiBPW0FQTKD2IwXEpZB9Qe+YNT79TPYdH0cTR8bXL3XteQ9vrs3WU/8XeQauANz/wOzwMz7wylqQwzQFv0G5gCXAwFa3dvm1YMOOqhEp8lDAK2XtotSi36rp3YCbHViE5HsuA9buZZNtE8fi6a7R+wRYDttAvZ0064TXeeMAOJIgek64waUaydbcX7Y2FiJdkZ5HI64r/9zFpQb963t5joOAtuzm2u0U7sWMgXnuMZzvfqk3uyo/zgnVizYiJND1y+lpj6L98TY6NPqW9hN3WOj87hsmeVMtwUSzLv3b4J5gnn3UTQlJQAfoOOrjw9R3RAACwTpkkVfgYSNj6KeoqngqL1JcZKiYtowKPocoKefvOKgo/ZKQT0c2/3o9zZoDLpf7Zy1dcfhNIDLyEbiYVSfFBnvF4WmMT/99NNL5FskG4iLXNt4C+5soKRzJyuJjaM11A0qt91GdYosIZHSclA7Y2y7JuzX/vgqK2wcbYz+qDe2qmMcgBTO3aB7Rr/V9YuxOknjbpRpjI1ig6jVGIDOaSSnAugkLpy2mWw8yr2W6lp9zwmsHaelqkvetz8WSDDv3lcJ5gnm3UdRj0uoAUiE0pHi5AYBJn1pWrRDxNNGPZsCRUjlXyYHAeSieh6yrp0twjyJbQ44DogeFuhqqJ6tXe3raliv4X7Y+wZ4irJbtYjMLGBNhF/0ODbeyswC6ELjP2yd52rPqHWd7fq2/d17Juep/t842jJTO2dzqBZqDLfbA0L0JekTeQtIt9pgdcRmahtya6dmoeo17nJjRYp+3ipPHq40bgtPb3kJ5t37NsE8wbz7KOpxCTWYSxto85tIMynAbJHYSWtyRDLJFAC5iJ6NeDYAeriSOMQ1M8kuJq1Nfa+PsRWpBGnTHVJEC65vyD5owPWRjaexgtH3Ni90/ZcCxus2tVdP4n+cLJlpzjjjjLJRGJyH1KnOcrTQ9ulavrnBmLWyQuoki5Fc+TE+R3H2utYl399PCySYd++3BPME8+6jqMclBJiLCMlaISOI/NTSu4l29UVfWWuOAYJNeXTMJCxSu9GWg8F29C4ftAs/eD2owDhZi0woVmPIiYAPeMs+GK4P2rKkxbZbexUl5g6fM6siNhfLWGOztbMAbAYdtCl4uNYu/FWD7OdvJDpW3Ky8OV3WgWN9C1QsvPXyDjNZIMG8+9hIME8w7z6KelxCG8zlq/ZgdQKjrBV90FfWwGBStOlTFhb6ZasANuTJHgLQwUIsry+kzGCcQ2K+UpJx1qFLWdE/MdZqu/fF8evS/vm+tw3ig8pZCjiPeokqk7Bw6AG5fR1WpmSZkalFqkpA25fPGfuyp83N9kXIpuNk2gTz+Y7g5fm+BPPu/Z5gnmDefRT1uIQ2mDsIBthKX0f329fNW6J4ZBNkOdIketjSvdqUBhykq5NJowbDhYKciBgrf1R71lKjAIfFHm7qH1l7RtXa1lAWGyXr+kfWl5C91BtblyO015tYB2nY/d8Xh5ntFttGxoHPliwzTkWV19wGa1IW+znkxbc6xfnt48s41DanvZ522mnldNcE8z725NLVOcG8u+0TzBPMu4+iHpcwCMxJDhzdLuLVzkrRp6aaIG0+FMk7++yzSwRdijub0iJHNzlFwHI7+8c49LxA04NeTm6p+WQkEUWc7VVHSv0MemqoD1BWtrrXaQFH7Z9hnBEpD8mD3FfmFCsQM2VKGRTlre9R/z9APTTI8nyTukghGI7TqO1Ziuu7jpOwCeDmFEvXaFz60rfsLiWkrCdsZB+FsSQtpC+bZhcyKl2vdBgL0iPKZS6rjt/lZZe/3WmpNliP6nwuRZ8NumcAFRu/733vK3p5GnMHaKWUZVJ6afLrkWDevY8SzBPMu4+iHpcwSMoiR/FRRx1VTsbsK5jXMAF4AIQld4fROKTH5GnjIS29dsq7XG/wisl1GHAd1P0BShwDy/xvf/vby/123HHHAufDRr85EnKwqxtpESCLHO0AwsE7AG4hJUdO2Dz11FNL9o199923rDxEpHuuoT+T/dSds2J82fzpOtFXhxiBTUAkH/akv7pCufbFWOHAgd0LL7ywpPbkPFrVYSsHLklJ6LPJUQPjMg0BYpHqyMk/3/E60xiOlQzjkNNk9cl49rPDnpwJ4LAuY9oYDSdxnPVYrDEQn3kbV88666wC5hkxXyzrT899Esy792WCeYJ591HU4xKmMWJeRw8jv7YuArTgx4E39KOOFge0TpLcYostSp7tiPYpo4vMJeog0ila/4pXvKJ5/OMfX465JxGqX5ElppatRAYZ0X6QClb32muvEpWMEypB0pZbblngTBrCYTTJg4bqXBBlpeH4448vB/4ceuih5SCgrmAOPt/xjncUR+Owww4r9RelPOGEE0p6ute+9rVlP8Cw91nqj6BxVkP6bDaN/4U8KH7Xr+9617uaM888s3n+859f9M3G53vf+94iqxBJ58SISpOR+J2WWw54m5zH4STUdlQepxaocmjpro1HzqDPDNmKcRkbPPuUxWm2iLn21hHzlLIs9aerX/dPMO/eXwnmCebdR1GPS5hGMKhziecAACAASURBVG/DRYBPtJUUwAE3NojKvWxp/h73uEc5Hl2kEhDGa76wEZOzKHOAuegiMJexwqsG/5kkILJdSNcGhkCxTayyRUhr6Yh5EXgH9Ij4D/tqA9wgLXNtM84Me9nsR7Zgg99MeeDb7RhUtnrS8B588MEFMoEoMHcI0Tvf+c5iH3ZaeeWVS5PqkzSHbeNiXNdu60xgPNPfwzZxoinQBuZWJ/Qph0xkmi2smji4Z6uttipSouuuu6455JBDCpzLHALOx20nkfpLLrmkOe+880qWElF5joAIuVUTUN4ex3M5eYvRL/O9R0pZ5mu5fF9tgQTz7uMhwTzBvPso6nEJNZh7+EqXaLmcxlx0rq9SlkFdUkfSwZANoSKP8msDEPnPRbNtEHW0OJ1zHEikvFEgPSZnEXPR+Ve+8pUlYg5G3cP96bbZHPTaUMc5ELWn7QdBMl54r424wNVBSSLmYO38889v5AYXKRXtV7b3i2o7IArQA2ryApIQcgft8XINp4TT4H+y8NA2c0i0O46ejzaI5LoXWc6GG25YnICLL764/C4FpfRyViFEV236I7EgD1LntpPkPdos1zXgA/nkAk94whNKH5x44oklheIOO+xQylU3BxKpp3z00YYolyzp61//epF7qLdoO+cB3Ee0vYZFdiahufTSS4sEiL3ZjS20kdNj3Muxrv5syJb03fYmKN/Ki3tqs+iqzwjHSf04E+pL+sHhM77YwnU2I/vZ5kg6eik9/d//RJ3vcIc7lJSDnMU4DdV93vSmN5W2RU5t7WKbF73oRaUf9t577+ZlL3vZin6bazqqHYXauYhVGuODLUhW2InN2ElWo/XWW6/YoD4MKuzbZyhnsxrMaylLasznGlH5/wTz8Y6BBPME8/GOqJ6VtpzAPLqmhhE/A10A8pnPfKZEJv1N5haQCrbAZ2i4a2nMbCAyG5iDRlAnYwynAJiJnrsHKBe1B+DADZTJegGEHvrQhxbopJf3N9FSUMmR2GOPPcrPZCd0yqAwssEAXVHOzTffvJQBPjlggBPwAm+rCPT25BOx0S2kFvLan3TSSQVeneAJXA844IBySqyygSqABnCgkc1EdjkNALS2uzJEyN/97neXVJYcByBPpqMeVgLAsHZylLSVplpkneb6aU97Wmmn+gJ5qxHg1r3ZEODGaa/aym51PwFaEibRZrro7bbbrjgbbCIjkXEAQDkGHBVOhLar2z777FP+BobZWP/EWNJO4M550n4OGeeJA6JP9dW1115bNhJuvfXWxSnTVtIQduaIqbvrjIeddtqpRMFdR7LEGbJaAordU1kvfelLSx2A+e677z6r7GfQSkYtnVIH/ahP9TcHwb3ZWpScjTgV9cblvoN4e6rOiHnPHl4TWt2MmHfvmATzBPPuo6jHJbSlLIANhNj82fesLLN1S4BKgDbIIA8QJRSxFMUGg2QkIBlMg6P6+oiiD7pPG8xpzEWFaafpqt/2treVjY6iq0ASlIEiEVKAB8pIBU4++eSyCc3/RcVBLHCNvNHgk0Tm6U9/eoE1EWfRTnAoMg9uRcfBLWgE8ODvVa96VQE+sghtW2ONNUr54J2DAHIDzG06FOkH1TTg6idaC069H7D5G7DjaFiJcJ+dd955hdyBjdgcUKs7uYbMHtrFIRD1F+kH7BwGG13ZRR+AT20IgAeKgHb//fcv/QSW1SEOugGUAJ7EA8jWAEmO472A3M82swJl5b/85S8v9lfe4YcfXhwzY+F1r3tdAVJ/Y8cjjjiiOBWi6vT22i1y72/awTb6WL+98Y1vLH0McEX7n/e855U6AXZRWe8XjbbaoN3qZtXBKgI457iIvgN/5bCh/qM7V76y9txzzzJOZxuPYf92hhzlsYNVBA4OZ4INOArabzzo2zrzy1z36et0OAjMc/NnX3tz6eqdYN7d9gnmCebdR1GPS5gtYg7MI1fytEXHBi09aiOJCdmCzV/nnntugXXwJFoLCMF5RJTrMtr2qcFcVJeUhYYdEItmH3300QVSRTqBIRAWtT3ooINKJBjAgXmyIpvsRHdpzNUhNOY244XGHFwBRrpz0XGR7YBScA+ogb77awPdMuC2MhBSErKSeGlPgDmAd28SBw4Fe4hwn3POOcVpEbkF9YCcQ0crDhRFcmmRB+nMQalDrABrOB7+JnsNx4OUAygDUvY48MADC5CqK1jk1PgbABfJBvFsAPY5P661YVL72ukpgS7HR7YZUCs6brXk1a9+dXFKXa+d2qTvtF3E+MUvfnFpm3brB79zFvSjCDObs5F+09d09NpohcFKhJUQjox2itgD8De/+c0lW4/PmetF7TlTxsX2229f5DQhMdEfxiZnwUoK+Fd/9og9BjPJrQbp4TkZIvvGI8mUcr20TWTfigfHwKteKerxdDdr1QdJWfKAoWnt7YVrV4J5d9smmCeYdx9FPS5huUbMZ+sy0UtwBIBlDxEFFi0WSQVBD3/4w4u8BbTEBs72QS9tMAdrIttgMyQO9MigUG5w9+QUiIQCZnBNLgI2AR0NM5gmZxAZF1kGiCK/AE6kFeSJLovagnmRb/pnkXiQChpFsWmcZUKRnhB0yjoB7AIAjYk6Yi4jB8AEzDZniqDSO7OL7CEi16K5IA9c0sQDZWAucl9vJA27c3y0h85b3UCm9wJzUXT20lb1B47uoR3a6u9WdpTBQSDlCT07SQ2JCDkGyGU7cpv6BaT9T9TehkqOEWmQzDMcBffZb7/9SrlWBUS3Qbj70nK7h/tyijgO7MWB4vQAfM4DsAW67Pbc5z63XC+qz9EjjQH47M6pYAP21ncy1bA3x0HEnC0iQs2+/gfqrQ6AcqsNke98Nuc5Pue+G2fKEuFXHvkTm1gB4OhwvDhxtQM60wbWHk99N6p6OKLtdImpMZ+mXl74tiSYd7dxgnmCefdR1OMSEsxv3HkRXQTLYNTSvqjxF77whQLKIpwABnwCyjhsp85UUmdlEY0MMCevAGUg1PtovMGde/k9DpgB8UBPmZwBEXPRdNFMsgNgLjoOzAEcuBKFp5EXKbeRMF4gDjiCvG222aY4CMBce0Ci1HdR93qDbB0xB5gi4gHm5Br01wBSxDxkKkBWNJc8A5hzYgIsfY/yQbX2BJirb4C5/Nii3gCRTcAsUKbL114acNIajoVotPdG/bWVDTlWwF86SU5NvEJ3H6sA7EpiREYC5tmabdmIAyJa776xAZetOTwAXdnRJrYhW9EGqx3sTIvObgDa+9yLzAh8k/MYC6CPU6Gd9jroDxp8DhsnqgZzsh3/51Aoz6oC52623OG1ZEtdRcltKuZwsp97KsMY4LCxFSAPe07zSln7k5+bP3v8IJugqieYd++MBPME8+6jqMclJJj/X+cNigr6m0wiAAb0imbbIAheAKKIJYAkUQgpTJ2lQqQ9wJy8A4wBP1IMoEbHGxAEzkC694teithyDER9wSqQJZEIMFfGtttuW+CYhEMU2P/IS0Th43h7ZSqbEwE2RfvppkGn9Hyi6/GqQcz7/Q5iI2IeGnP35LAAdNFkLxIRUWKACsz9fSYwJ+eIdIki5mQdoJaEhGMBqslgBoE5gPRecEtbr62RPae2IeCmna+zw+hPD05Rb3DNvsCU40LKoz3K9h76dk6B1QC2tREVDNNfey95UzgvViM4O6QvVhGAObv5GzsAbX3ImbEqANqtntD9u2+AOdkRMBeNV5fIT68fQP1b3/rW4oSpz0YbbVTe69VesfG3qJv3AnIOy8c//vGy6Vi7QLjxpBz6d+Ojdi6XE5SHvbRZhp/MytLjh9oSVz3BvHsHJJgnmHcfRT0uIcF87s6LqKPlfhsUAS04IikJuBbJpjeOV0B+nS4RKNpsCN48+EXcaVhFjSPyKnIbafVEbWmeRTNBHTgmpxDxDCkL4PMlqktjDrhAYUhZlCt67P82KXIEgGWAORB0bchYZgJz8gkQC8y1EzRyVALMtVfGE9BXR8yl1/Nqy1kCzEkmyHdAob8Bc5AIzEmHYlMuKYs2AGO2JtuRbhFE+11kWR20lcNAhkRCoow4FTNs7LvIOk056YmfvVe0XESevMdGSPbigMXeAFFx/yd1ANXsHnYDvVZFrEKIkIN2Kxr6JGQv+pDkSMTcioF+4qhxlJSj7yOazvHxVYO5Ta3qG31s7EVqy3oUB5CH3TmVNPCcN7p6TiTtPceSU6ledR8NctLm/pT0/4qMmPe/DyehBQnm3XshwTzBvPso6nEJCeZzd15b3iEKfvnllxdIks0DkJJURNYUEdzYNBcRc1IMgAcwRT4BqGvokUUsZb0A+iAVFIJyUVMwBhiBK/AD0QBZlBnc0ZO7TnRbFJU8AajGkfbg0t9ArDKAdA3mpBEB5u0I6aCIuawvg8Dcw4jjAsxlLxHtni1izjnhHKgLGJWFhWbez+wHuK0aeIlusx+7AWMnnbKT+/hdakb2JzOSHYVdbP4UrVbXOmVinSKQk2HFAMiLHoNtqxOkIsrnAEnbaCMmyYkVARs8RcI5WcBZtN2KCvCNfONg26oFR0OEG6jrIwAM7m12tUnWPTkHovpsTV7i3sBf/yk/HA59A7CNNxFdqy+085FBp3YIwwFhAzpy+nn1E/GXqYdzx0GLlYa4vu2cLQddeduhyYj53PNhXjG7BRLMu4+QBPME8+6jqMclJJiP1nm1Zhd0i0KSb4jmkhOAb2AMTMkzgDEpC7AE7kDMw/+4444rwAxIQR5JApmDDZU2INIQg25QCj5FZMG6jYoipTaQAnE/A1P3FcmnAQd2YFsdRJDBsvcDfJsNAaaNpa4H5iBvUDaPWmMuYk6uAZwDzEPKIiLsWoDaBnMR8xr446HFZqLi2ifyTJLChiL4gJVsB5gPipizjWutPnCKODbg1s904uolIqyNQFTGkzpiH8DJ1rTj6iJyrI3qyy5WJzhf+kb2F20G/qQgNomCXjId97Eqoi9Fw/WZqD6gBuZ0/+yjjVYHtB8o+7v7K989SU3UnWNBOhMRc85U1FebbWy1GmD/gf7l2LRPkNUPrgHj5D42z1qVMS7p4iPSPihKvtxgPMF8tPkvr57bAgnmc9torisSzBPM5xojU/3/BPPRu7fW7gI+kAbQRTtFu4EPKYPIJJkCeYNoKm00SJM3HJSBLOAEpMCjL5k7RFdBNFhXNngG9yLSIN3mQuAlYiyTh1zm4BHk23ypXHIHLzINmyPBN+0zmPReEgsH7YgqywAzSKMcliHbEeHniIBpwCzyD0TJRWRKYRNOCO00cBXBBqPqVkNxHD9PtiFarV3gUv3pm+nmOTQ03OzkveQ82ir6CyyBL5uJsLM58LR51rVkGiQaoN37Y+ViEIBxVjga0mLa0Mt50ndSEnIMRKdt8lWWcr3AOfuCbu0Pu2mDlIoi3XT8yrBKQXLEPpH5RhlA3pgQNbehk+3sA1BfUK5t+t/+gVrKAtwBvfbqN05B5DYPHXlsVhaVB/nGkL4X8SfrEWGP8Ttbn4/+qej/O1LK0v8+nIQWJJh374UE8wTz7qOoxyUkmM+/8wJwAkpJDcgcbBAFvzKuiHKDUzAmEiyCC5bitEzyDMAJ+Gir41h31wBVkVQSBNFPMghwZWOle8aR7iQNwJIT4FrgJvoOPIFpHGIjYuv30MqLrIsE2+Q420Y/0gm6d3UUmRYNFr0VeVdnX16g27Xq5RpORnvjZVhbWaLlNtL6Wc5skhN/A6miwQHDQFUKQzYkv+CAuJe/0/yri82b3se+ItBsHZHydtti1YNtwbV7sp1+Uoaylck+QD1ysYfUQz3UR9/pc/V0X0ButQP86l8yJH3BDuodqRVDj08qo/1spg/YFmhzxtzX+IkTZ9kNdGsvB8m9ODDayPkyNjg7nAyOFPtzUKycKFcd65WD5baxc5hPeYL5MFbKa+ayQIL5XBaa+/8J5gnmc4+SKb4iwXz+nVtrzwNMwZwoqEi4KDpgclATQCc3AdEADXQDQHDrCygBU0BVZ2mJ2oFBAOaa2Mzod5ANuPzNd3UCunF9HFNvE2NESF3jve6vvEi3N5MlXBcbJF2vHODp79oSwKkNIteujewodZaPsFfcJ/Jpe5AB0nBEwhZxnfe5X0SW6/u5V91W7QShs6X7C7lG2AGgA+CIrrs/6NcW96qj7vFe9Yn7srv7RhvUO9Iy6gvvrwE7AD/6SVnsyhnzP393fXtjpzKj36JO3ku6Q58uCq9OHDERd99JWNTLaznLVIb5lCeYD2OlvGYuCySYz2Whuf+fYJ5gPvcomeIrEszH27lgE9CJepK12CAq2g30RMOlV7TxjnbYBB4bLMGd32t4rnXfca3/g85a697Wh0efBoxFnvU6SlpvgnTdMBHUun7x8Bn0vrrs9j3bv88lqxikDa83KXp/Dfy1LeZqU22ntg2jXH9vSz7ifu12DrrfbHaK/qmvCXhu6/LrURrtB+RWZ4wx440D6MAkqyci9LX+PN4zbF+P91PRj9ISzPvRT5NeywTz7j2UYJ5g3n0U9biEBPPxdl5MykoVzaT1lqLOhj/SB5IJOm8b8UhS6iPXvac+6KcN5gFtQLEdfa4Bto6O1jDdhuI27M1miXqcRPmDIG+mes0Usa1XHeZ672z3q8upwX2u3q3hvL2JchAkR3ntus4EvO1VlXZ9/L/uo3Y5bQdKxJzmHoxbkSGVIWkhBeLwySJjT8EgEJ+rLnPZatr/n2A+7T28OO1LMO9u5wTzBPPuo6jHJSSYL0zn1eBGbkLe4vhzGT+AFZ20zaDS6tGNkya0o7az1WyuaPC4W9WGummCvJnaspDSj9mckDb862srK5EukZNnHFllIVdxEBVdvT0EtXOx2GNk3GNusctLMF9si0/n/RLMu/drgnmCefdR1OMSEswXrvPqaKefRdBl+rjoootKajzyFhvzpMwTPXfiJa3xoEh2QtaN+2manIO6dbVUxkPepk+RcTAuUm5Tr3Ej/SYot+F00PjIMTPaZzvBfDR75dWDLZBg3n1kJJgnmHcfRT0uIcF8cTovoq++06DLnOEgHBv2vGiDpR6UwSM2EdayltCJL05t+3GXaQVz1vdwt9IiYwsYl1bSngUrLQ5YcmooyUqmPBzfWE0wH58tl3NJCebdez/BPMG8+yjqcQkJ5ovXebGhEEzJvCGDC1mCo9vp0KXMkzdbBhfp92T6EPWss6ZkFHTx+msp7uTzSEcuJSLnzdiwyZOOXIRc+kP5zmVwIW8xNhLOx9NTCebjseNyLyXBvPsISDBPMO8+inpcQoL54nVeZCAJLbnf5R23QZS0RQ50+nPSBKdZkimIkEZ6xJmi5guphV4869zwTtMcDdfSus8iM4+VFM6aE0cdFCUfvHSNsqw4BIrcSbrN2I8wV8aXpeq7vt43wbyvPTdZ9U4w794fCeYJ5t1HUY9LSDBfvM4btIEy0iCKkNog6kRQ0gUb/chanNrouPo4cChquxwj5/WGyVoa1NeIcTzAY/9BADl5029+85vimNl/QE9uY2esoNQjdjmOg4X6xCaYL5Rll1e5Cebd+zvBPMG8+yjqcQkJ5kvXeTVoRuYNJ1g6dRKcATVRVKdzgjQp8URMa8BfrmAWYN6HqHF7RaPud5ImJ3aSrZA1cchsAtbf8t7LTR4rJoOcsuXa/wvxqU0wXwirLr8yE8y793mCeYJ591HU4xISzCej8+oIMGnDtddeW2DN15VXXllgzRHr0iuuvvrqBdBDEjONUpZRemXSZS/t1IjaJkPPD3/4w+ayyy4rp8Rec801ZVVE2kMnxHLC4jCpWgLV7usE81FGyuzXJpiPz5bLuaQE8+69n2CeYN59FPW4hATzyei8duQXnMvKAdA//vGPF4mL0x1pzumNAbrTHR1Q5FUD2kyw1ieAn3TYHmXU1GAOyPXjVVdd1Vx88cVl06++X3vttcumX4dP2egZp7vOdpjUKHXIa+e2QIL53DbKK+a2QIL53Daa64oE8wTzucbIVP8/wXzyujf6xHeAZqInb5EyTw70P/7xj2VD4JZbbllA7o53vGM5bGa24+jbspnJa3V/ajSM01B/rjhZXn/4wx+a733ve2WT77nnnttcf/31zfrrr9885znPKc6WU2G9woHKaPjijokE88W197TeLcG8e88mmCeYdx9FPS4hwXyyOm8mPTK4E22lOz/77LMLoAO3xz3ucc0LXvCCIm8RPY+j2NvHyyfkLW4/16kx9dvPfvaz5vzzz28++MEPNt///vdLOky5yOWvJ0sKx6quZfbZ4vcZm8sdf9ZZZzVnnHFGs+uuuxbHKTbeZp8sbp/08W4J5t17LcE8wbz7KOpxCQnm/ei8mOz/9Kc/lZMfv/rVrzYf+9jHykmipA/SK8px/eAHP7ik04v81gHqCRSL08/xedJfNu7KrsKJIkeiIxcVf+xjH1t05Pe73/1WHBJUr3YsTk3zLm0LZMQ8x8Q4LJBg3t2KCeYJ5t1HUY9LSDDvV+eZ9H2Rs5BFXHHFFc2FF15YcqHLfy6bh4NopFqUAztlEQvfv/EZqu8kH/mXv/zlko+cDElfPOpRjyoOlHzk0h9ynkJLno7TwvfTXHdIMJ/LQvn/YSyQYD6MlWa/JsE8wbz7KOpxCQnm/eq8WitO3kK3DPy++MUvlo2Ev/3tb5uVV165RGXplu91r3s1N73pTW9woE1C4Hj7PLKmKJX9rWbY2AnM5adfc801C5TbDyC7ThwQpC/7moN9vBacjNISzCejH/peiwTz7j2YYJ5g3n0U9biEBPMed94/NgrqQ/IWIOhwIqBOsywPNiD0/a53vWv5W7wSzsfX75FBx0mdTnCVj9zGTlFxzpEv+chvfvObp/3HZ/axl5RgPnaTLssCE8y7d3uCeYJ591HU4xISzHvceRWY60cPBLmxpVaUG/ub3/xm0Z+TtkivSN4S+c8jDV8C+uz9P1MGlvjc2Nj5gx/8oDhDdORXX311c/vb377Ym45cXnIOEXunjnyyP2sJ5pPdP32pXYJ5955KME8w7z6KelxCgnl/O6/O4BIA6bvTJAG6LCDnnXdeyTIByjfbbLMicRE9v/Wtb10anrA4PJiHvX3/61//WmQrQJyO3EFQ7O4QqGc84xlFtnKrW92qQHmf8sf399PQveYJ5t1tmCU0JUBiXj3ssMNKWtSnP/3pzT777FMkbOGgp51mt0CCeYL5sv6MJJhPR/cH/NVp+v72t781P/rRj5pTTjmlef/739/YkOhEyZ122qmkWQw4zw2iM4+BcHhCRx6bNclWpK2UUu/Xv/51cXh23nnnEiEXMfeKPPRR+jD5z6djNPazFQnm/ey3Sat1gnn3HkkwTzDvPop6XEKCeY87b4aq1xtEwbmIOVnLpz71qeazn/1sieass846zTOf+czmYQ97WAHJkLYAz0ixGMXXcpdpjf7O1K6QCLHFX/7yl6Id/+hHP1psSdcv5eHmm29eDnxyEqt816nl7+dnKsG8n/02abVOMO/eIwnmCebdR1GPS0gw73HnzVL1Ojrr5z//+c/Nj3/845Je0QbRr3/9680tb3nLooV+whOe0KyxxhpFegHMB72mXYveBvPauSFbAeF0+5/85CfLAUHkQGQr0h+ussoqxbkJ24Wtpt1m0/bJSTCfth5dmvYkmHe3e4J5gnn3UdTjEhLMe9x5Q1Y9+tjlDiiii3YwEdAE61IqbrDBBitybMu5XUfNAzCnNVoespP2SoG/O7FTlhUrDZwZr/XXX79ku1lrrbWae9/73kVTWq8uJJAPOTAn7LIE8wnrkJ5WJ8G8e8clmCeYdx9FPS4hwbzHnTdC1Ws49+Agy5BeMfJtA/YHPvCBRXtO5kKi0c5/7nbTCJ1hm/qUVPIfOnL54X397ne/a1ZfffVmww03LOkPATnJivcEmGdO8hEG5ARemmA+gZ3SwyolmHfvtATzBPPuo6jHJSSY97jzRqx6DecBlI6MFxGW6o/MRbScRAN8AnXpFSOCPo0ZXNoOixNVpT+Uj9yKgtNV7373u5eUk0984hOblVZa6Ub5yGugH7FL8vIJskCC+QR1Ro+rkmDevfMSzBPMu4+iHpeQYN7jzutY9dBRS/NH0nLJJZeUFIvf/va3S8aWJz3pSUXeItXi7W53u6KhnrZ0X7G5Uz7y0OBLf3jNNdc0t7nNbYpkRZpJTgoNft3+aVw96Dikev32BPNed9/EVD7BvHtXJJgnmHcfRT0uIcG8x503pqrXKQGlVDznnHOaE088sfnud79bsrZss802zdOe9rQSPSdvCelGnyPotS7cxlj68Xe/+93FMQHfW265ZbPVVls1a6+99gqHhLlTrjKmQTeBxSSYT2Cn9LBKCebdOy3BPMG8+yjqcQkJ5j3uvA5VH7SR098cL09PLXp8wQUXNJ/4xCdKukX66i222KJE0e9whzus2BwKzvtyimiM9XBE/v73vzdXXnllcURkW7FyIA+5NJIPfvCDm7vc5S4l/WHYKiPkHQZcD96aYN6DTupBFRPMu3dSgnmCefdR1OMSEsx73HnzqPps+boVF/AJ0OXslv/885//fJG5yIm+7rrrlvSKTra8053utELaodxJjibXUA7AbeykIbexU+YVOcg32WSTAuakO1JJxopA2Gyas9LMYyhN3VsSzKeuS5ekQQnm3c2eYJ5g3n0U9biEBPMed94CVj2iynJ42wz5pS99qfnCF75QgJb+XP5zp12Suoige7XBtR1hjjIXI/Ic96rvqS3XXXddcTTkcr/22muLc+FwIBteH/KQh6w4bKnPMp0FHBZTXXSC+VR376I1LsG8u6kTzBPMu4+iHpeQYN7jzlvAqgfQxi2kV7QpVJRZTm9R5vvf//5lcyRIf9CDHtTc7GY3u4GsZSnBPDTk2kGyor6XX355iZBzMrxExzfeeOMS/Zd5pZ21ZjEciAXswix6RAskmI9osLx8oAUSzLsPjATzBPPuo6jHJSSY97jzrtDMswAAIABJREFUFqHqgwBdWkW6bGkWyUIctONYerps+b0HpVdcbBkIKQ6wpo+3iVW0n17e5lZSFZtZ5WwH5DWAJ4wvwqCa0FskmE9ox/SsWgnm3TsswTzBvPso6nEJCeY97rxFrnqMFVpz+c+dHir/+WWXXVaizQ7f2XTTTctG0Tve8Y4lgr7Y0BsRcvnIRclJVj71qU8VOc497nGPkoucRv6e97xn0ZGHLj6BfJEH0wTeLsF8Ajulh1VKMO/eaQnmCebdR1GPS0gw73HnLVHVQyZCIvKrX/2qnCB62mmnlZSDUiqKnj/lKU9pVltttQU/nKiO6EdWGVFxBwSdddZZpU63v/3tmyc/+cklqwz5TWRakZc9gHwx9e9L1G152zkskGCeQ2QcFkgw727FBPME8+6jqCrBAz7AxYN/ppdrAgaW8tCWBPOxdv/UF9aWpBjH9Oc/+clPyqbKD37wg2WDqCwnT3/605tnPOMZ5bRML/ISr9hYWUPxfCLW8RmKlI3SPNKPA/KLL764RMTVAZQ7IOi2t71tcRS8EsSnfqiO3MCFBvP62VDP+XXWnxibufl45O6bmDckmHfvigTzBPPuo6gqwYcyPpht4G5H92JCXspJOMF8rN2/7AqL8QO6f/3rXxc99+c+97myyVI0XYRaGkLyEXnBQ38egD5fg4Xz6zvZyte+9rUiqxG9d4qnDCvuucYaa6yQrQy613wcgvnWOd832RZYTDBvO6c1kKfTONnjZK7aJZjPZaG5/59gnmA+9ygZ8graW5vNRA9vcpOblE1mls3by+Um3p///Ofl2pvf/ObN3e52txLNW4pXgvlSWH267lmDhIeSw4m++tWvlgj6pZdeWjaIynyy0UYbNY985CPLeA9t9yibQtsbUd1LphVZYmxE/elPf1qi8495zGNKCkSZYnz+6gh52/IJ5tM1Fru0ZiHB3Nj9wx/+0Pzwhz8sK0f2O5BYOUm3fnEqpfR0vWuW6rnQxY7L/b0J5t1HQIJ5gnn3UfSPEizpi9jJWOHnONL7Nre5zYql84jwnXHGGc0111zTPPShDy0RRZHF+rVYwJBgPrbuz4L+YYHQessTDpptwPzOd75TIubyhYNz0EyP7jXMWK+h3GcL4Nh0qmyHIN3qVrcqMP74xz++WWeddYqMpdaQR+fU5Qxz3+zU5WOBhQLz+DxcddVVzemnn16eDcaofRiRpjOcRxuWTz755LLqs+WWWzZrr7328umAKWlpgnn3jkwwTzDvPor+UYLIoCjhW97ylqJxfcELXtDstttuBUIiQmjZXZTvJS95SfPb3/622WGHHZrnP//5zf3ud78VkFJLXIat3CiRx7rMBPNhLZzXDWOB0NGG7htgyIhy7rnnlhzoVpOkVSQzWX/99YsWvT5ls32PWn9rRYo8BogD8o985CNFGiMf+WabbVaA34FBXjamWrVK+B6m1/IaFlgIMI8yjV1Sq913371IvkisDjzwwLKKZPzH54YDu/3225dnwyGHHFLgPKB9psDNfOf+7PWFsUCCeXe7JpgnmHceRQG3CpJGTnq217zmNSVdHACXM9npiGBBlPzII48s14iUm6hFTwCEJU4TuJ/jsJYAC99jsxvYcR3YJ4UBJ/43nyPRE8w7d38WMMACdWTauP79739fNoWCk0suuaT585//XBxWGzPXXHPNogOPMR/FxWfC2Pa5csARx5eGHdysvPLK5bMlUm7Z3+eg/RlIMM/hOawFFgLM43PgM3DRRRc1e+65Z5F6kVg997nPbXbeeecC6capa4G5vxnvBx98cNk8XT9fzP0CQMa5z0tIYeYz9w9rl7xuNAskmI9mr0FXJ5gnmHceRTFxRtSDRvC4444rUcJ111232XvvvUt0EEycf/75Bdrvete7loiJvMqAwkT8ox/9qOReFkG5173uVa6xRB/ZXUzKUsHZYEejDspFHH3RIooQjvpKMB/VYnn9sBaoo90eVhzTP/3pT2XF6IILLiiH/oCMxz72sc0zn/nMsmHzdre7XRnHATTGvM/FJz/5yeajH/1oib6TfYmQS8to3PscBIBnXvJheyeva1tgocGcUwrMOanGq2DNS1/60uY5z3lO+dmY/9a3vtXssssu5Vnx+te/voA5qP/rX/9aVovIw66//vryjLDKep/73KchlczVockZzwnm3fsiwTzBfN6jqF5CrCOEJlGRD5OwidREu+2225afDz300AIkIunbbbddAXAb12jOZbKgPwQXJt1nP/vZBUCAN6ChqT322GPLUr6NRIAdvJMFKAuwjArnCebz7v5845AWqB1XYxtsAw85xs8+++zyebARjpNq6f5hD3tY+QwY4+QqH/jABxr6XKeKgnHX+RnEK9u18fnLCPmQnZKX3cgCCw3mF154YQnSOHzLvM9BNdb32GOPsnLkBcxf+MIXlkDNG97whgLmZC02Ub/tbW8r//e5MM6tMj3pSU9qttlmm3JmQL4mwwIJ5t37IcE8wXzeo2gmMPfBBB+nnHJK8853vnPFoSsm2Pe+971lUn7zm99clvLBtutMvGCcrEVU3HK/pcqtt966TLyiJd4j4u6ERTpdsC77hetN4KIvo+7iTzCfd/fnG4e0QB05rzMU2W/x/e9/v5wg+olPfKKsBNkMR5oic8sVV1xRPhcAfIMNNigbR0XV/a/e2JkwPmRH5GWzWmCxwNw8b14/77zzisMp1/5ee+1VAjDkXrvuumuBcVIWG0QFbuxb8jmhSffcAO4SDYD0pz71qc2rXvWqG5xkm129dBZIMO9u+wTzBPPuo+gfJdRRcz/TxL7xjW8skXCSFJE9H1oRkmc961llGf/4448vkpdVVlml2WmnncpBKJY6P/zhDzcf+tCHyvHm++yzT4kI+i4bxWGHHVZSwtGZm7Q/9rGPlWi5yVnkcZRXgvko1sprR7XAXBvTfB5AiDzktONAnBMKvL0XiBvrpGCi5GQr8UogH7U38vrZLLDQYG6efvGLX1zmatB99dVXN29/+9tLlSQJkCxARByYA29SFllZZHIR4LHJ+UUvetGKoIzVpPe///3lM3HUUUcVrXrIuvKzsXRjPcG8u+0TzBPMu4+iGUoQNaelpTd3RLglTNGRAw44oGSPMDEfdNBBJepNsmIzECkKgAcqJ510UoF3EzVg33///Qvs77jjjgVURN5dS3N461vfukQUa3AZpmEJ5sNYKa9ZKAsEuNPRykMOzDmbwASUb7zxxmWZPjJXqEdCx0L1xvIudzHBXAIAQRSRcKug9iLZc2T+t/kzNOZSjB5zzDHlRNs3velNRbpiBclnwDPFs8X/XvaylxWtujIjI9Ly7s2la32CeXfbJ5gnmHcfRTOUADpMsKLmp512WpGqvOIVr2i22GKLEg2U45nm3HImraHDUWyQA9shUzFR04/T1pLBiKSTAJiwwfpaa61V3iuybiNQbBQdtlEJ5sNaKq9bLAuIoBvjMq0kZCyW1fM+iwHmNOYi5mSJItwytdCOk3HZU0SWArKtGomqm/8PP/zw8jvpi2dInBrqPYI3ouZS7trT5LmQn5mlHcsJ5t3tn2CeYN59FM1Sgqi55UpLkcAbpIPpSJ8lCmIzpwnXRs74UCuSVIXmls7Q5iBaclpc+nPaXABjo6kd/dLG2WQqKj9K6qwE8wXt/ix8BAvUY9/PnEyOajibGSkfwZh56cgWWGgwl5WFlMVcf8QRR5SACo24gMsJJ5xQ5m1yRkEcSQCspnp5RgjUyEpkw2dseJZMwGFE3p9gPnJ3L9gbEsy7mzbBPMG8+yhqlVDraoEzMH/HO95RJuQazAE2HaElfBs8AbiX3LQmYjnPvWz2sUQJxklg5MAF5f7v0BZf9LeWRU32o8hZEszH3v1Z4CwWGDV7Sg3rCeY5tBbSAgsN5rXGnJTFXG1Mky2+613vat73vveVlU8pQclVRMzN9SBeCl6Zu8i7OKq+vvGNb5Rni/k/0i6mlGUhR8hwZSeYD2en2a5KME8w7z6K5oiYi5b7AuY2blrCjJy1oiJ219OXv/zlLy9ZVURORFdEUWjH7eAXeTeZO4zFJlDLoaIqNsyB/V/84hcF/m0QstF02FeC+bCWyuvSAmmBabbAQoB5lGmF1JweUpaImANz+4jk6acxt/nTtZIBSJco4CJBgFSLkgaIqFtF9ZI0gMxF1B2g2yg6ytw/zX25lG1LMO9u/QTzBPPuo2iWEkTMTazA3EmFwJyUxRI9Ha1lSEuXwJtcRUTExjebRkXESVRoBx2ysu+++5YDiEA8QCd1sQGIvMVE7j7uMUou8wTzBe3+LDwtkBboiQXGDeb16hDYDrg2R7/1rW9dETFnHvO7LFyeD+Z/1xxyyCElNa6/k7M4iE7yACuoZI0i5c7LkLUIoDtoaNQ9Rj3pml5VM8G8e3clmCeYdx9Fs5QgGiLdlWVImzP322+/smnTRG3itoHnnHPOKfpB8hRLmCAddNupD8JNziLiIP7MM88sy58iIyYAR5vb8GNH/vOe97wSYR9lyT/BfEG7PwtPC6QFemKBhQRzZV988cXl1Gf5ykXHPQfM1eZgz4nvfe97BcCdbSEqLlHAJptsUgI0NniKkLtehiKrpX527sVWW21VTs8dZd7vSZf0spoJ5t27LcE8wbz7KJqlBABOQ+iwFNAt/RudeERTAs7pzWkG7b6nESdVcZiECLqJGKhLi2gXv0MoZHsRGTeBi56bmB28MurknGC+oN2fhacF0gI9scBCgbnmm2ftETJ/04ED7sig4r5eYFvqQ88BgRfz/6qrrlrmfhF17xUhF1GnPRdVdxgX+aJo+qhzf0+6pXfVTDDv3mUJ5gnm3UfRiCW0D10JSCdvoRc0yYLzkKTUS6J+dgCRzaH+b/nSCaExKY86OSeYj9h5eXlaIC0wlRZYSDAPg9VzeT1X1/Nw/Fz/P362mmqV1PMBnI86309lx01YoxLMu3dIgnmCefdRNMYSZspaUUfYIwITaRG7TM4J5mPsvCwqLZAW6K0Fxg3moxgi5nfvmW0+r69rl9/lOTBKXfPa2S2QYN59hCSYJ5h3H0WLWEIN6HHQRJfbJ5h3sV6+Ny2QFpgWCywlmNcR9QTsfo+oBPPu/ZdgnmDefRT1uIQE8x53XlY9LZAWGJsFJgHMx9aYLGjJLJBg3t30CeYJ5t1HUY9LSDDvcedl1dMCaYGxWSDBfGymXNYFJZh37/4E8wTz7qOoxyUkmPe487LqaYG0wNgskGA+NlMu64ISzLt3f4J5gnn3UdTjEhLMe9x5WfW0QFpgbBZIMB+bKZd1QQnm3bs/wTzBvPso6nEJCeY97ryselogLTA2CySYj82Uy7qgBPPu3Z9gnmDefRT1uIQE8x53XlY9LZAWGJsFEszHZsplXVCCeffuTzBPMO8+inpcQoJ5jzsvq54WSAuMzQIJ5mMz5bIuKMG8e/cnmCeYdx9FPS4hwbzHnZdVTwukBcZmgQTzsZlyWReUYN69+xPME8y7j6Iel5Bg3uPOy6qnBdICY7NAgvnYTLmsC0ow7979CeYJ5t1HUY9LSDDvcedl1dMCaYGxWSDBfGymXNYFJZh37/4E8wTz7qOoxyUkmPe487LqaYG0wNgskGA+NlMu64ISzLt3f4J5gnn3UdTjEhLMe9x5WfW0QFpgbBZIMB+bKZd1QQnm3bs/wTzBvPso6nEJCeY97ryselogLTA2CySYj82Uy7qgBPPu3Z9gnmDefRT1uIQE8x53XlY9LZAWGJsFEszHZsplXVCCeffuTzBPMO8+inpcQoJ5jzsvq54WSAuMzQIJ5mMz5bIuKMG8e/cnmCeYdx9FPS4hwbzHnZdVTwukBcZmgQTzsZlyWReUYN69+xPME8y7j6Iel5Bg3uPOy6qnBdICY7NAgvnYTLmsC0ow7979CeYJ5t1HUY9LSDDvcedl1dMCaYGxWSDBfGymXNYFJZh37/4E8wTz7qOoxyUkmPe487LqaYG0wNgskGA+NlMu64ISzLt3f4J5gnn3UdTjEhLMe9x5WfW0QFpgbBZIMB+bKZd1QQnm3bs/wTzBvPso6nEJCeY97ryselogLTA2CySYj82Uy7qgBPPu3Z9gnmDefRT1uIQE8x53XlY9LZAWGJsFEszHZsplXVCCeffuTzBPMO8+inpcQoJ5jzsvq54WSAuMzQIJ5mMz5bIuKMG8e/cnmCeYdx9FPS4hwbzHnZdVTwukBcZmgQTzsZlyWReUYN69+xPME8y7j6Iel5Bg3uPOy6qnBdICY7NAgvnYTLmsC0ow7979CeYJ5t1HUY9LSDDvcedl1dMCaYGxWSDBfGymXNYFJZh37/4E8wTz7qOoxyUkmPe487LqaYG0wNgskGA+NlMu64ISzLt3f4J5gnn3UdTjEhLMe9x5WfW0QFpgbBZIMB+bKZd1QQnm3bs/wTzBvPso6nEJCeY97ryselogLTA2CySYj82Uy7qgBPPu3Z9gnmDefRT1uIQE8x53XlY9LZAWGJsFEszHZsplXVCCeffuTzBPMO8+inpeAjj/p3/6p+byyy9vjjnmmObHP/5xc9RRRzWrrbZac5Ob3KT8z1e+0gJpgbTAtFoAUHn94he/aN73vvc1Z5xxRrPrrrs2z3nOc5pb3vKW5X85D05r74+vXQnm3W2ZYJ5g3n0U9byEAPPLLrusOfbYY5uf/OQnzZFHHrkCzP/5n/+55y3M6qcF0gJpgdktkGCeI2QcFkgw727FBPME8+6jqOclJJj3vAOz+mmBtEBnCySYdzZhFtA0TYJ592GQYJ5g3n0UTUkJpCzHHXdckbIcccQRGTGfkn7NZqQF0gJzW0CAwuvnP/95SlnmNldeMYMFEsy7D40E8wTz7qNoSkq44ooripRlGDCPKPuUND2bkRZICyxzCwSY1xrzXXbZJTXmy3xcjNr8BPNRLXbj6xPME8y7j6KelRAPoPZGpkFg/i//8i9lwxOdef2+BPOedXpWNy2QFhhogfZcBszPPPPM5vTTT2922223Zquttmr+9V//NTfB5/gZygIJ5kOZadaLEswTzLuPop6VECkSA8zjwVSDeb35U/PimszQ0rPOzuqmBdICN7JABBnquc3fBCBqMJeV5bnPfW5zi1vcopRh/ovr6vemidMCYYEE8+5jIcE8wbz7KOpRCfUDKar9P//zP+WB9NWvfnWFlAWYP+ABDyh/FzWPVzty3qOmZ1XTAmmBtMANLFCvAv79738v890vf/nL5qyzzrpBusSb3/zmN1o5rIMVada0QIL5+MZAgnmC+fhG04SX5EHCmxcR8vC5/e1v39z1rnct4O2B1I6Yr7rqqivymP/sZz9rfvvb3za3ve1tm3vd614rokcT3uSsXlogLZAWGGiBP/7xjyU1rNd97nOfMtdFxByYk7OExjzA/A9/+EPZHAri73//+zc3u9nNMrd5jq8bWCAj5t0HRIJ5gnn3UdSTEiIdGAD/7Gc/WyD9kY98ZHO/+92vAPo3vvGNFRHzt7zlLc1973vf5ve//33ZDPrFL36x+e///u9mgw02KO/JgzZ60ulZzbRAWmCgBUC5efA73/lOs9566zWrrLJKc4973KP5y1/+coOsLFtuuWXzt7/9rRGc+NrXvtZ897vfbVZaaaVm8803L4GKnAtzgNUWSDDvPh4SzBPMu4+inpQQS68/+MEPylLtiSee2DzoQQ9qNtpoo2bjjTcuEH7qqaeWKNIb3vCG5qY3vWkB8k9+8pPl4fWkJz2p2XPPPQvIe+UDqScdn9VMC6QFVlgg9tiIfn/mM58ph6kJOmy44YbNE5/4xLIieNFFF5WI+Y477ljmx69//evl2i9/+csF3l/5ylcWmI9Iepo3LRAWSDDvPhYSzBPMu4+inpQQDyTfAff+++/fXHnllWUz05prrtk88IEPbH74wx82v/nNb5pHP/rRjbzmV111VfO73/2uWX/99QuUP+tZzyrSl4TynnR6VjMtkBa4gQXqefDb3/52c/TRRxc9OThfeeWVm3XXXbesJtpzA74FLL7yla8UCcvd7373Ztttt21e+9rXrpD5pXnTAhkxH+8YSDBPMB/viJrg0upsLNdff32JCB1zzDHNT3/60xL5kXnAkq2H0q1udauGBvOvf/1r0VG++MUvbnbYYYfy4Gpnc0lIn+BOz6qlBdICM4K5qPkXvvCF5mUve1ljJdHrlre8ZQk+/Nd//VeZF82Jf/7zn8u89/jHP77Ze++9y/fIzpLzXw6wBPPxjoEE8wTz8Y6oCS4tMhD4DrhFhPbbb7/m0ksvLdGiQfnN5e8VTXfdpptuumKz00y50Ce4+Vm1tEBaIC1Q5rn4kpHqRz/6UXPooYc25513XtkYD7QFJ2wEjZfr733vezc77bRTs8ceezR3vvOdV8yXrkk4z4EVFkgpS/exkGCeYN59FPWshNgEamn2+OOPL1pzD6RBsH3HO96xeeELX1ii5autttqKfOZ5wFDPOj2rmxZIC9wAtP1iHvvTn/5U9OMHH3xw0ZLLuBJwFec2+P0pT3lKs9dee5W9Njn/5WCayQIJ5t3HRoJ5gnn3UdSzEiJtoqj5JZdc0hx44IFFT+73OvJj8+caa6zRHHTQQWVjFHlLRIfywdSzTs/qpgXSAjeygHkMiEsF+6pXvapEzQUsvETMYz683e1uV+Qu22+/fdn8WR8ylGZNC9QWSDDvPh4SzBPMu4+inpUQkXETCH35cccd15x22mnl5/rQDNHybbbZpmz6lLM3T/3sWUdnddMCaYE5LUDOYm6TqcpcSNoXcEVr7udNNtmk2XfffZvHPvaxK+bBWuoy503ygmVjgQTz7l2dYJ5g3n0U9ayE0Feqtg1O//Ef/9EccMABJfNAnH7ngfSwhz2sed3rXtc85jGPKdHy1FH2rKOzummBtMCsFqj33dCaH3744WVTvMxUEYgw91lVlJGKzjxWDXM+zME1yAIJ5t3HRYJ5gnn3UdSzEmotuUlEOkQA/oEPfKBozUWCbn3rWzfPfe5zm5e//OXloKF6Wbdnzc3qpgWmzgIpJRtfl0agwlwobeLb3va2kq/cnBeb34899thmnXXWWRGcSCgfn/2nraQE8+49mmDeEzAPmIxoRf1792GwvEpob/KUkcXmpyOOOKL5/Oc/Xx5Iq6++eokeOeVTyrA2mEc0aVA/DPPQar/PeyaxT8cJQDO1sU4/GeN7eY3IbO0wFmjPgd4ziZ+ZYdoyidewpVM9gbkN8U4Avdvd7laCE1tvvXU5HTk/n917rj0Pxu/tNLzd77Q0JSSYd7d7gvmEgnm9xNheOpzpYTTog50Prht+SOpJsbbXr3/96+Ytb3lL8573vKfk7d1iiy3KZigbndr2bz+cBkH2MB/NQVlghnnfYl4zzvEzCMyj/NSrLmav9vNeGZxY+H4D4zaAvvWtb22++c1vloPV3vzmN5cTkkXP2070wtdo+u4w03O6fh4ME9yZVMskmHfvmQTzCQXzGNwRsfQ7/XP8Pmykdpxg1X24LX0JM014/n7BBRc0J598cslQ4EChxz3ucSsysYwSKRpmUh22/5baYgs5fuj4b3KTm2QUbqk7eYLv316x8XvMg5H2dIKr37uqse+3vvWtshn+4x//ePPMZz6zbH6/zW1us0JzHnnOe9e4Cahw/WyIsS0oYR6sx/owz5AJaM7AKiSYd++ZBPMJBPN44IheXHfddeUACJtxbFSMgx9qYJpLbtCHyGz3oTx3CbPZwUTIzqQsNOci5ne4wx1WSFjqibI9ubbvPMykulzBvLaNE1XZ+F73ulez6qqr3iAiN3dv5hXTbgGfEV+yhkjhd+2115Y9IPJu+1uda3vabbEQ7ZvJ6fackT7Wpngb39daa62B8+BC1Gk5lgnKOT6kQk6WNicKWgzzHJlEeyWYd++VBPMJA3ODmpSCtOLKK69sPvWpT5UTKv0eD6pBGrUYCn39MHcfysOVMMihYbOQUshlLiJ3i1vcYkWBIMD/fQ2C++iXUfpgJjAfVP4o+vNRrp3NoWjbqS0jGM7aN7yqbls4mB5CD37wg8vhJQ95yEOKplX+eK+29nI+98z39NcCPoeOjP/e977XfO5zn2u++MUvNj/84Q/L/DjKZ62/FhhvzYdZ/fKZ88X25kL7ayJlYvxvmHLGW/P+ljZsAIZMCJRbpf23f/u3kp5XAoI+vhLMu/dagvmEgHl8gG1E9PD50Ic+VJYSRS/onH3xqkHLbJvl5gLzmTSC7QlkrnK6D73JKmGQTedaKh+XjdoQHFBaf2/3z0yrJIP0i8NYelB5g+pV12mYcgddo47gCnT95Cc/KSsVnJ+nPe1p5WuVVVYpQDAu+863nvm+pbFAjDurhBdffHHJlgTOHXJzn/vcp7nLXe7SWG3J12gWGBaoYy6YaWUwP5fd7F7bzzPGM96KkOe+OXHNNddsnv3sZzePeMQjCpz3bf9Ngvlo42PgM/L/Dftp7X6viSuhjuD9+Mc/bvbbb7/mZz/7WbP//vuXJbxxQMiwjVYXA/r6669v3ve+9zXvfOc7yweUpIIHPa7lrZkiqssJzAc9WIb5GAwb/Ri2z+O6YaF4UL3HtXqyUBBe26J2GmK8//73vy/HgNt0KyMETetWW21V4Dwy4czkhIxq57x+8i2grzlpvj7xiU80xx9/fPPHP/6xefKTn1yOghegCCjPcbEw/Zl2XRi7zlQqewvImf/OPffcMu6tHjpl1YFOpC59gvME8+7jJyPmExAxDyjiLV944YXNkUceWZb0HYG89tprD324TRvc5oLNuH6uCEjtwMw2ucznfzM5P6NIMmZaBZjt41HLJOJn7RwUma7rOJetunwk4/4z9VtIadoRrZkcjWH6TX3rB/F8nZZh2t3u06ifiJFo0etf//rm29/+dvOiF72onLh6y1veMqPmwxh2yq4hoxAg2W233YqEb6eddipSJyfxBqDM5zM/ZWYXyZzRAAAgAElEQVTK5vTUAoOCKZHcQYBQkEIiAs9+qSrtvxm0ijGpzU8w794zCeYTAuY+rF/72tead7zjHc0VV1zRHHzwwWUpi3xlMV/jfODNtBQ6KIoagLiYbY17xUQ5k3RlkAOzkFGlGsxncrbmchDmU7/2e+ZTxjD9VzsMbB4OCadUmjabQXfdddcy/rUzvoYpO6/prwViLNjgKWXfMcccUw75ev7zn18O+fIKMF+osdlf642n5rPNPeO5Q5ZSW6AdPCHx+8EPflBSVF599dXNdtttVxzTPo33BPPuYzzBfALAPKD0/PPPL7m0bQIRNa9TVM2nq31ALJGJSLYBxwfdEplNjvP1xkeZxENLpz70w5aj54LL+bR51PfUbQgwV686Om0TlAw59P2Op/a/2Lw46H7znUS9T8YJk3PbRrXD5Gf3V6+wZ+QYHqVPZnKG6ogOSUGMH2NlHEuqtX38XAOZqPk3vvGN5nnPe155IMWeikkYK6OOrbx+eAvEOPAO+bOdxCt6aDxsuOGGNxoH8/2MDV+j5Xtl2nbx+r4G8whQmOve9a53NaeffnrzwAc+sDiosSF+8Wo2/zslmM/fdiuChakx/9/sD0ulMY9JEGRZwqIt33bbbZudd965pI/rAkL0u1dddVU5Xjk+9DWEg+M73elOzT3vec9mtdVWKz/PdL/5AF8tEfnzn/9c6vKf//mfZbKRggt8BhwOitS3/zYTnA3zIBkmCu0aelYQrm423gBTKxjqbuPZBhtsUOA8Jp866h4/R31GtZkl/E9+8pNlQyT7PPShDy3OU9wrHAJ2sDEOwNqT4NoHPOABN0ixVdtkJrvVjkg9lbg+MtGQFHzpS18q/374wx9exsow9h5lalKe+/kMnHDCCc0HP/jBZqONNip7PsI5HaW8vLZ/Foj5yTiQpm+PPfYoh9occMABJWtPrpr0r0+zxqNbIAI+n/3sZ5u3v/3tJVDz7ne/+wYyrtFLXdx3JJh3t3dGzJc4Yh6QA7R8AG38fOlLX1o2wcXmt/nCuby/DoogD+BxA/0azP0MzmMX+OMf//gVE0Dtvbc1cYbdINhrS0FqsLbr/L3vfW9zxhlnlLbRj9rQGvBat7EGxhruawgeJJOp7zeo3JlAOf7uvlJT+gKgj370o0v9HFGtX2wItjFYvtm6rYPkFvW9BsH7oI+uyLSDjS677LJiHw6a/omIcv0eh4Bw5P793/+9yD6e+tSnFmei3jBZ93X7flFmXfe6ztE++YwPP/zwAs777LNPAeZ2/3SdhgLMrRTIwGHM2vwEzNl6vuO/a73y/YtngRhTnDNQstdeezWbbrpp+TzYCOyV42Dx+iPvtDQWCDAXdDnuuOPKnhvyVukT4zC2panZ8HdNMB/eVjNdmWA+IWD+q1/9qixfSZNow4e0cV3BXIoxJ1n6gIu+PvKRj1wRpQZaTrj8zne+U0568/B7zWteUzLA2HTn5RrgJo/toFeAXBvo/B5SkJCFiLyeeuqp5YtMwYO3BvOQZ8QDuB0tr7XINXSr26AIbu1Y1GA8CFbjbyLWVixMhI6iPuSQQ4q9jj766AKLm2yySdH+3/nOdy55ft07+iju0Qby+n5zyTFAiZUSMOy0PfrCcKZq+7sn/aG+DYjZcsstV+ReD9vrP6+6/9p1cE30V/2/AKVLL7202MF1xqU8uzEu4vqu0cwazM8555wyRlZfffXmla98ZXP3u989gaz7PD/xJdRg/pnPfKYA+TOe8YzidJL2zbRKM9dnauIbnhVMC1QWCDAn5/LcNs8fe+yxZUW7L3KWBPPuQzrBfInBPLrwl7/85Qow33fffQuYB9TON1IkYg7eyAPkRd1ll12KXCUeZuDSB/+www4rG05ERJ/1rGeVjDDgy/9JUOJADx47UPUVRwj7P51zwJ/fyUHIPWiSyUFcC8xPOeWUsiqw9dZbF/AE5u5BOuI9lu3UjXyBc+D9ESXwYHYtZ8K17imafNvb3rZcF5p17/e/KFPdleX/vrePgK+X0L1HdNwSYoC5Ovqd3m/jjTduXvWqV5WyrHCop/a1y2U7ZQFt9vByDZtEqrdBQOF6ICJizj76gk2U4T6+wib67aSTTipgvvfeexeIUb72irx7HymTsaMNYaOQxrjGtcDfz77YwuTv2pAZfeUrX7kRmOuHuI92uLY+kGnUaakGc+nCjBFgbnXCWJzv+B+1Hnn90lkgwNw4BObGtJU1c5ZoYe38zbTytXS1zzunBcZjgQBzkk9A7ruUoaSKCebjsXEfSkkwnxAwj4g5fW2AedeIeYD5iSeeWGD4JS95SckD7MMfE8BPf/rTsgPcYUayH5BP3O9+9ysHHTh59Oyzzy6He4BG0UtRY5IXUg9/k9YJvN373vcuAAkqORlgUHR1s802K/8jZQHmHAWp8ETEbn/72zfXXHNN87GPfaz5whe+UGDXQ1dEmmxEijTRMi/3kueVFEbe69/97ncFCK0EuAftd8CkOiiTth6cKs9KgKjySiutdAPQcz+24DiQqygf9HqPHLI77rhjgV8SC4AA2GXPcb30beutt17JNQ8k4yXFG7uRmbCvej3sYQ8ruZjJYwa9gEeAOXs+6lGPKjakb/d3kg5L+094whNK1hJ11K806Ryq5zznOQX+1U12k0suuaS03WTOGfNejoX2q7tcuexImuJ+ovSgSNlWVp7+9KeX/vF3EXMwHhFzjpETaX25Rn5p7eoSveTMgH0R8wTzPjw6xlvHgG0ObQ3mVpDMAV1XZcZb2ywtLbAwFmhHzIG5yHlGzBfG3pNaaoL5lIM5ePNFFhFgHlFisAWMZUCgqwZe4BVIfvrTny7vo3Fz0p5IK+AGYgATXPv7m970pubDH/7wikh3ZAexKRFYSncm8qVMYO4rIuYAD4TJRqMuoDByWotGq7P6uI/Nl2QmYFC5TgEE575sStS2ddZZpxzbTQpBgqHOrhM9Vi7Y32GHHUp+2BoiQSGADo3/97///dJOcCyCDXLp4wE350RbtNMmTc7TC17wggLGUrr5G+kLmGdn7eCw+BL1oB2fKQ0mMOWwcCrUj3MAtv3d5mSOAEeBIwC6rYQ4GdF72Pm6664rUXQ2soIB5kE9B40NQY73cgK9l92108NAJN+1nCNR6he+8IXN5ptvXvq/BnO2FtXmwBgP+ta9SaG6gLk6WOloR8xTYz6pj47x1ivmpGEi5uO9c5aWFpgcC6SUZXL6YilrkmA+xWAOMMG1JTGRbhsEST88BMEeqAXmoqeiwa94xStKZFnUFbiJXIm0ihIDRLo313p/QB5oA61eEZUFhTz997///SVCr9w11lijwBwdPZADvGDbxlT1APs2/Hkwi+R6r7rIziAbSpyGCtTAoCga4PzoRz9aDqcBvJwF9eFUiGCrDzB35DvnAdwqz8mSoDde2gPerRConzJljtFGEXHRcrBvFQHcP/GJTyxwLsqvXA6BckXFL7rooubQQw8tkO46dvW+z3/+88WeItQHHnhg+XtboqFPbPwVNVZvkWg2AMyi2urhXhwoDoK+DY052Yt608cDZA4NuwH4z33ucwX2QTm7e4nCKI88xnttAGYDoK8NpFSvfvWrS3T9DW94Q3kPe3hwGBscGX3mPrJmsMe4wdzmz5SyLOXjYfHuXUtZwtn0OTdereBlxHzx+iLvtHQWSCnL0tl+ku6cYL7EYB6bmhZCykKCAt6OOOKIIiepZRwAWATYYR6iv47/9RAEQjY6Aje6YXmELaO5BqQBP5AHGkXLjzrqqKK/ltpM5JYDEBFokCkS7wRTEAdi1YfeHchyHEBgSFfAPw05QJbPXZ2VSYrhXtL20Z7aPAr4wSHZBhmOSC5o9n+AKwc2EFUX4H/WWWcVuFY/9wbcNZj7WdReu32JlrsncKU7B+xAl2yExAYsA146aLaxmZUzIFrOPmwJWrXNZAs2ALulevYF3CG9iXpExJxNQD19LamOviLjYQt9QOeuvSL8YN+9wbX6cBaAjPeHRIejIpIuH7S2g35tFDEn1wH66s6B+MhHPlJ+t6qgD/QHZ8dYYROOnM3CwN0JnU6lqzeBzndya0fMjTmbP/Vzaszna9X+vG/Q5k+fn9CYa0kXx68/lsiaLmcLJJgv597/v7YnmE8hmIdeMyLm4BnkAraQmoBQIAbMgR9NMaglE3GgAZAT1RWFjvzZ9MpAEOiJ3AJM0XhgTsohoipS7P7A1aZSUVkRapBMYkGOImLuXuoi2i2SDTjJX8C2yDygX3fddVdcB4DVF1yLTKtLgCe5hd9lmAGRJB8AXF3UQwSfk6IugA/gAstwiuI7MAas2k9nzW7AXBtJcOjY5VVmFzaT0gqok2CAY1Ic9QTR7Ea6EpE+MhPQq4109sDZ6kX9Uo7IvzzOvpOtsFHk+OboRDSRXpzdacxDygL63YechszESoH7sSVnRx+rJ/kKB0JfKlPf6Hf317fgXRttOuLUiJirk82lxgtngZMB9DkXM2XMGGWKDTCvNeYi5pmVZRQr9vfa5QTm4/i89KGnh2nnMNf0oa3jquNMGnPPEs+CPrwyK0v3XkownxAwH5SVZb6bPwPMZVoB2CK+keEgcnC7hp6YxAJ4AlsgKvItCwmAFsEO0PZho9kGbwCW9AHceQ8pC+02XbLy6+gzoBVhFv1yL+WKeMs6Igprsyt5DCA38YA/L3Arqg3g1dWGWPUBbqKoET2LDCwkG0BV3dUP0EUOcHaM9JAkNYBXnfwNtCsrMoMEmINwEWOrBr7LGW4z62tf+9pyf44NB0L9ADGYpeO2OsAhAragPvoiTtD0u5SLygLDg8CcbAVA065H9hv3cG8abNF4jodVALYD5hwj0WySH8CtbyOzDRtxWjgjyuW4cD5APrmK1Q+wrk3Kc41+ZwvOEDAH7CLt0SYrLDYKW0UYR0Q7wbz7ZN7nEtpgHpmG6oj5OMbZUtso0r6206wudb0W8v6xfyDuEf0Yf/e9tkdsyK/PZFguKyazbf70LOjDqlGCefdPU4L5FIJ5fDACzMGwjCugEVR6BYiCS9KI2AQqChopFmmHwVekGASxsZGR5IU8hdzjzDPPLBAJzGVrMXmAPBFz/xMxl84P9NEni5iLCIu4g3rwC4Q5Bd4PBo888sgC+aBTeaKn7l+DOdgVFRYxF7mVwYSzYHVA9hIrBDHJu5YjoP1kICIQMQm2wVwZZBucDnULuQ4YtlEW9LfBnKOhvuQXItbA1T3CdpwFGm71YDfgHqkT42PsGnaxgZVMhAMRIAzMI2IuSi9izn4i5iBG1FtfyIMP+Ml6rA6Q0lgt4JyRzwSYc8YAvBUA0XvQHWDO5mwoYm6DLjkTGwN4mzzJmVyvTzgY6ujVBZwSzLtP5n0uIXLjW+GKrCzmjGkA84gK+3z58rvPfpfPS5/6Op412u5zHhI+810EfOq0uHUq1zj9ug9AOo4+aYO557N52FyeYD4OC/ejjATzZQDmYBiYizrXYG7CBO9gU2o/4EfuIOoK3GzGFIEO8DI5So8IsEE0eATQItVSKO6+++4lku6BAyRF0WVHAXCgTrl00cAcdHIIyFtAPWAU4VUnkg9wLGrr7+D4oIMOKnUNwJTtBAADUVFkIA243UsbAS6QVh5ngpSDE2BTJ4j1HQxERLqOmNuQykERKfcQ8d3G1YiY12AOksErMOcIqKdNrU7LDGhlNxOs9quzyLeJtn1wkweV9sbmS/Z0ncna+/ShlRVyGTIfqyEgRkYa99JmG2c5U4CGPbWdzTlbYF099adouI2jDpXSN0Db/QP0gbmouraRBwEmdWM3MhYR9Cgv9PpdQCPBvB8PjIWq5TSDedgsggg+Z+Yqc9hMh7ctlJ0Xo9y2PMXv9lBZSbRnhQzSyqgEAX636iZQ4TrBE2luzfXmPs8TwYUE8wTzxRi7k3KPBPMpBnMTIXjzRfMsO0qAeSyp0ngDLYAs4u06cAfKyB8ANMAFczZf2sBpMiVHca0c6GQeIBDwkoj4mWyFQyCKDMBJSOjDSVtE0EE7QAX6wNC9Iw+3KDuQFrEHgyZncOn9tN/uayIH/ZwCsg2ALPLrO+03UJWWUXu1B1jTWrsPR0BkPqITITfxO0dEm5Qvmsw5sWHVfZTZjpiLLovwA165vNUd2NtU6f7aIIe7jZY2qSoXtIumt0GW5ER5HBMbXtmT7T3IATjbuUfsBbASYsOnNstAA+SldpTXnX2VTxvOIfEQDOfJg5CDQ8rSBvO2lIVEiJQlTv5kf1BuNYT8iHPGEaCv7/LwTDCflEfC0tRjOYC5rElWucw35j6rT+1Vs7B+zEmDPlODwHemz16UE+XO9hntqveu7xX3ib85D8Hc6JlCPmcOshJpnpcMwAqj54p9QIIt9h1ZMTGHAvSZsvLMZqelGcnd7poR8272m5Z3J5hPIZjXGvOIlprgRMRFe0PK4rrIuy3qLEoMMGmQ42h0kW9wKWpNzmCZUco/WU9EiAEaaPVgFeEGvPTqIsS+A/g4/MZDCcRHxNw9ZTsBfyZfURQREy8Og6VPoK8M8A1ETeSgVh1FoFwvcgtKZRYBoSAcNKofwDXJeyAAfJFk9Y9Ni/UHmT04Hh4YNO4kJ8ATwErf6H2cDDYEyw75kcGERIXum4YbAJOU+B9Yda0Hjk2YdNxys8sPrl7tFzAX/RYxVxfv1U6Ttfp4jw22IFy7RcGBOX07iAfbdOfqJrLN/iJVloPVi+ND689pcA/OmOg7YLcR1fv8zTjx4LRSIGKujyOVo/eyLafLgxZcsClbddmclGA+LY+U+bVjmsE85mPzkrnB75xsTn/IOtrAHPrrNpAOgt8a5mcrJ8B70DV1r80F+XPBvbLiGv0qQGCeErAQJCGF03ZziNVF86ZgjTlS8EjEnOzOc8JKqL07AaxtByP2JnRZrZvfiF2YdyWYL4xd+1ZqgvkUgnkMQrIHkVawBSpBLjisJ3JZN8gXwKcJELiBOkuJotkmVNeYMCy9rrXWWiUybeIE7ZHHXKYUUC67ir8DefcEoeCNpIJ0QnkcAIDnWpFkMhr38B5AKCosR7lJm6SCvCYi5FIRmsBBrCg+p0HEnbRD9EnWEO3VHm1wnXqrA3i0jAp2Z3q40NqLbKmrJVQOCBC1WsAuojgh++DUcDRAK7ilk9dOGnHRcY4MsAXInJawh/cPWsJWjgc2qGcLDgsgZ3vvoZvXVsDv3vrW6oB26Q/wzZ42j6qHdnNOPNxErDgnJEii8JwVmnz9LcuK+3GEPDi1iRPAiSBhEcHygPUAZW9/43j5O6dDX6oD8J/vK8F8vpabjvdNM5gHnHJkrZb5nPuM+SzOpKGOvTHmUvOAgIh5xPwtgNEGUf/nhLvePMjRdl1I9SIY47u5wSqfz5w51Oe2no9qZ6COovvZfGpO836/mzfMTaGZbzsO0XZpXMkTBVasSpqHpV1VZ3O7cynMe4IMygfoAhDaG3uW2M19zVPuq+6hTU8wn5x5IDd/du+LBPMpBvNIiQh6TZ4m6zYQmjhFfEWkTYCAzKTnBcBAMAhUFnAHyoDPBOxhAMxpp0WWZX7xHrAGfsGwspTrw2pS9ZAx2XoY+Lu6iXx7j4mW9AQQq1OcrGmjqf8pw0Tu7+6tPa7Xthq01ZV8RNTdPbXJ5O86E/hsS8H+p47Ala2Uz0YeFtqi7v6uLu4jcu098SAMrTp7Sl3oezgcgHq2bAyxQdV3D1UPWfXwMGQTtvdwjgeVenrI2uwZfcY+7Km+6uqe6sZJ8yVCpx+jTcqNw4HU3T21yQNPH/qbNni5jwdwRPOUp5/0pf9FxHw+S+IJ5t0n8z6XMO1g7jMLzMnkAKbVQ07uTGDuMy8gwNkGrD6T5gSrhVb+BEF8FtnN51MQw8FwAhM+7+Y7UWnAG3IZc7NghfJ8j9OWrTS6zuc45qfYEF9H2c3Vgg3uZW71P3OrOmkL2WJsUAxAjwhwDeZWPp2TIPhi3jdHmdcEFaz6ubdoOTCPMzTM52yh3uYo85b7qrefE8wn59OfYN69LxLMpxjMI0oy0xJmHTmvtXoB0vH/0KMD0gBP15jogTmZh8iyL5Nk3K9Oi1VrDmPSjzSG9TCuwbmOvtRtUJ/48EedIsoT7wl4bNelXmad6eMT0Sr/b7ch2hH3ryNRca0HXrSjrvdMkai6Hu1y4/e4b7uMuvz6YRjtDFvXfV07Me0HWtgtrq+vrfuwHRkbxq6zTVcJ5t0n8z6XMO1g7nMGzElZImI+CMxj7gGgour2m4BS4Op/5harXPbJiLgDWyt8ZG0CAXEdQLYnxh4h0WmfL+AOfK3+gVsv18VeHqtuoL79OY/72n/CofD+uI+2CAC4j8CM4EE999QRc1IWdbBnB1TT2V922WVlU7vfSeg4I16CAvaukDGqO4ke/TmHJYJL3gPgadQFbtqynz5+HlLK0sdeG3+dE8ynHMznM2QGQVcdBQ1QF62lP6YVJ3vwJWoSMDibFjGANiai+tpBEde5otxt8K9BtLbBXHWqr4171k5L7azMFKWp3zfofoPKmwmcB7W7DcFz3a/dpmEgerY6tm07k+1HGXsJ5qNYa/quTTD/37MUfIFm+mswKopNJkdGJ0pt7w94tW8HuIo6y7BEFvLUpz61ecQjHlFWFcnMwH0cHGeulsqV9M1G/DgcjIwwTguWFhXEg+76M65OUq7KwGVTv/eTtekzcjh1Uj/7fES5XR/wHGDufRIKAHMRc5Fw+1tAvoAOuD7vvPNKakDvdZIxGaTVPJF0jgc5IMmcvTeAXt05BTb006jHvUaZ4yftk5RgPmk9sjT1STBPML/BJFxD1kwAF9BGTmLSNLnagOkrTrMcBuwCztsTaQ2jo5QzqL6DnIzZPmqDnIL29cPWaab7DPP+Ueu9NNPH+O6aYD4+W/axpGkH85Cy0JiL+oqGk5qQmdRzLjuQ6oFce0J8B6nmVVISQBrnUchuQrqiTDDt4LL111+/RJjtc/FFJgKizdF027IqCaBIcQqA7Smh+bZfRZDFHhqrnm1nHtDHfhrl2WskWm4PjA3wfpY4QPTb3BVBiwBNYE5jXkfMOQqyRtnQLrMUiY1N9KL4Bx54YNmzY6+O95HrkAGxGUmP/UkSBwgKOdMB0Md9+yxrSTDv4+w1/jonmCeYz3tUeYh4MJg0aQ0tP8ZJmvMuNN+4LC2QYL4su31Fo5cbmJOE2HRNY14HJsgDbdSWJta+DVFl4Ak2fUbs65CBSVRcGlP7ZkhERK7ptm2CtxFfVNm+E/Oy94k4k7HYqK088O3vpDA2y0sAAKxJUkS/26tinAJRc7Ia0XdzvjpwHi688MJSHrgmsQm4rAMvwFw9bf6UvnfVVVctEfyImDtjQ4Q/Tjt+4xvfWJwH9QbkpCoAPiQrxosN+rJLgXWrC5yXvhzCM9OnPcF8ec+D0foE8wTzzp+EWgc9TMS58w2zgKmzQIL51HXpSA2adjAPjXlEzIE5jXg7Ym4zNeAUDQfuYDcO8IqTl2nMZY8SIQfatN+kKzZHipzbLC9SDlhjFVMKWJv0ZWmycVRZbG6+Bt3kMVLqiqZ7Xw3mHAcBGJIXgE02Y1O9NnEkbAiVTcv5Ct6v3Nj7E8+GiJgDcxpzYM7pcBYFZ8AqAI18nDRNi6/9ovnqDrg5DPUeJM6BL44IOY9N7bE5fqTBN0EXJ5hPUGcsYVUSzBPMhx5+M0H3MNKMuW4yDUA/Vxvm+v9cNprm/yeYT3Pvzt225QDmorqDwLy2DuCNE3mBqXMNRMLNHaBTtBqYi17bPElXLgsTGUhkWwG4JCbe4/++5FC3+ZTUxWZPDoGNpJFhSuRcJN0XyK5fypGmFlCDcv+XcUs0XsTf5n/fRdwjYj4IzENjTj8PzJ0JIWc5jbl2RsQcfLMT4AbmzlOwMkBfHukfXUMSRELD2QD3kYY2NeZzf94W8orMytLdugnmCeZDjaK5NM+zQbuIjHRfHiw2h3ooxAbSmEQ9JDwcLI+6xrJkexPSMBOuB7xX6AxtpKLZVD9RpEgrOFejh4XoeuOlFIW0j+7tXu1T/eZybGLzV51S0d/qFYmZNpOOYwPmXDZZyP8nmC+kdSe/7GkHc59PYE6WASgd/FYfMBQ9ZL4iS3ECMGkgiYfzD2I+k77WRkcvUXUbIgG5tIFkLFKoxhkDMrqstNJKBZhpu4Gxn52y6X0+c0Cfzlzk2vkRoF063PqlbzgBwF7UWhTf5lFzk3urq3J8b0tZao15DeYyqkTEHJjLyOKkaicWK1fE3EZWshebTqV/tMrAGWALQK6dIvAkP87o4Az0WV/O5hkxn/y5ajFqmGCeYD7SODNxeLXTEw4CRtcCbkutHhKWGuU7l1KLVtLmUZpBDwLgTqtoudXkLHLj+mFfJnOTtSVZ0ZsAe0u+Ng/5H02jB8swgD/sfeM69/dwswnJ5iT3EsnxqlcUZnJw1I9NPLQ9fNjFtWCfYyM7gQwEcaDGqPVrXz+s49H1PsO+P8F8WEtN53XTDObxWXMqMTAHsUcccUTJTFI7764LiQmNOeg1X8pYYk7g9DuZWBQ5TmmmRz/22GPLZkxlmjfMIZ/+9KdLZhefK3AvEi8qLaOKskG4+8lJ7n2i9ObJzTbbrIBu/VKGjaPuzUmw2dMcLohivpZlhRMRmz+1IbKyRFCBDCbA3MmfcqcDc5s/tZGUJSLm7i1DjIPRPBNAulUBtvM3bXQtaBfJd+CdstsZviZtjhvmk5tgPoyVpv+aBPME8zlHeURt48I6KlFHdOPvwDci4sBcpMhSqiVQkzGNo4eGh4r0Wr7A5+mnn14iSaInNjg53Cde4QgMyuCiDnF4hoeMjU+yC1gKlcXAQwX4eoBZFo6y1HHQZtV2e2e6dzuqZCMSIOcUeHhaiq7BvY7mR1Q8ouRSoXmPqJEHlQeQOntgyt+rLMu18dCcKad43Td1P9R51Wc75GjOwbBAFySYL5Bhe1LscgFz85PPODCNQ9bqLhIZfhcThAwAACAASURBVM1rXlOyXcmCIngBpoGwoINMKxx0cG3edMovfTWdt7lNucBfhNycAuDNfxx65X71q18t86povRVJYK4+wH6//fYr80zb+TeHi1bbiCl44D4i7iQz0jWCZnOKk4lFv8llYh6q0yWaf2V3sQk10iUCc+kOgbl6iLibtw499NDiPDhgzfODjEYA5+EPf3hpP6dFxJykhrY90jQuRNBlMT9CCeaLae3JvVeCeYL5nKMzQDWi5fXOd5N2TL4BuXF9/F10w+59DyKn1nl5SFx88cVlUrbhh4zFcfSiIB4Q8u/axORlso0oTDvfeYAtMKer3GWXXcpDww5+6bbAf6TzEs32UKmj/vWRzhHN9l3da5COZdKZpCTKFL1xL1pHDxKOQTgoymSriIqFrZTnbyL7oN7SrKVbS7MeynIE+x2oSyHGJvHeWJGIyJCyPBBrOI92aKfrY+KvZUJzDoBFuCDBfBGMPMG3mHYwZ3orh6eeemr5rEc2lpi/omuApmgxezg46IILLiinL/tM+8xyzG2w3GSTTUoAwkqj6DiIN8f6nJsfrLCBWKkWHRzkbyBcgAQMm2+9wK7c5bHp02rfoOCHOgiciGCDc5JA9xdBVwcOgrIc+ONQoHbaXY6C6Lq2H3DAAcXR4FAAdXO9jacA/6CDDipt2GOPPcr8ac7kdHBUzIU2x7INW3AuvPdJT3rSDQ5GmuBhPmfVEsznNNGyuCDBPMF8zoFucjQxi1CAa9kEAKK/0yd6IIBhMhHRYhEbm4REU0yeJlo/exiRd9jwYzkThMoaYFIWxTHp+ztAtTnIhG/XvQjJ/2fvPsCtK6rzgW9T/iYmiiWKig0VNVbsJfYQTVQURUQE7MYPJaixxoZiQQVR7A2xUkQUsaFiCUoM2JUoFqKiiAYrlhhjnvyf3+j6Mt9mn3vOufucc8++Zx2e77mXc/eePbNm9rveeWfNGkoOoI4T56LSgAwpVwfgjRBb9gXYNguJ2UT0I06Sw0Dg/RR/yXlFmkdlKs+SMaWd4uSjbQi9OtZZAWrDuU/OXcvGbGBFQLymDyfIHhyjGFC2Y0NOmCMUAx/5ejkn9qA+qbPv5eplWxMYDln8ug8FTTwq5Uq9qG3UNSsSPvqBXbSX7bTL72L4OVTOdVkUpiTmY1/DTX3BKhBz7x8chAGjVv6QW+IFnHM9UQMmwDF/k5YQFsZGR8QeRsJmeAVrYIrrYC2Mg9nwgY0RY9fJsuL/hQtayaS0w+dRH8+haCPJnofow1k4rW7q6BrP8137o15wSkgNXFRH2KQseOU+QoTMMmyjDDiqTN+bDFDJ/fQ8PkFcPWw2WVkWHOv7kiYx72vBzXF/EvMk5mNHMmBEVCnaAN6pc4575mDEJVpepbqIheRUkHjqNDJKuRbzKMyDsxAPSLVBwjkHJFHYifKoKnbgSwEGkIG5f4g9Ao2w+lkvtbpOGAzVSJ5cCgynph6yF3A41HnPspmIY4jNoJ5NmfZ8vwsdcT+VSkykcpWPuLvXcimCzoH5vh3SE8Sc0zFBQL7ZwuEd1DKZFDgQ93MqJg6UcPWhHplYmGQg2NR+zs/pdhwY52NzlyVfP5F8CpJ+UU+AzlFGPfWHnMPHH398aQ9iblmYU3bIiAmEMpdls1QQc3Gsxpl+M6Giyi1LHce+KHnBui0QsciwxvtiI6Ej3q2AeR98hjoOYkWr3muiPXUMdPzN9+2N3HCJCALX6lXJ+lr2cx37uU7sesR5150Sz4HJfq/TNU7SeeoR5DFW5+oVyLpOXc+N79qK+ihiXdvM7+qtDuodfmCIseSjbJ3EfJJRuPmvSWKexHzsKAeGiKBQCgqOOEJLjX4X64g8IqE2F4kNp4QLUfGxLIsMxpHKrrGUaunV9+5DoBHeT37ykyVNls09du1TTag6nk1ZsSwrxVZkDQgwt0HSxksnwTkow/0IrzRhyCpiTlGiNHtebKRST4qLvyOrFB31QmQ9Qxwk0I+8vRFDqYwI0wlH5Log5hQqijlCgWiaiCDflCLPo1pTrijmMiT4aZlXHKelWjGaVhJ8hPtoG1XJpMaSM4ekTEdYU/GR2Fi9YAuTDRMiHysQwoMobJR65Zj4iOWkSC0L2UliPvY13NQX1MTcJLsm5iaxsc9jUxthEzVuM5HlRXZLEHMrB2Ly+S0iF1+0bOGHa00uvK9OkrXaa/VaJh+TqWXc37TI/p30WUnMk5iPHSvAAmFEYMU9etGQdPHbNhYhmdRXpBvhQ7BtVBQuQZmlhNu5jxg70Y06LRbbxkbXy8ISx1RTvV1nAyiF2gt+3HHHlV33lmZtBIpsLbXqQglHYCnK7t9vv/1KZhfPVkdKuNhHxFZYiE1Q1HkAiAT4m8wxSCzw8B1y7BmIgo2Z6mhjpvoGIY8YcY7IqoB2IeYIMSDSXnZClk1WtCE2QCHdvtdWKwPsF/mJ2Zh6jrADaGTdSX/aHptkPcfGJ0RbPYCgCYH6mzhZXaA+qwvlWRuRe5MDfdClqI0dDHO6IENZ5mTYgRSbxLxfR9WK+yjVut8T8u5FWCCJ+SKsvPzPSGKexHziUYocI67CRJBERzlTuH3EM++9996FaCOcCDKS6rtTTjml7MS34UfKKyqvOHKEl7KLxCPWMrK4joJOiacE+wgDoZQjnMI9kNM2qbSES12IdIxSdyGsQj3URViHyYEsBZQH8ZJIK9KPrKunSQGFmzJuE1JsuKKO27Bkc+fd7373QraVUWehCcVcm228QqaRbKE+Ji3qg1wj0Jacqd3CXdjEPVR8P5F26cEQc21yeIdMDurtue5VNysD6oLURyymVQUqBbsKA2BXKwAmFZR5tom492WLyUxiPvFruCkv7CLmcAA+pGK+Kbs8G9VhgbVCWVIxX50hk8Q8ifnEo12IB3KOkFKkHbOMBFLGTzvttOJA73a3uxXlGoGXgcDfHBeNcNtkhGQKp0Ao3YssCo0RgoGYU3epwNRdyq5nuY5Cj5RStam/7Y8NQVTwLVu2bD1Ug+Id6RJNHBBUsdfKFEYjdIQibVMlIkxBF5ONJGtLhKsgsUg2VRsZRrbbqc4Qc8SdOi/G3DVCdkwGEGblCbERcqI8OYCFt5jksKWwF8Scgo+ACwkKYi4ri5hzkyD3+LvJinoi9hFrCdRtLmMLcfNUc+q6dlvtkDEhNoYuk1quL4OYU/2FJGWM+cSv5aa4sCbmJvwwIIn5pujabMQUFmgTc/7A/qMMZZnCiJvg0iTmScwnHsZirRFrmUBkB/ETKaSSU55lUbHJUAw1RdqBGmLFkcMg5kimUBMxZzZ5UcSCmCNkVGS5zhFL10UoCcUa4TQ5qPObRyxjnGCnPDv8Ke6hmAunQXKR/kjXaFOmOG11VH8Ha1CqlS/cRLhLbGqKpWFKuNRjFPaujCbCfJBrGQOo71YKTFCEwMhOE4cG1cvOFGybQBF99ZTlRj2CmLMrm9vUyXaIN1Xchlv19C+UFPVVtokBIm9SFJOdgw46qGzaFcKyjEvdbcU88hzr62VT9yd+YfLCiS0Q71ps/kTMvQMm2iatGZs6sSnzwgFboCbmVl1lohFjzo+mYj7gjp2y6knMl4iYI1EUWwSNMtuVl3rK/u19eb0rXpw5JRiZlamE6oxUip2mjgthkXGEc0WAKbsysfgbUkwxF8pC5aWYBzEXZiGURWgJYu6oacQ8SFko5og5xTxU32hcpNSymVMWB2QVMaeYy6+LLIvXrom59F7a4ZjpffbZp6hzFGnEXIYYhKAmhCYllG8bP3fZZZcLnGzn2shjbuMoYk7BNyGx6RL5p5pH2jKZVJTJjiYQbCvkRjgOYm7jqvZS9BFyh22wHaVdKIsVCpMJ9Q71PtKhmSAh/DbPmhhot9CjIObLuDFrVChLEvPer/AgCghi7j2FCzUx9z4nMR9EN2Yle1ogFfOeBtwktycxXwJibiwhXBRjYR/LSswROpsvLa2ZyZvBI70In9hs8cyUcmRcTLX0hlRixNymRIQcWUfQtdGSNcKKmMfmT9eJPxcjHco4wi+UBeFHzGvFnO3Ui0MXny00hiocJ+NFjLkwGCTZhAGJrom5sBn1YH/qPrWcwoyEK1tWGAQZ4TURUbdYeg8gVaasLOyhzVQO1yPTJh02jCLR4s2FowjZQECcuBcTE5MVz3rGM55RJibCXkIxt5ETQTfxUSZ7+87z5DVGXIQQOSUU6bepVE5zbRJOg8wPgZhHukSKuXSJkTt+k+BtNmOEBUIACGJu83WtmLttWTIIZSemBeZlgSTm87LssMpNYr7BxDyIJRJHMUfEkC0xz5GzdhkcUgCGjCuIOaIqBhxJlP0EKbT0Rt0WtiEWHQkW6kIJRw5dLwwDMfcTiUR+xT5TxWxoRMy1H4mtFXOhLIi5zZ8U81rN5tQRb2EeCLBYcLHuCDTCbxKA5Iq1lpaxHWOOsAqniewxJh02gEqhqGw5zYWOWE58xCMeUcJ4qNP6pybmFHOqd+Qxp4abDKizuHh1Ep4jL7kJmPAbEwIrDuostSQbyJwiJ7wJgjh131PFTTqo9ZR4Srj2OvXuJje5SUEd9zq8iVqunuzN7q5FzJUZoSyuX6YQEXZEyqwYmchpe+QxX7Z4+GFB/DBqWxNzE3HE3IqQcSydaBLzYfRj1rKfBcKfEGj4U6uq/JZ3oD6/o99T5nt3iFaZLnH9dk5ivgTEXPfZ/IiQILE2A8oS4kWMcJb1d/Fs7oyT+SjNJg/qikwfeOCBhYiL2abOOjgIIRcXLdYaIUa2KO1IKdKNpAoZMRGhsMs4Qol2kqXQEkQVORUCov0mA0JDEFkkM76PlnHq/rGhTY42pQonQYTFWtvUiaAL56Au+1CtqbPiwj0baaVG+391RXqlO/RB+oWhuEaIkSwo9cbQqIfnWhFw33Oe85wSSqLuJjFyvSOe4tTVBXlHqk0K2M+Jdgg8uyLp6rTXXnuVcBZKuTAddrNyYDJDnWcr2WYi04sJB6VZPbXdZM8KgAmQmH7pJ20YXTZSrj5BzLWf/U02rJyo7zJMTGfzFmUp4yzg3fAeWfFyFoEUoiZpSczHWS7/vhksEH5FCCYBjE/k84hRQxEokpj3H4lJzDeYmEe8rxdSajwkEmGTHjBOZVsGZTPqiVxSfKnL0hbaDImoIq++8zcgEgfk+F5GEzN/qi/CZeOk8A5KtJhqCrrTLDllu9CFdwh7cb0PcEJMlSX+G6n1CZXNT+TNT/dT78WDI7z+2aRqgkABV2fXiul2vLS62VyGRCuXKk8xr0/q9DftQYiFqfiEYl6/gk7WlLNciI/UiCYmPg5iorgDWwRc22zmFIqCbOtfbReCIrzFpAAZ8XdEnkLuXhM1Y0PGEvUUukNd1Ab10Vbx6urpPm2UY576oiztjGO3l2FM1ROryJVvBYbtxdgL7TFW8rM6FjAOrPqYSJpcm+DKpLQsAsXq9ES2dNEWMPb9Q8CFbFo95pMIXnBwKAJFEvP+IyeJ+QYT85pgOnCHOoqAUpOFHdS5svt3d/8SvHRILiIJQOI0rwgnUXffI4ZBnF3ve/8f16sJclmX47u4H4GsD+9xnWcHQCGitYoWRNP9Jg+uRZD98/8+7WOcXatcz4qwoagDdV694z731rnLuzZQqpPy4p44rVA50dYALeXFsdlxnb+5Tr2Q8LBBHLXtOpMV33u+Z6mnv/ub79lHPcN2/uafv8UKTP9RMLsStCM2/pnUCVkyQbFqIsZ4Ges8u9ZnSbUF4p2S1UkonNAsG8Gt/kRGo6GohtmzaYFpLRA+DV4TKKwqE2LsOVomIWVcu5KYj7PQ+L8nMV8iYi7LSWQKsflP/HHk8t7IF7NWpoPwxcw+SKWhBliCZCFU4Wj9bBNpDja+q8uMe+osDKEk+C6+j/CV2i7xu3JDRVevqFPcH5Mh39fXheoe18d18X20ta1chH3CBnFdtKuefGk34PUJFbBuQ9S9VgijPu1yo/7Kase7R53qNnbZajxEzPeKIObUfTGVlCJhTIi5sb+R436+Lc/SR1lASJqVJ6FMQsjEmVvxMcbrdzEtmBbYDBYIDIR1cNCKIbWcyGLlyCpokN0h4GES8/6jMon5EhDzII8UUGEX0ttZzrUBEkGP0IT+3T15CTUA1MQzvq9Jd02s4wk1efX3LrIb5LQmykEyI6Y9njcJMNUKe03wg5zWalvUJ9rWBrwgwVFO+/nt+2KiUCvp9aSltnzdtrY9a2Le/lukWqxt2+6HejIQdq0nH5OPgPlfqa5WCOwzOOGEE8o/MfJOLBVfHHl7h+CM5m+t1XmCd82qCRw0UbPp2l4M+0W22267nKytzlBYmZbCfZnZ7B0izhFvJC+wz0hI5FDCWILLwOzc/Ln+4ZvEfEmIeRC9888/v2wYlM9bzDKiYjOljZNiLoNczpus1GS8i2zXKnAQ767wjiDfXaTZ3wJwalU4CGhN3CcZ4m1S2ib+bUIbZdaThpqQuz4Iefv5bWJeq9dRjy5i3lb6uyY6o+wYdqnLbRPzSey0UdfUY4q9KKM2DdtnIIYeAZNi02ZgGW2m7f+Nalc+d3YWqFd67EuxeVmIn/Ego5J9EvaJDOWwldlZZj4ldeF8vZJX49p8arD5S+2ycd1q4oS9R8a7/VGul2TAP+O9Xj0dgrVSMe/fS0nMl4SYR1d6KS1neUFlDbHpUYw0Uu5fkMt5zqDHAUn/YTe+hHlNPLqIcNSGahFqdoS9BPFth4HUNgqyPb5V87+iXc/5P3HyJ9QTIL8b55RRk02rQhQim2IpRKNWGyZ/Wl45RAvUk1J7M2xeFmvrFN0f/OAHZTOc8RH7KIbYxmWpcxdu1SuU3tE6fFC9R60wLkublq0e43wpG8fGfwRdYgChfGLLnWAd4sS8/OE87JXEvL9Vk5gvITGPmGqKuTzWsp1Iiyd1Xk1u+nf/2iVsJBh0PTtAbhzYrdWqiFGtJ0LxuzSFMpyYCEmraMPZJES3T33qus6qnI3st0nGpHbGBmEbnGWTue1tb1uU0GXKRDRJW/Ka+VkA1pkoW1mRmchpt2effXZjVTH2p8zv6atRchtzYAeiaL+TfxRbZLHOoT0rnFoNC3e3sl5VNckUoiVXuXAtq+QmoO2NzsuO69HSJOb9R3YS8yUj5nWXGuCR0QRZjOwi/bt9+Qn5PMG/q2y2ln5QairKnPzsgDLSC9Zq0bzsP8s2LzuIqx/byt7DAUUGmvZEZdnbMa+xkOX+nwW8F4GDflppqT/tMTLL92gV+0Gss5OJrdjus88+JXVppK4NBXcV7TLLNtdhlyY9cNBPJD0IeT2Oh4SDScz7j5Qk5htMzLviieu44Tq0oq3yzutl3WjHNq92jXtdbLyVGUTe9MMOO2zraWt1fYYKluPavqi/d433emPtRvX9otqfz5neAhFyUeNihjpNb8dJ7mBjxNyhaG9961vLYXeSENTEfJJy8prpLRA4uNbm/ulLXfwdScz72zyJ+QYT87W6cCNJ4EaR840gZuHwpWhz2poQIvnkHSwUsaxtcr4R9ez/ui9nCRm3upz9sgy1au/lmCS0bBnqPcQ6hK1tRHT6LmK+ZcuWcpJwEPPEvfn17GbBwSTm/cdIEvMlJub9uzdLGGeBUOOoFIg5xfzcc89tDj300JIlxPJinVN9XHn597RAWiAtMEQLBKE677zztiHmUlXKqZ2rFEPs1cXXOYl5f5snMU9i3n8UDbiELmIeinkS8wF3bFY9LZAWmMoCQago5kcfffRWxTyJ+VRmXPmLk5j3HwJJzJOY9x9FAy4hifmAOy+rnhZIC8zMAknMZ2bKlS4oiXn/7k9insS8/ygacAlJzAfceVn1tEBaYGYWSGI+M1OudEFJzPt3fxLzJOb9R9GAS0hiPuDOy6qnBdICM7NAEvOZmXKlC0pi3r/7k5gnMe8/igZcQhLzAXdeVj0tkBaYmQWSmM/MlCtdUBLz/t2fxDyJef9RNOASkpgPuPOy6mmBtMDMLJDEfGamXOmCkpj37/4k5knM+4+iAZeQxHzAnZdVTwukBWZmgSTmMzPlSheUxLx/9ycxT2LefxQNuIQk5gPuvKx6WiAtMDMLJDGfmSlXuqAk5v27P4l5EvP+o2jAJSQxH3DnZdXTAmmBmVkgifnMTLnSBSUx79/9ScyTmPcfRQMuIYn5gDsvq54WSAvMzAJJzGdmypUuKIl5/+5PYp7EvP8oGnAJScwH3HlZ9bRAWmBmFkhiPjNTrnRBScz7d38S8yTm/UfRgEtIYj7gzsuqpwXSAjOzQBLzmZlypQtKYt6/+5OYJzHvP4oGXEIS8wF3XlY9LZAWmJkFkpjPzJQrXVAS8/7dn8Q8iXn/UTTgEpKYD7jzsuppgbTAzCyQxHxmplzpgpKY9+/+JOZJzPuPogGXkMR8wJ2XVU8LpAVmZoEk5jMz5UoXlMS8f/cnMU9i3n8UDbiEJOYD7ryselogLTAzCyQxn5kpV7qgJOb9uz+JeRLz/qNowCUkMR9w52XV0wJpgZlZIIn5zEy50gUlMe/f/UnMk5j3H0UDLqEm5p/73Oeal770pc0555zTvPCFL2yucY1rNH/4h3/Y/MEf/EFzoQtdaMCtzKqnBdICaYHRFggchHM//OEPm2OOOaZ561vf2mzZsqXZY489mj/90z8tGJg4mKNonAWSmI+z0Pi/JzFPYj5+lGziK9rE/CUveUnzve99rznssMOanXbaKYn5Ju77bFpaIC3wOwuMIuYPf/jDm/vc5z5JzHOgTGyBJOYTm2rkhUnMk5j3H0UDLmEUMU/FfMCdmlVPC6QFprJATcx/9KMfNUcffXQq5lNZMC8OCyQx7z8WkpgnMe8/igZcQoayDLjzsuppgbTATCyQivlMzJiFNE2TxLz/MEhinsS8/ygacAldmz/PPffc5tBDD80Y8wH3a1Y9LZAWmNwCGWM+ua3yyrUtkMS8/whJYp7EvP8oGnAJScwH3HlZ9bRAWmAmFmgT82OPPbaEsogxz82fMzHxyhSSxLx/VycxT2LefxQNuIQk5gPuvKx6WiAtMBMLJDGfiRmzkAxlmckYSGKexHwmA2mohSQxH2rPZb3TAmmBWVlgWmLu+kydOCvrb65yUjHv359JzJOY9x9FAy8BkMhV/tnPfrbkMZcuMbOyDLxTs/ppgbTAxBaYJsa8vrZ+QBL1ic29qS9MYt6/e5OYJzHvP4oGWkIQ8lB/PvOZz2wl5vKYO2Doj/7oj4oy5BofBD4+qRoNtOOz2mmBFbZAYFn8DFwLPDzvvPO2SZcYecxr3IODgX9JyFd4MHU0PYl5//GQxDyJef9RNKASgEZ8wqH8z//8TzlIiGLugCFZWeoDhvzNx72cEbLuk8R8QB2fVU0LpAW24lao3n7CN1gIB7tO/txzzz2b//f//t/WE5C77k3TpgXCAknM+4+FJOZJzPuPooGUEA7l29/+duPfxS9+8eZqV7taOdUO2Q7FHDE/5JBDmmte85rFaf32t79tvva1rzU/+clPmste9rLlRNAg9akWDaTzs5ppgbTANsQcnn39619v/vu//7u5znWu01zsYhcreEcxP+aYY5qjjjqqZGWhmP/Jn/xJIe4/+MEPmrPPPrvg3/Wvf/3mIhe5yDariGnitEAS8/5jIIl5EvP+o2ggJQRgfO5zn2ve+973FmX8dre7XXFKV73qVZuvfvWrzcte9rISYy6P+RWveMXmnHPOKd//8z//cyHwu+66a3Pzm9+8tJhzSmI+kM7PaqYF0gLbEHP498EPfrA59dRTmxvf+MbNDW5wgxK+ByePO+645i1veUuz3377Nbvvvnvz4x//uPnGN77RnH766QUTb3azmxUsROYTA3Ng1RZIYt5/PCQxT2LefxQNpIQ6hpIidNBBBzWXu9zlmtvc5jbNve51r6IcUYm+//3vN0996lOb3/zmN81JJ53UfOhDH2p++tOfNve73/2axzzmMc2lL33p4rzEWaZTGkjnZzXTAmmBrcTcL//5n//ZfOITn2ie/vSnFxWc4LDbbrsVcv7xj3+8efvb397c//73b251q1s1H/3oRwsWfuUrX2l23nnn5rnPfW5zrWtdq4S45CctkMR8tmMgiXkS89mOqCUuLUJZkOpPf/rTzcEHH1wckyXaHXfcsdlhhx2a//iP/2jOP//85nrXu15z1llnNd/5zneaX/ziF80uu+xS1KM73elOW2PMl7ipWbW0QFogLbCmBeDht771reaNb3xj8/KXv7wQ9ctc5jIlvM8H/gnn++Uvf1lCXuCilcUHPOABzf77799c+MIXTmEix9gFLJCKef9BkcQ8iXn/UTSgEmLzpzjKE088sXn+859fyDflm6NB0v0TU8lRcV5i0R//+Mc3++67b7P99tsPqLVZ1bRAWiAtMNoCv/rVrxqhfY961KOaM888s6wSxkZPv8NEe2ysJsLEe9zjHuXaG93oRqXQDOfL0dW2QBLz/mMiiXkS8/6jaEAlhGrO2Ygdf9KTntSccsopRRWqPxGmYlOoUJcnPOEJze1vf/utGQwG1OSsalogLZAWuIAFYCERwirhi170oq1hfC6sD16DhcgWJf0Rj3hE2RBqv02kW8xwvhxctQWSmPcfD0nMk5j3H0UDKyFUcxuabHA6/PDDi2oezkhzOCP/LnWpSzWPfexjGynDhLqkQjSwzs7qpgXSAp0WCLz79a9/3Xz+858vIsWnPvWpopoHRoZA4ScMRMxvectbpkXTAiMtkMS8/+BIYp7EvP8oGlgJkY+cAzrjjDOaZz7zmSXrSoSuRH5yqhAndOCBBzY3velNt250SoVoYB2e1U0LpAU6FXNYBw+Rc5vhjz322CJSxAfW+ftVrnKV5olPfGJJnXiJS1wiY8tzPCUxn+MYSGKexHyOw2v5iq43gHI4P/vZz5o3vOENzStf+crikHznn3y+MrbY8GmzE7XcJ9SAJOfL17dZo7RAWmByC0QoShyw9oEPITp0dwAAIABJREFUfKAcrEakEFNen9WAkB9wwAFFoPCJQ9cmf1peuSoWSMW8f08nMU9i3n8UDayEiK30U6y5FGBPfvKTS4aWiDWnlt/iFrcoKpIcvzY+cVR52ufAOjurmxZIC6ypbvojbBPa5/wGWVqkjI0TQbfbbrvmBS94QXPXu961hPZlmtgcUGtZIIl5//GRxDyJef9RNLAS6k1L1CIhLOLMOaR///d/L05KrvItW7Y0D3nIQ4pynrHlA+vkrG5aIC0wsQXgoM/73ve+csjahz/84ZIWliBx29vetnn2s59dDmJLUj6xSVf2wiTm/bs+iXkS8/6jaMAlABGquZRhUidazvWRDux5z3te+Uk998ksBAPu6Kx6WiAtsKYFYCGl/Igjjmhe+tKXlrzlTj9+ylOe0tztbncranmo62nKtMAoCyQx7z82kpgnMe8/igZcQmx+opo7ZINTEl/plE/5enPpdsCdm1VPC6QFJrZAiBROOn7xi1/cfOYznylq+SGHHFI2f1LQI+68DunL8L6JTbwSFyYx79/NScyTmPcfRQMuIYi5JjgN9LWvfW3J6/u0pz2tuf71r1/iLCPWcsDNzKqnBdICaYGRFoh9N0JVqOZve9vbmuOPP765//3v3+y1115l1TDC+XLjew6ktSyQxLz/+EhinsS8/ygacAkRWwlMTjvttObII48sxNxJnze72c22SZGYDmnAHZ1VTwukBTotEDnLg5x/85vfLMT8pJNOavbYY4/m3ve+d9lz40RQn1ohT0zMQdW2QBLz/mMiiXkS8/6jaIAlRLy4sJUf/vCHzZe+9KXm/e9/f3P66aeXUJadd965HD8txlw4i2VcapJPZmcZYIdnldMCaYELEOsg5f5wzjnnNF/+8pebj3/8482//Mu/lCwtNr7f+ta3bm51q1uVzZ+XvOQlt+JgYGGS8xxYtQWSmPcfD0nMk5j3H0UDKyFymf/Xf/1X8+1vf7ukSTzmmGOKUr7jjjs2f/Znf1ZOwuOUqEXiLMVY+j4Uo2hyOqWBdX5WNy2w4hYI/INdRAgpYn/wgx8UhZw48d3vfre50pWu1Fz1qldtzjzzzObrX/96c8Mb3rC5+93vXgj6Fa5whYKFysksLSs+mDqan8S8/5hIYp7EvP8oGkAJoZDXmz2/9rWvlZjyj3zkI81f/MVflHjKu9zlLkUd/+hHP9q8/vWvL4cOyWf+oAc9qLn5zW/eXPjCF966lJtOaQAdn1VMC6ygBbo2ZMZ3gYFIOUJ+yimnlEPW4OHVrna1Zvfdd2923XXXgomEC2Et73znO0uWFlgo5vw2t7lNIeexIbQWKFKsWMEBVzU5iXn//k9insS8/yha8hJqhcjR05yNPL0nnHBC86tf/aq5yU1u0tzrXvcqS7UXu9jFSqjKL37xi3LwEIdkaffP//zPm7/5m78pxJ3zEm8Zm6EixGXJzZDVSwukBVbMAiFIaHaErSDkNnh+6lOfat773veW8JWLXOQizV//9V83d7zjHZtrXvOazUUvetGihtuD85Of/KQ544wzSipZ90So39/93d8V7BTeYoN8CBVJzFdskLWam8S8f/8nMU9i3n8ULXkJgMI/KREdN/2ud72r+cIXvlBix6lDlmct2zpMo85V7vqzzz67OfXUU5v3vOc95XdO6573vGezyy67FLLOGSUxX/IBkNVLC6yoBeoYcr9Tvf/1X/+14JksVH/8x3/c3PKWtyyCw0477VRU8ji3wfWBbQSMc889t4T4ETU++clPFhHDvbvttlvzl3/5l1vxkKmTnK/ogPv9BFD/H3zwwcXX2qv16Ec/uqw25yrzZOMiiXkS88lGyoCvEkvuRE/O6OSTTy4xlTe+8Y3Lcu31rne9bRSfupkcU60YffCDHyybooAO9dwR1RwSwIlPOqQBD5Sselpgk1kghAYYKC95YJgVQdhFYLDR/epXv/o2G9zbZgiC775vfetbRTkXAij8ZYcddiihLcqy6ii8JT+ra4FUzPv3fRLzJOb9R9GSlVDHk8ssQPHmkJzueZnLXKZs5rRsi5SbwQeQtJUe30dcJoJ+1llnFWck/twGKfcj6H/1V3/VXPayl70AOU+SvmQDI6uTFlgBC9SrfkQImzep5LDre9/7XnP5y1++xIrDLURarPi4TFNBzENB//nPf16Ivo3zyvb/FHfYKs2sFUjhfhFGmKuKKzDwft/EJOb9+zqJeRLz/qNoSUqoCTmHJB+v+HCkXEwlldzR0uIihbGIi2x/2ifa1WQd4Pz0pz9tvvjFL5bYc45JLCZyfvvb377Enkd4S5ST5HxJBkdWIy2wSS1Qb+rURDhFIUfCP/vZz5bNnUJQhOrZwH6nO92pHJ4W+2naGNWFWTXZ9wz/L9ZcaIxVRKeFSjnrXjgLDwkX22+//db850nON+kAbDUriXn/fk5insS8/yhaghJCmfFTXnKO6H3ve19Rt5FwYSviyS27huPxcxpnEQq6n1Ir2jzqn+ch+2Lp/KTKB6FPYr4EgyOrkBbYpBaoCXOE3sEmISYUcntq7JURruKwIKT54he/+FbcW6+AEFgYG0QJHyYAwgURdBhoAhCChUlAfRbEJu2ObFbGmM9kDCQxT2I+k4G0kYXE5k5O5mc/+1lz3HHHNW9605tKLCTHsP/++xfCHKkO62XZSYhzraLHvZEDmBN61ateVSYBJgAPfOADyz9KOkW+ngRspI3y2WmBtMDmsMBaeCT94dFHH90cddRRW1cJpYElGgT+zUI0aNchMlQh6DK9SDUrhOba1752s++++5ZVRSE0yLmwwK7Vys3RO9mKVMz7j4Ek5knM+4+iDSoh1CJAIKWXTCtvfvObi1puCdWBGFJ6+V2mgXAedfrEcFLTNiEmA5aMKVQf+9jHyg70b3zjG80NbnCD5r73vW+JtZRKLHL9TvuMvD4tkBZIC3RZIDAMDv3mN78pYSuypZx44onl7IUrX/nKBfsIEwgxxToOBKoxr06nuB4srO/3O9Jtg6gwQuEtwghh87Wuda2S+YWKri7iz2cxQcjRsXwWSGLev0+SmCcx7z+KFlxCHbYizlFe8ne/+91lGVVaLym87nznO5fT6iypRrhKqNfteMn1VD/AJw7r4HzEnnOOlpAp5nICC6GRYjEUopgcrOeZeU9aIC2w+S1Qq9HR2q585EiwFIZSFyLA8Ge77bYruHPrW9+64E7spVnEyl1db5MF6jnVHEE//fTTywSCaGHCINZdSE29qhhEvav9m7/XN08Lk5j378sk5knM+4+iBZZQ5+UV2w3wKdWc0qUvfemyuVO2gatc5Sol20CtysyCkK+lXonlPOecc4qjdLS1CYOUZNIqqpNJAgcZ+YEnCaNZoGnzUWmBtMCSWiBiuhFZhFy2qdNOO62QXiuFvheuJ22hTZewRujKIgj5WpgYwomMWLJjyZ0Ol2MTqroi6HX2lsTFJR2EE1YrifmEhlrjsiTmScz7j6IFlBDKtEf99re/bc4888yiTtvc9KMf/agoMX/7t39bCDCgj8+iHFOt4lPtpRA76aSTSlYEp+pFnt8b3ehG29QtndACBk8+Ii0wUAu0lXKhc8QIk3//ZImSDUrICuwTwlLHby8K/0aRc99rA0yUblZ6RZmypJu1EV/aRge8xQFFNR4mNg5z0CYx799vScyTmPcfRXMsob3ZMmLJbTCSrpD6Im7R8qhDMpxk15WTt14enddSaa3Ih1IUcZbi0KUoc2oolcgJexneMseBk0WnBQZmgfaKXr0XRty2Q9Ko47EaRxVHxp3JcN3rXvcCe1lmGbq3XlNGG+J+q4rECrhIQUfY5VK/wx3u0BAtdtxxx4LheULkei2+8fclMe/fB0nMk5j3H0VzKCGcVAD7r3/965JlhdoinlwYC5Uc0RVPaXNngPmoPLy1o5qnGlPXXb0t377jHe8oKrpcwve+972Lgu4QDnnP64nCPOs1h27KItMCaYEZWaC9KT2U5vPOO68QcmSW4nyJS1yiqMzC9uKAIJP8wJFF4dwkzW5vLo0NovKfC8WRzYrA4iO8Rdif2HgHtsUBRfVzEh8nsfrGXpPEvL/9k5gnMe8/imZcQh0WomjkVlrCI444ouQNt3QrJSHHZDnUJ+K2oyobDeC1+uV3acyE3hx++OENR3u7292uefCDH9zc9KY3vcABHBtd9xl3ZxaXFkgLjLBAPSmPOPJaXT7jjDOat73tbYXACmMxoX/Ywx5WRAkbzOvYbPcNCTvUXSiOjFayafkJz2W0knP9Sle60tYV0Pam+XmteuZA7W+BJOb9bZjEPIl5/1E0wxIiljw2SVLJP/CBDzTHH398IbSOfN577723UYqWhYzXZgjHEY7Thi2nkdoceuSRR5bMLWLPpXTcbbfdSmyozVoBakNysDPs/iwqLbBSFqhX16Lhspc4IIgIAfuQV0QcTiDm9tBQk+vD0YaKF/BOOIt0j1YUTUJg/uUud7mCjcIUbeQX3tK1sjjUdm/mQZ7EvH/vJjFPYt5/FPUsIQA3FCP/L6bSUc/CVqjlcpHb3GkJF1Ajte2YzGVRjOrl23Ac9SFINkFpmxRniPo1rnGNsoTLCQl18aljLNP59BxgeXtaYMksUBPyECEo4vDApnEhe/KRU42lP7RJ8gpXuEIh5YEH05xavGTN31qdEC5s6BfeIr2icB3quf1EYs4dTsQGwlucCVGH7CQ2Ll/PJjHv3ydJzJOY9x9FPUqoNwcBWQDtcAo5ycVUIujSgCGuNk86sKcr60CPKizk1lgJiCOspTv78pe/XNqIpGuT8BYqkU2sJh4+7tsMDnghRs6HpAUGYoF2PPnZZ59dyPjJJ59cUr86FIg6jpDLWCIVbP2JDe7x3VAJajsGHf7LzW7FwKqiOHQb6W1u3WWXXYpN+IDNsFowkKE6dTWTmE9tsgvckMQ8iXn/UbTOEmpS7ncKSaQZpJLb5CR0BSBzTkHIh0pU28vWwluo52LPP/rRjxa1yGmhlHPZFiznxj1DbfM6h0belhbYlBaoCbn3X7YmOb5POeWU8lPWkp133rmkP3RQGkJeH8LTJuBdq4ZDNVztD7TBKcpSQhIu/u3f/q2sJvIHyHmINCFetGPQh2qDzVDvJOb9ezGJeRLz/qNoHSXUJFWMIcXIEqbQFcu5COo97nGPrcfad6nHQ3ZK9UFJYkg55eOOO66kEpMGzWRECjFLudTzrqwL6zB73pIWSAsswALtzYk13lGF7Tf5yle+UoinsA2bw2VpkvpQ6lcYEHHVqrsqxLNNzoX3EC+sJAjxkY1L6J+JCx8h1Mdpp+3850NdQVjA0Jz7I5KY9zdxEvMk5v1H0ZQlBPh6gQHt5z//+RJv7eAMJFS2Fc4pDssAsm3FuCuOe8pqLMXlEVfPWVsxeOc731kcEEdNFRLCc8Mb3rDEl+bhG0vRZVmJtMDEFqgJud9//vOflxOBpQiEeXKTWxlDNMVRSxWIkPusei7vCP/z00RGeIvzK6yqsiNbmcjIbIWgiz/PvTkTD825XZjEvL9pk5gnMe8/itYooU2gA2zFDX7/+98vQCvjCpVcPvIHPehBJQOBg4NWJXyjVtc4IOr50UcfXcJb5Dm/z33uU1KIOZRonPNpK3Vz7dwsPC2QFhhpgTpsRaYVJxQj5FbGnFh8qUtdqmxod66BUD2ZVuqVsVU3bXtFFOGDj2woewsbspdJzb777luSAlDPYeQqrTIs2zhJYt6/R5KYJzHvP4rGlBBk3GWAFCm3qefVr3512fBEGd9nn32KOox8UoaB66osRwaZDvWcfajnYs/l96UUUc8POOCAshH2Yhe7WGdGmnBGc+/QfEBaIC2wpgXaIRnipI855piy2Vt4hlXBPffcs7nWta5VMq1EtpEQI1Z9gt0Vphj4GKln+ZBjjz22+BB+hYDhHyXdJCc/G2OBJOb97Z7EPIl5/1HUKqF2KvVypHANOWpPPPHEsowrttxpbzY7Ctew0WmVd9vXcefsJnOLTbBsxaE73ZTCtuuuuxaHHspQ2GxVJjIzH7BZYFpgBhYIMh6kkrpr06Jc5GLJZZjy3kr/F+FpNjRG+MWqk/FxXdA+4+FnP/tZCQuyL8fKK98im43sVvboIOgh8KxKjP44Gy7i70nM+1s5iXkS8/6jaEQJdRiLWHIKx7ve9a4SI2jZ8S53uUvZYU8xF1vOQblnVUJYusxW28zvsjTYGMtmDhwRe87hWF2whGs5PIn53IZwFpwWGKuMu6BWeCniSKK9IrKtfPe732122mmncgYDIcLmxdjQnatc6xtgoZ77Kd78zDPPLMr5qaeeWvYt8S9i9mGkDfTpW9Zn5/XclcR8PVbb9p4k5knM+4+ijhLCUXFSQFO8tJjA2NSIlEsHJnQlPqlq/M4S9YaxsA31zXI4Zy/GUgy+SQ1lSEy+pdu4b5UnNnMZzFloWmCEBWKVC3YJQaPg2sSOJDqnwB4Rucil+bvOda5TJtKuFY5Rp0FMA09ngXZ4pH7gWz71qU+VLDdf+MIXio1vdKMblb1LMrjIdBMhLrk6MZ29p7k6ifk01uq+Nol5EvP+o6gqoSaV5513Xsm4IgVikEnLuDY77bDDDgUk2+EXGY7xO2Je26GOQZfb19J4ZG4Rc+5Qohvf+MYlVlVGhyTmMx3SWVhaoNMCEboS+cgRcaSQakvF9U7e+c53Lsqtd7P9Sayb3cAKMqhPrDDqByGA8NLkSAggIcgmW+djdGX6ml1tVrukJOb9+z+JeRLz/qPo9ypvkPJf//rXRTmikIv9c4iGzYvyklvOtXkxgDGd02TmDxJQZyYQFiS+0rK4uHOHEl3talcr9g3lPe07mX3zqrTAWhaIyXEtPCDkNmnDOkRQ2ArVVhgFAUIqP8fIiyP3GbUi2LXRMXtjegvE6gV7Wql1grS9Of7pFycqW2EUTiT9bFf+8+mfmne0LZDEvP+YSGKexLz3KIplRZs7KUU2PL3lLW9pPv3pT5cNnbvttlsBRLlmL3zhC29VhJM0jjd9l3ruLunXvve975UQobe//e3FCSHme+yxR8nre9GLXrQQgTgtNW093tZ5RVpg1IQW2bAShYz7h/h5/4SsvO997yun9iJ7zl+AdfbNIOQ1Gc93cLHjKw5ykopXekVYef7555fQP1lxhBgJLYqV2wylnE3/JDHvb8ck5knMpx5F9QbFeqe8JUQH5LzxjW8sm5/22muv5gEPeEBz7Wtfu2QUyZjKqU098oaYDFmdYPfXvOY1hSCws5Rhe++9dyEKbI5IrPphJbOzfJa0ahbwrnmHIguSk3oR8iOOOKKsWCF3Uh/akO30ToQ8JsSrZqtlbC8fJSOOk1YR9Pe///0lI5iTlZ2bIf5cn9V+LSdR6+/JJObrt13cmcQ8ifnUo6jeeONm5NBS7jve8Y7mi1/8Ytlkc8973rPE9FnWRRbXWsqdugJ5Q7FA9APSIPPDJz7xieY973lPOU1Q5pbdd9+9qHdiLMP+9c80Y1ogLTDaAm0BwiqVcBXhefbOUGRtLBRHLg3iJS95ybIiGKQuyd1yjK7I4GKVw6F2DnD7yEc+UvY9mWzxU/zVda973a1Yqea5V2d9/ZfEfH12q+9KYp7EfKpRFLHObuKYHH5jk83JJ59cVAkbnmRcsRs+TmGLe3KpcCpTj724rfBIEybvuZhKG9CoQNKFiT8Xe16rQtkXY82bF6ygBerQscAt6ioiLhSizkcuhvx617teiV2OrEhxf5Ly5Rk87Rh+4SzECxlcEPQIQxIKCC8RdP05apUxM7qs3bdJzPuP/STmScw7R9Go2OYAOYc7SN8nQwinZad7HOwgLViGTvR/OScpoSbnrqeen3XWWWWiZBWDQsTROMRJTKXNaPFJ8jCJhfOaVbFAe6JLaJDVwxkClHL7OGSTorBKfyhWWchKfUBQrkgNY7Qgjwg63yVJgQmX/VFWGvWtDaLEDFmu2niZm3WTmM97lCcxT2I+kpiHk6lVcurRd77znQJkxx9/fPOjH/2oOCgbPMXqIegcVWyWmvcAXvXy29kiwh4mTuJfZW4R4nK5y12uLLnHgRvyoCPm6WRWfQStbvvrsV+Tcod62dgZKrn3SIiKTdXiyJ3aaTUwYs/hXRxgk8R8GOOpzq6DkFsNITIJxTTZop6LQScyOWsjNohmHPr4/k3FfLyNxl2RxDyJ+cgxUoOQ34VKcFZCVyhIyJ0c2v7JuBLHH48bdPn3+VkgJlF+OvBELvkTTzyxxMVK7WYSJbRl5513LhlzYkNbhLbkMu38+iZLXi4L1O+KmiEU3hf5yIU4WBGM8DxZPAgP4si7NrHn6tNy9e0ktalDLO0fsLqoz20OFd4i7axwJfsIhCvJRR8rJBmyNNrCScwnGX1rX5PEPIn5SMU8Ns3Y3MlhASyZPxB0xE7WFQc2cFaxUSY3zPR/KfuWEBMqYS0+ESNLPbcsbzOutG7+RQrLIBvuzT7s2wN5/zJbIEhVfay7sAYquQms0AYYh4zZLyO0gWpapz9MIr7MPTy6bqNWSYKk83U20oeCLpTJOHBAEYIu01Vsps9wzW47JzHv/24kMU9ifoFRFCAFeCzr2iTz6le/uoREyLKyzz77lF3sFIV2jGU6rP4v5axKCCcEKP378Y9/XJRA6SylDqMAbtmyZWve87g+ifmseiDLWUYL1KF5xroD0Exa3/zmN5fN7DZ0SjlqX8b222+/TZ7raE8cZuP/831Zxl7urtNaoSi1oIGgO5RIuKZsY353SN797ne/ImhkpqtUzOc56pOYJzHfOr5CQYrY43PPPbc55phjtoZBWNYDSgCKghTqapLxeb6i/cuuCboczJbqTzrppBJTqc+FIt373vcu+eb1Zb0/IPu2v/2zhMVaoCscqw5bCSIN36jjJ5xwQvPVr361hCoIWXE68U477bTNSqAW1HsyokX5fiy2b+f5tPZ+G1nHrBRTzWFlHFB0k5vcpJxibeLm1OXab+Yk7XchYd6Lgw8+uEx42erRj3502aeRqwyTjeAk5knMy0ipyZsNnU7tlBPbxqfLX/7y5Yjp29zmNkUxB0ZxCl4cpJGxyZO9cBt5VZATqyAOJbICYumeGiQPs+VafSwPfZ4YupE9lc+epQXagoMwldNOO60QLZv9hHwhW0JWbOy09wKJqD9JwGfZI8Mpy9gRf/7tb3+7rBw7WMrJ1vZX2QzML9ogKulBnvL6u35NYt5/fCcxXzFi3ibQ9bIuBwV0pNmjJIm5lI8cYeO0KEq1UpRkvP8LuOgS6qVcmVs4G+TcBEzsuX6mBEmxKKY2lcFF91A+b1YWiLHuJ7Ig+wYiDtsQc+NfSjxpXqnkYolthm4rp7OqT5YzLAvUWKnmNgLbFErQsEnU78aPsSOLi/1WRKtVP2AqiXn/cZ7EfEWJee20ZO8Qf4yUW3pC1igC1IB73eteWzcIJkmb/oVbdicPRB22YVOvzb3ibR0SZfmReui48UgVNn3r8460wMZYoBYcfvnLX5YxbvJpEiqOXPpQqUOlEBVTHhmlRokNm1WE2KztmvWoq3HceIqxZDO9E0WFdzplWVKEK17xiiX/eSjoq7baksS8/+hLYr5ixDyGTH1MsWU6KtJxxx23lZjtueeezR3veMcLHLCwKiAzK4cVm8Q2+qTNUXG3UT+bnYQvve1tbyvLtfYQIOdy+e64445louajnAhz6Q8/WUJaYHYWqMmTcW1MC8v7whe+UMLyTj/99BK2QnCweR2ZqvP5d72j8d5s1nMZYgKz0fg0u1Ewm5JG4WWUbhwJcYGVxCzYCRetONqHdY1rXKPsUYgTRGflT2bTuvmWksS8v32TmK8QMW+r5DYCUsnf/va3N5/73Oeai170omXzk02eYsk5rQCUWQBLvTQYBH8ZFeW2s+qqY1dbgrjWKwuTtm/S6/q/8v9XQnupFpFxeJQc9ZzNOeecU1TzODxKKBNlMTY4rcokbZY2z7LmY4F4ZyNsBSE/44wzmg9/+MMlRahVQcq4sVwfGqM24zbsTfJuTnLNfFo+XalDqed0rdq4q6WitcooNMqKo431CDmCTkG/6lWvWvxqraBvXG0X8+Qk5v3tnMR8RYh5TTbtNqeSW9aVdcXBM8j43nvvXeLkpIKKvNazIl+eT2XwjyOsDyOaBenv/yr8roRw7KGQxSmm6s0W7Xq3n1vbOTbIBlB1HUwyq3qvt5x64qWexgaCfuaZZ5ax8aEPfag4Fplbdt9996Ke1znrl3mCtV6b5H3DskC8c2otrMCE8qijjiqZh8SRm1xSyG3Ws7E5JpeTqMTK9k74WU9Kw0Lx7DgzINLHLqMF1THe93iHvfNd2FbXf5nwednsGivPcVqsSaD0igSvK1/5ymUiKFyK0FVvqJ+VX102e6hPEvP+vZLEfAWIeZBNYGz5DdkStkIll4FAzl7ZOMzuu7IR9AHmeEmpCp/5zGcKYFEUkLx6M2mQ4o0CrKinVQSnm1r+vsUtblGylVBB/L/YQRvFENW4Pl7Bdiq1UKY++clPlntltgHQNli2nZ7/36h2h93bUBIEx0Yn6rmUYVLImbxRgsIG7fRXfcZKfzjLEja7BerxVf8eYoOQFekPZV6JTEM253n/rADGeJ30fVMOvPTTpmgTU+EJNTG3KRAZMwm45S1vWSYAy/jpWiEzAbfZX7v4ANhcfya10zK0t409i8CiWtgwBm0wPuuss0qIS+zZsUH0rne9a1mNtmdns28wTmLe/21IYr6JiXmt3lJBAQawOPnkk8vBQZQkGVf8BMi1GtwmnOsF6FBjhEe8/vWvL+R8u+22a573vOeVTYZ2sbeJaZv0TjrMx9Wx7ZjqctWTomElwaSFo33AAx5Q4gUdaf/Od76zHMjzD//wD80OO+xwAWLOvl/60pfKAT4mOOLzpdByMJNDKmwKespTnlK+q516tL0rR3KXYxnXxklttdZ1Yac4lEi7kJNTTz21EBt7UVNJAAAgAElEQVQxupwMol5PNKINi6jjLNqZZQzPAu132P9H6k/pD02irfjZG4Eky81PfIj3zPXt0JW1wjtsFH3mM5/ZfOtb32qe+tSnFvIah8vEpNZR7gcccEC55uEPf3jzkIc8ZJuc56MI4iR50dfCrHEEun6uiTaBQMgFomjyYIIhP/fLXvay4gO0gcrrU4ertd/neoWi9hP1dWvZdNyom6TNXRjTRczbz5oXNkWdY4WFECUDEL/H5/G3sUHUCaII+mbdq5PEfNwIH//3JOYtYu6F+qd/+qcSI9YmjOPNuRxXxIa+cByUHMrnBz/4wQISlnMpv5RP8ZZAuAa1WYFXKPXi8Jw2+dKXvrQ4URMATo76iuS2nWW9YbK2qO8DzOLlnzSUoovs186D2sEOsjccccQR5RTARz7ykc0ee+zRHH300c2b3vSmYrMDDzywZKmpbayOVDPk/TnPeU4hBU984hOLk3vBC17QvOENbyjq+4te9KJtiHnt1KKv2u2qrxn1t3mMutrRmLSwi0mHSZ285+J1jR/kR4aL2pazGj/zaFeWORwLtNXxWmjwu3SuyA91Eq5FHLn37+Y3v/nWsJX6HeoiyWuRSCt8JuMOIDrssMOKkOHE4/hEPZwIicQ//vGPb/7xH/9xm7/XBDx+75ogdPmbmqTW6mwdhlNf00WOlUvJJTjAIva5//3vX7DIathzn/vcgk8w2abFehITz6wnM9EP4Te6cKwuo6u8Ue0PHBxFqEdNcur7uiYS7TrW5a9V5iRvS3ucRnv5lG9+85tlj4PkCvY8EMCs4CDnUtLGQX1r1S/aNhRcTWI+yahZ+5qVJeZtMBOX+OQnP7mQDsQcCev7wvbvnulLiHZ5OczSbeaTc/Xd73731s184i2pv0Ciy2l0OYjpa/K7WDP/OCykXEw7tcmJe5zD0572tOYGN7jB1rRSVGdLxgDfsrMUjr6jLvinbUi+azgaG2p8z8H4fS2wj/hKm8Lcrxwkn5MFjpRfZSCgRx55ZJlIcMhCbmQq4dBM1p7xjGc0V7jCFbYh5sKDtOmtb31rWQkwdp70pCeVHPDUKKSevQ866KBCHs4///yiVnmucJ7YGBQTGX/Xdmm5TGL0k2unXYZfT5+176knNGwuzMcKgAwX7I6oSDtnKTxy+E4SuzuLumUZm9sCNRENXEN2Ip80Qk4lJ6aI4TVRFG5i4uzd7juR9cyvfOUrhWj7eeihh5by28ScYo7oymvtWspzkFf7d+CNOnsv4J/3OQ6k8TfveXzvfQ8i5h73a4vrY3XKaZS+hzvOGvA3dYIjbexWD9fxbzBM7D0ce/CDH1xsZiUMMbcSAO+URcjxTJgTym4dk65e6hAYqj1wTBgkfFM3uO27OnzI39yrfN8HbtejGE7rTz+1iQ9TntA5K63s5d7ATfdaDXCPj7qwiWewq3vY3SROndjQCkqEUbb93zzeKPWzWi0lrbAh48VqY0wgYaf2reV3h8RFkpj3H0VJzH+vmG8GYh7OwLAQKy0EASEXvgKwbESh7Gy//fYXiGmeVHmeZsipDzCmyrziFa8oQMkpACjfh6MDlq797ne/W8JG/M5pIIFIqrAQCgOAlpaKOuZazozqYFn2mte85tYTSdtqSGzQodYDRqTSBIwjsaxLXfOPE6JwcGDCbh71qEeVo+q7iHmtsnEKlGQE3NIlpRyh5/xkvPG954jlp7wBaQ4DWac4a2s4ZGWpn3/ayAlZAqWyCJGJU1en6Ye+19Zt9TvnyCb+meg4XMPKgnCd+gS8RTi9vm3L+5ffAvH+IlZwGi7YmIwsI1l3uctdyuZkaq/3qC8hry1CMXeceCjmwrjaxNyk/IEPfGC5BjGHGyYQMAYeUEwRQ++DfSpC+ExmkTF4pD3qDuesZgbZtAdI+BiCjMRd9rKXLQKAyYiwFJN37SduwC8TEuQ8JvDx3npHZachOMBOdSDOqAPRxCqfOmmbevoOJlPRTXbgmbpHm9TX3hn45DoY7PnaoI/8jS2UCZsjuxey7PlygBMtlA8H6w/izgfAQZjJhsoSkgQHtR2p9Tx+zAfRPfbYY8tkQughO7Eb/+da9tB+kwn25UsinGStkJ1ZvxkIOtVcXa0+spV2SEvr5Fk+Wv/VIS7tVZJZ12ke5SUx72/VJOZVKAulHBBQzhHIZZ2ldtUrdteHeoCMy0qARAFBpByAe/m7lNdZAkBMEIC5CcILX/jCQuIQOMrSq171qrK0J1Rk3333LQ7FPRyRpWCAjyRTevwtSB+lVjmAC0HVZtcgrA960IOKE6lPqwzlySQA0FPtOUIOhnNlKyowgk8tcj/yH4p5m5hHKAvFvCarYksj3IXizuEi3WJTtRPJN8HgSIKAc1ImBg5w4tQ5E3UxgRH36XdtpBypL+e4//77F0fXdmb9YWB0CW1S7kp216+cjImfuFUOmpq46667lo12/r9e/k4VfZ69tPnKrkUGqilShRDCNDiB7MFoKzYIof+Pd6u9IbmPdZB/OCB23WoZQlef7hgTVdfYn/KYxzymKOZw13uPhHmHKbR+em+QLxN+E3WE0eqccDDx6d4h7wocEjqDpMIlf4NXL3/5y8v7po3eMeTO9Ujuli1bChGFK76LFUuTmbe85S0lPA/xhnfaYZ8I/ETMfUL1Vk94BUv5DbjDbxAUCA2EFn3CDuqETItRh+VIus23noV0mtQg2D4mE0L7bCSH/QgpnK8/JhHCAE1oIj2r+soaBle0nx8hegjDjFUN+M8m2qIOr3nNawqORy5xPkBbtUs5bC+U0jMCm+YVKhJjWX/AcnUwloWWOszPdyYx+iP2RLRXP+ZVtz7vxqh7k5j3t+rKEvMgbX7GUhdi3o4x72/i+ZcQIRBAH/hZruS8kD1EyY5wAAjIR73gXqZx+XwnbUnUR5nIG4JK9UBAHVxk0mD5FJg/7nGPK0DrWnWmOAEtYM4hIcNIqXYh+D4Pe9jDyr0UI+Ex1GrK8yGHHFIUkXY7kFxKC6eAkCPDHBnnh1gi/BzifvvtV5yRGHOqOSfLgXKu/l9dIpSlJg6cI3LO7q985SsLKeeoqdyve93rtq4WWC7mYIWxsAEHZhnTpEB71FEoDOJNcVcOQsIRWmWQ1YV9xHdv9Ed/xSSQE7VZVoYHEwd97GdMAtV1VmNro9udz5+vBepJPcIiXILKiqBSYn0QPu8ljKAmd4VwzIrIGNOINjJM1USgYwIQPsT77x3wTKQSkRX7DgMQTSTUu4zwwir4ohxhbsgifLRSZ9MozPGhWsNGJPYRj3hEwSc4YJ8K7Nprr73KhMSEAX4Jo0Gi4UOdWSXeU5MGEwDXejf32WefYj/1hsUEKfdT0vmNEBTsAXrxi19cViSRe3VXJiJshYzA4HsrfIGhcBUhZyeYCwf1KyJKeOGLDj744NKP7Sxg7KXd2oo0m3zBPWl8+QWrrJR+WB3EnA2sBLO/vyPmNt2zL1LP/2kX+8NokyE2QOJNZOr+nNforgUO9jNm+Gt2M7atBKurVRP9EJPNSNc7pI2isf+KL9OPJmDGg76e5aR5Xn21DOUmMV9DMV+GDhpVhyC/sQGHymxzjxdByAiFgZpk+S/isxdFjtQNCCJulGQqMHLN6VAGOCHKOXAC1Jws9YUDjnhOPwEUxdz1CC8lmZMDshwGp4bMIuQc+Ete8pJCcCMWM1Qjz0H6ATIwpxZx6BwImyH8VhXCqQUxByZrEfO6bzgooG9zqCXhZz3rWUXJp3ppP5XG5ipL0mwj7p8ToZ5QutQb6WcDRMAqAQep7jbuPuEJTyj3qau+HRdTv4ixGyQqDqrSP/6Fem5yIWWdTz3xmxVpWkQb8xmLsUA90fVEpFwogsmrd5xCiwjCNBji/Y+c4TGe5jGukD64IJ7dhLlNJIOcE3QQySDmJurCbQgFCKv3Hx4SEmCD9prsI8fPfvazSzu918iickx0kVr4Z+IOu11H6EA6EVYiA9HBvXBBGBmVOHJmhz3gBp/gee5VH5gjDMa99r5Y5YtYc1gMc0wYiB9UauEv/s4OwobgtudpExIPy/QZwmzi4O8wF24RQlxnD47r4Lo9OOpZh5KwpZUGxJxw4Tp+gorMXkQU92u7+hMo4IpVDRONIOa+V+fXvva1ZTKFIBJA1E8drNgiwcoylhZBzOu3KEi6n/rPPjCTDgTdeDNmhOSYUAR+xv3LvvJYT6xNvpKYrw8/k5j/npiL3QOqADZCWdZn0vnfFUtFXgIKg9m2lxpoI+FeaCo0MtxWyefhvNotjkkDtZcTotJc/epXL06VMwBGnIS/A14KuL9TD5BhkwwOhKPiCCllnITYRPGkAD2Way3TItyAn+OgrtT50WvyCPyAIGeDTHICYkjZjQrz2Mc+ttjPEjR1KYg5B8vhUczVI0JZIobaT8TcJOTpT3/6VmLOGXCYHIQwIiTdvRwlZ4KIqw8nQ+WxokC50gaAHCqJGEoAh8QrA+HllCP8aBF9utaoVg/ESb/pK06VQkfl0l8mQhEPuix1nv9bmk8YN2Zi3NYbjE2wqb/IOBIIl5FCq01WxeCEsT8qI8isrW6lj/KNZFJlvaftcDnvvsk3TEHiEWkTaiTLex6b1QkByoNj3geraSYbyCK8g1sm70QCG+OReM+EC+7hn+A9EgpHwwbsZROnyTpxIMSJwCfvHGIO09QT6UOgiROwGTEn4JgUeGfdp70mAsJX3ONZCK56IN5WAEIZheOeL1yEkv73f//3BfOEk1CAiSnwgYJNoSdeEFco+3VYpueyFRsKOdRebTdRgH0wkAiDmFt51Bc+bCwsRR39HTEXtkjJN4kwwWEb9UPu/Q1Jf/7zn19U+1hxmfXYWUtUq/8WoUMmomLjjXtjyqSNX/KPL+cPgtQvSmSb1iZJzKe1WPf1ScwrYm4WX8eYz8bEMyzlf5vmf/33v7/7h1RyYMAOeQPo1BBEKMip6xb5EtfxdCYMHIxlYPWhAAMXQMTOHJUJBEeGtAcxB/RUawCs7kDaZEl7gXGd+zxIIcWHQwBibWKOtFuSpg55RsR5crAmCZwlJbtNzCOUBeFGzJUdxDzIRPzkOLqIOVXGJIRy43fO0D2cKdtQ1ixVI+L3ve99S30o7bEcHZMchIWyw1b6uM4qMMMRtu6iYoMeAoCciwXmxPUVuwlL0nd12MFGTyjW3di8sZcFasUwyCNMMJmL1HIm0d4BxMmEGNmKfOSLxLSIMYcRJtldmz8jK4trTOa9oyYUSC81GdZ5d4kk4rG1k9pMAIDZ2mrCjcgjtkgr4gkHKc6wEaEUagkHKMj15ADJhHEwgTCAZAdGhq09t4uYU+YRczgMj4gJPsQKiifcpDAjiuooRIcwom/ijIrAYN8RhZBpPglmC9vjV90vJAb+Kw8W+FtN5IKYw10EFdaahPh0EfMIZeEXXMfGMNZYOfzww8uKhbA6Aoiy1VdIIDWdvUw0TDI2QjEP7KvfhfCL/Cb7Ier61uQNhhorsU+pxs5lw9GMMe8Fj+XmlSfmMagB6TIQ81pBiO6Nl1ddhW8AOWBUb7yjsto8EifT1cpkV5n9h053CQG01AmqiRAUZEyMYmRfQbaBEALneo4MqQZEQJkjQ8w5ZB8gRUlCZsVWWuoL9SDi9YArB8Zp1YfeKF95wNiGJPdavqRGADkqL+WKykSpQZw5TGTa/wtlAfDtGHP1r/O/j1LMOQpZWcQ0UnMo8u6tiTn1ilJF9dG/+lH9YmwCZ4SXHaldnNpa+wXm1bfjFNAIV4lTGDlBBJ3KZ8WA0s9pskGkiFw2p7IRtlulZwaWaXNMOr2fYqpNwIVQmJx6j+2PoZR7JzeKiCDLFPNxWVkcRobEm9wjphRkhBdGwBsxw5R/my/tWaGowwW4o73C8Ezs/b8wNqQU8UT0vTM2XcJANqOiR6pbdvS+KY84IWxEmE+cTjqOmDt7wapmEPM4YIh/sQKp3RRzEwITEzHv+gQG1eot4iw8BM7Bbdc5UE1ono2axBATFQo6pVqfdn0o5nyAUL+amMPXLsWcnyEA2Hiq/eqobkHM+QuTlagrTKKYw1n1sAqzSOGqq81dE1WTN8q5uHx9IRSKeGQiwZdG/88zjGu9uJQx5uu13P/dt7LEvCa7zFGHskQe8/7mnb6ENokO56UkIBR5yakflBpKLLWAIhkbRdova7ut09dqujsQTwoNwkn5AMz+ARcf9aSWU4Mcoc2Z+F0fAGXhRJE3XN2p3JYjqTixlEkdAq6WWq0aAG4OLVKGlVnn7zMTuMbGKo6TKsRxciKcAMcEzDk/TrUm5pyiMmPzZ53HPIh5WKYm5pyPZWHKks1aJgQcFpJOKXMvIqIusriwE4fsJxJLqaI8RVYWMfYmYWyqPoC5Tom2bOQ2FBOqlKwDlpSlB2Nbkw/2qcOslq3+0432vHpSC8Sk3fXGCLJnYiwUTSie34WqwAOqcYSshKOvCdSixAaYYc8H5Zhi3JXHHNlGzJFY+GViTVgwoTexjxM1tVc7EU5CAoyjhvpdtink3CTFKgHMEwISQgRCiegiwEJf4IVwPiEiiJv3i30o7jVpj75B/vkMQglfAWusYFLMYRVijviHYk4k8T2cUi9lIuoEhcBzqr2+gdfwiXiAlFN2hQsKz/HPux4beYkdJuiy6KxFzPkNE5taMecrYCMsZRuTfX7Ehlr/7zn6qCbmViER8xANhNlpD7vxKYj5Mm2sDH8fY12KXyu97Ms/wn6x9zbUEpki/3n4u0nfxXlel4p5f+smMb/QhYoVgWso5qOI+aIJRLykQA2wAkvKiZm0ZV0vqDhsBBCJC2e1KKc1avYP9JBosdMABuBzVqFysyOFhzJtWRNhk8lAmwB3pCyMlJXAiTNyPQJNXRf6Afw5LE6NwgxoOZY6ZpAtkF/ATVlxL7CmKFlCViZVh6rl2dQmRJoTq9Ml+n/1AfKUr3Yoi/5RD2SbYzCWxGFyTHHAkEkFYu7eIOZINztRQyK9GtDlkClmJg/a6PlUdfGZJmPL+KnHn/r5f+Qc4aKEUgQtzyMVyBcCEinR2u1Z9Lu2jPbcLHWKcWFCGitc8NaKGaJKHTRpFybiPUCw4tj7jVYzKebtPOY1GdI2AgnFFjE3uaf0e1/jlE2YY3UOJsJvseMwhCCAEMNufxOTDQOQ1sAzWAA3hZBQeqnOhAWE334VogNyLWSGmiouHI7W7486Is0EBkoy9d6+HiEvNmsj4J6D+PMlPuoTijllGeaIEYdxyCG8hrWw3gZ6hNcqR2Sg8b0QRr5UWTAZaUestc3/B4bWdQ3FHDGHtfYgGQMmNcKcCDiuNzlAqtkcrsBIvoFN1SMUc1gPM2MMqqd28D/qshGhLGu9123fHQdqeUeQcysxBBo+xuqp1Qs+JfZctXFzI3A0+tX48X7jKXxpZmWZHNGTmHcQc7FxEUYRBGPRM9JQiRAb5I0qAHwoqggfYEbcZAqIQyU2mpDHC0lBoZJyMhyPGGrKUNTPdRHKgqxyLpZnOQdgjHALgxEr7x4gijxzTH5ySJwPgELa2YBSBIQ59DYYUaEQZBujODkx3NQe9aS6I4sAkKrumZyCuqs35Y7jca+/cV7Iex3KwnEoRx8h5srVFk6Emm9SQeUR0xjEnPJkCVnfPvShDy0qktUQ8ZDUOQoVZ84hAWV9zOlT7OIQkslf8427Ul/HxJITRUwsUyMflDsrAxx1HELS7ruNHNMbZ7XN9eSIRfaOILHUYFhmYuw9hrVWURBGKjkFeVmW6CM8xdg18Tdmuw4YQiCFb3hHkXTvPUKIECOySAm12/scaUYReMo1IgnLvBvIjNU3SrEQP1jFFsoR0gcz/N3KINyDNfCN7QgLJrtdZzl4pvcOvsIT7TA5JoLAYAQVXinXhwrve1hE4SdKwF57bZSj31yrPfAbJqkzQcHEJZR0AgVyxmZWy/hWtgiRpj3xiqwsUVf3aL/VYpM5Io+/aTssNaaEyfCLJjsmEfwi8g235Sv3zPgg5lYNlMeWcHnRmz+nebuDB6hvJCtAzr1DcBVB56PijJJ2pqJF8xbPS2I+TQ93X7uyxLxNuEMxjzzmG0XM67AToAfgAXbkJTf7tBEkMpPU3boRs+N4fgCIOiC6QkSoPLEZFYhqW4RgBHBbpqOoUG8sgXLYHBhFh0OLD8dFvRJnyBbIO9VbHlqx5ZH5ow30ngO8qbbUHsotIKfSAzNKEOfDzhQYqh0AFBtN5aekA0FknfNj/3rjU21zkwT1p0KJo+ZYjSvP5GBNHCI23DhTH7byTI6RfdhMG4WAqCcn5rnUEc7Rs5dp6XUUBNXjOH6P2HO21O8mJ1YBOE/ZE2IzWJTJths5pvvD62qVUK+YxGbg2IcBy7wH1F2b20JBlbXH+Eb0Ii56mazm/SUywA/EkypbE19tRm7FYXuXYQbSiywLvfDPZASRJE5YLUKyYLpVglCujXMrouyDOCP3SHasHLAJQg77EE6YhawjvHCMHeGXunWFMkY9qcvUdZN+mOJ+xNkKpLpHGIxsVxRaYgHc8p6qt/Mk4Bty7Pn619/cS4RB0GOll6CCBBM5PA8ees+Njdhj0u5rK4+EDBMh4pMy65VjWKxeJnXKF/qEXLOxCSCBh3CjjhR7NpFHO8YmfPU3PsG1cHnZ8bQWtLSZ7zAOtMPquRUXE1vtND5NjOqQmEVjaIhWViSMLfVKxXw6VEtiXuUxHxfK0jZtEI7pTH7BqyMWOogI0JCtw6AWf4mUIq3AFwhzYsBk0S/cuHYGgAAPgK7e1GWkPOobdXYtoiZujmPjgFwHdDgAE49a/Q6CjfxyksoG7hyBa4VEdAGs5wRIcXjqxaEgyOrGOSLi7O35vvMsQC8GU7nqR5FRHweDtBWWaLd+UxYVnOpn0uA791OEOYwgKtqoHZQsTsuzfdjE/f4WGz79nQOJmNtx/bCMf493BWizBwdpY5NwBv3GsXDuSFpklNgItWcZbTeEOtVYGO+cd934N8mEYyZkiBcip79NimOz+jJOwrRD/eGG99T72/UOepeFy7kWZsBn7zHMoKLHBBu2wA/XI9aBEXEQF0xDiP2M9719PLtnCIODT3DWuwLDqNcwhh3rvmiHtMA/z/BsdUHkYbB2wZnANmWbXAhJoUTDvggpMVmBl5EpSpvVNzJFhUjj71YJiTSELrnNYbW/jyLD7Ab7jBPtipNBY0zpB8/Wfr/7u/q5nl31EZvwI+wfmB7vENHHverAZvUprsv+ntX9qh3GnEmud8sY1Q8EKuGt3rF6A/CiuEL4Ws9DzE2iMpRl+pG1ssS8DV7AJk7+RNDFboX6uhYBnxU5DwUfmFAFLLmJiabsAjWqqiW6Ok57mYlL7ZxrBTR+7wpRaNuyBpNQ4ALQ20SgtkUXCNVqXtdrEg6t7cjajq69QlG3s550RH/Gc2slP5b62nYJh9au3zLEDU4PLRe8I/pQexB0S+DCf/zjbClfVj+oXEhD17iZRT2yjPlYoH4nESV9CssotFZH9Km+tfJTpz2Nd3dR5GGS1kdbRuFCe2y2scv/j9qsWl8bmxLbuOL/678FztT52+s6dtVnlD2jrMCouLedG75d/+inuL/dxnieiYWJB+IohBC5F2ooNj4ORpukr9sx6LU9AkvqOtVl1li80fsUJhlvk15T9517iDdCjLxjVggidMqqutVe4lDXGJ70eeu5LvopiLlVklTMp7PkyhLzNnGKrCwUDrF3loTql3sU2ZvO3Be8uiao1ALOjJLop6VMs00/u3bad4F53/rM4v5wGPGCtgnreglXm8zX4TPzAJ+uSddapL92dF0Tj1F2aNt8redO4tBm0YfzKKN2KtEO6rllWZvaqD9xUiJFlQq3bGkh52GXzVQmDKPKIgtiouMMA6Fq9hNY8RPW0X5fhz6ua0zrIsx1H9fYsJYY0YUL7NSewIftprFhTa5rYj7Kp7TrXNfbc2ts40vtB7JSYizodzH4+j4wclKy3H5uPKe2QbsucU9tl1oMmcZOy/hutseMtgnttCJF5BASxb72osVZIItsc9hfqKaV0chMlJs/Jx9NK0/MY8ACE5tELAtZAmrnwh6lnneRqMnN/39XqoelOMueXjQxhjYfWuqtnVgXuVvkSzdJ28Y5pknKmOSacC61Y5jkvmmuaYP+NPeude00pH+9E5lZ1XWW5QRo133nd+NeRgUxsMY/Ry6bheXsSZ34LOuZZU1ngehXaqlJFqUUQaDY2VRor0mEa7WJ03RPWr6ruybhXd/NquaTYsd6nte33u5HxmWHsUpici2VZKQl7PJl4+rZt04xGVg2Pzmu3eP+HuPA6mOEigo/sn9BtjMrFkJ7YjP1PPzyKP7jmfZECOuyNwOW41XLHs8/zuaL+nsS899nZaHc2XRnUwnnUg+4duiBzpnVSx5AhXyI64s4aJuEZAkRWy6OLjbGzeq5fQbYPF7wWdSnLmNWdho38ZrVc/q0v+veaZS4WT97mgkJp4KUy36BzFFYxYzacGbTUBw9vsg65rPWZwFjzlK6DWnIgfR2HLFVP8vZsu+IVea0a3I+C+K1vhrnXWGBtfpg2olAxNcTmsRw63P+q94QPC/cnJeQsowjJdrqZ6RVtDkXj5HXHrbGZuUQN+Zl99o+6uN53nPCirBgm3j9f4osk42klSXm7Rc4loM4FgO6BqpI9xUmncfgjiVKse7SIcnuYXe1JX2bPutjmDd6cMcy4iLrsZbjqJc117OsO+5VqZ9dT9K6lL9QgkdN3tYaO5NMeGowjnrXsaEx0esi5vMYt+Ns1wbsuv5xQJS8zpyJDwB3iq3QBwrrMqcym6btm+Xace+hv4svt8HQMra+tZdAX8Iy/2TSsOmw3hC+0WNz2fsncGXWmNu1r6W9AtlFzNtY1e4/PjMwcFSs/SxtHu1o+/V5rqbOsv7TlFX7GO32vklvGZlobLq1hwOOxr60eXKXUXXX7yZkeEydXSjf9fG9vbLEnGm6iFC9qZgfV9QAACAASURBVCSAZZxqOt7Mo69oD1I7zZFzGz8dCGE5itIk7t2LFvGZUbd6abBLLeirRtU2qsuPnfURRz4JqazVmVHEdT22jIkTIGhvGFpPee17ajI5DuhH9cEs2rvWeK0nJPWYWrSCtNY4iH5SPyo5ZdUYp/JQVqjkiLlsCXUo2Sz6MMtYjAWCIOlrIoe9MvpZ+lHZNhweZIOvVH1xmE17L0pg8yo78CBf9UTb7+sl5qP8QNf3bczouib8pMnVOLFiniMv6lqPoS5RYp51aIsP8xy3kYrQM3AFWcqEjoktF8ZCIccTxJdbeawzXM3LBl3jpZ4IjPOZ86rXkMtdaWLe1XHzJOGTDhQvn53swmoipZzvbOSgngtzid3tNUGvJxv1s2YJFJFHVeiPF1+arTp1Y22/SH1FGRWSELnMZ61qCz0S12hzicwPsyZ14SQ9x6QJAFIAxE+yA6cgew4V0P9LmSj1mA27NuX4f3Vir8jj3qdPLBFL+YXc2izJtuE8I82ZerpOHexTANCLXM5sO6uonzEhH738zh/72MfKOJfDHVmzOcwYseSZn+FaoI0BUtcJVZI5QngLwi5vtkxTcf5AG89mMZEdrgW3rXmtkMbq2LT40TVhhg/6BnaGyipsso4Dhm36yzUwDN6oA/zx7ppoRcrBRYkAXUSQfxQGql7aJXWj9JTaM2t/sxHjqp78+N2E19kb9sRJWBEhI2L5nf8RaSY3oq7tZ047VpehzhtdhyTmG90DHc+vFVovHQLjBbQ8LD+pAyw4NIQsSMwilgtVleolfs2kYY899ighB11E2MuIpDqaGpG1+UsKp/ZEYi3z16pR18sdZI+NHH+NGNs0GKfXrbdr26sE/h/hlXPb0ryNwvJty7tNqeC49ImNbnbGUwjjwA//D0CpgzZBdZ1MOk091QXRl06T0ozcCA8wDtTLwR/itCkpSDCApqLIbWsiYfLis17lbZq6xrUcSeQvVz9Lrg6VMmlgN3VjzyAECeTrsfLy3VMTSrVDJrxDsrWYnBmzxAZkIvbS1PiQ4+B3fep9h7veISGNkd1imh5vY6n/h5tyjMMR7+gBBxxQRJ/6ACWqrE2cDv0hesBx4QlUWvguSYHQpAg5W2vFbJL6jru/LZwFrsBc/9gJ7pngC+e4wx3uUHxUqLZDGFPtFYroO32EA8hipa18MNFLmlnvkdOmCUTR1lGrJJP0Q16zsRZIYr6x9h/59HqJTgyZeE3J+qWg8uIhhTZVxDHW7TjjWTWrdq6eK5btta99bVmaPuiggwpQC69pqxiupbI85jGPKcDu1DebWV3X3pld3+v3aEuEPrRzt2tbXS822X///csEQZquAOL12qB2DqFUIL02J5oAUCfYHxi+5jWvKco1B4UAOyXwTW96UzkeW2gGh3bEEUcUh3f44YeXyVR81gLOUeoTmyDd2qkPtmzZUuzKRjbceR7wjsNCKEiUfhMWJ2xyomHjeTipelIZJMvERZwxQqbO7MUebEgtjyPON4Oytd4xtxnvi/EdP71LiIQDtELt814hfCaX0sJa3UGq6hC9eYzTZbR3m5TG/5tow36E83GPe9zI03/XCuNrE1qqssn9gQceWNRy5A4xt2pVE3PvrlUOz+VrHvnIRxY1+kUvelE5wOfpT396wT1kPfppHK6t1Z91WGJXHwXuh4+wIulE2Re84AXlxGi4py7GFXtJ1QiLYyVuKGOpHguxmdZpqAg5scekiBBE1PDu8CsmbHHfeldWlvG9WMU6JTFf8l6vlY445vmoo44q5MvBQ/e85z3LCXqApw5VmBUAtYm5JWlkVCiClFgUz1DMKWC1coKYP/GJTyxx8vvtt19RjH2QSADMOQQQu6/eDMbJ+Hvs7o7/d31cG+DjEBMHGFCjDzvssG1y0AM1H9cGwVcGJUjb1Ll2Km27ud93FD7EGrl0WIajtN1PMUc2QmnSN6973etKu60oSP935JFHFod3yCGHlNPZAjzVQ/lRj7bqVNs+VGdtEKbykpe8pDhWdjUpQHadrGcCZ7LE1vrFNdIQSpvlAC3ZMdhiXop51NlPdTYpoMg5RpxSrh7sYkUhYoxjorDkr2JWr6cFauLo/YMPb37zm0u4HlIFx3bddddC0Cl/8V4OLUbVePZuwwVtDoyp37l4n7UtcC/enYjfjnZTteGavx9zzDEFQ2rMim6J+H73xSQoYpJdH6ur/sbeynIyp30dz3jGM8q72VbjkXb4itwKkUDM7XlChpVhr0CIDdGWmJCHgBIbQSOMz/eB52GfSOnX3m8AH9lRGeFfaj8H71784hcXQYQ4s+eee5aJg4kMQUS74baYayejLvunFjbCTxFXEHLjwMFNQiKJGpHpKOxZ4+is/P+y22uz1i+J+QB6tn5ZhVQgZtRbpBCQSkdGnRX/B4hGEfS2ajLpy1sDPmDwbMBHMbfr+7zzztt6HDXQAIzqYFkRQaWYy8mO0Ppwyu6xtG3mT6GhQvtngsFRaafJhzoLeXAPpY0z0E5OxPfAmqIElO3+RkIpOO6L45c9U9mIu7hI9aI6+11Z4iSVVRP+ADvgyDkJJ7JSoA5IOQLBISGenAfVV5uo5RxCEHPODzHfeeedm0MPPbQoOuypTNdTdrQ1jpbWhjoO3eSEjfS5lRP19J1nILpULs7IqsFzn/vcQmge/vCHlw1APiZFD37wgwsJkk8aYZ+XgwpC4bmxv0B2IQdN6Et1cvqfMaPPjb+NinsfwGu/aatYE0/vgUmviRs8854L07vf/e5XQhGsxtXvw6SYtWjjBbYa995TIoox73fvpEloTDbUjRLt7ybPMCHEDe33PUywkoCUsg0M8QxiiBVBZcH+WqUOu8K1iB03YYd7MA4G8g8wDSbDKmWbyFvRdA1sqFc01RO2ED4Qczhr4iRHtbrCI8q5/9dXJg31niPPZwvY6m/aqc/dA4f9DvPFg/MbgQvaGokQYBgs12b+JSYmxoUMZiYNnn/iiScW2/jeZEIub3WHh8SLyKO/6LHR9bwuX1y/FzDeaoD6WwX1k7/h6/meCB+q34ehTWCXoR+WtQ5JzJe1Z0bUC6h6gc2ibaaiiAIuL6q8z8JbgGUQnjbxqQFhEidXK6DKCmJOoRC/BzCBIiBBToUmROx5KOZiGSm7SJl4SQrZO97xjtKGUFM4BKoGALUxDGF9+ctfXuIggTZyishzWMDbs2WqoUQDYQTV90I83M/ZA2rKDgcPnJF4sZHi9TkG7eeoOM2999671D2W0f0tVC/1pewpy/Mtt1s+ZG+kk/N1upmlXiCKwD/pSU8q3yHmwl/UM4g5u6gbp6KdPurhfvVwlDInx2nJzqMMJymqE+Kuf00QOD0KFhLDTmwqvh4BNh44dSsc2s5+JgsOe4glz0n6f63Xo16yDoU81Dix5CZv+oEjpawZm6HKhRPpW4eBvb5Z3d9bIMaO8YKAwQVj3Tvhp++NF8qguGrvQ6woLeOYCVIFH437WAWI7+0NonBaYUSUxQcTEez7gHkmqxH+JyyDcPDYxz62+drXvlbwgzLsoxwTbWV5r3xCIY9374QTTijpR+FM4L+Jv1UqoR1wwcoerCIOIHzwSbgK7Kn3DHURc9dbFUT+hSrac6TfrBoSLbRJ/5oguM7kHLY/9KEPLWULZ/OdNvIb8EhYhrrBLjjOp2iH6xB4bUP4TS7gLjuauBgr9jHxHyYPJjmeLdyD/4B/VhIR2giZ2+iXsMZNdamFN/Yg9ggfYifjJN4FtomNnXGuSbRlXiugG22rVX1+EvOB9Xy81H6aUYs7ozQBRsQz1CZks17uXG/MWZuYex4l4hWveEUBdE4TIAMTBBlR50yp6eoXzgWBRDoRNg4A8CLXgAZBp3ojuHvttVdRZXz3rGc9q4ATR2b5FMFGjBFrYM4JiK+2kfDRj350+e5lL3tZATITB5MWpF4ctuVapByI+7v4cMAO+IAgh6euyEAoRq6jgDnB0L0cLoLr3tjsaQlYm7XP5hvPtaLgFNkIZQlizhEj1epIqVI22/nOMxxJz4FxJFQpTocybhmTsm/igMAIDeGw1d+ERPy4unKUHB8n7CflTXs5KJvrOC427xvK0uVYYmlaZgRLrtR87WNPDlc/t8OtBvbqZXXnaAFjyvuPTBr33l3vBPJp07iJHfLaFcIxx2pNVHQQK++fd907ZxIBI6jANuuZoMIwq4YIMhy0gmUyTvEVxuO9tBcj9uU8//nPL4QTifY+IeC77757eZ/EhCu7xmeEG5mFGXACtnimdxJRJTR4FpxiY3VVL++mTeTKdn1sEA9ln1oLZ1xHWYctcA9Gv/KVryz9xCeYPLnOpMGziA4wB8ZqN2EG1opPh//arH+JCjAcnhE0rC6yj5BJz4CJ7ESMMOGBb9rhOaGqszes5wOtLrIZMQVR9zxiTd2uiTp2The1BY0g54QYAozJiPZrG9w2Xox99okVhXoPxpyqmcVuoAWSmG+g8fs8OgAZGCNggBc5R5yRZennkFEKZbz461nq6iLmiCdVGLBSYzkA9aACI5yAWww00EUyqRbINqJKXQHqoXhTdim/1F4KDsVGTCAC/MxnPrPEsgMnR/oi5gBfvKXQEvH1T3nKUwpgcwCei6xzBMi753MIiLSUXog3ok/tRqSBNqdg0ySniuTbTBPKXKhdVCP21W6qPeek/urNQfi79iHOiDnbiOfW3ghlYSOO1rXuN2mJ3PQmHjbVcuhIdzg35IQtLN+aeFCVPNMEgb30p+dSwUPlimV/TtE1HJS+0V5jQpvXMw66xmoQEuVR3qwoqLP+5iTZiO0paKM2h7VJfp93Iu8dngXq/ve+hepr4omc2NOBnBEa7KlB0hFE49y1sxrL67VcrBSpD0Jlxc7kAu5436i08BkeEh+IFk972tMKmSVQeKfhEvKpLMTc/ws1EZomYw1cRVJ9lA8zkfIQENwXRFiZ1HWqshU7GOj5cM+98A1mIHlCWeCTSQ8cF8pSH/wUxDz28NTE3KZRGIOQmzwQYrSJ+AL7CCjwgEDBBjDPSiMMhHFWCUwGtEP9YJUzDYTlwXr/D0sJJrAL9nse/wIrYSv8h5214gzH4bmyqM+eQ7hw3bKoyu09BAi5/ua/+RkTCxMkokakPzSpqPs7VkrWO27zvuW2QBLz5e6fNWtXOyZqE2WDsuLlpl4g5lSb2DW/nnjeUcQc8AlPQWaD7FFDqMGUX+DMkfqJqAFmIRccj/qZMERec6QOYec8qCXUeCo00i29GhWduhTxphQQqhDQ4iDEMCqfDYA/kHOtJV/3cjbU26c+9alliZdjs7TJKYpbRJLdC/zdXwNgEAeql+ea+HgmwhkkHbByHlTuCGXRbllQYvOnSYwVAE5OPSzJqptn+piIsIHrKWLiCP0/pZ5zUR5y68PBc7IcMCfL8cSmLURFW2S9cI3f/V17OeN2Rpw+wz+Wq9nb8zgWz0MyLLuajNT5dLtCEJKY9+mBzXVvYE2ME+Fm3hdjy/uHaMEH5JxiHHHWYYWNCHGJOquDzd0m19RZvyO6EW9tgm1iD3sOPvjgomgj4P7fT+1RFqEAuQ5ijtwj/LH5EzGt0+RG24WNwAMTAnaBF95BmG9iTpGGv6F2w2aTdqtpSK46xOmM9WSHkABvCANBzIkcMBChhtX8i/Ab2KUdcNJHGMvrX//6omzzE0JX4DSiHuWpn34VlmlF0TPcj9SLq3et+z3DJAO+wGvYTUWPsDy2006iBWGEIo+4I/omdctCyuvxQhG3msFvmoAKg+IT4af+0WarqSGsLUsbNhfqLGdrkpgvZ79MXasAJiRVrm2KMfUA0MWhRLHUVzuyWvXsemgNJAAbMeVgqDjPec5zCviHGiHWnbJDsUDakUEkFDGnAtt4qE4UbaoJZQkB9w/J5YiF4gB7wGpZ071iEynhoeYAXkuoNvpQnwA1YgzYLGUCekRYCAvlKLKxIP6Is2cDdPHY7APkrTJQZyIPbNiCEuV+kw27/7XfhIHqDlS1i7PwfBMFzi4U84gx52CArdRiFKpY9vVsMeOe4Z92WGJGPKglABsh4ag5zwhB8VyOHhHm6CwRR4oz17AZh6iPtN/9nPks1MUYLyaFxpr6CqWyBMuJGg8UOLZdxrCDqV+svGHhFogx5sFxmJbJvIkqJd27i7iYCJvYxqE4QcwXTdDVVz3hgnfOZkoksz5jgpBBtFB3mOg9rYk5vKqJOZxB4L1LVg2DmCO/JvWRxSQ6B14is3AIhlpBjDLZw6oDogpjrUR6T5UFa+EUjIgzFiLsUdmIuclRFzEX+43YI+PC1/xOAOEXiDXIO6y1amqlQBiKFUY44Z76mHb1gyHaxr8oRyiKMD7Y6HsTHqtvsNoEDVGPkA515VtgrHHCbqHSt221yAFdj+Ug2NpG/TdZQsjZ18RKfxk7xrUxXWexce+ix/Ui7ZTP2tYCScw3yYioCTQgQyQRZC8+giRswtIhYKOa1E5srRd+FDGnPNfEHHkVUoKYU3XaxJyj4BiQSaQSiCKlCCMQF6Ih3tEmJGUg64g5sh2x5JwakKXEcCiIOSdHfZL1hdMGboiy+zlvZQgFcR9l2/K4SYvJQWQF0MYg8pxavfmpJubqzWFang1irl1BzIWyIP7qR7GqN39yROqKpCPNiDQFW9hMrHyoo+eJAUVs2Ypy5nkmOerJzoi5SYK/R4x5Hcqiz6nliLOwIW0KtX294F4T8siY4/lIgxUP7aPICTuKusREIFTxVMc3CdjMuRk1manDFLyvyB3soSybUCN83hfvODypNxUvarx5fxEr76kVSwqvMJQguH4irt5Jv7vOu46Ya0PEmDOrdnmniRyIOVGF0ILoa4+JfeBG3Q1W3EyQkWCrpPAQlgahgwXUY4QQeUXMTRaIBGLLEfPafkEiQzEX996OMa+JOewVrmNyYIVOTLTwFoqv1U4TKP6IkALHrRREhpgQHLRPP9qkbrUhQhIRV8+Cs+pDQNE+qwlx5DxcJEjAe20lygirUfYsVwknGfr1uKvDVnyvnwhSxokJBOw0BqyQIuWXuuSlmj/4wz/YepJzquSTWHzzXZPEfJP1ae3IgAASSqkB9MgTIok8BaBxZGsBVzuUBQBTNIAsMBeOESEmYgwp2ZYlqUfCPTghygAg9VzklpOi8oqNpn54PqWJMxNbh5gj0QAaEUbMLdEifK5FfD2H4/EcQMyZaS/Sq60cjv8H0BHqYeIgHtJkgGqB9HNmMqv4GwcpvtHKQji0yAZgotNFzClJNr5qX4SyqB8HETHmNlkh/hQkpEJ/CFdhAw4q0lFS3ahGNnpStoTrUMy1TfuDwCPrkVNdf9aKuf5Uhv5Rnns5u/WEMcWrEfVTNlJOJTcGjK040dQkxDJs1DEdyiYDlg1sTh2y5721suSdQiwRNu+dcC+ElBpbE+JFVDsw0sTbe2fSTuFGPNXX5FuIC0xCqgkahAjYAe8QdPhgUg6ThH1QwMVjI9BCWUzEPceKHKW4rQIjrVYV4J19Ogi6MmFATOa9o2yJMMNmIoL3OIh5+6Avz4usLIi50JE4yM2EXygLLONXlAuTCSbahDzbbwLj4S9sgPtspH6wHi5pMzvBUFivriYAMN3vsFB/xqmx2h+x7MQfdYo9Qe4nfMApkyPjIsSMRYyD+hm1kBGTHP7I5lx1NIkweWEbohmFfL2iyaLbls+bvwWSmM/fxgt/QszS/QR4yLTYO0QK2FEaKDGWBusQiK6KhtMJghrEHAHmCCkgVHig4hmAWawfJwRsqCVAyBIrEk4FEjcudaD7KSqUco6W+kp15tQQQCAeijnyGZMJhFX5FHPEnPrOuXFWVBsbipBjS6GIrzoCezmAXQsIEWMxfuIetUUst1Abm6CQTe3mEEIxR3ZrYm4TFeUaMQ5iHop5pEsMYq58kxLOSHvUVcgMx2yDpE9s1qSkcJTCYiKLjGVZy88mQBwtch8TD8u1Yunr0/qsIJho6DMOMpSwmGxMMyBjLHkupUcfcbiIgHAbddMPbF6HyqSTmcbKee0o7IlxVK/cGZPIuXeJgo6QGo/CGxAye2uESQR5nUUI16geUq+YOHgnvftIKMyxxwJphA/efQQb0UbMTa4RS+px7Mfx3nq3YBpchJFUVCF4sMc7iNQhtJGdI+pFsYfNRAzXwQW2gJkm+XBFnYTUEVRgf6zuwUPfdRFzAom9SxHKAscjTj2IuTLZGjZYFYD3sArhNgmAceorLMVzYCrV3koeoURfqh+8jkmWMBubPK2IqJ9PHIpk06qJBTGEEh+hiiYz7OpDca9PWV4UHtWE3DP5QtguLNHEBC7zi1av4adJDLu7tm+2rESRzWOBJOabpy+3tqQd1xYEFMACByoTQEDOAUQc6tPlwNozf84wFGvAh6AiZgAc4UbefAeQKQRU6MjKgriKQ6RQI3RA2DNtWrJciTQj0tRmwOpUOs+jYocq7Pp4fhBzy4GRlYWCw+lQ7TlK5Yqz5lj8jSPXdu0GiLE8bic8VUg4BpIZE5E4ORQxR/oBP0fqfiDLAVKVOKzIyoKIU6wsHcdJoJy0CQcH5m+AmmJiGZ5zUi7HzelZKTBpsenNMzkuzo0TYiNto1oLAfJcxLwOTxLKwulyWJwXcj6tYl73O8cuBMiqhr6yQdbERnuF3HD+cf2iHOAmfG2zSS0LtENR2mMMGUV6hDzI0mR1yZinyMIXRD0OlZnXpDGIuffL8wkTVuFs3IOD3kuE2XfINuIMFyjA8EYMNgxwvffMJMN3keaPiBKhaXDUpF1Ym+sjRlsd4BTiKuQFQXY/8mqTPQFB2AS8IgoQDEwYZD0hciC+vo/0i+3Nn7AqTv6sFfM4gRiOK49iTWAxiVA3kxBYRhSBe9oMu2ETTIJpFHHYp41wnE1gq5Adqw9IrMmJGHPtg98IO6UZ7lmBCBGF3UxcEH82slcnCO8icKmepKkD/6c/1RluGiP6RLuJVNoWIYb8TTumPAFhdS2QxHyT930digLYLANSYJBo4AEoKCtI3yiCVQOOrCoAnaKB4HImcRAPkEHWLCsDa8AtfINDEIoBYDkIqgoQRkgBOtBF8gE3BZtT5YA8Q8wlELYM61rgFSkIgRsgpzRR1zlBahRHoHzqE0eJgHMQ1Av3cqAcBbXKpMXH8rNlV2S/Du3RNqDObpyYMBkknyqnrpQfkxITB0Qg0nyFYkXd1g6OiOoNjMVm+06ZsdQNmKlK2qk/EF72Q9bF7Ps9lG9qO1KiXmzt1NdYTdAW7bb07e8mSNT62Ig2brjXyqTfORR14Dgpf/oVWVAmRz5pueOem39PC6zHAt4barl3UbgZgo6gCUejSHqv4QRsiBSLsyZA8c7ECcFxUmNsirf6hyCLI/aP6KDOroMDwjZgkXc47jHZhy3IJQx0nRU0GGuyDSMiGxa7xZkLwgYpygghbNNuuAfTCDGwQkyz50eKWqq0EJj2icDwA84QAeCr+0IEIDLEWRNwDw7AB9gm+5T/h/nwLDbUswNSDUeRfXaD6eoJo01kYL1QnQhL0Q7XRTu0E/a4jq9xf4Sr8GlWZGFqnM5ch2q2J3rrGW+jVnbi+xiPfAxCThjSbv7VhIN/ge2RTSZD/mbVC5urnCTmm6s/O1tTK01+p1AgyFQcaopYbQotRxapuGrAqO+n3iJrlGwOhtOIE+YssQJN/wBPpO3z0zMo2RRfzlP4CiBHNoGVsjhXqhAnpi7qifj7O2IbJNC9VDKAD5w5RO3xd47Y9+qsXp7l7wilEBVOG4BTyuO0Ut97HrW+7ZxCjYkMJNpP4eL4TXSo1xyBOnKU7KJunif+URs4S3blZDkY7abAu479OSbKkevVQzlBIiiCnJMyPM91oYArh3IWB69E5+uTcHzsQVWa1AFor8mI9iI6SDl7s6myjBOKeX1YR61Gzcv5rcBrmk1chwXq/Q/eB5Nd77x3XGiDd1rIhHALxDLikSd9HyatUoSzUEnVwfNNpmGDdx8+wEWkLN5teCcVIUUdRnnHhAV6t+CeyT9cRNLhomthgO+tCkQIRE0KPQ+uINNEBPeaQHtnKbVx8i7CrUxYDpfVLWwT5XmvlQcLEG6iQkzy40A4mKB9EdevTTCRPWCg9tRhN0HO4ROcUg+rGiZP+kh/KQs2a4PrCDt8iEkLrIb5ME+4TPS/e4TWeDYMEl+vv2v1f9bY1M5HHnHy6mwMqg+fyF/AdWOgLWQsQsmfdAzndctjgSTmy9MXc69JAJOfAB6AC08wq6fWULQBCIIIzH3ay8e1Ag9UACinEgo0ZaZWpJA8n/jO/e7hMPwNUY34aP8PuDmmcBJR5/ZEod4QFoq+n/WmqPr7UE7c59mcNiXJxADAuy9IeB3XWv8eQFzXpd7sGLYKG4UDjnLr/Ojui+OX1cOEQB9E/eu+4hzVOZSl+jjmyJMcz44+q+swioTU6ni0Mw67EEYTseRIAFUtYnejbl12mvsgzgekBVoWqMe+98p7gqAhk3GkuTGMmJrImty2Y7RnYdT6/fdO2+DpO1jqna0x0LsTeKK+sXIWE97ADPWKa13j+1g5HFVn5cJSZBbxhXHwpR3OFtgc5HUUSQwcbZPcuo51Hyg32joqPFJbAoPhnjq2cUqZ/IHr4JLrkPiwZds/RT1rfxM2miUpr3HT7+pmEhYhVSZm+tE+IauLCHmshLT96SzGXZax+SyQxHyJ+nSW4LFWswJYACgFW2gLgi6UxA578cPUC8ptkMm1QLsNNuNUgCCz4XRq8IzY7ll2S5dd22pHrRJ1TUja9ZkEYGtH3XZQtQ3qsteyc9ffxo2Ztf5eO7KIibSiYImbIkYhk+LSEiylyqShi+SPq8Ms+zLLSguMs4DxaNIrxM3eCDHXQiiQP+ESVq4os0Hy4n0fh1vjnlv/PTB2FDH1ff3e1BNp5UTMcbvMGjNrDGq/g1Fe4EyflIGTvN9rtXetCUSUHbhSl9NuexD+dlsmrd8s+re2refo5AAAIABJREFUK9sKmbSaafXZWPMdtV6okRCfOKG1Palp+75pxlZeu/ktkMR8QX08CXgsoir1bD8cEsCznCpNoZy5ZvdOrRQjGMuUNSFrA9ykoLwsNpiVnce1Jxxnm/RP8vxJiP8khGJUHepxwJmIF7Ux2MZV4TNiYW0sFTYTcZz6fdYhAJPYIq9JC0xjgXrSbZwjT4iT2GsTTmPa3gx7WeKMg5oIB2l27yzHe/tdHEfOxuHLWqR9GnvN4to2Xk1T9zaOdd27Fo7NY+VuVB1iz1FkWzGmCBnGmBAbse32bfGhEWYT/TyLicF6+mqULxnVxtqe9TswbZ/+//bOA1yKIl3/hYhixBwQwzXn7LquEVjzqmtAFBETiLhXDLtrjnvNAgKioJgVMYuRNWEAzDlHzBHMERH3//y+e7/zL8Y5nDMzPTPdPe88z3kOzOnprvpVT/VbX731VTll1Wf+l4CEeZXvBG7m2AdX7MsZWyQKIylVLp5Fbfiho/G85yxYRKgTVWJBJB5NMgr4FzOe+vT3Wiskq10fnb9lAn5P8pvIIlP+ZMrxRXMMyticCR99sd076/WAablmOkIEZiTgiyKxG7CuhLUozA4y+PSNXZgRwt4Sb8Klezxdd1Itny+FAtSf3/6c5D4igEUgg1kZBnpY/egzCWR5hqxisyX1pBr3+5TDbZCFZYqDNnFQqdbapJ6s6n1tCfMqtwA3uXv5ZvZF8JF40hkDWlM97/T4zaIjFjDiMSbKhH2BDgdLA1lYYm9mc9NzsVjXA641LVC7Y7zTxXvK4jCm+RErDMywLxFFZGEVA7F4oVI1olK1q7Wu1KgEYpFBH0tkk4wf9G9YD3wBNetr8KCz3qSwn1Yf1ph3jz8XuW/4QZCTnYrnItnJsEJhjcJLziDPNwnyhbBpu29cmMd6pJjFqTnNooh57b4HEuZVZM0XgJXZRGcYRbMini9z/IVlNI7Pm2MQvZ7xIj4myWhBS18u/s5iJMrtOVjxnnvecxYAkt6Q8hX6wePpRo2uq3hjlXDqeNDlAymiPDxgWFtA5gPaluwKvuEF1pW0RXtKqLIOFYHfEYiDBSw8JHsImZHY9IaZIqLlDEz5HrDnAANTXvEsobA2BgEfzPkz2DcIYjDHvYLwJuMMlhWyjREl99kWPpuk/SlJ4syOkmGHhaoIcpI8xIuCXZCzaJiMOfjjedbHqXi9PPpeJNkyvz+XhHkV+LoYYkU5uWfJEMCXlTyydPzxxhCId3bkJOcpae3Iz0raLN/NzB8O/K7FFz7ulMgEQso8dmUjusTiKVI/kTKP7AaeQcA7sGILmtIWNahCc6f6lL74i3YlSk76RlJ5ESX33RKJkpO1IhYjtbjXUg1OhcssgZkFH+KBKv0zqfj4PtC/EQUleEIfxw9pBAtTEqo/y+xtMdOCF9o3eC575rIJEyZY5jL6S+ydCHJPZenZvHz9TUuBr3rQ83ue7DYMLtihm3KjR3yWyOtPUI6sMmwExX4gbNREystYkMd1VACnOi0qYV4FroghT8vHBi/4d7GIsGkOG88QkXHhzSj2wgsvtB8eBOecc47lrvUvfCzMYztBtYWTf5mJLrEwkOgqvjqi+2yWwKpz6uF5zylnsS9pGjuqKjR5Kk8ZP2yIlLDpBYMsFsAhwhHkWJTIvqP8uqlsQhWqCgTi7wX9KAEIcvXTvxFBx96CnYsgCgNWFogymxlP+0ugV6Fh6nTKeJEm9wb3A4M0ZhO5J9hrgsgxIhbLE8/pOHAW3wtpvC88OMMzgM2dzj33XFtbhEUVfUIOeV/gT90JErLDKzNIbCxFpjbXIa5tZpYOs07NmKvLSphXoTn95mXB0amnnhquu+46s6oguNnyvW/fviaG6AQQviNHjjRhzgj1rLPOMjuLf/EZwXqeW8STPyCa86snWR1/gPEbD/KTTz5pnmSiB/EMAFEEprtif3waO6gk2WThXNxbRMmZukSQMzPDBkkMqIiEkM4LT228mDcL9VIZRaBSArHtzvtrIuj0bQQh6Ovo8/iu+LoLZjQLF4gq8FBpS9Tv87G9iX/zvCYIhV2Fe4AUm1g9SH6w9dZbz7CDbByESvuzzu91hPlll10WhgwZYrnhmbk/+uijQ7du3Wzwyct3b0WY450/9thjbVMpt66iRfieIOz5LvDc9+9E/Voyf1eWMK9Cm8bCnO2JiZgjkJgeYwU328iTKxwhy3uxMCdiTs5oj+SwQI/pVt8lk2kldo/zDQuqUPyip3T/Gf5kpsP4grOICl8yqceILCHyKHfhRhq1KmOjXicWB/5v7is6Xx4yREkQGgwMybjCbAcR81oM7hq1TVTvbBJgMItlgZ076bexufBdYaMYBAzrMRAjbtuLI4fZrHFjlpp+0iPJPrvNmgNSHxLAoF2ZMdl3333NvhI/b7O2fspnBHh2kw536NChJqwR2ET/Tz75ZLOnEjUnYk6WLoQ5dq5jjjnGBqfOiLUZzCZg88GDjk8dPULAsNqz+I10p0qYV6G1Y2HOVBFplVgkgrhmypQvwemnn25R80Iry4ABA8znyJcGwT5mzBjb+AehxReHBwMPiN12281sJLV8xZElBgs33nijpR6jk9tll13MqkPUH8HneYHTHk2oJb9qX8sfNDD/4IMPwg033GA/dMi0D1FybEhEgXyRUmH7KAJY7VbS+dNAII6YUx4XW/4dIjJI9BTbFzOerLXBzkDfy8AWscbLv0d+jjTUTWVonkChjYlZEbKQXXPNNWbhQJhi4SCAwUZBZFrxYFNWhadnfMNOy8w8QTUENWKa+xs744EHHmjrxlyYs4cFedmPO+444+ApIq+++uomPQIPstHw3O/evXsTK91/lROQMK+c4e/OUGhlQZjToS+22GLmWUMo7b///jYaR8TGHnOEOQuOrr322sCXgAcG0WhGpUTPieTw3lFHHWUCn4Wi8YOl2kLYH2h0aIg/ynPXXXdZlgMsOCwooVxEmVqytkgEln7zFTLzBw2sifZhVXnssccCueiZ0UBMkGMXnyDTlR7ta05IqE1KbxN9IpsEvC8rzIDl//dt49nTAQFDmjzEDTOa+I2JqPL9QuD49yar4i2bLdj6Uns/6QMwBCjPUyx+zIrQrp6diowr9JUkO2jOS976K9f/yEJhfvnll9vutww+8JATHDzggAPCHnvsYQkdiJgjzOGAMGeWnucJOoUBK7PkPOsZ0DBgJePcnnvuaXuewEzWyMrbXMK8coYzFeZYWbipuWmZDnUbCEL7jDPOsJv+qquuavKYY2Xh5mcEiyeMLC1EOhG6LEJhqo0V07zXv39/m2aKozZVqE7RU7q1BbsEWxLzZUYQ8mLFOmKQ6Gz80Cp8AMbiUIKwtJaL/f+eEeC5554zbySpEJmOxyPIIAlR7g8Zv0q1B3Cl1UZHi0A6Cfg6IIIpeI75buFDZ/YTGwB5rBEqBF20ODS9beiDMIJmzEAjxmlLxCUzzyyEpL/EakqUPE/9pFtZCNp4xJxFrGgTFoKSOY7Id79+/cxPz8xBLMwR7hdccIEF4RDgRMjZfI51c0TfCczBjfV0zJizFq4e+7Gk8+4rr1QS5uVxm+mnCiPm2FGY6mGLe27mwYMH202OWN9nn33si3DRRRfZzX3aaadZ9JnRK4suGLHSafBilE9nwheInepOOeUUW5RSbJOAKlSr6ACEN6kv0QfSQhJVouPjC0r0HJHuDy2lVkquVVyYe5QcD/nYsWNNPDCIQzAQ0SMKxOKcegzekqutziQC9SXggQMsfAQg6OtYv8G+FEQW8eOymNo3mcmTsKsv+dKvXmhT4gy8hx2DNuMZSqQX8YjFlOcrbcgz1TcHioNGpZcgXZ9wHrGVBWHO7DzW2jPPPNMydu20007hoIMOsvf4jaWHxZ/MvA4bNsyi6QQOmcH39UlYJfGso00INJJK0v3mCv6Ufx9ImJfPrtlPFhPmWFl69+5tNhUym3ATM8WEB51IOB43IjAnnHCCbXxBNBzhTgYXvF9uVXjhhRfMBkNUnREvkfPCVHdVqJKdsjkbhXdiRJFIMcUInM6PhxaLXJn2xZPp01x56vSqxbq588YPHTpDNoJgIyiY838Gc3gGGRAxxeis5SWvdUvpenki4N5z6sRgGIHOQJh+jkAK1octt9zSoq4ssmZhXPySSKnd3RD3kZ6PHDsSbcWAit1fsWIwg01gC0FeuBA+TzO4zQnzgQMH2ro1kgOMGDHCBDUahef0oYceasKcrC0EEYm0k0IUgc7aOL4D6A6Y8h4zDyeeeKIF4woztNWu5fNzJQnzKrRlLMyJgOMxJ2KOjwsLC50EXwQ85NzIRDTxMJJPlFXQfBHwkPMl4TNE0unY+TIwmu3Tp4+JMIQ5C5E8Yl7Lzj/2Z3r0lnrTEWLBYWU7MwXMEBCVIOUYloo4Z7b8mK2/+fxB4dtDE/3AusI0IlPrDIK4F4iU89DxwVpzjPP04Gk9RR0pAqUR8O9JvGjQU8cRiCBDBfYxLIrY+ujD3T5GekUXKc0NkEsrjY5uiUD8LKJ9GEARHWcQxWJe1gTgr2Y20bOJ+HMztl/kqX90KwvPDGbmsZ8wICFijjBnthvhzbOERaHM/AwfPtyCO0ceeaSJbxJREClntp+BjAtzNl8677zzwquvvmpBRQJxJBfQ7HhLd+rM/y5hXhm/op8ujJiTuYSFFi7MEdX4shmVsmEPkU06dbyKLMZg5y3sKggtjuGLwjlZcImA528IMawsRGncplBLYV6s4i7W+U1OWL6sLGIlSsFonOkz/GksnmJarFi6vjx1iOXeWsUWpXnEDq4suuVBw4CPhw+r51lIjH2oMK1XYRmKnbvccupzItDIBNx/Tuo4LGSsJWL2itlMZq7InLXmmmuahznrmT2y0M4ELXjxnCQqTsCCNVn8xk5JEIwAEX7q5p4/9X6GVoNzMWHOs5iIOQEc/s5O0AQLmfFmQOnZ44iYM7DBY85MENFxBjQuzJn9P//88y3pAEFIbEHxTG016tMI55Qwr0IruzBHgJMWkQ6biDkWFFIhclPzN/xZgwYNMisLIhVbykknnWSdCp06fkUWVDAK5e9En1koevbZZ1snc9hhh9kDgOvVys7SWlz+0Prqq6/sSz9q1Cjz9/GgYmErEQtEpHcaip7PSNa58C4sPTsAgtzzkrNwmDUKdLJEMbgHZFlp7R2q40QgGQLe17HgGhsitjK+pwQj6LvZ54FBswsWD6QUswbmURgmQ3nGs8R2lfjf7BfyyCOPhNGjR1tACOaIcdZsMZOITcOflY3C2rOyIJ6JfBMxJ6DnVhbIwo0gGnqFYCHPH7gRMf/oo48sKo4uQajjRScqTkpnNisiGQWRdrQMa5qIwvNqFL7VuL8lzKtANRbmJO8nRWJsZeGLQmeC5QNfFn/nS4Mwx3uOtYUvCKmcGN2zsIi0iEw5eWonFmwwHcVCv7iDr+eXodDe4qIScc4InIWhiHQiGnQM5NbGV0/0QimWmhfmRODwsfqGJ3SieFl32GGHpiwC2iyoCl9knVIEWknA+z5msFhk6DYzFs7RRxNJxNOMTzcWhs2lamzlZRv2MHh78MKtRQhyBkT8ps/EQslzhhlnAmIIRg8A1fM5WetGiyPmWFQI7KAdiH5zL/pAkVl8rC5YbHnGcAyLP5nxQcxfccUVFi0nqIYlFT2CzQU9s9dee1ng0XeSljCvrJUlzCvjV/TTLsy5ubn5EaSkD2QBKGmG4oVETAVx0zMVSieCtxwRjg2E0S0RGIQs4pVIO1FmouU9evSwc8WR5jR2Nj5ooKPEgoEnjc4T7x+inIcVFh46Tn+lsR5VuE2aPWVsCSJNG50fdigsTiyipWPkQV8YnWh0brVsI11LBJoj4Lsk8n0lgwvBFL7HWPjwN9PfEXAplk1L3+GZ31fuIXdODIRYAM+aJmxEBLuwXMAYix+ceWZ6/vL47I3C2vUGATJmrgnwcB8SFPRBIlxhyaAGSwtrJ8iwQnYWGGJxYRaC5zfHMhuEvmFWnzUVWFSZwS02a6ueonQCEualM2vxE955IKTxZ3GTM9XDwiA6iViA0mGz2BPRylQbeUSZbuOFN44vBCNTpo2IvPAl4UvFiDULeXMLO1K89B5NIsUfU410ony54cP/vRNtNHtLLMjp9N58801bVMbPxx9/bA8aphdZLc/gzY9vNE4tfgF1gAjUkYB/L4kksuCOfhxxTkYtnglk2aIPZw8KFiN6OlOKrO9y8w0X948Eq5hFZOAzfvx4C2DBkgQDsIUxmXFcfDeKCC9Gz4NjPFOIijN7zSCR567fb3FUnfsV+woDHKyyPGs8AxjCHO7wZ50bFi0WhfpOuI3MOckuR8I8SZpVOBdfGLyLfBHwdblwrcKlqnJKF+bxyd3Gw2wBNh48bXSkzCrQEfigY2Yru2NfYR46A9rZ60T2AAYvzCzQSRKV8IWzLMzx6Uc9yKtyy+qkIlARgVhAepCBgTWihgwuCHREIxmUyHxB1i1Ejm/MUug9r6gwOfqwZ/2if0Rc4iEnwovgxLaCFZTghds702LxTHsTlHK/MbAkss6mQ6R+ZiZfr+QJSJgnzzTxM7qfjk4+6xEVF+p0sswCsCAUmwbTkAw8iJzjbWNEX5gPtdjCRmBnVZjHgwt4YPdhITAbTvEAZ+rR85LzwIFPMTFeSsea+M2pE4qACPyOQPyd9P4bMcPMKDNgDLr5N1FeBt2sI/L853FAIqt9W7m3RLxOiXP4/+kfWYfF7DG2FWYg6B+ZZfV85DwvmH1Qqr5y6bf8ufj5rXVNLfMq9wgJ83LJ1fBzcdQ5L52OrxRnJoBsMwhzBDr2DaLnpJdElBL9oLMtFODFFk1lQaDGZfTpQ9+9kygQPj68qWRZYQaBdQfMIODp07RsDb90upQIJEDAv+8+I+b+cxaIkjeaBf4ITKLmCEzWjjBDRiQyXqjYSAI9DljQNxIRJ0qOIGdAg5WCwA0BHGwrrE/yDF/aCj6Bm7aFU8Rr5Brpvqw+2f9/BQnzWtLWtZoIFEaLiZ7jxb/xxhstbRMdLVOTLJhlkSgvOgRPG5hFYV5MlPMgIUrOghwWAVNH0lGRsYZoUHNRct1KIiAC2SPgQRZ+k/+cPo/9CJgh4/94pEmBSgSdtUZx5pFGEEE+u+ACG0FOJi+eCazXQpCz0JBZBmYYsHZybLGFtNm7O1RiEfhfAhLmuhPqRqBwJoDoOV5MFryS453V9mQeQaDTEftinizPGsRTszyIWbhE3mMW5bAJBtl2WNxJxh3Pe1w4W1C3BtOFRUAEKiYQByXo8xCfWPqICNMf0L8ROaffI9WfJwPIk2e6mGXF68dvfMzYVZhFffbZZ81/zzOAjFQsOGRWwWdS1T9WfEvqBCkjIGGesgZppOLEDyivNxYXdrdEnJNmksWPHOd5gLG5xB1ymjvlQp+p/x+vKekxqR+pEFnxzsp2Hjz8ZlGNR4AaIUrWSPe86ioCEIj7Phei7777rvV3LGrk32TDYJDeuXNny3/uW527lSDLAYpCBj4jyswpmVboF4mQ8yxAiGNZoW9ccsklm3zkae77dZeLQCUEJMwroafPJkrAI+hMTfLw8Q2VELCkb8KHyeJQNtfBdx3nTPXsB8UWiDb3t0QL38zJCv2SZNghOwPeUsQ5kR+iQPxg2Ynz7UqU16KFdA0RqB+BuH/g+44QJWsL0WL6CfznpMgltR0iHXtbYTrZrPQTcZTc/+3BCvpF1hd5akl85FhVsPRQdwIyno3KP5OVetfv7tKVs0pAwjyrLZfTchcu4GRKk2lerC2kxmJRFFO8RFDInco0b9xBF3rPPapSq4WhxXzklIEHLpsqPf744+Hmm2+2DANMU+Ml5+Hj0bCcNquqJQIi0AoCLlgRqiyIJ50sObrp1xDm22+/vUWQCUxkzcoRi3FHQb+IlQe7ClYe9ragT/edjddcc82m7Fz+mVr15a1oLh0iAlUhIGFeFaw6aRIEPIJO9JzMLUSZEejkPWdaky3pWSzFlC/WjziLQWEkqtadOdfDlsOPb6p0++2320ImIkFkXMG6whbHHgnSAqYk7hqdQwSyQaA5n7X3VfQdkydPtsg5Ap1IOtvKE5jA3kJgAtsb7xVG0dNGIO6PqZdnomLW8N5777VBCDaWDTfc0Ba/07+T270wE5Wi5GlrWZWnGgQkzKtBVedMjIB36C5w8V6yQh8fItFzvOcIdFbre/S8nt5LH0zwm2gQGVeIBJGbnCg5DxxSQWLL6dChgz1U/aWHTmK3jU4kApkkUCjWfc0NOc+ZbWMxJLY+8p8jzrF5sBW6bzufxnSB1Mmzy/Bv+kFsK/SJCHIWwWPR2W677Wz20Bd2eqCi1kGVTN44KnSuCEiY56o581sZj0Dzm22u2aTjuuuus5zf+A979epleW3ZZIJXPXyI/gDi4YgoZwHTqFGjbCErA4fu3btbXnJys/suf1nfMCq/d5xqJgL1J+D5zxHobEA2ZcqUwI7JY8aMsXzerEvBDrftttva3gf0J/USsoWDCu+H42AFs5302wwwCLLQd/sMAOWPM1F531iv+tS/9VWCRiUgYd6oLZ/BesceRRZFvfrqqzYNyg/R5s022yz07NnTpniJRHuHnrT4Lfag8PdIf8YDk4cPESH+T1QL6wpRIUQ5r3pG9TPY9CqyCDQsARe2DgBxS/5zz+pExHn11Ve3mUMG/kTP6xmc8HIyqPC+lw2VCKYgyN944w1LB8uGSuxoTEpct61oE7WGvc1V8YiAhLluh8wRcIGOJ5EOHw8m4pydM9daay3r8DfZZBPr/KvtvfSHJtdxPyhe8tdff92uT7YVBgxMN2O90YMnc7ebCiwCdScQR6MRvETQscmxaJJF8SyQ54XQxeKyzjrrmCUkftXCKhdviEQZifA/+uijJsrZq4H3WNiJZWX99de39UGFdj5FyOt+u6kAdSYgYV7nBtDlyyMQLyZicSU5b9niGu85GxEhzEmtSCSpcHvrUq/YXITco1LYVvBM8vAhikVEiwcP08ssTiVKXu0BQql10vEiIALZJBD3fQQnyPZEekV+sIdgm3PxSwYX1t64xSWePaxEABd+Ng5QIL6//vprW6yKh5w+mag+M5kMGjbeeOPQqVMn65fjutRi4JDNFlepG42AhHmjtXjG61vYkfsDgUgN0RlSEbK99WeffWaiHP8iUfTFF1/cfN28Sn0AxA+heFqZayLCiVoxKPBUXyxiIrMA2Vf8muVcN+NNpeKLgAhUiUBhP8gmZVj7mK1DDCOM8W8TnCB6Tl+EEGZBZbxXQrn9kveJsb2Q/pBy+EZJWPmwrbApEDOHZKGiT/aAhvfDxbzpVcKm04pAJghImGeimVTIQgLNRXt4OLBJxejRoy0bCvnByYJC/l9SE7qdpByPty/u5DfecbIjkMLx+uuvt4EAUfp99tnHUn55CjMvd6mDAbW4CIiACBQjUCxa7WKX/m/8+PHhxhtvtN+82POBQAG7h/rC8yQsdd4fEoX/6aefzMr33HPPhVtuucUyyOB1Z0H+rrvuatcu3BBOrSsCIlCcgIS57ozME4ijNjxwmN79+OOPLXJ066232r+ZRkWgEz1yXyPHzmxhaByV8n9PmzbN0n3h6SQ6z4NoscUWM9sK0Sl85e3btzem5Yj/zDeGKiACIlBzAp69xUUyfRQzeGPHjrUdhtmMiLUu9FO+MRvvuchvbeCgcMaQfOTYVMg8RZCCoAhWFrzuzBwiyOlv/VpJL8SvOWhdUARqQEDCvAaQdYnaEODh5A8YHg7sGor3m+ldNuggWk7knOwFpBmLbSbFHhixTYa/c078nGQW4IcoEdEoMq4wbUxechfjrX3Q1YaMriICIpB3AnEWFPoubCVszIZAJ0BBMIFZQ6LY/KywwgpNUezWBBE8Qu4cOT+L3EndSGpY/s9OnW4fJGCBIFefmPc7T/VLmoCEedJEdb66EogjOhSECDeZW4joML07adIkS8/Fw4PoEVaXwgdHofeR8+DZ5OHDOXjAkWWFc7DIkyg5+XdjMS5hXtfbQBcXgYYmEAcVvvvuO+v3sJew/gYLHp5zxDnpFfGAY73zjCqFC0QBGYt+8qmz4RGCnGxYn376qXnHOReRchZ2sp9EbJdRf9jQt6MqXyIBCfMSgenwdBOI7SdeUh4qZE5BUDPdSpYAXnjCEec8VOKNLXiIePQdYc9UMA80hDlReDKt8Lm1117b8u/6DnWxoNeDKN33iUonAnkmUGjDY7YPewsbsj300EMWRacvw2pCphR+Cv3nhUEO+kQWdtIP8kMudTJgYZFBkDMLiW0lfqkfzPNdprpVi4CEebXI6rypIRA/pN566y17MI0bN85sKUy94g1nE6CFF164yXPOg4zFTDzAyLhCjnQeOjzAunbtaj5N901SUT2AUtPcKogIiEBEwCPhvEVfyAZo5BanHySTC0EJZv5IsUgGK/pBz9zi/RoRctbTsKCULFT0j+uuu66Jcj7rKWG5Rj13H1XDi0AeCEiY56EVVYeZEiiMohM9J8cuu3MyvUueX2wp5NclBzARcCJDPITY/pqUiGyGwdbXHOOLO/UA0o0nAiKQBQJxnnHENjOBbFDE4lDsKAQsiHhjR0Gg40XH5sfCTvpC9mjgh+xTBCVY2EkKxI4dO5pPvfD8WWCiMopAWglImKe1ZVSuqhBwiwoPJ6Z2Se1FakWiSER/EOg8kG644QaLKBE92mOPPexBxMMqThGmKHlVmkgnFQERqCKBOG84fnH859dcc42JdBZwrrfeetYPsjj06aefDtdee60toseXvuOOO9oP63Q8Ah8vHG0ujW0Vq6NTi0DuCEiY565JVaHWEmA6ll1DiRaRi3zChAmBBxUWFfKUb7755paDd9VVV7WMK3EWl9ZeQ8eJgAiIQL0JNCeYeZ/oOX7zl156yWx7jzzyiP2fPOT0j/R922yzjVn+EOsELlgsyksCtKR/AAAgAElEQVTBiXq3rK6fRwIS5nlsVdWpVQQ8+s2DCbvKTTfdZNEh0iDuvffellaRKDlCHduKcvC2CqsOEgERyCABLH7snsziePpBouX4x/v06WM2F3zkpJyVIM9g46rImSIgYZ6p5lJhkybg3khENw+k8847z9J/nX322ZatJd7BU9GhpOnrfCIgAmkh4DY/cp+PGjXK7C29e/cOPXv2tOh5HJhQX5iWVlM58khAwjyPrao6tZpAvGiJrAPDhg2znUIHDhxo07YsBFWkvNU4daAIiEBGCWDt87U3LIy/8sorw8EHHxx22223pn0aJMgz2rgqdqYISJhnqrlU2KQJxMKcTYhcmA8YMCCstNJK5iuXME+aus4nAiKQNgKeVhFbH8KcqPlBBx0Udt9996YNgyTM09ZqKk8eCUiY57FVVadWE4itLAhzrCweMV9xxRUlzFtNUgeKgAhkmYALc/ZvwGOOMO/Xr58Jc9/ZWMI8yy2ssmeFgIR5VlpK5awKAQnzqmDVSUVABDJGwD3mLAAlhWwcMZcwz1hjqriZJiBhnunmU+ErJSBhXilBfV4ERCAPBFyYxxFzt7JImOehhVWHrBCQMM9KS6mcVSEQC3O2mh46dKisLFUhrZOKgAikmYBbWYiYu5VFwjzNLaay5ZWAhHleW1b1ahWB5oT5oEGDLCsLiz/jne1adVIdJAIiIAIZIxALc1/82bdvX3nMM9aOKm72CUiYZ78NVYMKCLQkzD1dohY9VQBZHxUBEUg9gdjKImGe+uZSAXNMQMI8x42rqrVMoNBjHqdLJCuLhHnLDHWECIhA9gkUeszZYEgR8+y3q2qQPQIS5tlrM5U4QQItLf6UME8Qtk4lAiKQWgIS5qltGhWswQhImDdYg6u6MxKQMNcdIQIiIAIhFMvKQh7zbt26KY+5bhARqCEBCfMawtal0kdAwjx9baISiYAI1J6A8pjXnrmuKALFCEiY675oaAIS5g3d/Kq8CIjA/xGQMNetIALpICBhno52UCnqREDCvE7gdVkREIFUEZAwT1VzqDANTEDCvIEbX1UPQcJcd4EIiIAI/H+PORsMjR49OowaNSpogyHdGSJQewIS5rVnriumiICEeYoaQ0URARGoGwFFzOuGXhcWgRkISJjrhmhoAhLmDd38qrwIiMD/EZAw160gAukgIGGejnZQKepEQMK8TuB1WREQgVQRkDBPVXOoMA1MQMK8gRtfVZfHXPeACIiACEBAwlz3gQikg4CEeTraQaWoEwFFzOsEXpcVARFIFQEJ81Q1hwrTwAQkzBu48VX16kTM/QHXpk2bmSJmUMCrpePUTiIgAtkj0NL3m7/z3W/puFrVXMK8VqR1HRGYOQEJc90hDU2gGhHzWJgXPnT9YQz0tDyQG/oGUOVFoMoE4u98sUs19/eWPpd0sSXMkyaq84lAeQQkzMvjpk/lhEDSwnz69Onh66+/DrPMMkuYc845Q7t27Swq5lFxF+Mc9+OPP4Zff/01zD777GGOOeawz+glAiKQbQJ8x6dNmxZ++OEH+97TD8w666xNfUA8Q4YY/v77760faN++vfUDcV9Ry9k0CfNs33cqfX4ISJjnpy1VkzIIJC3Mv/322/DAAw+Eb775Jiy77LJh1VVXDfPPP7+VjIcsgpwH4KRJk8KLL74Yfvnll7DyyiuHNddcM7Rt2/Z3NSj2YHZx7wfX8uFdBmJ9RAQaigDfbzbpeeSRR8J3330XVlpppbDiiiuGeeed1zgwAOc7jBh/8803wwsvvGB9w+qrr279RRwpb+m7neSsm4R5Q92mqmyKCUiYp7hxVLTqE0hamH/22WdhyJAh4Z577gkrrLCC7Zy30UYbWeScFw+/r776Klx66aXhpptuCgsvvHDYb7/9wl/+8pcw22yztSjM+Xz8iqPx1aelK4iACLREgO/o+++/b/3AQw89FNZZZ51w4IEHhnXXXdcG3whzjvn000/DsGHDwh133GHCvXfv3mHLLbcsGllvaYCehFddwrylltXfRaA2BCTMa8NZV0kpgaSF+c8//xyeffbZcOSRR1o07LDDDgv77ruvCXAX0RMmTAj/+te/LGK+9957h8MPPzwsuuiiTdE0F/CUjQd5PLVdbGEpx8kGk9IbTMVqSALY1B5++OFwzDHHhA8//DCcfPLJYa+99rKouVtd7rvvvnDSSSeFjz/+OPztb3+zH/7u/YTPsMX9gEfIi/nPmY2jHyh3sC5h3pC3qiqdQgIS5ilsFBWpdgSSFuY83PCYX3LJJfaz0EIL2QN3l112MZ8pD+xjjz3WomTrrbeeRdQ33XRTE+D4Uommc4655prLftyb6uLcvatcY+rUqaFDhw72Q7TdH8q1o6criYAIFBKgT0EkExEfPnx4uPLKK82mQj+w1VZb2eGff/65ifK77rorbLPNNqFv377WH/A9x97G95sXfQC+89ijzvv0A3jTOQ5LzHzzzWei3vuBclpFwrwcavqMCCRPQMI8eaY6Y4YIJC3MqToPytdeey2ceeaZgeg409M8lJdaaimb2j7ttNPswd2vX7+w6667mih/7rnn7CH9ySef2OcXXHDBsP7664fNNtssLLnkkk3Cfdy4cRaJe/fdd+3hjCjHo77zzjvbcW6HacmbmqEmUlFFIFMEvE9h9gz/ON/3V199Ney0004mwFlzMmbMmHDBBRfY95UZs2233dYEObNt9957rwl3+ghm2v74xz+GP/3pT2HxxRc34Y4gpx+gb/nggw9sIE8AYLXVVgs77rhj6NixY5N1rhRwEual0NKxIlA9AhLm1WOrM2eAQDWEOQ84Hsp33nlnGDp0qC0A69mzp4lsxPrzzz8f/vrXv4b9998/dOrUyRaJXX755eGJJ56w/yPUv/zySxPdPLD32GMPe9g+/vjj4cILLwyvvPJKmHvuucM888xjETOi8ETdsMzga4/tLxloAhVRBHJHwKPmiOibb745nH/++SaWWU+y9tprm7Xl7bffNntLr1697Lt+//33Wz+ABc5F+OTJk8Miiyxi/cXuu+9uA/Z///vfdtw777xjfQARdRabM4PGAJ1zsvC81MG5hHnubkNVKKMEJMwz2nAqdjIEqiXMPTMDi7tY5MnDlcVfV199tT2Y//GPf5iFhUjayJEjLZPLJptsYpEx0ifyPlExztO/f38T6AMGDAg33HCDRca22247i6a98cYb4ZZbbrFo2+mnnx622GIL+3ypD+VkaOosIiACToDvLlFvZsHOPvtsWxC+zDLL2Pf3uuuuCxtssEE4+uijrV9gUM6ge+LEibYQnAWj2FeeeeYZm2VbYIEFwqGHHmqzb0cddZTNrtFX8H/SMb788st2To6jH+BvxbI8zax1JMx174pAOghImKejHVSKOhGohjCnKjzkODfTzTxwmZ72ByUP4912282E9ejRo8O5555rkS+E92KLLWbHESkjcwuimynwE0880bzpLBjbfvvtLYqONYbIPA9urDPdu3e3Bzr5kPUSARGoPwHPojR27Ngm4Y19hRkvFogT4ebfDM7xo7MIfNCgQWZ3oR/AqjJixIgwfvz40K1bN4u0E3VHyO+55562dgUbC5F5ZujoN5idW2ONNSTM69/8KoEIlEVAwrwsbPpQXghUU5jDCJvJ9ddfb5YWsjMQFT/11FMtPRoWFx66CHemrsnQ4oKecmFxIWrOZy666KJw7bXXhlGjRtm0NbmR11prLftNFI4p7iWWWMIWiylDS17uTtUj6wS8f2F/gyuuuMIsLV988YVZUxDmyy+/vIlpxPhVV11l/2eAzfoRZr34/eCDD4annnoq/PnPf7bBOgP4G2+80WbJVlllFdsDgf5k6aWXbuoHiKKXOmumiHnW7zaVPy8EJMzz0pKqR1kEqiXMKQyLOHk4Et0677zzTGhjYeHBi5Am1zEParK3cBzvxRuG8FDm/yz+IprG+S6++GLL6IK/FE8p0Td86Sz6IoqOt7TUKeyywOlDIiACrSLgUXM85OQ2Z40IdpOtt97asqkw2zV48GAbePN9JlqOBcbTHtIP4E/ffPPNrR/46KOPTKAThSeizt+ZJWMGjag6C8r5t4R5q5pHB4lA6ghImKeuSVSgWhKotjAnev3kk0/aRiLYWrCx8ODEC8pmRLzv6dQOOOAAE9+et5jfPNTxp2+88cZNi0LxrLJAjAc8WRyefvpp+xy50YnEYZHRSwREIB0EPBKNMGfmjO/tOeecE7p06WIpDsmwRBScTC1sRsYiT4Q5L984iN8sAGddiqdVfe+992yNCetR6APwpzO4P+uss2wNCva4Ul6KmJdCS8eKQPUISJhXj63OnAECtRDmTEMjwPGJsuEIvlCiYthciICTNo2tuPntO4Ty8MU77jsHIub5O+VlSpsUiVhaeDCzIJQFpiwOIzMLUXO9REAE0kHABS+2NGbOWKjJYlAX5thciJhfdtlltiAU8c6sF9/1H374wdaVMAD/wx/+EHr06GHRdiLr9APY2OgHEPtE0Rn8sxaFzCzY40p5SZiXQkvHikD1CEiYV4+tzpwBAtUU5j4d7RFzIlr4ShHZCHOufffdd9vDmig4EXNsKzx0X3rpJYug4UvHe84UNbnQX3/9dVv86Yu+mAbHm8rCr+OOO84eyFhb9BIBEUgHgViYI7oR5kS1u3btags/eZFSkcE7G4yRhYnMTUTJycrC3xjE9+7d2/oBfrDB8XuHHXawyDgpWFmHQuScmTP+xqLQUl4S5qXQ0rEiUD0CEubVY6szZ4BALYQ5EXMWeeIx/+c//2l2E/IW8+BFeN96663hmmuuscWg7P5H1ByrCjnKN9xww9CnTx9b5EXuYtItEk0n5RoPXrbzJlqGV5VoPLnS/WGfAfwqogjknoALXhZxsqaE7yv7GeAZZ5Em0fFJkybZzBcpD+kXWNCJDY6BN6K8c+fO4cADDwzLLbdcGDhwoB1LWlT6Aeww2FoYzLN4lHSKDPD5eykvCfNSaOlYEageAQnz6rHVmTNAoFrC3P3hPGTfeusti2gTKWPhJ2Kb7Cm+uIuHKtFxchMzrc0DkoctIp2IGFPY5DTGk050nAc8/+Y4NhfxxZ/kNMaPzqvUhV8ZaCoVUQQyScAF74svvhhuu+02E9EMtldffXVbtOnfVWxpWNJIrYoYpw9hLQr9BbnN6Q94j42JWCjKDBwZXXiP/oQFn/jT8aHjNS/1JWFeKjEdLwLVISBhXh2uOmtGCFRTmHuGFbKnkCINvyh5ipl6jlMasnCTaDkZFjiO/2N1If0hUXFEOQ9vHpxE0ZnGxvpCujQi5eQ+R5wj0pWRJSM3noqZawJ8911wez+A2J4yZYplU2IhJ9Hywn6AgTnCnX6Az/H951i+51jceNE/sDMw/QADdP7P3+kDOBaxH583LsvMoEuY5/qWVOUyREDCPEONpaImT6BawrywpB5B54EZR7M9bznH+zGelaXwWD8n3nV+OI5jEOMS5MnfGzqjCCRJwPsa/94Wm9Xib3y3vV/w73bhsRyHIPfsLUn0AxLmSba2ziUC5ROQMC+fnT6ZAwK1EuY5QKUqiIAI5JiAhHmOG1dVyxQBCfNMNZcKmzQBCfOkiep8IiACWSQgYZ7FVlOZ80hAwjyPrao6tZpAWoR5a32gra6YDhQBERCBEghImJcAS4eKQBUJSJhXEa5OnX4CaRHm6SelEoqACOSZgIR5nltXdcsSAQnzLLWWypo4AQnzxJHqhCIgAhkkIGGewUZTkXNJQMI8l82qSrWWgIR5a0npOBEQgTwTkDDPc+uqblkiIGGepdZSWRMnIGGeOFKdUAREIIMEJMwz2Ggqci4JSJjnsllVqdYSkDBvLSkdlxSB/7Aza3Qy/s8rfi+pa2XpPOJQ39aSMK8vf11dBJyAhLnuhYYmIGHe0M1f88ojPl2YI8RdjMbv1bxQKbigc8naACVPgykJ8xR8EVQEESBI8x/fL1g4RKABCUiYN2Cj17HKv0XCfJb/+zfv8eL/eRJ6pWB2LlkT5rSZvXyElbUKRI0kYV7KHatjRaB6BCTMq8dWZ84AAQnzDDRSjopYTL/lQNNV3EIxg2Jat7kL1HsgU+/rVwxewjxJhDqXCCRCQMI8EYw6SVYJSJhnteWyW+5iHvM8CbxyWybmElt8ZnY+uIlducRn/Jwi5slw1FlEoFICEuaVEtTnM01AwjzTzafC55hAsSh6YXUlypO7ASTMk2OpM4lAJQQkzCuhp89mnoCEeeabUBXIMYGZiXOJ8mQbXsI8WZ46mwiUS0DCvFxy+lwuCEiY56IZVQkREIEKCUiYVwhQHxeBhAhImCcEUqfJJgEJ82y2m0otAiKQLAEJ82R56mwiUC4BCfNyyelzuSAgYZ6LZlQlREAEKiQgYV4hQH1cBBIiIGGeEEidJpsEJMyz2W4qtQiIQLIEJMyT5amziUC5BCTMyyWnz+WCgIR5LppRlRABEaiQgIR5hQD1cRFIiICEeUIgdZpsEpAwz2a7qdQiIALJEpAwT5anziYC5RKQMC+XnD6XCwIS5rloRlVCBESgQgIS5hUC1MdFICECEuYJgdRpsklAwjyb7aZSi4AIJEtAwjxZnjqbCJRLQMK8XHL6XC4ISJjnohlVCREQgQoJ1FqY0/e2aaNtoipsNn08hwQkzHPYqKpS6wlImLeelY4UARHIL4F6CHNoSpzn955SzcojIGFeHjd9KicEJMxz0pCqhgiIQEUEJMwrwqcPi0BiBCTME0OpE2WRgIR5FltNZRYBEUiagIR50kR1PhEoj4CEeXnc9KmcEJiZMF9hhRXCrLPOGmaZZRarLVOuHK+XCCRJYGZT+brfkiStc82MAMKcvm7y5Mnh2muvDaNGjQoHHXRQ2H333cMcc8xh/V+SthO/t5M8p1pYBPJAQMI8D62oOpRNoDlhPmDAgLD88subMI8fSBJKZaPWB4sQaEmU6H7TbVNrAlOmTAnXX3+9CfO+ffuaMJ9zzjkTF+a1rpeuJwJZISBhnpWWUjmrQqCYMP/ss8/CwIEDw1JLLRXatWunKHlVyOukrSHgwl0CvTW0dEwSBL755ptw0003hSuuuMIi5t26datKxDyJsuocIpBHAhLmeWxV1anVBAqF+ZAhQ8JLL70UDjzwwNCxY0eb2lVar1bj1IElEigmuKdPnx74YVDoNqoST6vDRWAGAq0d2LVt2zb88MMP4YEHHggTJ04M/fv3D927d5cw1/0kAjUkIGFeQ9i6VPoIxML8+eefD+edd1648847wzLLLGPTt7xiYd7aB1z6aqoSZYUAXl/3+yKU/B7MSvlVzuwSYCD466+/ms98ttlmC0cccUTYddddQ/v27WVlyW6zquQZIyBhnrEGU3GTJ+DC+8MPPwzjxo0Ljz/+uEUsXbRzxZa8wMmXSmdsFAK+qJjf33//fXj55ZcDdqq11147dOrUSfdeo9wIKakn9yECffHFFw9bb7213YfM3qgfTEkDqRi5JyBhnvsmVgVbS4Ao5dSpU8O0adOKWggkzltLUseVQgARxL1HdPy9994LI0eODI8++mg48sgjQ5cuXWRnKQWmjq2IgFv3fGaQqLkvgK/oxPqwCIhAqwlImLcalQ4UAREQgeoSQJiPGDEijB8/Ppx44omhc+fOTdHK6l5ZZxcBERABEUgDAQnzNLSCyiACItDQBDxCiTAfPny4Lbw7/vjjQ9euXSXMG/rOUOVFQAQajYCEeaO1uOorAiKQOgK+zuHdd981YT5hwoRwwgknSJinrqWyW6DWLFwvtOspI1V221slzy4BCfPstp1KLgIikBMCEuY5aUhVQwREQAQqJCBhXiFAfVwEREAEKiXg0Uwi5njMFTGvlKg+LwIiIALZJCBhns12U6lFQARyREDCPEeNqaqIgAiIQAUEJMwrgKePioAIiEASBCTMk6Coc4iACIhA9glImGe/DVUDERCBjBOQMM94A6r4IiACIpAQAQnzhEDqNCIgAiJQLoFiwpw85mww5LsulntufU4EREAERCA7BCTMs9NWKqkIiEBOCUiY57RhVS0REAERKJGAhHmJwHS4CIiACCRNQMI8aaI6nwiIgAhkk4CEeTbbTaUWARHIEQEJ8xw1pqoiAiIgAhUQkDCvAJ4+KgIiIAJJEJAwT4KiziECIiAC2ScgYZ79NlQNREAEMk5AwjzjDajii4AIiEBCBCTMEwKp04iACIhAuQQkzMslp8+JgAiIQL4ISJjnqz1VGxEQgQwSkDDPYKOpyCIgAiJQBQIS5lWAqlOKgAiIQCkEJMxLoaVjRUAERCC/BCTM89u2qpkIiMBMCCCG27RpkwpGEuapaAYVQgREQATqTkDCvO5NoAKIgAjUg4CL4TSIcwnzetwBuqYIiIAIpI+AhHn62kQlEgERqAEBCfMaQNYlREAEREAESiIgYV4SLh0sAiKQFwIS5nlpSdVDBERABPJDQMI8P22pmoiACJRAQB7zEmDpUBEQAREQgZoQaPPbb7/9J76S+y3TFE2qCQldRAREQATqREAe8zqB12VFQAREIGUE2kyfPr1JmCPKJcxT1kIqjgiIQO4JSJjnvolVQREQARFoFYE206ZNM2GOIJ9lllkkzFuFTQeJgAiIQHIEJMyTY6kziYAIiECWCbT55ZdfmoR527ZtJcyz3JoquwiIQCYJSJhnstlUaBEQARFInECbX3/9tUmYF1pZ0pDfN/Ea64QiIAIikDICEuYpaxAVRwREQATqREBZWeoEXpcVAREQAScgYa57QQREQAREAAIS5roPREAERKDOBCTM69wAurwIiIAIpISAhHlKGkLFEAERaFwCEuaN2/aquQiIgAjEBCTMdT+IgAiIQJ0JSJjXuQF0eREQARFICQEJ85Q0hIohAiLQuAQkzBu37VVzERABEVDEXPeACIiACKSIgIR5ihpDRREBERCBOhJQxLyO8HVpERABEYCAhLnuAxEQAREQAQhImOs+EAEREIE6E5Awr3MD6PIiIAIikBICEuYpaQgVQwREoHEJSJg3btur5iIgAiIQE5Aw1/0gAiIgAnUmIGFe5wbQ5UVABEQgJQQkzFPSECqGCIhA4xKQMG/ctlfNRUAEREARc90DIiACIpAiAhLmKWoMFUUEREAE6khAEfM6wtelRUAERAACEua6D0RABERABCAgYa77QAREQATqTEDCvM4NoMuLgAiIQEoISJinpCFUDBEQgcYlIGHeuG2vmouACIhATEDCXPeDCIiACNSZgIR5nRtAlxcBERCBlBCQME9JQ6gYIiACjUtAwrxx2141FwEREAFFzHUPiIAIiECKCEiYp6gxVBQREAERqCMBRczrCF+XFgEREAEISJjrPhABERABEYCAhLnuAxEQARGoMwEJ8zo3gC4vAiIgAikhIGGekoZQMURABBqXgIR547a9ai4CIiACMQEJc90PIiACIlBnAhLmdW4AXV4EREAEUkJAwjwlDaFiiIAINC4BCfPGbXvVXAREQAQUMdc9IAIiIAIpIiBhnqLGUFFEQAREoI4EFDGvI3xdWgREQAQgUCjMJ06cGE444YTQpUuXMOuss4Y2bdoIlAiIgAiIQAMQkDBvgEZWFUVABNJDwEU4JXLBXSjMH3nkkXD88cebMG/Xrl2TcJ9hulNiPT2NqpKIgAiIQEIEJMwTAqnTiIAIiEBLBGJRHh/L+4j09957L4wYMSJMmDChKWIuYd4SVf1dBERABPJDQMI8P22pmoiACKScgAvzn3/+Ofzyyy+hQ4cOFg3/7bffwiyzzPI7Yd65c2eLmPvLPzfPPPPY8XqJgAiIgAjki4CEeb7aU7URARFIMQEX5kTG33rrrbDIIouEjh07BoQ2Apz3L7zwwqaI+RZbbGHv//TTT+Hzzz8PH330kXnO11133TDbbLOluKYqmgiIgAiIQDkEJMzLoabPiIAIiEAZBFyYP/nkk+GKK64Ib7zxRth9993DRhttFDp16hQmT54cLr74YhPmeMw33njj8N1334WXX3453HHHHeHDDz8MW2+9dejVq1eYY445yiiBPiICIiACIpBmAhLmaW4dlU0ERCBXBLCs8JoyZUoYM2ZMOOWUU8Lss88e1lhjjbDllluGZZZZJtx7773hiSeeCIccckiYa665wn333RceffTR8Omnn4bNN988/P3vfw9rrbVWaNu2ba7YqDIiIAIiIAIhSJjrLhABERCBGhFwP/n06dPDs88+G04++eTw0EMPmV98oYUWMlsLEXKE+4orrmi/P/vss/Dtt9+G5ZdfPvTp0ycccMABYe6555bHvEZtpsuIgAiIQC0JSJjXkrauJQIi0PAEEOf8ILrHjh0bjj32WLOwINbdN+7/ZrEn2VqIju+5554WRSdaznta/Nnwt5IAiIAI5JCAhHkOG1VVEgERSD+BadOm2WLP/v37m1WFqLiLdi894htRjsXl8MMPDz179jR7C8Jcmw6lv41VQhEQAREolYCEeanEdLwIiIAIJEAAEf7999+HSy65xHKXv/322xY1j1+I8vbt24edd9459OvXL2y44Yb2Z0XLE2gAnUIEREAEUkhAwjyFjaIiiYAI5JuAR8Z//fVXy8xCBpZx48aZUOfF3xHf/BAtx+6y4447hvnmm082lnzfGqqdCIhAgxOQMG/wG0DVFwERqB0BT5eIDYV/EyHHR37BBReEkSNHhkmTJllhfMMhhDnR8qOOOiqss8469je3sMjKUrt205VEQAREoFYEJMxrRVrXEQEREIECAohzouYvvfSSZWghVeLUqVObBPi8884bBg0aZNHyBRZYQPxEQAREQARyTkDCPOcNrOqJQCUEEI5xZLbw/5WcW5/9XwJEzVn4yY6fl19+uXnNYU6Gls6dO4dTTz01rLbaamZr0aJP3TUiIAIikG8CEub5bl/VTgQSJ1CYOSTxCzTYCbGtIM6feeaZMHjw4HD77bfb/xdZZOQTQaIAACAASURBVBGLou+www5hwQUXbKIiC0tyN4gGOsmx1JlEQASSISBhngxHnUUEckvAhbgEYfJNHLNlY6HLLrvMIufkON94443D2WefHZZeeumm/ObJl0BndAK6v3UviIAIpIGAhHkaWkFlEIGUEvAt5L14CMmvv/46/PTTTzOk9vNFjSmtRqqL5QtB+f3EE0+Eq666Krz11luhW7duoUePHmH22We38rtwFOvKmtNtQvj3yQkf85Q4r4ytPi0CIlA5AQnzyhnqDCKQOwIuVtxm8c0334TPP//cIrnvvvtu+PLLLwMb5MjWUlnTu5XCB0A//vijWVrYeKhLly5hscUWa3YjIYnI1rEvHMjAbZ555gmdOnUKSyyxhNmEsA0xACJvvF4iIAIiUE8CEub1pK9ri0BKCeBxRtAgvj/55JPwwAMPhNtuuy288MIL9n5h9FYisbKGdKYu1Pkdz1YUi5KLeeuYF876sIjW31t00UXD5ptvbikpV1llFRPsvsi2dWfXUSIgAiKQLAEJ82R56mwikHkCiBbflRJBfsstt4RXXnnFpv1XXXXVsMIKKwQEDTtS6pUMgXig01rBLUtLaex98MOgEzsWsxKvvfaa/e7QoUPYZpttTKAvueSSoV27ds3OVJR2VR0tAiIgAqURkDAvjZeOFoFcE3BRjnAZO3ZsuPrqq81PzkLErl27mmghqhhP+0sgJntLSJgny9PP5l5+/v/LL78EbENYs15++eVw5513WprKrbbaKuy55542APWdV6tTGp1VBERABIoTkDDXnSECImAEfHofIf7ggw+GoUOHmpWFKCLRRI8kcmxrxaPQikAaCfjaCH6TQx5fP4tusWrtvvvuYY899gjLLrtsGouuMomACOScgIR5zhtY1ROB1hDwqDfT/O+//34488wzTaz06tUr7LLLLrZQjmMQ79oSvjVEdUzaCfg9z/1M9Pzpp58OZ511lg1Gue/JiuMZcdJeF5VPBEQgPwQkzPPTlqqJCJRNwEUKFha2hR8wYEDYcMMNwyGHHGKecu3+WTZafTDlBHzAyaAT69Yll1xiO60efvjhYeWVV55hsXPKq6LiiYAI5ICAhHkOGlFVEIFKCbgwZzHckCFDwvPPPx9OOumksOmmm4Y555zTTi/7SqWU9fm0EYjTglI2UoIef/zx4Z133gn77LNP2Hvvva3I+M31EgEREIFaEJAwrwVlXUMEUk7APbcTJkwIxxxzjOV3PuOMM5p8thLlKW9AFa9sAnG2FgT4wIEDLRMRC55PP/10y22u+79svPqgCIhAiQQkzEsEpsNFIK8Epk6dGu6+++5w7LHHhu233z70798/dOzYcYbqSqDktfUbu15uZ0GY33TTTeHSSy+1TYfOPfdcS6WoiHlj3x+qvQjUkoCEeS1p61oikGICZGNhEyGm8vv06RP222+/sNBCCzWVWKI8xY2nolVEwGeMuMfHjRsXhg0bZrnM+c3OoNoRtCK8+rAIiEAJBCTMS4ClQ0UgzwR++OGHMGbMmHDiiSeGQw89NOy1115hgQUWsCpLlOe55VW3OBc/dq7BgwdbBqLhw4eHhRde2IR5vOOtiImACIhAtQhImFeLrM4rAhkjgDDHW4swJyNFLMwzVhUVVwRKJuDifOLEiWZhQZiPGDHCZo0UMS8Zpz4gAiJQJgEJ8zLB6WMikDcCLsxPOOEEE+Y9e/Zsipjnra6qjwjEBGIriwtzcvojzD1iLmIiIAIiUAsCEua1oKxriEAGCLiVBY+5hHkGGkxFTIyAhHliKHUiERCBCglImFcIUB8XgbwQiIX5EUccIStLXhpW9WiRgIR5i4h0gAiIQI0ISJjXCLQuIwJpJyArS9pbSOWrFoFYmD/yyCPmMcfKEi/+rNa1dV4REAERiAlImOt+EAERMAJxVpbDDjss9OjRw1LF6SUCeSfgwpx85bHHXMI87y2v+olA+ghImKevTVQiEagLAQnzumDXRVNAoFCYDxo0yCLmWvyZgsZREUSgwQhImDdYg6u6ItAcARfmnpVF6RJ1rzQKgViYk8fcrSwS5o1yB6ieIpAeAhLm6WkLlUQE6kpAwryu+HXxOhKQMK8jfF1aBERgBgIS5rohREAEjICEuW6ERiUgYd6oLa96i0D6CEiYp69NVCIRqAuBrArzJLdKj88Vb9Pepk2bGdrE/1bs/cL36tKYKb5oku2VVDUlzJMiqfOIgAhUSkDCvFKC+rwI5IRA1oS5C7xff/11hi3TmxPGcUo8jmlOIPr7sTCniYuJ8GJCnswexV5s8V6sbKUK+cJyc17e47qF9Sqsc0u3qp+bc/LyuhReMx6YFGMQs+McnK8Yl7SIdAnzlu4M/V0ERKBWBCTMa0Va1xGBlBPImjB3nIVCembCvFBgz0y4tiQa4+v6v+NrFwrWlgT4zK5XTAi7eI7r5AK9klut8FrFBiWlnD8W6f7v5gYvpZw3yWMlzJOkqXOJgAhUQkDCvBJ6+qwI5IhAmoV5LO48Ksx7RMt//vlnS23Xtm3bMNtss9kPx8zMfsJn+YxHchGKsVh0ocYxLpg5f3MRZM7Dsbz8OD4Xvz+z6LNHu1sTbeec06ZNCz/++KOdn/rOPvvsYdZZZ7U6cw4vM3w8Uu9/L3bLUnZ++DzHOVsX5c1F+p0zv72u8QDDy1J4nmLtU8+vkoR5Penr2iIgAjEBCXPdDyIgAkYg7cI8FnxTpkwJzz77bHjjjTfCJ598EqZOnWridLHFFgurrLJKWHPNNcNCCy1UVGxznq+//jqwwyOfXW655cJaa61lmym56IfHp59+atd4//33w3zzzRfWW2+9sNRSS4V27doZLxerP/30U3jnnXfCM888Y4J5tdVWCyuttJId89prr4XnnnvORGtzL86z4oorNpUhPnf8Gcr9+eefhxdeeCG88sorVi7OO/fcc1tdl1xyybDyyiuHFVZYoUmkv/TSS4Ef2Ky//vrGB+Edv77//vvw5ptv2nGLLLJI+NOf/hTefvttu8Y333xj9SwsvwvrhRdeOGy00UbG59VXX7Wf7777bobz+6CDY+D3X//1X4HPMYBJy0vCPC0toXKIgAhImOseEAERyIQwp5BEdd99991w3333hbFjx5owJyrsf5tjjjlMFP/lL38J22yzTVh00UVn8F4jwBDSCO6zzz7bBOnGG28c9tlnn7DJJps0iVCE55NPPhkuvvji8OCDD4Ylllgi9OzZM+y8885h3nnnnUHwf/zxx2HUqFHhpptusgHCHnvsEbp162bn4r1LLrnE/t2cECXiTVn3228/E+ixRSYeKCD+77333nDnnXeaiGYgNeecc1rEHPGL2EVU77DDDmHdddcN7du3D2PGjAlXXnmlMaKO2267bYBR/ILB6NGjw/3332+fP/TQQ8Ott94arr/++vDRRx/ZQKTQlsPnqQ+DoL///e8muDnHLbfcEiZPnmwDgdjvzr/nmmsuE+Wbb7552GqrrewzaXlJmKelJVQOERABCXPdAyIgAqkW5i6aKOSHH34YrrvuOhPCv/zyi4lwIsTzzDOPRXeJ2L7++usWGT7ooIPCjjvuaH9zkUjkl6jz1VdfHQYPHhy+/PLLsPzyy4c+ffqEgw8+2MSmi9CHH344DBgwINx1111hgQUWsHOx+RKRabdocL7nn38+HHXUUeHxxx+3yHLv3r3tfESmL7/88nDeeedZVH7ZZZc1UVxoy0FYb7DBBiaol156aWsLr7NHqxG7CF/KTfmXWWYZi7ATKWegQYSbumPr2XTTTcMhhxxikXvKNHToUIvm77LLLuHoo4+2z/iL8jLIOfXUU01QU+5evXqFCy+80MrOQIjrIPILXzCgvHvuuaedk3pec801JsBXX311++11pa0++OADG1TxGb+On7Ml/321v6IS5tUmrPOLgAi0loCEeWtJ6TgRyDmBNFtZEIiIzptvvtmi2FhZEJqISEQhghqRiThFtBNNRxwOHDjQBLF7t/2Yk046yawsiGLe22677QLvEXX2aDA7QCLMORcR4DXWWMP+j6XF/drYQIg0H3bYYVYmrrP//vubOOcziNvhw4eHvn37BnZS7dixY9G7iGMR7T4w8IOoN9FuouSchxmCzp07h7333juss846TX7wzz77LNxzzz0mjPn3X//6VysT573gggssao9Qp/xEuZ0HthME/7/+9S8bPDCLQP3OOecci7TD8JRTTjGLS6EH3zlRbvzuQ4YMsYEDEfG//e1vFh13fzu/seBQh8cee8xmCBD/1LfeojweCFFH7fyZ845O1ROBlBOQME95A6l4IlArAmkV5r4okajwGWecYUIZYYdg7NSp0wzRcATgE088YX/74osvTCzirSbiiwAkuoyQ/sc//hEWX3xxE+14wDt06BD++c9/mqj0RaTjx483gYqAxx+NQD7uuOPCbrvtZr5uRBz2EgTsoEGDLKoOQywvCHNE/xVXXGFiFHsIUWIsMYWvmQlT6oPgJ6J94403mhg/8sgjwx/+8Iem6LtHe/HL33DDDVZnrj1y5EiztNx+++22xTxlO/bYY020M7DAooIHnm3nEec77bSTXQcup512mpWdzyPmeS+24vg1/fe3335rMxBXXXWVDRywtzAAwHPPtfgs/OBJZJ01AAyyaJc0ZGhRxLxWvYyuIwIi0BIBCfOWCOnvItAgBNIozD2zCb+xliDs8HQTgUYA47H2KLPbJhDfWCawtiAOEd28EMBYYRCsRJbxdBNFJsJONBcPdv/+/U3wIiYR5kSQ33rrLYsmcwzeaOwsPiB46KGHTJAi7okucwyRfMrHOS677LJw/vnnW/QaYc7nYiuLl8tvMRfpsfDlnAwIWIxJpJwyUifEt0d7PVML0egTTzzR7DVEpP/85z+bhYSo+R133GFRe8Q59h4EMYMcrC4MehisYEthEHL66adbtJ+BALMOWIMKhXkcaUaYI/6JmG+99dZ2LixCcV2/+uqrcOaZZxrvLbbYwgY0vjC03l8xCfN6t4CuLwIi0PQc+E/hU0JsREAEGpJAGoU5DeFpDfGWDxs2zKKsCD9EJ+IXUUqGEoQf3Zn7v/k3ghJ7CpYO/o/X+uSTTzbhjsjHP805ifRuuOGG9h4ecqLJEydODGeddZZlZ2GB6FNPPWXvI1oRrLyINCNc+Qzi/d///rctPEWEUw7ELRFsMpcQufdBAp/1TCdkg+natatF7z3jC2X1VI0sPmUGANsJPnjEOcf5sX4uPvPyyy9b+YiSE/XeddddzeuNGCbyjR2HOiKa8X1fdNFFFjGHE3UlQo7gR0Bjf4E1Nh+EfDyI4FrUBX5//OMfA5YeZg24Du917969aXaAejB78eKLL5qfnXozCGLwUjgwqdcXT8K8XuR1XREQgUICipjrnhABETACaRXmCDlsEESA+SGbxzHHHGNCmiguqQ+Jvj799NNmnfBUfojxLl26mIDHikFUl4WcCFYi1whJsqBg2cBewecQwHwGqwrCnIg5C0TJxjJp0iR7D/80tg8i84haMq/gdaeM1157rWU+wcriwhzhzuBg/vnnb0pVGKcgpD5E1MmIwgyAv3xAQqQbCw9C/L//+7+tLAxI4rSHLiyxpnA9ynH88cdbBJxBA9lcEOwIaCL+W265pXnRfXEr1iA89gh0yka98fKzIBRWPisRe/Wx5bAglpkHPOZEzBngUBaEPwy9nrB/7733bDDAtY444oiw6qqrSpir7xEBERCBAgIS5rolREAEMifMyS6CMEecEo3FqoFoJl0h4hzRSQSdhZhEZsncwsJQosCIVmwnWGHwhRMJJ8KMR5tILhlNEPIsAiS6zHkQn4hMxCfRbzzjpBLEpsLnELJkQLn00kubhDlilog5Vhci0dhmEKuFUWIWr26//fY2SIiznzAgQeSy8BNRzfkYFBAF59+xMPdjsbsQ7SZtIWIePzwCmvcZRGBd4T3sMKSMpD6Ib/5PikcvH+fAhsN1sJ24Rz+22jDQIJsMnnIEv3vM4U/WGKLsDC4Q8whyeDGY4Xj4wUQRc3U+IiACIjAjAQlz3REiIAKpFua+KyULG7GdEDk+/PDDzcuM7YJINT5wLCdumyAyjm0CoY2tBKGIzQTBid0DUYkgRtyS7QVxirhEdCNoEe6PPvqoCXPSEyKI8asT2eZ6LJJE7CLEyT7CAk/81fjXPWKOqPXFnwhfxD1ZWXx3Tr/t/P/xItA4RSQDBKLZDEAOPPDAcMABBxgD363UffiIc2YN8JizYJWIN4yoK4MLt7cg1Jkh4P/MNFAvZhGw4ni2GfeYI54ZdJCVxTOoxNF+ysB18fPjVYcBCzux28AFQU75mI2hTORH9wWy+OYlzNX5iIAIiICEue4BERCBIgTSaGWJvdYsxsR+QiaUfffd1wQqEV4Eo4t3fpNSEOFJpBlhjpjFx030mggxGwQRnfbFk6BAuLIAEisJghGfOH50RCminQgvXur/+Z//CSz4JEc6G/MQJceDTQQfmw0ReaLfWFk8Yu5ZWXjP0yXGmUhckBcKc081SKQf+wmRfaLl2EBc4Ht+djghjhl8MLDAWoJ/nDJTJxftWICw5JAekcELUXOsMZw/zpASC3PsLlhc4oWa8cCBf2MnQphjZcEKxMAJxl4H2oV1AJzr7rvvtpztzDakIVUi7S+PubpEERCBtBBQxDwtLaFyiECdCaRVmLu4Y8EmwpyoK4ITkYk9xBdBchwLJB944AHziiMEEfBYWRCt2F3I7IIfnOwkZB/xFztpEt1GdLNzJ+KXjYpcmBPxxpdN1N6FKhFsIsn8jWwtWEUQ5oj6WJjzPpF2ykK0GhFYTJDGOb19Tb6LXs8RjkDGaoP4R3D7eRC+RMupI3XAfkKU3Tcsop7w4O8MUIiEM7DAstOvXz/zonv0GgHu6RLJaY5nndmFwrSGXg/eR5gXpktceeWVTZi7oKdtWGDKAlHsLET0PdNLvQW6hHmdOx9dXgREoImAhLluBhEQASOQRmHuTYPAw3LCQkgi0yxy3GyzzcwygX+chZ4IZUQpW8mTYhCxhyjHyoIthYgu7yE6+Wzsm8aTjujG6sJuolhSsMYgJPkb4psFn6QhJN85NhbEHDnByfKCXaQwYo4gRexjvyHSTWSdyH1hIiyOw+uO9YNMJ/53t4xgnSFaTrQfew6LJvGDk8mFjCvYRch4MmbMmEAGF8Q/dcSWg3h3AY0wJqLOjACsYEr2FOrGAMeP47pE3fGYcy5mByi3R5a9TTie85NNBgsMsxRYWSgXAxssMgwYfMBBPeALJxa6krJS6RLV+YiACIjAjAQkzHVHiIAIpF6Yu6WFhZa33XabCUBykhMRRhQjzLFvIKIRgGRBwXeO8CQajFjHZoEgxKbB5+IINYtGscogulmgSJTYd83kmohXxDVinWg8/mwWNyL6iYbzeSLjeM7dyoLoRNwiqBG4RLtj+4zfdohaPO1Yc0hnGC+wdDGMqGZjJMQsFhsEOdlS3GPPJkT8cA0i/j169DCRH+cehwszA0cddZT5vRHbWE6I7nM+f3F9BDR1YaaBAQMsCoU5x1EvZiAQ4Z4fHiuLC/M4Ys7n8ezDAzGPxSe2FNUzaq6IuTpBERCBtBCQME9LS6gcIlBnAmmOmLtw4jeWDCwpiEv80qQzRNQhlBGR2DQWXXRR2wGUf5NzfNy4cSZoN91006bc3uB2jzb/Jp0fgp8NeYiEY1Phc/jP8USz2yainagz6QexwhAFJ/rO+7x3zz33WKYSUjRybiLYRLKbs69wXYQ5UXoENfaPwpdH0Ilys5ERdWcBK4MEBDvim4g7n91kk00s5zqivZj1BPFOekfYwYh6cnzhC7sQ9eEanhe+8BjexwrDhkqUHwsR9WXxJ2kUKYPbkPyz+NrhgdDHTrT22ms3ZaKRMK9zB6DLi4AIpIKAhHkqmkGFEIH6E0i7MI8JER1HoCPMPRsLkXNsLeTQ5sXfWehJNJhIOvUjwks0vdgulkS92VXUveMIfRZ+8j4ik/MjkhkIcG6sMLzPNYhGk72F6DqRaEQvL4QwQn9mopO/Ed0m37inKywmzjmO61AmZgM4L4MGhD2RcsQxmVXijYfi81B2UhlSJmYbKDfCOt70yI+nHnCFs7MqtOBQHqwsMIAx5eIzDFh4Dz4+IPHPwoi0iZSDBayU2zPB1PMboIh5Penr2iIgAjEBCXPdDyIgAkYgzcLcm8h3y2wuk8kMnVubNom0bKEg9ZPG0fbmIuL1jAIXivJYfBaCqWU5i/Gs5fWL3RQS5ol8VXQSERCBBAhImCcAUacQgTwQyIIwh3Ms7IpFcWPBXI5Qd5EWC/By27dY+QoFc7HrtEao+iAl/vzMPuf1KnZM4XuFDFpb/0L7THMiuJx2aW0ZyjlOwrwcavqMCIhANQhImFeDqs4pAhkkkBVh3pyw5f3WCNokm2Zm3vEkr5Pnc6WBoYR5nu8w1U0EskVAwjxb7aXSikDVCGRRmBeK9FoL86o1hk5cUwIS5jXFrYuJgAjMhICEuW4PERABI5B1Ya5mFIFyCUiYl0tOnxMBEUiagIR50kR1PhHIKAEJ84w2nIpdMQEJ84oR6gQiIAIJEZAwTwikTiMCWScgYZ71FlT5yyUgYV4uOX1OBEQgaQIS5kkT1flEIKMEJMwz2nAqdsUEJMwrRqgTiIAIJERAwjwhkDqNCGSdgIR51ltQ5S+XgIR5ueT0OREQgaQJSJgnTVTnE4GMEpAwz2jDqdgVE5AwrxihTiACIpAQAQnzhEDqNCKQdQIS5llvQZW/XAIS5uWS0+dEQASSJiBhnjRRnU8EMkpAwjyjDadiV0xAwrxihDqBCIhAQgQkzBMCqdOIQNYJSJhnvQVV/nIJSJiXS06fEwERSJqAhHnSRHU+EcggAYTJjz/+GG699dZw/PHHh8MOOyzstddeYcEFF8xgbVRkESiNgAtzdo6dOHFiOPfcc8P06dPDiBEjwsILLxzatm1b2gl1tAiIgAiUSUDCvExw+pgI5IUAooTXTz/9FG677bZwwgknhH79+oVevXqFhRZaKC/VVD1EoFkCsTB/+OGHw9ChQ+3Y4cOH2+B0lllmCYh2vURABESg2gQkzKtNWOcXgZQTcGE+derUMHbsWBPmO++8s4nzjh07prz0Kp4IVE6A78Bvv/1mApzB6ciRI8MCCywQBg8eHOabbz57Xy8REAERqAUBCfNaUNY1RCDFBFyYI0zGjx8fjjvuuLDsssuGk046KSy33HKKFKa47VS0ZAi4MCcqPmzYsHDzzTeHDTbYIJx66qlhttlm03cgGcw6iwiIQCsISJi3ApIOEYE8E3BhTh1ffPHFcM4554R33nknnHXWWSZOECZ6iUCeCbiVBTvXMcccE5577rnQo0eP0Ldv38DfFDHPc+urbiKQLgIS5ulqD5VGBOpGAAEyZcoUm8q/4IILwnbbbRf69OkTOnXq1CRO5LOtW/PowhUQ4N5u7t5lpsiF+R133BGGDBli9zwLoNdbbz37m+77CuDroyIgAiURkDAvCZcOFoH8EkCATJs2Lbzxxhvh9NNPD++9917o3bt32GabbcIiiyxiUUMXKRIq+b0P8lgzxDevOPLt7/H+zz//bPf9GWecET799NPQvXv30LNnzzDvvPPmEYfqJAIikGICEuYpbhwVTQRqScCjht9//3248847LWo+//zzh1133TV07drVFoIWCnMX6LEdppZl1rVEoFwCfr+TJvSFF14I119/fXjwwQdtpghRvsoqq8jCUi5cfU4ERKBsAhLmZaPTB0UgXwRcXPP7q6++CldeeWW45pprLCvFTjvtFDp37myZKuaee+7Qvn17pZDLV/M3RG08Ss7MEIL8m2++sUj5LbfcEu6///6w2WabhYMPPjiss846TRF2zQ41xK2hSopAaghImKemKVQQEUgHARcv7AR63XXXhdGjR4cPP/wwLL/88mHTTTcNa621VlhiiSWaxDmlVsQ8HW2nUsycgN/bkydPDq+//np4/PHHw1NPPWUWri5dupgoJxMRGwrJtqW7SQREoB4EJMzrQV3XFIEUE4gj519++aVlahk3blx47LHHwrfffjtDpFxWlhQ3pIo2AwHu1Tg1KP8m49AyyywTttxyy7DJJpvYgHP22WdvOk7Rct1EIiACtSYgYV5r4rqeCGSEgOd2ZmHcF198ET744IMwadIkS6WI1YUoo14ikBUCsTCfa665LPMKs0AI80UXXTTMM888YdZZZ/2dmM9K/VROERCBfBCQMM9HO6oWIlAVAkz9I2j4QYh/9913FjVHrE+fPl2p5KpCXSdNmkA8s8O/27VrZ2slOnToEOacc05FyJMGrvOJgAiUTUDCvGx0+qAI5J+AT/3HwsazWfhvF+75p6EappFAa9Y3FApz6uH3rewqaWxVlUkEGpeAhHnjtr1qLgJlESCKHueAlrApC6M+VCMChYNLv6znNG/u/tXGQjVqIF1GBERgBgIS5rohREAEREAEREAEREAERCAFBCTMU9AIKoIIiIAIiIAIiIAIiIAISJjrHhABERABERABERABERCBFBCQME9BI6gIIiACIiACIiACIiACIiBhrntABERABERABERABERABFJAQMI8BY2gIoiACIiACIiACIiACIiAhLnuAREQAREQAREQAREQARFIAQEJ8xQ0googAiIgAiIgAiIgAiIgAhLmugdEQAREQAREQAREQAREIAUEJMxT0AgqggiIgAiIgAiIgAiIgAhImOseEAEREAEREAEREAEREIEUEJAwT0EjqAgiIAIiIAIiIAIiIAIiIGGue0AEREAEREAEREAEREAEUkBAwjwFjaAiiIAIiIAIiIAIiIAIiICEue4BERABERABERABERABEUgBAQnzFDSCiiACIiACIiACIiACIiACEua6B0RABERABERABERABEQgBQQkzFPQCCqCCIiACIiACIiACIiAPubXQQAAAFhJREFUCEiY6x4QAREQAREQAREQAREQgRQQkDBPQSOoCCIgAiIgAiIgAiIgAiIgYa57QAREQAREQAREQAREQARSQEDCPAWNoCKIgAiIgAiIgAiIgAiIwP8DaluJX15ikOIAAAAASUVORK5CYII=;" vertex="1" parent="WIyWlLk6GJQsqaUBKTNV-1">
          <mxGeometry x="290" y="190" width="742" height="1200" as="geometry" />
        </mxCell>
      </root>
    </mxGraphModel>
  </diagram>
</mxfile>
